<svg xmlns="http://www.w3.org/2000/svg" xmlns:xlink="http://www.w3.org/1999/xlink" viewBox="0 0 675.99 697"><defs><style>.cls-1{isolation:isolate;}.cls-2{fill:url(#radial-gradient);}.cls-16,.cls-3{opacity:0.5;}.cls-4{fill:#f2f2f2;}.cls-5{fill:#e6e6e6;}.cls-6{fill:#29abe2;}.cls-7{fill:#c0cb00;}.cls-8{opacity:0.7;}.cls-9{opacity:0.3;}.cls-10{fill:#c370e7;}.cls-11{fill:url(#linear-gradient);}.cls-12{fill:url(#linear-gradient-2);}.cls-13{fill:url(#linear-gradient-3);}.cls-14{fill:#fff;}.cls-15{fill:#666;}.cls-16{fill:#b3b3b3;mix-blend-mode:multiply;}.cls-17{fill:url(#linear-gradient-4);}.cls-18{fill:url(#linear-gradient-5);}.cls-19{fill:url(#linear-gradient-6);}.cls-20{fill:#999;}.cls-21{fill:url(#linear-gradient-7);}.cls-22{fill:url(#linear-gradient-8);}.cls-23{fill:#ffceae;}.cls-24{fill:#085460;}.cls-25{fill:#05353b;}.cls-26{fill:#22b573;}.cls-27{fill:#ebab37;}.cls-28{fill:#ffede3;}</style><radialGradient id="radial-gradient" cx="338" cy="338" r="338" gradientUnits="userSpaceOnUse"><stop offset="0" stop-color="#fff"/><stop offset="0.03" stop-color="#fff" stop-opacity="0.94"/><stop offset="0.14" stop-color="#fff" stop-opacity="0.72"/><stop offset="0.26" stop-color="#fff" stop-opacity="0.53"/><stop offset="0.37" stop-color="#fff" stop-opacity="0.37"/><stop offset="0.49" stop-color="#fff" stop-opacity="0.23"/><stop offset="0.61" stop-color="#fff" stop-opacity="0.13"/><stop offset="0.73" stop-color="#fff" stop-opacity="0.06"/><stop offset="0.86" stop-color="#fff" stop-opacity="0.01"/><stop offset="1" stop-color="#fff" stop-opacity="0"/></radialGradient><linearGradient id="linear-gradient" x1="358.29" y1="348.5" x2="358.29" y2="336.5" gradientUnits="userSpaceOnUse"><stop offset="0" stop-color="#666"/><stop offset="1"/></linearGradient><linearGradient id="linear-gradient-2" x1="438" y1="365" x2="438" y2="311.18" xlink:href="#linear-gradient"/><linearGradient id="linear-gradient-3" x1="307.29" y1="277" x2="410.29" y2="277" xlink:href="#linear-gradient"/><linearGradient id="linear-gradient-4" x1="268.79" y1="348.5" x2="268.79" y2="336.5" xlink:href="#linear-gradient"/><linearGradient id="linear-gradient-5" x1="426.79" y1="348.5" x2="426.79" y2="336.5" xlink:href="#linear-gradient"/><linearGradient id="linear-gradient-6" x1="460.79" y1="348.5" x2="460.79" y2="336.5" xlink:href="#linear-gradient"/><linearGradient id="linear-gradient-7" x1="358.45" y1="374.87" x2="361.36" y2="484.27" gradientUnits="userSpaceOnUse"><stop offset="0" stop-color="#4d4d4d"/><stop offset="1"/></linearGradient><linearGradient id="linear-gradient-8" x1="440.45" y1="379.82" x2="442.7" y2="464.43" gradientUnits="userSpaceOnUse"><stop offset="0" stop-color="#b3b3b3"/><stop offset="1"/></linearGradient></defs><title>15542-NQDOF8</title><g class="cls-1"><g id="objects"><g id="Design"><circle class="cls-2" cx="338" cy="338" r="338"/><g class="cls-3"><rect class="cls-4" x="487.31" y="188.51" width="70.61" height="71.29" transform="translate(204.12 737.24) rotate(-88.39)"/><rect class="cls-5" x="497.31" y="186.82" width="50.92" height="63.14" transform="translate(210.05 731.8) rotate(-88.39)"/></g><rect class="cls-4" x="592.28" y="172.27" width="60.33" height="60.91" transform="translate(-86.79 379.24) rotate(-33.96)"/><rect class="cls-6" x="604.78" y="173" width="43.5" height="53.95" transform="translate(-84.55 381.06) rotate(-33.96)"/><rect class="cls-4" x="513.8" y="96.74" width="71.29" height="71.97" transform="translate(-60.14 326.53) rotate(-33.96)"/><rect class="cls-7" x="528.57" y="97.6" width="51.41" height="63.75" transform="translate(-57.5 328.68) rotate(-33.96)"/><g class="cls-8"><rect class="cls-4" x="439" y="109.51" width="46.88" height="46.44" transform="translate(-96.79 90.69) rotate(-11.36)"/><rect class="cls-5" x="440.94" y="112.26" width="41.53" height="33.49" transform="translate(-96.07 90.49) rotate(-11.36)"/></g><g class="cls-8"><rect class="cls-4" x="150.97" y="325.6" width="48.89" height="49.36" transform="translate(-282.11 450.8) rotate(-78.72)"/><rect class="cls-5" x="158.57" y="324.5" width="35.26" height="43.72" transform="translate(-277.64 448.42) rotate(-78.72)"/></g><g class="cls-9"><rect class="cls-4" x="410" y="195.51" width="46.88" height="46.44" transform="translate(-114.3 86.66) rotate(-11.36)"/><rect class="cls-5" x="411.94" y="198.26" width="41.53" height="33.49" transform="translate(-113.59 86.46) rotate(-11.36)"/></g><g class="cls-9"><rect class="cls-4" x="241" y="207.51" width="46.88" height="46.44" transform="translate(-119.97 53.61) rotate(-11.36)"/><rect class="cls-5" x="242.94" y="210.26" width="41.53" height="33.49" transform="translate(-119.26 53.4) rotate(-11.36)"/></g><g class="cls-9"><rect class="cls-4" x="209" y="317.51" width="46.88" height="46.44" transform="translate(-142.27 49.46) rotate(-11.36)"/><rect class="cls-5" x="210.94" y="320.26" width="41.53" height="33.49" transform="translate(-141.56 49.25) rotate(-11.36)"/></g><g class="cls-9"><rect class="cls-4" x="478" y="272.51" width="46.88" height="46.44" transform="translate(-128.13 101.56) rotate(-11.36)"/><rect class="cls-5" x="479.94" y="275.26" width="41.53" height="33.49" transform="translate(-127.42 101.37) rotate(-11.36)"/></g><rect class="cls-4" x="147.23" y="179.54" width="115.63" height="114.53" transform="translate(-129.03 50.99) rotate(-13.41)"/><rect class="cls-10" x="151.66" y="186.4" width="102.41" height="82.59" transform="translate(-126.98 50.24) rotate(-13.41)"/><g class="cls-3"><rect class="cls-4" x="297.76" y="241.78" width="53.37" height="53.88" transform="translate(-80.17 533.89) rotate(-79.17)"/><rect class="cls-5" x="306.02" y="240.58" width="38.48" height="47.72" transform="translate(-75.29 531.22) rotate(-79.17)"/></g><g class="cls-8"><rect class="cls-4" x="256.47" y="120.65" width="72.38" height="73.07" transform="translate(4.3 412.69) rotate(-79.33)"/><rect class="cls-5" x="267.66" y="119.01" width="52.2" height="64.72" transform="translate(10.91 409.03) rotate(-79.33)"/></g><rect class="cls-11" x="333.29" y="312" width="50" height="43"/><path class="cls-12" d="M478,336.83a7.17,7.17,0,0,1-7.18,7.17H405.18a7.17,7.17,0,0,1-7.18-7.17V303.17a7.17,7.17,0,0,1,7.18-7.17h65.64a7.17,7.17,0,0,1,7.18,7.17v33.66Z" transform="translate(-79.71 -3)"/><rect class="cls-13" x="307.29" y="242" width="103" height="70"/><rect class="cls-14" x="313.29" y="248" width="91" height="57"/><polygon class="cls-4" points="404.29 305 313.16 305 404.29 247.73 404.29 305"/><rect class="cls-15" x="243.29" y="350" width="230" height="129"/><rect class="cls-14" x="243.29" y="387" width="230" height="44"/><rect class="cls-16" x="243.29" y="350" width="22" height="129"/><rect class="cls-16" x="451.29" y="350" width="22" height="129"/><rect class="cls-17" x="252.29" y="334" width="33" height="16"/><rect class="cls-18" x="412.29" y="338" width="29" height="12"/><rect class="cls-19" x="448.29" y="338" width="25" height="12"/><ellipse class="cls-20" cx="359.47" cy="413.24" rx="46.68" ry="46.61"/><ellipse class="cls-5" cx="359.47" cy="413.24" rx="43.51" ry="43.45"/><ellipse class="cls-21" cx="359.47" cy="413.24" rx="39.14" ry="39.08"/><path class="cls-22" d="M467.39,439a36.47,36.47,0,1,0-60.83-39.33A103.21,103.21,0,0,1,467.39,439Z" transform="translate(-79.71 -3)"/><path class="cls-23" d="M303.6,315H371c8.87,0,0,22-27.83,22H322.86s-19.27,12-19.27,26h35.32l46,46.44s-7,9.17-20.34,6.49-23.55-17.6-28.9-19.74-39.07-6.39-39.07-6.39,30,5.89,37.46,15,38,31,35.32,36.34-18.2,16-26.22,4.81-23-24-23-24l-27.83-.53S317,425.1,322.86,432s22.48,29.81,18.73,32.49S319.93,477,310,450H287v78H223.32L241,427.65s2.14-7.43,9.63-21.86S297.17,315,303.6,315Z" transform="translate(-79.71 -3)"/><rect class="cls-6" x="124.29" y="525" width="92" height="29"/><rect class="cls-24" x="132.29" y="554" width="75" height="143"/><rect class="cls-25" x="172.29" y="554" width="35" height="143"/><ellipse class="cls-14" cx="201.41" cy="538.6" rx="3.75" ry="3.74"/><ellipse class="cls-14" cx="410.94" cy="241.66" rx="1.29" ry="20.17"/><ellipse class="cls-14" cx="410.94" cy="241.66" rx="20.17" ry="1.3"/><ellipse class="cls-14" cx="490.64" cy="244.67" rx="20.17" ry="1.29" transform="translate(-109.03 415.53) rotate(-44.99)"/><ellipse class="cls-14" cx="490.65" cy="244.67" rx="1.29" ry="20.17" transform="translate(-108.98 415.67) rotate(-45.01)"/><rect class="cls-4" x="547.48" y="273.56" width="92" height="92.88" transform="translate(-76.37 643.1) rotate(-57.26)"/><rect class="cls-26" x="564.37" y="272.54" width="66.35" height="82.27" transform="matrix(0.54, -0.84, 0.84, 0.54, -69.18, 643.63)"/><rect class="cls-4" x="343.58" y="96.69" width="105.84" height="104.83" transform="translate(-106.63 158.69) rotate(-22.31)"/><rect class="cls-27" x="346.38" y="103.38" width="93.74" height="75.6" transform="translate(-103.86 156.87) rotate(-22.31)"/><path class="cls-28" d="M362.15,444.83c-2.91,2.65-6.78,3.14-8.64,1.1l-6.73-7.4c-1.86-2-1-5.85,1.91-8.5h0c2.91-2.65,6.78-3.14,8.64-1.1l6.73,7.4c1.86,2,1,5.85-1.91,8.5h0Z" transform="translate(-79.71 -3)"/><path class="cls-28" d="M352.73,315a9.88,9.88,0,0,0-.3,2.34c0,3.94,2.17,7.15,4.94,7.18l10,0.09c2.76,0,5-3.15,5.06-7.09a9.8,9.8,0,0,0-.3-2.52H352.73Z" transform="translate(-79.71 -3)"/><path class="cls-28" d="M367.81,392.15a10.15,10.15,0,0,0-1.11.88c-2.91,2.65-3.77,6.45-1.91,8.5l6.73,7.4c1.86,2,5.73,1.55,8.64-1.1a9.92,9.92,0,0,0,1.5-1.71Z" transform="translate(-79.71 -3)"/><path class="cls-28" d="M333.24,445.85a5,5,0,0,0-5.13,7.55l5.29,8.49a5,5,0,0,0,6.89,1.6,5,5,0,0,0,1.58-1.6C340.29,456.42,335.71,449.4,333.24,445.85Z" transform="translate(-79.71 -3)"/></g></g></g></svg>