<svg id="background" xmlns="http://www.w3.org/2000/svg" viewBox="0 0 195.86 312.24"><defs><style>.cls-1{opacity:0.1;}.cls-2{fill:#69776f;}.cls-3{fill:#e5c6c6;}.cls-4{fill:#efd9d8;}.cls-5{fill:#f7ebeb;}.cls-6{fill:#3183a3;}.cls-7{fill:#0e91af;}.cls-8{fill:#317c84;}.cls-9{fill:#3abddb;}.cls-10{fill:#e84b3a;}.cls-11{fill:#fff;}.cls-12{fill:#db716a;}.cls-13{fill:#173748;}.cls-14{fill:#ce372c;}.cls-15{fill:#0c9cc6;}.cls-16{fill:#f7bd84;}.cls-17{fill:#54300c;}.cls-18{fill:#3a2009;}.cls-19{fill:#dda36f;}.cls-20{fill:#2a232d;}.cls-21{fill:#a0afa6;}.cls-22{fill:#130f16;}.cls-23{fill:#ddf2e6;}.cls-24{fill:#a5dbdb;}.cls-25{fill:#87c1bf;}.cls-26{fill:#3b323f;}.cls-27,.cls-28{fill:#c68e60;}.cls-27{opacity:0.58;}</style></defs><title>34688-NZPA36</title><ellipse class="cls-1" cx="98.86" cy="285.24" rx="97" ry="27"/><path class="cls-2" d="M115.41,526.76a9.61,9.61,0,0,0-2.89,3.66s-4.55,13-7.76,15.44l-1.17.78s10.27,1.89,15.93,7.54c0,0,2.61,10.3,12.74,2.34l8-7.34s0.94-11.12-4.33-17.53C136,531.66,123.52,523.74,115.41,526.76Z" transform="translate(-68.86 -275.76)"/><path class="cls-3" d="M128.49,558.31s-10.53-14.1-23.34-13c0,0-2.66,1.17-7,3.12a17.38,17.38,0,0,0-9.84,14.21s7.91,5.84,21.86,3.39C110.21,566.06,123,564.71,128.49,558.31Z" transform="translate(-68.86 -275.76)"/><path class="cls-4" d="M140.58,553.14l-0.29-4s-17.45,14-29.6,16.34c0,0-18.73.55-22.3-3l0.06,4.26s17.9,5.46,29.68.09C118.13,566.84,140.11,553.52,140.58,553.14Z" transform="translate(-68.86 -275.76)"/><path class="cls-5" d="M107.46,542.22s12.12-1.5,17.91,6.5l1.56-2.6s-11.12-7.05-18.53-5.88Z" transform="translate(-68.86 -275.76)"/><path class="cls-5" d="M109.83,537L109,538.93s11.28-2.34,18.56,3.87l1.07-2.7S116.85,535.06,109.83,537Z" transform="translate(-68.86 -275.76)"/><path class="cls-3" d="M193.92,525.87l-11.39,5.46L180,539.48s16.31,10,24.12,2.83C204.16,542.31,197.56,526.67,193.92,525.87Z" transform="translate(-68.86 -275.76)"/><path class="cls-2" d="M187.18,500.8s-5.53,3.5-6.2,5.66a41,41,0,0,0,1.21,12.8s1.21,10.51-.13,12.67c0,0,8.76-5.39,12.4-5.39C194.46,526.54,189.07,500.39,187.18,500.8Z" transform="translate(-68.86 -275.76)"/><path class="cls-4" d="M180.17,539.21l-0.61,2.9s15,12.67,27.09,2l-2.43-2.49S197,546.75,180.17,539.21Z" transform="translate(-68.86 -275.76)"/><path class="cls-4" d="M181.71,505.25s5.16,24.1-.69,34l-0.69,3.38-0.48-1.5s3.38-26.24-.39-33.78Z" transform="translate(-68.86 -275.76)"/><path class="cls-5" d="M192.88,523s-1.2-1.17-3.72,1.17l-0.69-4s2.45-1.28,3.14-.5h0Z" transform="translate(-68.86 -275.76)"/><path class="cls-5" d="M190.8,517.35s-2-.45-3.06.55l-0.46-2.5s2.28-.88,2.76-0.55Z" transform="translate(-68.86 -275.76)"/><path class="cls-6" d="M141.09,446.35s-14.42-19.07-25.47-22.64c0,0-13.34-3.64-21.83,4.45,0,0-9.37,8.35-5.05,34.77,0,0,11.12,55.59,13.34,59.64l5.05,11.32,31.5-1.29a59.22,59.22,0,0,0-2.21-12.48s-0.54-6-3.77-7.8l-9.15-47.16s15.06,23.92,45.38,26.75l20.32,5.39-1.43,3.45s3,14,5.27,23.24c0,0,11.93,26.28,25.07,27.09,0,0,22.44,6.67,28.71-10.51,0,0,8.69-29.11-11.52-53l-22-28.3S160.7,463.94,141.09,446.35Z" transform="translate(-68.86 -275.76)"/><path class="cls-7" d="M187.18,500.8l3-5.43s23.75,42.3,21.32,52.7C211.53,548.07,192,537.09,187.18,500.8Z" transform="translate(-68.86 -275.76)"/><path class="cls-8" d="M123.5,465.15c-1.22-.06,18.6,27.27,45.38,26.75C168.88,491.9,140.62,466,123.5,465.15Z" transform="translate(-68.86 -275.76)"/><path class="cls-9" d="M132.65,512.31s-29.77,6.63-33,5.07c0,0,6.5,17.68,7,17.55s33.93-2.21,33.93-2.21S137.85,514,132.65,512.31Z" transform="translate(-68.86 -275.76)"/><path class="cls-10" d="M214.17,448s-4.2-6-4.81-8.06l-0.78-19.76-9.27-70.54-10.49.46s-42.34,7.28-47.39,18c-5-7.33-29.32-12.65-29.32-12.65L98.23,373.31,91.76,393l0.94-.4c23.47-14.75,35.52-8.07,35.52-8.07,6.19,3.33,13.43,6,14.44,33.7-1.44,8.7-5.28,13.17-10.61,17.91l1.89,3s29.25,37.83,80.32,19.77C214.27,458.89,215.38,450.58,214.17,448Z" transform="translate(-68.86 -275.76)"/><ellipse class="cls-11" cx="81.33" cy="69.26" rx="4.45" ry="4.7"/><ellipse class="cls-11" cx="90.07" cy="77.84" rx="1.87" ry="1.85"/><path class="cls-10" d="M199.31,349.59s27.49,6.47,34.77,41.24c0,0,7.82,24.8,4.85,31.27,0,0-19.8-20.53-24.11-22.42L204,393.35S189.61,352.55,199.31,349.59Z" transform="translate(-68.86 -275.76)"/><path class="cls-12" d="M208.84,394.52s32,16.25,33.6,20c0,0-.54,5.93-2.43,8.63,0,0-2.43,4.31-6.74,5.12,0,0-15.36-28.84-21.56-30.19Z" transform="translate(-68.86 -275.76)"/><path class="cls-13" d="M144.48,449.29s27.17,24.63,75.37,18.39l-5.58-8.79s-62.36-2.94-70-10.22" transform="translate(-68.86 -275.76)"/><path class="cls-12" d="M107.25,361.88s4.85,20.89,1.47,24.79l-16.47,6.41,6-19.78S105.43,360.58,107.25,361.88Z" transform="translate(-68.86 -275.76)"/><path class="cls-14" d="M163.53,381.66s19.4,47.14,40.37,48.7c0,0,5,.52,5.72.17l-1-11.44s-40.91-37.79-44.55-38" transform="translate(-68.86 -275.76)"/><polygon class="cls-15" points="94.8 188.32 95.84 178.7 99.87 179.35 97.53 189.75 94.8 188.32"/><polygon class="cls-14" points="75.58 116.98 77.14 134.32 85.11 141.42 91.53 135.88 92.07 116.35 75.58 116.98"/><path class="cls-16" d="M154.38,287s-26.95,5.2-24.79,29.46l11,43.58s5.66,11.05,23.45,14.29c0,0,17.52,1.89,25.34-21.83a247.51,247.51,0,0,0,6.2-33.42S192.66,282.13,154.38,287Z" transform="translate(-68.86 -275.76)"/><path class="cls-17" d="M196.88,309.7c0-.18-3.19-7.93-2.78-7.92,1.86,0.05,3.62.95,5.48,1.05a19.84,19.84,0,0,0-6.46-7.71,10.34,10.34,0,0,0-7.29-1.55l-0.41-.33A43.93,43.93,0,0,1,195,287.9a25.71,25.71,0,0,0-19.64-5.08,21.71,21.71,0,0,1,6.78-3.51,32,32,0,0,0-30,1.93,10.66,10.66,0,0,1,2.21-5.49,36.78,36.78,0,0,0-19.69,14.73l0.75-5.92c-7,5.15-11.16,13.44-12.7,22-1.37,7.56,1.55,25.58,2.16,24.93a5.45,5.45,0,0,1,1.51-1.16l6.44,0.56,0.63,0s-2.45-9.75-2-12.74c8.23-.69,15.89-6,16-9.1,0.21,0,.6,1.38.81,1.42l1.31,3c2.91,4.13,9.85.81,14-1.76,1.27-.9,1.79-1,2.87-1.9l-0.5,2.28c-0.89,14.24,15.74,6.84,15.74,6.84,1.72,5.63,5.61,5.81,7.29,5.61-0.12.75-.23,1.2-0.23,1.2-0.92,5.28,2.61,16.88,2.61,16.88l1.52-.11,0.69-5.64,1.66-2.78,1.62-3.64c0.09-.26.17-0.53,0.24-0.8C200.23,323.41,197.83,313.18,196.88,309.7Z" transform="translate(-68.86 -275.76)"/><path class="cls-18" d="M170.44,332.54c0.54,0.16,4.66,2.88,10.09-.79a1,1,0,0,1,1.32.11,4.9,4.9,0,0,1-3.67,3.11s-5.14,1.79-9-1.37C169.15,333.61,167.31,331.59,170.44,332.54Z" transform="translate(-68.86 -275.76)"/><path class="cls-16" d="M194.73,329.91c0.52-.31,5.53-2,6.33,4.31,0,0,.3,6.92-4.31,9.84,0,0-5.69,3.29-6.63,2.35C190.12,346.41,192,331.53,194.73,329.91Z" transform="translate(-68.86 -275.76)"/><path class="cls-19" d="M196,332.91a4.17,4.17,0,0,1,1.83,1,1.48,1.48,0,0,1,.12,1.93c-0.5.52-1.37,0.41-2,.74a2.61,2.61,0,0,0-1.14,1.45,3.28,3.28,0,0,0-.21,2.09,1.68,1.68,0,0,0,1.54,1.26s1.75-.58.78-1.95a1.27,1.27,0,0,1,.46-2.15s2.93-1.24,2.54-3.25c0,0-1.17-2.28-3.38-2.28Z" transform="translate(-68.86 -275.76)"/><path class="cls-17" d="M181.84,328.64a11,11,0,0,0-13.26-1.26,5,5,0,0,0-1.17.91,1.06,1.06,0,0,1-1.44-.87s-0.39-1,2.28-3.15c0,0,6.49-3.48,10.74-1.05,0,0,2.9,1.69,3.6,3.81a2.83,2.83,0,0,1,.35,1.6S183,329.46,181.84,328.64Z" transform="translate(-68.86 -275.76)"/><path class="cls-14" d="M200.13,370.43V370.2l0,0.06-0.09-.32,0,0.51-3.66,4.82c-0.88,1.16-1.81,2.64-1.22,4,0.22,0.5.63,0.89,0.89,1.38a7.9,7.9,0,0,1,.45,2.87c0.27,2.48,1.93,4.57,3.68,6.34,0.52,0.53,1.59,5.49,2.24,5.34l7.25,0.44C209.06,394.28,201.73,375.9,200.13,370.43Z" transform="translate(-68.86 -275.76)"/><path class="cls-14" d="M210.92,396.47l-1.33-.86,0,0.08Z" transform="translate(-68.86 -275.76)"/><polygon class="cls-15" points="136.34 182.6 138.81 196.12 143.23 195.08 140.5 182.86 136.34 182.6"/><polygon class="cls-15" points="122.69 181.3 122.54 194.23 127.08 194.08 127.11 181.77 122.69 181.3"/><path class="cls-15" d="M156.65,454L154,459.19a0.68,0.68,0,0,1-1,.27l-2.61-1.62a0.68,0.68,0,0,1-.25-0.88l2.21-4.41a0.68,0.68,0,0,1,.78-0.35l3.07,0.81A0.68,0.68,0,0,1,156.65,454Z" transform="translate(-68.86 -275.76)"/><path class="cls-20" d="M164,326.17c-0.13-.72-21.93.1-21.93,0.1s-2.83,3.64-10.71,2.83l-7.88-.61s-9.91-1.75-9.3,8.69L114.47,361s-0.74,7.14,8.42,7.14l49.93-.91s6.27,0.51,5.26-9.4l-0.4-19.1s0.1-6.47-5.26-6.27l-0.2-2.43-5.86-.1A5.11,5.11,0,0,1,164,326.17Z" transform="translate(-68.86 -275.76)"/><path class="cls-21" d="M144.43,321.72s-1.43,3.94-3.39,5.36l23.21,0-0.58-5.44a1.9,1.9,0,0,0-2.16-2.09l-15.12-.32S144.94,319.06,144.43,321.72Z" transform="translate(-68.86 -275.76)"/><circle class="cls-22" cx="84.61" cy="73" r="16.83"/><ellipse class="cls-23" cx="84.36" cy="72.35" rx="13.54" ry="13.04"/><ellipse class="cls-20" cx="84.56" cy="72.15" rx="11.83" ry="11.42"/><ellipse class="cls-24" cx="84.49" cy="72.51" rx="9.98" ry="9.85"/><path class="cls-25" d="M153.36,338.42s-3.15,17.23,5,18l0.78-.13s7.93-5.59,1.56-14.43C160.74,341.86,157.16,337.83,153.36,338.42Z" transform="translate(-68.86 -275.76)"/><path class="cls-20" d="M159.39,321.1L148.45,321l-0.26,4.16,11.31,0.06Z" transform="translate(-68.86 -275.76)"/><polygon class="cls-26" points="80.73 46.64 79.58 45.23 90.53 45.34 90.64 49.46 89.23 49.5 89.06 46.69 80.73 46.64"/><path class="cls-19" d="M137.65,344.47s-7.08,1.82-6.27,7.88c0,0-2.34,12.11,10.19,14.73l1,0.26s1.91,9.06,7.57,11.08c0,0,10.51,4.25,13.34,3.23,0,0,26.89,37,43.26,42.86,0,0,12.53,6.67,16.58,6.47,0,0,7.88-2.43,11.32-7.48,0,0-17.79-23.85-21.43-25.47,0,0-32.75-21.43-37-28.1,0,0-5.86-11.93-7.48-13.34,0,0-10.2,11.53-21.38,7C147.41,363.57,135,358.62,137.65,344.47Z" transform="translate(-68.86 -275.76)"/><path class="cls-27" d="M105,338.65S85.5,361,73.54,365.87C73.54,365.87,83.59,351.39,105,338.65Z" transform="translate(-68.86 -275.76)"/><path class="cls-28" d="M117.19,325.07a10.2,10.2,0,0,0-7.38,12.35,2.24,2.24,0,0,0,.31.77,1.64,1.64,0,0,0,1.62.56,3.63,3.63,0,0,0,1.58-.83c1.29-1,.09.26,0.44-1.35,0.43-2,2.08-7.11,4.42-7.19,1.16,0,3.87-.65,3.47-1.73a6,6,0,0,0-2.21-2.48,7,7,0,0,0-2.11-.22" transform="translate(-68.86 -275.76)"/><path class="cls-19" d="M124.51,322.9s-7.55-4-12.4.4c0,0-7.79,7.66-7.46,14.29q0,0.27,0,.54c0,0.22,0,.44.06,0.66-7.33,4.79-28.68,19.44-33.92,30.74l-0.24.54c-5.8,13.75,4.45,21.56,7.55,21.83,0,0,11.05,2.56,14.55.67,4.51-4.16,13.69-27.74,15.16-31.58l0.34-.47a34.76,34.76,0,0,0,8.89.11h6.74s3.1-.81,1.48-5.26a4.07,4.07,0,0,0-4.18-2.83h-4l7.55-.94a4,4,0,0,0,1.35-5s-0.81-3.37-3.64-3.23l4.18-.81s2.7-1.75,1.08-6.2c0,0,0-1.7-3.23-1.64l-0.54,0c-3.77.27-11.32,0.54-11.32,0.54s0.4-7.41,4.31-9.43c0,0,5.23,5,8.19,6.46a3.84,3.84,0,0,0,4.68-1S132.74,327.56,124.51,322.9Z" transform="translate(-68.86 -275.76)"/></svg>