<svg id="objects" xmlns="http://www.w3.org/2000/svg" viewBox="0 0 227 470.4"><defs><style>.cls-1{opacity:0.1;}.cls-2{fill:#42130d;}.cls-3{fill:#b96c4e;}.cls-4{fill:#9b5742;}.cls-5{fill:#511b12;}.cls-6{fill:#e9c083;}.cls-7{fill:#dbb27b;}.cls-8{fill:#3f130d;}.cls-9{fill:#4e4e4f;}.cls-10{fill:#404244;}.cls-11{fill:#37393a;}.cls-12{fill:#2a2c2d;}.cls-13{fill:#353738;}.cls-14{fill:#262727;}.cls-15{fill:#858d92;}.cls-16{fill:#767e82;}.cls-17{fill:#252728;}.cls-18{fill:#61686e;}.cls-19{fill:#535a5f;}.cls-20{fill:#454d52;}.cls-21{fill:#889ca0;}.cls-22{fill:#648189;}.cls-23{fill:#4f4f4d;}.cls-24{fill:#7e99a3;}.cls-25{fill:none;stroke:#404244;stroke-miterlimit:10;stroke-width:0.32px;}.cls-26{fill:#6d1311;}.cls-27{fill:#a52514;}.cls-28{fill:#aa5d46;}.cls-29{fill:#891d15;}.cls-30{fill:#171819;}.cls-31{fill:#350f0a;}.cls-32{fill:#e8d4cf;opacity:0.78;}.cls-33{fill:#9b4737;}.cls-34{fill:#110401;}.cls-35{fill:#af5b52;}.cls-36{fill:#eae1df;}.cls-37{fill:#a35841;}.cls-38{fill:#cc6858;opacity:0.41;}.cls-39{fill:#9b1e15;}</style></defs><title>34689-NZPA9X</title><ellipse class="cls-1" cx="113.5" cy="445.16" rx="113.5" ry="25.25"/><ellipse class="cls-2" cx="399.31" cy="260.99" rx="7.48" ry="15.09" transform="translate(-289.77 -205.59) rotate(-2.46)"/><path class="cls-3" d="M332.44,647.28c4.61,0.88,4.15-58.36,4.15-58.36-2.53-17.45-1.87-57.32-1.87-57.32-0.18-14.68,6.77-29.33,6.77-29.33,0.63-6.1-3.1-30.59-3.1-30.59L379,474.5l-15.45,55.87C362.55,535.13,350,617,350,617l-2.65,21.58c0.62,9,4.81,10.64,4.81,10.64-4,20.15-17.91,1.93-17.91,1.93l0.6-2.58Z" transform="translate(-278.94 -222.96)"/><path class="cls-4" d="M341.95,500.56s27.54-19.55,35.67-20.75l1.67-6-40.93-2.25,3.47,26.31" transform="translate(-278.94 -222.96)"/><path class="cls-4" d="M359.05,506.82a13.48,13.48,0,0,0-4.5,9.2,14.39,14.39,0,0,0,3.07,10A18.3,18.3,0,0,1,356,516.1a17.07,17.07,0,0,1,3.84-9.06" transform="translate(-278.94 -222.96)"/><path class="cls-5" d="M376.3,661.85c-6-3.68-7.62-4.49-7.62-4.49l-17.13-8.57a7.72,7.72,0,0,1-7.84,6.09,15,15,0,0,1-9.78-9.53l0.17-.33a3,3,0,0,0-2.05,2.19l0-.05,0,0.17c-1.19,3.26-.87,8.76-0.87,8.76h0v0s19.37,12.39,29.81,14.51c0,0,11.61,1.94,16.16-2.11C377.15,668.55,380.58,664.49,376.3,661.85Z" transform="translate(-278.94 -222.96)"/><path class="cls-3" d="M393.43,526.88c-2.26-11-12.16-51.85-13.23-52.65l35-1.12c5.08,14.3,2.87,56.43,2.87,56.43l2.46,82c0.07,0.9-.45,10.75-0.59,19.44-1.54,19.1,2.29,21.86,6.92,26.66-0.85,4.27-3.86,2.83-5.22,4.24l-1.35,1c-2.32,1.15-4.91-.31-7-2.15L407,658.77l-0.57-4.47s3.39-5.94,3.06-8.31C393.32,595.92,393.43,526.88,393.43,526.88Z" transform="translate(-278.94 -222.96)"/><path class="cls-4" d="M416.48,473.17S390.07,500.52,391.77,516l0.12,2.7L380.2,474.23Z" transform="translate(-278.94 -222.96)"/><path class="cls-4" d="M410.46,515.75A13.48,13.48,0,0,0,406,525,14.39,14.39,0,0,0,409,535a18.29,18.29,0,0,1-1.67-9.94,17.07,17.07,0,0,1,3.84-9.06" transform="translate(-278.94 -222.96)"/><path class="cls-5" d="M450,668.86c-6-3.68-7.62-4.49-7.62-4.49l-17.13-8.57a7.72,7.72,0,0,1-7.84,6.09,15,15,0,0,1-9.78-9.53l0.17-.33a3,3,0,0,0-2.05,2.19l0-.05,0,0.17c-1.19,3.26-.87,8.76-0.87,8.76h0v0s19.37,12.39,29.81,14.51c0,0,11.61,1.94,16.16-2.11C450.85,675.56,454.28,671.5,450,668.86Z" transform="translate(-278.94 -222.96)"/><path class="cls-6" d="M338.1,425.12c0.86-.91,7.1,1,9.23.83,22.47,4.77,58.6,1.84,58.6,1.84,1.63,3.31,14.45,47.06,14.45,47.06l-40.21.31,0.5-7-1.36,6.47-41.11-2.67c0,0.15,0,.29,0,0.44l-1-.51-1.7-.11,0.07-.68-0.48-.23C326.71,442.53,331.81,431.8,338.1,425.12Z" transform="translate(-278.94 -222.96)"/><path class="cls-7" d="M412.95,450.49S395.69,431.7,400.67,430c0.44-.15,5.7-1.74,5.7-1.74Z" transform="translate(-278.94 -222.96)"/><polygon class="cls-7" points="100.9 252.11 104.62 208.5 114.79 208.82 130.12 251.78 100.9 252.11"/><path class="cls-7" d="M350.16,428.26c-0.43,0-14.2,18.48-19.72,19.43,0,0-.17-14.41,7.47-22.35Z" transform="translate(-278.94 -222.96)"/><path class="cls-8" d="M409.53,438.28S361,443.81,333,433.5c-2.25,2.24-3.59,12.24-1.66,16.77,0,0,74.25,5.47,81.33-1.24Z" transform="translate(-278.94 -222.96)"/><polygon class="cls-7" points="123.16 215.16 127.14 230.17 125 230.76 121 215.5 123.16 215.16"/><polygon class="cls-7" points="111.56 215.33 113.13 230.78 110.92 231.03 109.38 215.33 111.56 215.33"/><polygon class="cls-6" points="72.18 213.5 71.55 229.99 69.31 229.99 70.02 213.24 72.18 213.5"/><polygon class="cls-6" points="59.77 211.03 58.6 229.68 56.35 229.75 57.6 210.8 59.77 211.03"/><polygon class="cls-6" points="88.27 215.14 87.63 231.63 85.4 231.63 86.1 214.88 88.27 215.14"/><path class="cls-9" d="M403,310.23c0.31-.09,7,1.74,7,1.74l-2.85-22-6.87-.58L403,310" transform="translate(-278.94 -222.96)"/><path class="cls-9" d="M402,286.54c0.68-.89-4-0.11-4-0.11a14.77,14.77,0,0,0-.35,3.14l1,19.63L401,309.8l2.07,0.43,2.22-2.19,2.87-20.77Z" transform="translate(-278.94 -222.96)"/><polygon class="cls-10" points="133.49 87.72 134.16 92.5 162.09 83.56 157 59.97 142.42 63.25 145 83.5 133.13 86.81 133.49 87.72"/><path class="cls-11" d="M400.46,287.25l9.61,0.23,0.65,24.35-8.13-1.75-0.24-2.36,1.43,0.35-2.44-16-1.27-.15S399.44,288.13,400.46,287.25Z" transform="translate(-278.94 -222.96)"/><ellipse class="cls-11" cx="398.85" cy="293.64" rx="0.74" ry="1.48" transform="translate(-312.22 -171.33) rotate(-7.11)"/><ellipse class="cls-10" cx="398.77" cy="293.68" rx="0.65" ry="1.24" transform="translate(-312.22 -171.36) rotate(-7.11)"/><ellipse class="cls-11" cx="400.97" cy="305.76" rx="0.74" ry="1.48" transform="translate(-313.71 -170.97) rotate(-7.11)"/><ellipse class="cls-10" cx="400.98" cy="305.78" rx="0.56" ry="1.24" transform="translate(-313.71 -170.97) rotate(-7.11)"/><path class="cls-10" d="M397.61,286.41l24.51-2.68,7.71,0.42-15.41,4.57s-6.78-.6-6.79-0.28Z" transform="translate(-278.94 -222.96)"/><path class="cls-11" d="M406.85,290.41c0,0.19,2.87,21.27,2.87,21.27a0.94,0.94,0,0,0,.65.53l1.44-.37-0.19-1.31,12.66-3.49s0.77-.25.35-1.9l-3.27-18.94L405.67,288A9,9,0,0,1,406.85,290.41Z" transform="translate(-278.94 -222.96)"/><path class="cls-12" d="M420.4,286.41l1-.2,3.27,18.94c0.42,1.65-.35,1.9-0.35,1.9l-4.21,1.22-7.64,2.42-0.81-.14,10.72-3.85s1.71-.36.82-3.65Z" transform="translate(-278.94 -222.96)"/><polygon class="cls-13" points="121.83 69.04 124.09 84.95 125.05 85.23 122.66 69.14 121.83 69.04"/><path class="cls-9" d="M410,312l0.45,2.76,2.64,0.73-0.68-4.78-0.81-.14,0.12,1.15A2.15,2.15,0,0,1,410,312Z" transform="translate(-278.94 -222.96)"/><ellipse class="cls-14" cx="414.84" cy="305.19" rx="2.94" ry="3.39" transform="translate(-313.53 -169.27) rotate(-7.11)"/><ellipse class="cls-15" cx="414.59" cy="305.19" rx="2.64" ry="3.08" transform="translate(-313.53 -169.29) rotate(-7.11)"/><ellipse class="cls-15" cx="419.42" cy="302.18" rx="1.16" ry="1.37" transform="translate(-313.12 -168.72) rotate(-7.11)"/><ellipse class="cls-16" cx="419.28" cy="302.2" rx="1.02" ry="1.37" transform="translate(-313.12 -168.74) rotate(-7.11)"/><ellipse class="cls-15" cx="419.88" cy="305.9" rx="1.16" ry="1.37" transform="translate(-313.58 -168.64) rotate(-7.11)"/><path class="cls-17" d="M432.42,283.24c0.25,0,20.36.49,20.36,0.49s-8.11,3.62-7.27,14.78c0,0,.75,5.41,4.71,8.34l-21.52-4.41a10.28,10.28,0,0,1-4.64-7.15s-1-8.8,5.9-11.5Z" transform="translate(-278.94 -222.96)"/><path class="cls-18" d="M444.71,295.69c-0.26-6.48,2.71-12.22,5.74-12.81,3.53-.69,6.66,4.57,7,11.09,0.3,6.13-2.24,12.29-5.84,13S445,302.2,444.71,295.69Z" transform="translate(-278.94 -222.96)"/><path class="cls-19" d="M445,295.54c-0.24-6.08,2.61-11.48,5.51-12,3.37-.65,6.35,4.28,6.64,10.4,0.27,5.75-2.16,11.54-5.6,12.22S445.2,301.66,445,295.54Z" transform="translate(-278.94 -222.96)"/><path class="cls-20" d="M451.51,306.12c3.52-.88,5.87-6.47,5.6-12.22-0.29-6.12-3.27-11-6.64-10.4,0,0,6,1,6.29,10.38,0,0,.33,9-5.15,11.83a3.53,3.53,0,0,1-1.53.22A2.89,2.89,0,0,0,451.51,306.12Z" transform="translate(-278.94 -222.96)"/><path class="cls-20" d="M445.89,295.19c-0.17-5,1.52-9.39,4.09-9.87,3-.57,5.6,3.5,5.81,8.56,0.2,4.76-2,9.94-5.06,10.16S446.06,300.25,445.89,295.19Z" transform="translate(-278.94 -222.96)"/><path class="cls-10" d="M446.1,294.77c-0.18-4.62,1.28-8.22,3.51-8.65,2.6-.5,4.88,2.86,5.09,7.51,0.2,4.37-1.64,9.1-4.34,9.29S446.28,299.42,446.1,294.77Z" transform="translate(-278.94 -222.96)"/><path class="cls-21" d="M446.12,295.25c-0.16-4.34,1.2-7.72,3.3-8.12,2.44-.47,4.58,2.69,4.78,7,0.19,4.1-1.54,8.55-4.07,8.72S446.28,299.61,446.12,295.25Z" transform="translate(-278.94 -222.96)"/><path class="cls-22" d="M446.07,295.06c-0.18-4.26,1.57-7.53,3-8,2.21-.68,3.91,2.55,4.13,6.83,0.2,4-1.44,8.93-3.79,8.32C447.59,301.78,446.25,299.34,446.07,295.06Z" transform="translate(-278.94 -222.96)"/><path class="cls-23" d="M433.59,283.3s-6.46,1.44-7.41,7.51c0,0-2.58,7.87,4.55,11.76l0.52,0.31-2.55-.45a10.47,10.47,0,0,1-4.78-10.22s0.71-6.68,6.31-8.65l2.49-.47Z" transform="translate(-278.94 -222.96)"/><path class="cls-11" d="M440.11,283.43s-7.14,2.55-7.06,10c0,0-.75,7.64,3.92,10.51l0.35,0.22h0.75s-4.81-2-4.72-9.72a11,11,0,0,1,6-10.37l1.41-.65Z" transform="translate(-278.94 -222.96)"/><path class="cls-11" d="M448.12,306.42c-3.39-2-4.58-6.87-4.58-6.87-1.89-13,5.1-15.87,5.1-15.87l-3-.1s-10.53,8.36-3.36,21.49Z" transform="translate(-278.94 -222.96)"/><path class="cls-11" d="M434.88,303.7c-9.89-14.12,3.73-20.28,3.73-20.28h0.3s-13.64,6.2-3.53,20.4Z" transform="translate(-278.94 -222.96)"/><path class="cls-11" d="M433.26,303.17a13.2,13.2,0,0,1-2.82-7.3c-0.8-9.79,5.82-12.58,5.82-12.58l0.56,0.12s-10.7,5.93-3.06,19.91Z" transform="translate(-278.94 -222.96)"/><path class="cls-24" d="M454,295c0.13,2.83-1,5.3-2.92,5.55s-3.84-1.84-4.19-4.66,1-7,2.93-7.2S453.85,291.56,454,295Z" transform="translate(-278.94 -222.96)"/><ellipse class="cls-17" cx="435.82" cy="282.01" rx="1.05" ry="0.24" transform="translate(-357.72 -9.17) rotate(-25.35)"/><ellipse class="cls-17" cx="430.28" cy="283.63" rx="1.05" ry="0.4" transform="translate(-358.95 -11.42) rotate(-25.35)"/><path class="cls-11" d="M431.24,283.18l1.1,1.6s-0.64,1.61-1.92,1.2l-0.19-.08-0.89-1.82A2,2,0,0,0,431.24,283.18Z" transform="translate(-278.94 -222.96)"/><path class="cls-11" d="M427.48,285s-4.63,5-3.51,8.89l-1.65-8.09,5.69-1.67Z" transform="translate(-278.94 -222.96)"/><path class="cls-25" d="M415.18,303.76a1.44,1.44,0,0,1,.94,1.19,1.4,1.4,0,1,1-2.77.35,1.44,1.44,0,0,1,.58-1.35" transform="translate(-278.94 -222.96)"/><line class="cls-25" x1="135.59" y1="80.38" x2="135.79" y2="81.67"/><path class="cls-11" d="M436.77,281.56l1.06,1.9a5.75,5.75,0,0,1-2.17.91l-0.8-1.91A3,3,0,0,0,436.77,281.56Z" transform="translate(-278.94 -222.96)"/><ellipse class="cls-17" cx="443.38" cy="282.07" rx="1.09" ry="0.24" transform="translate(-342.58 -79.05) rotate(-17.22)"/><path class="cls-11" d="M444.41,281.73l0.87,1.85a5.75,5.75,0,0,1-2.22.78l-0.69-2S443.93,282.44,444.41,281.73Z" transform="translate(-278.94 -222.96)"/><ellipse class="cls-16" cx="419.79" cy="305.91" rx="1.02" ry="1.37" transform="translate(-313.58 -168.65) rotate(-7.11)"/><path class="cls-26" d="M389.29,318.88a16.64,16.64,0,0,1,6.09-.14,8,8,0,0,1,4.92,2.72,8.83,8.83,0,0,1,1.34,3.3,106.52,106.52,0,0,1,2.68,16.12c-4.63-5.9,1,14.6-5.57,10.13" transform="translate(-278.94 -222.96)"/><path class="cls-5" d="M395.16,273.56c1.85,2,2.49,4.88,2.73,7.61a36.8,36.8,0,0,1-17.83,34.4,0.86,0.86,0,0,1-1.47-.51,39.46,39.46,0,0,1-3-13.12c4.17,0.9,7.93-2.47,10.86-5.58,2.72-2.89,5.48-5.85,7.26-9.4s2.51-7.84,1-11.52" transform="translate(-278.94 -222.96)"/><path class="cls-27" d="M380.29,317.06s-18.19,5.39-23.53.69l-14.27,13.46,3.33,45.91a39.57,39.57,0,0,1-4.2,23.67S334,416,340,420.64c0,0,47.62,11.66,65,2.35,0,0-3.44-3.64-10.94-25.3,0,0,12.77-45.1,6-57.37,0,0-7.16-15.54-8.66-20.4C391.34,319.91,384.32,316.14,380.29,317.06Z" transform="translate(-278.94 -222.96)"/><path class="cls-28" d="M355.2,293.83s3.72,21.69.85,24.7c0,0,16.87,13,25.77-1.57,0,0-2.1-10.69-1.32-12.54C380.5,304.42,356.61,291.63,355.2,293.83Z" transform="translate(-278.94 -222.96)"/><path class="cls-3" d="M364.91,241.44c0.71-.11,27.42-3.18,32,3.77,0,0,3.51,9.34,1.23,18.65a23.67,23.67,0,0,0-.45,9.44s1.83,12.77-.65,18c0,0-5.55,10.52-10.14,13.29a13.49,13.49,0,0,1-6.83.44s-20.06-5-25.13-9.92c0,0-6.32-10.79-7.42-15.35-0.05-.22-0.09-0.42-0.12-0.6C346.79,275.06,352.85,243.24,364.91,241.44Z" transform="translate(-278.94 -222.96)"/><path class="cls-5" d="M362.9,241.24c0,0.57,2.9,20.87-14,20.87,0,0-4.06-24.67,14.35-21.61" transform="translate(-278.94 -222.96)"/><path class="cls-29" d="M396.58,355l-6.21-19c-2.08-6.36-4.2-12.8-7.77-18.46,7.57,6.72,11.85,16.3,15.91,25.57a4.65,4.65,0,0,1,.28,4.31L396.37,355" transform="translate(-278.94 -222.96)"/><path class="cls-30" d="M381.64,316.83s15.65,21.89,17,30.25l2.78-5s-0.91-22.88-15.13-24.84Z" transform="translate(-278.94 -222.96)"/><path class="cls-17" d="M398.3,287.57a140.65,140.65,0,0,1,.27,45.54c-0.59,3.7-1.36,7.48-3.42,10.61s-5.68,5.5-9.4,5c-3-.37-5.51-2.45-7.81-4.44a13.82,13.82,0,0,0,8,7.83,12,12,0,0,0,11-1.49,18.22,18.22,0,0,0,5.11-6.75c8.43-16.87,6.92-36.78,5.22-55.56l-9.86.35" transform="translate(-278.94 -222.96)"/><path class="cls-17" d="M352.61,321.75a1.51,1.51,0,0,0,.21.33c1.7,1.21,17.59,12.41,20.92,18.79l6.61,7.71,1.52-1.14-0.08-.28S371,322.5,356.71,317.42c-0.05,0,0,.05,0,0.05" transform="translate(-278.94 -222.96)"/><path class="cls-26" d="M390,378.89s15.2,12.88,26.86,13.47c0,0,7.78,1.49,7.21-9.61l-4-60.87-3.82,0L396.07,376.1Z" transform="translate(-278.94 -222.96)"/><path class="cls-5" d="M325.82,308.14a12.73,12.73,0,0,1,3.44-6c-2.35-4.23-3.52-10.32.12-18.41-8.11-6.77-13.86-17.06-12.49-27.48,0.8-6.12,3.91-11.66,7.14-16.92,3.92-6.39,8.81-13.12,16.13-14.74,5.15-1.14,10.47.53,15.42,2.36a15.44,15.44,0,0,1,5,2.69c0.5,0.2,1,.41,1.52.66l3.15,0.29-0.35,8.44s0.71,20-15.05,25.21L349,281.61l8.45,17.2a21.91,21.91,0,0,1-5.32,8.11c2.23,5.28,4,11.05,2.11,16.36a12.59,12.59,0,0,1-3,4.64,8.2,8.2,0,0,1-1.4,4,19.58,19.58,0,0,1-12.19,8.64,10.3,10.3,0,0,1-4,.21,8.6,8.6,0,0,1-5.75-4.37,14.79,14.79,0,0,1-1.66-7.2,6.44,6.44,0,0,1,.53-3,3.94,3.94,0,0,1,.66-0.9,16,16,0,0,1-1.09-3.92C325.51,317,324.72,312.46,325.82,308.14Z" transform="translate(-278.94 -222.96)"/><path class="cls-31" d="M398.43,253.85s6.49,8.15,3.47,17.7L404,273.6l6.62-12S411,245.39,404,243.33l-8.84.38S398.72,250.77,398.43,253.85Z" transform="translate(-278.94 -222.96)"/><path class="cls-32" d="M377.32,264s0.67,4.59,1,5.55c0,0,.43.82-0.83,1.21,0,0-9,1-12.46-4.94a2.76,2.76,0,0,1,1.3-2.4s4.14-2.27,7.85-1.32l3.49,1.13Z" transform="translate(-278.94 -222.96)"/><path class="cls-33" d="M372.44,262.3s-1.64,4.6,1,6.77a21.92,21.92,0,0,0,3.65,1.74,1.2,1.2,0,0,0,1.3-1L377.35,264l0.08-.28S373,262.11,372.44,262.3Z" transform="translate(-278.94 -222.96)"/><path class="cls-34" d="M374.5,262.7c0,0.06-1.61,5,3.69,6.48h0.16l-0.87-5.4,0.11-.23Z" transform="translate(-278.94 -222.96)"/><ellipse class="cls-32" cx="374.53" cy="266.27" rx="1.05" ry="1.15" transform="translate(-303.31 -184.84) rotate(-5.64)"/><path class="cls-32" d="M389,267.48s2.38-2.94,5-2a3.92,3.92,0,0,1,1.67,1.07c0.23,0.54.15,0.53,0.15,0.53s-0.7,3.92-1.95,4.76a4.74,4.74,0,0,1-3.69-.13,4.11,4.11,0,0,1-1.72-1.94l-0.23-1.31Z" transform="translate(-278.94 -222.96)"/><path class="cls-33" d="M391.41,265.79s-1.28,4,2.09,5.89l0.42,0.13a4.18,4.18,0,0,0,.9-0.94A24.59,24.59,0,0,0,396,267S393.68,264.07,391.41,265.79Z" transform="translate(-278.94 -222.96)"/><path class="cls-34" d="M393.66,265.31c-0.08,0-1.15,3.81.83,6h0s1.75-2.31,1.53-4.44c-0.1-.91.09-0.47,0.09-0.47A3.3,3.3,0,0,0,393.66,265.31Z" transform="translate(-278.94 -222.96)"/><path class="cls-5" d="M361.93,262.18a10.29,10.29,0,0,1,7.9-4.07,19.35,19.35,0,0,1,6.61,1.62s7.12,1.9,8.1,1.78c0,0,2.42-2.1,2.33-3.24,0,0-.49.06-1.38,0.23,0,0-14.43-1.72-15.2-1.66,0,0-4.08.1-6.19,2.22l-2.76,3S360.8,262.89,361.93,262.18Z" transform="translate(-278.94 -222.96)"/><path class="cls-5" d="M398.11,258.41c-0.11,0-1.62,1.75-2.83-.18a0.37,0.37,0,0,0-.59,0,2.58,2.58,0,0,0-.35,2.21,1.84,1.84,0,0,0,1.74.88l2-.41s1-1.62.19-2.52" transform="translate(-278.94 -222.96)"/><path class="cls-35" d="M372.58,283.45l0.23,0.08c1.41,0.52,4.2,3,9.24,3.5a53.1,53.1,0,0,0,5.42.89,19,19,0,0,1,4,.27l-0.72.91-1.05,2.1s0.88,3.67-1.88,4.45c0,0-3.83,1.71-8.16-2a49.22,49.22,0,0,1-4.58-6.22s-2.15-4-2.54-4" transform="translate(-278.94 -222.96)"/><path class="cls-36" d="M377.32,287.85s3.39,6.82,8.36,6.1,2.52-4.37,2.52-4.37S381.52,289.74,377.32,287.85Z" transform="translate(-278.94 -222.96)"/><path class="cls-5" d="M380.13,263s-0.49,1.23-1.39,1.07c0,0-5.73-1.7-6.51-1.71,0,0-5-.33-7,2.92l-0.18.29a3.26,3.26,0,0,1,.87-2.54,9.32,9.32,0,0,1,5.74-2,20.61,20.61,0,0,1,6.82,1.78A3.12,3.12,0,0,0,380.13,263Z" transform="translate(-278.94 -222.96)"/><ellipse class="cls-32" cx="393.05" cy="268.24" rx="1.03" ry="1.17" transform="translate(-337.12 -105.85) rotate(-15.79)"/><path class="cls-5" d="M388.27,268.44s3.62-4.72,7.1-2.11a3.71,3.71,0,0,0,1,.86,2.89,2.89,0,0,0,1.18-.33l-0.22-.35s-2.85-2.94-5.54-1.86C391.84,264.65,388.24,266.45,388.27,268.44Z" transform="translate(-278.94 -222.96)"/><path class="cls-37" d="M385.79,266.28a27.89,27.89,0,0,0,1,5.82,5.59,5.59,0,0,0,1.45,2.72A5.52,5.52,0,0,1,390,276.4a1.94,1.94,0,0,1-.38,1.93,5,5,0,0,1-1.67,1.2,29.09,29.09,0,0,1-2.82,1.26,2.32,2.32,0,0,1-.68-1.1,4.7,4.7,0,0,0,2.91-1.73,0.86,0.86,0,0,0,.24-0.69,1.06,1.06,0,0,0-.73-0.57,5.49,5.49,0,0,1-3.16-4.61,7.83,7.83,0,0,1,1.84-5.44" transform="translate(-278.94 -222.96)"/><path class="cls-3" d="M351.89,266.56s-6.61-6.89-11.15-.38c0,0-4.67,6,.31,12.19,0,0,3.28,4.14,6.82,4.2,0,0,1,.39,2.53-0.86s0.42-.23.42-0.23Z" transform="translate(-278.94 -222.96)"/><path class="cls-37" d="M342.65,269.69a2.64,2.64,0,0,1,3.27-1.78,2.87,2.87,0,0,1,1.52,1.28,1.89,1.89,0,0,1,.18,1.77c-0.49,1-1.9,1-2.7,1.7a2.29,2.29,0,0,0-.63,2,4.2,4.2,0,0,0,1,2,2.76,2.76,0,0,0,.77.68c0.95,0.52,2.13,0,3-.55a2.14,2.14,0,0,0-.14-1.09l-2.21,0a1.52,1.52,0,0,1-.56-0.06A1.13,1.13,0,0,1,346,274a7.28,7.28,0,0,1,1.62-1.18,4,4,0,0,0,1.41-4.39,3.63,3.63,0,0,0-3.81-2.45,3.09,3.09,0,0,0-2.51,3.58" transform="translate(-278.94 -222.96)"/><path class="cls-5" d="M364.91,241.44l0.34,0.25c2.26,1.6,15.16,10.33,22.8,6.76,0,0,14.79-4.63,17.09,2.26,0,0,6.19,14.58-4.63,21.9l-2.68,1.51,0.18,4.28s12.06,0.8,14.79-15.59c0,0,2.11-20.65-17.69-29.51A25.11,25.11,0,0,0,370,227.94s-7.93,2.41-10.29,4.65C359.75,232.6,358.32,237.58,364.91,241.44Z" transform="translate(-278.94 -222.96)"/><path class="cls-5" d="M364.6,240.85c0.16,0.3,5.5,20.86-9.67,26.65,0,0-2.95,1.2-7-4s0-.64,0-0.64l1.65-1.57s4.33,3.56,6.13,3.06c0,0,10.62-4.63,7.11-21.51C362.76,242.86,363.43,238.65,364.6,240.85Z" transform="translate(-278.94 -222.96)"/><ellipse class="cls-38" cx="367.34" cy="279.8" rx="8.58" ry="9.9" transform="translate(-268.22 350.18) rotate(-76.73)"/><path class="cls-38" d="M397.59,272.73a8.6,8.6,0,0,0-7.4,6.26c-1.08,4.56,2.28,9.26,7.5,10.58C399,285.21,398,276.21,397.59,272.73Z" transform="translate(-278.94 -222.96)"/><path class="cls-5" d="M360.08,230.74a17.59,17.59,0,0,1,8.3-6.33c4.42-1.76,9.63-2.15,13.8.14s6.55,6.76,8.64,11c-3.6-4.23-7.59-8.7-13-10a15.08,15.08,0,0,0-11.08,2,20.88,20.88,0,0,0-7.57,8.52" transform="translate(-278.94 -222.96)"/><path class="cls-5" d="M347.25,282.6c2.79-.78,5.84.86,7.44,3.27s2,5.42,2.11,8.31a13.52,13.52,0,0,1-1.19,6.7,11.54,11.54,0,0,1-4.27,4.23c-2.56,1.58-5.77,2.56-8.58,1.5a10.82,10.82,0,0,1-4.24-3.34,15.3,15.3,0,0,1-3.46-6.29" transform="translate(-278.94 -222.96)"/><path class="cls-29" d="M340,420.64s-2.9,2.27-2.36,4.81c0,0,51.39,12.25,68.83,4.43,0,0,1-5.53-2.79-8.79C403.66,421.09,381.4,430.1,340,420.64Z" transform="translate(-278.94 -222.96)"/><path class="cls-5" d="M330.6,331c2.19,9.2,4.4,18.6,3.46,28s-5.64,19-14.07,23.26c3.87,2,8.82.56,12.08-2.35s5.21-7,7.07-10.91a30.29,30.29,0,0,1-9.84,18.46c2.62,1.7,5.91-.93,7.65-3.53,5.5-8.2,7.82-18.22,8.08-28.09s-1.42-19.69-3.35-29.37" transform="translate(-278.94 -222.96)"/><path class="cls-3" d="M409.76,318.84s1.66-14.76,4.32-18.26c0,0,3.13-9.1,2.85-11.38,0,0,.89-3.74,3-4.29,0,0,2.25-.87,2.11,2,0,0-3.22,14.25.93,16.66,0,0,2.84,4.28,10,2.61,0,0,7.64-.47,9.88-1.33l1.35-.24S444,308,442.58,308.4c0,0-6.53,2.33-8.29,3.82,0,0-2.83,4-4.11,4.05,0,0-7.15.74-8.91,4.65a7.83,7.83,0,0,0-2,1.87l-9.75-2.54Z" transform="translate(-278.94 -222.96)"/><path class="cls-29" d="M348.27,343.32S384.78,385.5,402,384.89c0,0,3.31.1,6.16-14.58l14.25-49.43-14.71-2.35s-7.69,42.57-19.92,37.25l-4.09-5.54-20.21-23.35s-9.45-11.7-19-.31C344.5,326.58,338.12,332.36,348.27,343.32Z" transform="translate(-278.94 -222.96)"/><path class="cls-39" d="M345.62,372.51l7.92-13.87c1.07-1.87,2.17-4,1.57-6.08a8.06,8.06,0,0,0-1.27-2.3l-10.7-15.19q0,7.27-.05,14.55c0,9.09,0,18.41,3.16,26.93" transform="translate(-278.94 -222.96)"/></svg>