<svg id="Objects" xmlns="http://www.w3.org/2000/svg" viewBox="0 0 372.4 404.81"><defs><style>.cls-1{opacity:0.15;}.cls-2{fill:#2a3549;}.cls-3{fill:#3c4d68;}.cls-4{fill:#fff;}.cls-5{fill:#192e3a;}.cls-6{fill:#ed3b2e;}.cls-7{fill:#f84834;}.cls-8{fill:#4f4003;}.cls-9{fill:#ffe2c9;}.cls-10{fill:#d2a580;}.cls-11{fill:#7f4516;}.cls-12{fill:#131416;}.cls-13{fill:#506a91;}.cls-14{fill:#40567a;}.cls-15{fill:#cfd7e2;}</style></defs><title>8-People</title><ellipse class="cls-1" cx="186.2" cy="363.54" rx="186.2" ry="41.27"/><path class="cls-2" d="M358.11,460.49s-2.25,152.18-2.88,157.23,10.18,8.56,12.09,0,3.17-157.23,3.17-157.23H358.11Z" transform="translate(-195.14 -264.15)"/><path class="cls-3" d="M478.59,520.92s2.53,88.67,0,91.36H467.81V520.92C467.81,516.53,478.49,517.23,478.59,520.92Z" transform="translate(-195.14 -264.15)"/><path class="cls-3" d="M413.49,519.39s-1.14,92.28-3.57,92.9-10.38,0-10.38,0-1.58-82.43,0-90.2S413.49,519.39,413.49,519.39Z" transform="translate(-195.14 -264.15)"/><path class="cls-3" d="M390.64,506.5l4,16.75L482,522.09l0.34-21.58S413,499.7,390.64,506.5Z" transform="translate(-195.14 -264.15)"/><path class="cls-4" d="M458.32,403.29s7.37,11.38,7.7,15C466,418.29,459.27,408.05,458.32,403.29Z" transform="translate(-195.14 -264.15)"/><path class="cls-5" d="M399.23,595.49s7.63,12.32,8.86,15.93-2.52,13.19-4.43,13.7-15.52,3-16.53,5.55,0,6.79,0,6.79,16.47,1.75,25.38,0,15.8-28.47,14.37-38.56c0,0-12.19-9.08-14.37-11.09S399.23,595.49,399.23,595.49Z" transform="translate(-195.14 -264.15)"/><path class="cls-6" d="M397.53,481.76s-74.43-8.89-80-4.86S310,489.5,315,496.56s76.64,94.51,80.67,98.93,18.79-2.63,21-8.68c0,0-66.37-80.17-68.89-86.72,0,0,61.92-.2,68.89-9.11S434,479.92,428.48,476.9,397.53,481.76,397.53,481.76Z" transform="translate(-195.14 -264.15)"/><path class="cls-5" d="M345.79,624.62s-3,12.1-5.55,14.12-24.2-3-26.22,0-1.88,13.61-1.88,13.61,39.69,4.54,45.24,0c0,0,10.28,2.52,13.71-.5,0,0-2.12-26.69-5.14-30.24S345.79,624.62,345.79,624.62Z" transform="translate(-195.14 -264.15)"/><path class="cls-7" d="M428.48,476.9s-8.74,11.09-16,11.6-77.81-1-83.86,6.05,15.13,117.91,12.6,132.82c0,0,26.72.72,30.25,0,0,0-22.18-105.09-19.66-110.13s101.55-10.12,107.1-15.66,6.05-15.63,4.54-21.18S428.48,476.9,428.48,476.9Z" transform="translate(-195.14 -264.15)"/><path class="cls-8" d="M444.44,332.6s9.2-10.79,10.79-16.82,1.59-26.66,1.59-26.66,3.81,0,4.76-1.9-2.86-6.27-4.76-5.52c0,0,4.13-4.6,1.59-7.79s-8.89,4.1-8.89,4.1-14.92-14-39.67-8.57c0,0-7.93-11-12.38-1.24,0,0-9.84-8.6-14.6,3.14s3.08,19,3.08,19-5.91,23.28,2.17,30S432.69,335.14,444.44,332.6Z" transform="translate(-195.14 -264.15)"/><path class="cls-9" d="M436.5,309.19s-7.93,46.26-9.2,48.49-16.19,11.11-27.93,9.2-14-6-13.33-20,4.44-52.36,5.4-54c0,0,5.08,3.06,7.62,2.64s21.58-.53,23.8,0S436.5,309.19,436.5,309.19Z" transform="translate(-195.14 -264.15)"/><path class="cls-9" d="M427.58,334.19s7-9.52,13-8.25,5.4,11.74,3.49,15.23S427.9,352.91,427.58,334.19Z" transform="translate(-195.14 -264.15)"/><path class="cls-10" d="M401.59,325.82s0.16,6.62-1,6.46-6.51-.3-7.46.8-0.79,6.18,0,6.66a20.35,20.35,0,0,0,8.42,1s-7.47-1.43-7.62-2.22-0.16-5.22.63-5.15,5.89,0.88,7,0S401.91,327,401.59,325.82Z" transform="translate(-195.14 -264.15)"/><path class="cls-11" d="M416.19,347.2s-13,4.76-23,1.11C393.18,348.31,406.83,355.29,416.19,347.2Z" transform="translate(-195.14 -264.15)"/><ellipse class="cls-12" cx="415.44" cy="326.51" rx="3.07" ry="1.86" transform="translate(-148.56 440.69) rotate(-83.89)"/><ellipse class="cls-12" cx="394.4" cy="323.45" rx="3.07" ry="1.86" transform="translate(-164.33 417.04) rotate(-83.89)"/><path class="cls-8" d="M412.54,306.58c-0.56-.1,8.29-2.39,11.58,5.24C424.12,311.81,415.24,307.05,412.54,306.58Z" transform="translate(-195.14 -264.15)"/><path class="cls-8" d="M401.27,304.36c0.48,0-5.94-3.52-8.75,3.17A13,13,0,0,1,401.27,304.36Z" transform="translate(-195.14 -264.15)"/><path class="cls-9" d="M396.95,405.73s-9.32,27.69-13.6,36.07S394,449.56,394,449.56s13.42-29.85,14.25-37.47S400.55,395.3,396.95,405.73Z" transform="translate(-195.14 -264.15)"/><path class="cls-13" d="M448.32,373.3c-2.62,5-14.28,15.71-21.66,14.76s-17.37-5.66-8.19-18.56c3.36-.86,7-1.67,10.49-2.35a72,72,0,0,1,19.48-.6C448.93,367,450.59,369,448.32,373.3Z" transform="translate(-195.14 -264.15)"/><path class="cls-14" d="M402.86,375.13c1.11-1.34,7.7-3.61,15.61-5.63-9.18,12.9.81,17.61,8.19,18.56s19-9.76,21.66-14.76c2.27-4.33.61-6.31,0.12-6.76a123.24,123.24,0,0,1,20.34,3.6c3.17,2.28,18.58,37.31,17.22,38.94-2.7,3.25-20,9.2-20,9.2s6.19,19.94,4.44,31.29c-0.73,4.72-4.44,40.56-4.44,40.56-19-16.19-59.84-9.25-59.84-9.25s8.16-17.86,9.23-24.53S406,410,406,410,394,411.3,394,407.81,401.27,377,402.86,375.13Z" transform="translate(-195.14 -264.15)"/><path class="cls-9" d="M413.65,361.16s5.92,6.66,7.88,10.79c0,0-7.24,8.57,3.23,10.79s20.95-11.85,19.36-15.6c0,0-8.89-.58-11.42-1.85s-3.73-14.6-3.73-14.6S418.41,345.61,413.65,361.16Z" transform="translate(-195.14 -264.15)"/><path class="cls-9" d="M468.38,417.44s6.21,18.93,5.26,21.47-37.45,5.4-43.16,5.08-4.76,9.2,1.27,10.47,55.54,2.54,59.66-1-5.53-40.08-6.8-43.26C478.45,413.15,476.67,413.83,468.38,417.44Z" transform="translate(-195.14 -264.15)"/><path class="cls-9" d="M418.4,439.91s-5.15-6.75-7.18-8.45a10,10,0,0,0-5.2-1.86s-3.81,2.22-4.44,4.13-3.33,7.67,0,8.91,7.59-5.26,7.59-5.26,3.13,1.72,4.12,3.32S418.4,439.91,418.4,439.91Z" transform="translate(-195.14 -264.15)"/><path class="cls-9" d="M432,446.93s-15.42-6.63-19.57-5.14a50.3,50.3,0,0,1-11.66,2.46c-2.62.21-4.44,3-4.93,2.68S426.78,452,432,446.93Z" transform="translate(-195.14 -264.15)"/><path class="cls-9" d="M430.47,444c-0.93,0-8.09-1.75-10.31-3s-7.44-6.05-8.89-5.55-2.7,2.86-3,6.82,1.59,6.35,4.28,5.4,2.22-4.13,2.22-4.13,9.36,4.86,12.54,4.34S430.47,444,430.47,444Z" transform="translate(-195.14 -264.15)"/><path class="cls-15" d="M441.42,455.78a23.55,23.55,0,0,0,0-4.8c-0.32-1.11-3.65-3.81-3.65-3.81s-43.8-1.75-50.3-2.06c0,0-17.93-53-20.79-55.85,0,0-60.93,2.38-72.36,4.76L311,447.89v7.88s74.42,1.31,79.81,0h50.62Z" transform="translate(-195.14 -264.15)"/><path class="cls-4" d="M366.68,389.25s-5.47.24-5.71,2.14,18.09,53.16,19.28,54,7.22-.24,7.22-0.24S369.3,392.34,366.68,389.25Z" transform="translate(-195.14 -264.15)"/><path class="cls-4" d="M310.57,379.93c0.44-1.89.74-3.93,1.8-5.6a1.18,1.18,0,0,1,2.13.77,18.7,18.7,0,0,1-1.87,5.89C311.94,382.26,310.29,381.11,310.57,379.93Z" transform="translate(-195.14 -264.15)"/><path class="cls-4" d="M297.42,374.47a42.31,42.31,0,0,1,1.06,5.66,1.16,1.16,0,0,1-2.29.42,42.39,42.39,0,0,1-.94-5.68A1.11,1.11,0,0,1,297.42,374.47Z" transform="translate(-195.14 -264.15)"/><path class="cls-4" d="M279.74,383.21a14.54,14.54,0,0,1,2.46,1.73c0.82,0.59,1.69,1.12,2.49,1.72a1.22,1.22,0,0,1-1.1,2.14,10.17,10.17,0,0,1-2.7-1.43,7.46,7.46,0,0,1-2.63-2.53A1.2,1.2,0,0,1,279.74,383.21Z" transform="translate(-195.14 -264.15)"/><path class="cls-4" d="M275.58,401.45a7,7,0,0,1,5.2-1.69,1.24,1.24,0,0,1,.11,2.45c-0.7.16-1.39,0.3-2.08,0.53a16.05,16.05,0,0,1-2.27.73A1.16,1.16,0,0,1,275.58,401.45Z" transform="translate(-195.14 -264.15)"/><path class="cls-2" d="M264.49,464.69s-2.25,172.09-2.88,177.8,10.18,9.68,12.09,0,3.17-177.8,3.17-177.8H264.49Z" transform="translate(-195.14 -264.15)"/><polygon class="cls-2" points="320.39 194.13 254.35 190.31 254.35 210.79 320.39 210.79 320.39 194.13"/><polygon class="cls-2" points="60.16 190.31 254.35 190.31 254.35 210.79 60.16 206.19 60.16 190.31"/><path class="cls-2" d="M502.48,470.17s10.9,161.93,10.9,167.56c0,0,8.77,8.41,10.68,0s-8.91-167.56-8.91-167.56H502.48Z" transform="translate(-195.14 -264.15)"/><path class="cls-2" d="M449.49,474.93s11.12,170.58,10,174.39-9.84,5.91-11.46,2.1S436.5,473.94,436.5,473.94Z" transform="translate(-195.14 -264.15)"/></svg>