<svg xmlns="http://www.w3.org/2000/svg" viewBox="0 0 180.63 144.31"><defs><style>.cls-1{fill:#fff;}</style></defs><title>Ativo 2</title><g id="Camada_2" data-name="Camada 2"><g id="Camada_1-2" data-name="Camada 1"><path class="cls-1" d="M13.83,132.32a1.93,1.93,0,0,1-1.71,1.05,1.72,1.72,0,0,1-1.58-1.05L4.65,121.17v21.34c0,1-1.14,1.54-2.33,1.54S0,143.52,0,142.51V114.27a2.14,2.14,0,0,1,2.33-2.33c1.67,0,2.59.57,3.69,2.63l6.15,11.64,6.24-11.64c1.1-2.06,2-2.63,3.65-2.63a2.12,2.12,0,0,1,2.33,2.33v28.24c0,1-1.14,1.54-2.33,1.54s-2.33-.53-2.33-1.54V121.43Z"/><path class="cls-1" d="M26.57,142.11a1.22,1.22,0,0,1,0-.4l8.74-28.46a2.93,2.93,0,0,1,2.94-1.58c1.32,0,2.64.53,3,1.58L50,141.72a1.28,1.28,0,0,1,.09.4c0,1.1-1.62,1.93-2.94,1.93a1.47,1.47,0,0,1-1.58-1l-1.8-6.24H32.89l-1.8,6.24a1.5,1.5,0,0,1-1.62,1C28.2,144,26.57,143.26,26.57,142.11Zm16.12-9L38.3,118,33.9,133.11Z"/><path class="cls-1" d="M61.84,116.07c-3.38,0-5.27,1.8-5.27,5.67v12.78c0,3.86,1.89,5.67,5.36,5.67,4.48,0,4.87-3,5.05-5,.09-1.14,1-1.54,2.28-1.54,1.62,0,2.37.48,2.37,2.42,0,4.83-4,8.21-10,8.21-5.31,0-9.71-2.68-9.71-9.79V121.74c0-7.11,4.44-9.79,9.75-9.79,6,0,10,3.29,10,7.95,0,2-.75,2.42-2.33,2.42-1.41,0-2.28-.48-2.33-1.54C66.89,119.23,66.36,116.07,61.84,116.07Z"/><path class="cls-1" d="M74.66,113.44a1.49,1.49,0,0,1,1.54-1.49h8.34c5.53,0,10.1,2.15,10.1,9,0,5.23-2.68,7.82-6.19,8.7l6.15,11.55a1.35,1.35,0,0,1,.18.66c0,1.19-1.49,2.37-2.81,2.37a2.15,2.15,0,0,1-1.84-1.36l-6.41-12.56H79.27v12.25c0,1-1.14,1.54-2.33,1.54s-2.28-.53-2.28-1.54Zm4.61,2.63v10.45h5.27c3.29,0,5.45-1.41,5.45-5.23s-2.15-5.23-5.45-5.23Z"/><path class="cls-1" d="M97.58,134.52V121.74c0-7.11,4.26-9.79,9.84-9.79s9.88,2.68,9.88,9.79v12.78c0,7.11-4.35,9.79-9.88,9.79S97.58,141.63,97.58,134.52Zm15.06-12.78c0-3.86-2-5.67-5.23-5.67s-5.18,1.8-5.18,5.67v12.78c0,3.86,1.89,5.67,5.18,5.67s5.23-1.8,5.23-5.67Z"/><path class="cls-1" d="M135.27,132.32a1.93,1.93,0,0,1-1.71,1.05,1.72,1.72,0,0,1-1.58-1.05l-5.88-11.15v21.34c0,1-1.14,1.54-2.33,1.54s-2.33-.53-2.33-1.54V114.27a2.14,2.14,0,0,1,2.33-2.33c1.67,0,2.59.57,3.69,2.63l6.15,11.64,6.24-11.64c1.1-2.06,2-2.63,3.64-2.63a2.12,2.12,0,0,1,2.33,2.33v28.24c0,1-1.14,1.54-2.33,1.54s-2.33-.53-2.33-1.54V121.43Z"/><path class="cls-1" d="M150.29,113.44c0-1.05,1.19-1.49,2.33-1.49s2.33.44,2.33,1.49v29.07c0,1-1.14,1.54-2.33,1.54s-2.33-.53-2.33-1.54Z"/><path class="cls-1" d="M157.14,142.11a1.22,1.22,0,0,1,0-.4l8.74-28.46a2.93,2.93,0,0,1,2.94-1.58c1.32,0,2.64.53,3,1.58l8.7,28.46a1.28,1.28,0,0,1,.09.4c0,1.1-1.62,1.93-2.94,1.93a1.47,1.47,0,0,1-1.58-1l-1.8-6.24H163.46l-1.8,6.24a1.5,1.5,0,0,1-1.62,1C158.76,144,157.14,143.26,157.14,142.11Zm16.12-9L168.86,118l-4.39,15.06Z"/><polygon class="cls-1" points="43.72 35.68 87.57 59.9 53.53 69.71 43.72 35.68"/><polygon class="cls-1" points="18.81 80.77 52.85 70.95 62.67 104.99 18.81 80.77"/><polygon class="cls-1" points="32.46 0.28 42.28 34.32 8.24 44.13 32.46 0.28"/><polygon class="cls-1" points="42.76 35.95 52.57 69.99 18.54 79.81 42.76 35.95"/><polygon class="cls-1" points="44.2 34.8 78.23 24.99 88.05 59.02 44.2 34.8"/><polygon class="cls-1" points="33.42 0 77.28 24.22 43.24 34.04 33.42 0"/><polygon class="cls-1" points="7.84 45.29 41.88 35.47 17.66 79.33 7.84 45.29"/><polygon class="cls-1" points="90.17 59.9 134.02 35.68 124.2 69.71 90.17 59.9"/><polygon class="cls-1" points="124.89 70.95 158.92 80.77 115.07 104.99 124.89 70.95"/><polygon class="cls-1" points="135.45 34.31 145.27 0.28 169.49 44.13 135.45 34.31"/><polygon class="cls-1" points="125.16 69.99 134.98 35.95 159.2 79.81 125.16 69.99"/><polygon class="cls-1" points="99.5 24.98 133.54 34.8 89.68 59.02 99.5 24.98"/><polygon class="cls-1" points="100.46 24.22 144.31 0 134.49 34.04 100.46 24.22"/><polygon class="cls-1" points="135.86 35.47 169.89 45.29 160.07 79.32 135.86 35.47"/><polygon class="cls-1" points="54.5 70.47 88.87 60.56 123.23 70.47 88.87 89.18 54.5 70.47"/></g></g></svg>