<svg xmlns="http://www.w3.org/2000/svg" viewBox="0 0 456.42 94.23"><defs><style>.cls-1{fill:#fff;}</style></defs><title>Ativo 1</title><g id="Camada_2" data-name="Camada 2"><g id="Camada_1-2" data-name="Camada 1"><polygon class="cls-1" points="32.2 32.02 71.55 53.76 41.01 62.57 32.2 32.02"/><polygon class="cls-1" points="9.85 72.49 40.39 63.68 49.2 94.22 9.85 72.49"/><polygon class="cls-1" points="22.1 0.25 30.91 30.8 0.36 39.61 22.1 0.25"/><polygon class="cls-1" points="31.33 32.27 40.15 62.82 9.6 71.63 31.33 32.27"/><polygon class="cls-1" points="32.63 31.24 63.17 22.43 71.99 52.97 32.63 31.24"/><polygon class="cls-1" points="22.96 0 62.32 21.74 31.77 30.55 22.96 0"/><polygon class="cls-1" points="0 40.65 30.54 31.83 8.81 71.19 0 40.65"/><polygon class="cls-1" points="73.88 53.76 113.24 32.02 104.43 62.56 73.88 53.76"/><polygon class="cls-1" points="105.04 63.68 135.59 72.49 96.23 94.22 105.04 63.68"/><polygon class="cls-1" points="114.53 30.8 123.34 0.25 145.07 39.61 114.53 30.8"/><polygon class="cls-1" points="105.29 62.81 114.1 32.27 135.84 71.63 105.29 62.81"/><polygon class="cls-1" points="82.26 22.42 112.81 31.23 73.45 52.97 82.26 22.42"/><polygon class="cls-1" points="83.12 21.74 122.48 0 113.67 30.55 83.12 21.74"/><polygon class="cls-1" points="114.89 31.83 145.44 40.65 136.63 71.19 114.89 31.83"/><polygon class="cls-1" points="41.88 63.25 72.72 54.36 103.56 63.25 72.72 80.03 41.88 63.25"/><path class="cls-1" d="M146.07,79.09a2.45,2.45,0,0,1,.09-.8L163.76,21c.71-2.12,3.27-3.19,5.93-3.19s5.31,1.06,6,3.19l17.52,57.33a2.59,2.59,0,0,1,.18.8c0,2.21-3.27,3.89-5.93,3.89-1.5,0-2.74-.53-3.18-1.95l-3.63-12.56H158.81L155.18,81c-.44,1.42-1.68,1.95-3.27,1.95C149.34,83,146.07,81.39,146.07,79.09Zm32.47-18.14L169.69,30.6l-8.85,30.35Z"/><path class="cls-1" d="M217.11,26.62c-6.81,0-10.62,3.63-10.62,11.41V63.78c0,7.79,3.8,11.41,10.79,11.41,9,0,9.82-6.1,10.17-10,.18-2.3,2-3.1,4.6-3.1,3.27,0,4.78,1,4.78,4.87,0,9.73-8.05,16.54-20.17,16.54-10.7,0-19.55-5.4-19.55-19.73V38c0-14.33,8.94-19.73,19.64-19.73,12.12,0,20.08,6.64,20.08,16,0,4-1.5,4.87-4.69,4.87-2.83,0-4.6-1-4.69-3.1C227.28,33,226.22,26.62,217.11,26.62Z"/><path class="cls-1" d="M242.94,21.31a3,3,0,0,1,3.1-3h16.81c11.15,0,20.35,4.33,20.35,18,0,10.53-5.4,15.75-12.47,17.52l12.39,23.27a2.72,2.72,0,0,1,.35,1.33c0,2.39-3,4.78-5.66,4.78-1.59,0-2.83-1.06-3.72-2.74L261.16,55.2h-8.94V79.88c0,2-2.3,3.1-4.69,3.1s-4.6-1.06-4.6-3.1Zm9.29,5.31V47.68h10.62c6.64,0,11-2.83,11-10.53s-4.33-10.53-11-10.53Z"/><path class="cls-1" d="M289.12,63.78V38c0-14.33,8.58-19.73,19.82-19.73S328.84,23.7,328.84,38V63.78c0,14.33-8.76,19.73-19.91,19.73S289.12,78.11,289.12,63.78ZM319.47,38c0-7.79-4-11.41-10.53-11.41S298.5,30.25,298.5,38V63.78c0,7.79,3.8,11.41,10.44,11.41s10.53-3.63,10.53-11.41Z"/><path class="cls-1" d="M365,59.36a3.9,3.9,0,0,1-3.45,2.12,3.46,3.46,0,0,1-3.19-2.12L346.54,36.89v43c0,2-2.3,3.1-4.69,3.1s-4.69-1.06-4.69-3.1V23c0-3.45,2.3-4.69,4.69-4.69,3.36,0,5.22,1.15,7.43,5.31l12.39,23.44,12.56-23.44c2.21-4.16,4-5.31,7.34-5.31,2.48,0,4.69,1.24,4.69,4.69V79.88c0,2-2.3,3.1-4.69,3.1s-4.69-1.06-4.69-3.1V37.42Z"/><path class="cls-1" d="M395.28,21.31c0-2.12,2.39-3,4.69-3s4.69.88,4.69,3V79.88c0,2-2.3,3.1-4.69,3.1s-4.69-1.06-4.69-3.1Z"/><path class="cls-1" d="M409.08,79.09a2.45,2.45,0,0,1,.09-.8L426.78,21c.71-2.12,3.27-3.19,5.93-3.19s5.31,1.06,6,3.19l17.52,57.33a2.59,2.59,0,0,1,.18.8c0,2.21-3.27,3.89-5.93,3.89-1.5,0-2.74-.53-3.18-1.95l-3.63-12.56H421.82L418.2,81c-.44,1.42-1.68,1.95-3.27,1.95C412.36,83,409.08,81.39,409.08,79.09Zm32.47-18.14L432.71,30.6l-8.85,30.35Z"/></g></g></svg>