<svg id="Layer_1" data-name="Layer 1" xmlns="http://www.w3.org/2000/svg" viewBox="0 0 364.15 800"><defs><style>.cls-1{fill:#5a5a5a;}.cls-2{fill:#f2c834;}.cls-2,.cls-3,.cls-4,.cls-5,.cls-6{fill-rule:evenodd;}.cls-3{fill:#282828;}.cls-4{fill:#98509f;}.cls-5{fill:#009b82;}.cls-6{fill:#084e43;}.cls-7{fill:#fff;}</style></defs><title>Créditos</title><path class="cls-1" d="M684.6,0C567.11,80.95,494.26,233.59,494.26,399.34,494.26,566,567.91,719.4,686.53,800H656c-50.59-39.51-93.26-93-124.31-156-36.26-73.64-55.43-158.23-55.43-244.64s19.17-171,55.43-244.64C562.4,92.35,604.47,39.37,654.32,0" transform="translate(-435.85 0)"/><path class="cls-2" d="M591.42,122.78a48.49,48.49,0,1,1,48.49-48.49A48.58,48.58,0,0,1,591.42,122.78Z" transform="translate(-435.85 0)"/><path class="cls-3" d="M591.41,775.76a48.49,48.49,0,1,1,48.49-48.49A48.58,48.58,0,0,1,591.41,775.76Z" transform="translate(-435.85 0)"/><path class="cls-4" d="M510.82,272.78a48.49,48.49,0,1,1,48.49-48.49A48.58,48.58,0,0,1,510.82,272.78Z" transform="translate(-435.85 0)"/><path class="cls-5" d="M484.34,450.92a48.49,48.49,0,1,1,48.49-48.49A48.58,48.58,0,0,1,484.34,450.92Z" transform="translate(-435.85 0)"/><path class="cls-6" d="M510.7,625.76a48.49,48.49,0,1,1,48.49-48.49A48.58,48.58,0,0,1,510.7,625.76Z" transform="translate(-435.85 0)"/><path class="cls-7" d="M550,90.07a7.25,7.25,0,0,1,.42-2.54,5.38,5.38,0,0,1,1.17-1.89,5,5,0,0,1,1.79-1.18,6.11,6.11,0,0,1,2.27-.41,10.43,10.43,0,0,1,1.7.12,5.08,5.08,0,0,1,1.2.33,1.88,1.88,0,0,1,.71.5,1,1,0,0,1,.23.63,0.8,0.8,0,0,1-.09.39,0.84,0.84,0,0,1-.25.28,1,1,0,0,1-.34.16,1.42,1.42,0,0,1-.37.05h-0.22l-0.21,0-0.57-.15-0.53-.13-0.52-.09a4.08,4.08,0,0,0-.54,0,3.43,3.43,0,0,0-1.11.18,2,2,0,0,0-.9.62,3.22,3.22,0,0,0-.61,1.21A7.07,7.07,0,0,0,553,90a6.74,6.74,0,0,0,.18,1.63,3.62,3.62,0,0,0,.54,1.23,2.4,2.4,0,0,0,.89.77,2.74,2.74,0,0,0,1.25.27,3,3,0,0,0,.6-0.06q0.31-.06.64-0.16l0.67-.22,0.68-.25a0.87,0.87,0,0,1,.25,0,0.84,0.84,0,0,1,.36.07,0.9,0.9,0,0,1,.28.2,0.87,0.87,0,0,1,.18.29,1,1,0,0,1,.06.36,0.88,0.88,0,0,1-.2.56,2,2,0,0,1-.53.46,3.94,3.94,0,0,1-.75.36,7.5,7.5,0,0,1-.88.25,8.62,8.62,0,0,1-.9.15,7.49,7.49,0,0,1-.83.05,5.93,5.93,0,0,1-2.16-.39,4.86,4.86,0,0,1-1.73-1.13,5.31,5.31,0,0,1-1.16-1.84A6.88,6.88,0,0,1,550,90.07Z" transform="translate(-435.85 0)"/><path class="cls-7" d="M564.92,94.12a1.57,1.57,0,0,1-.11.6,1.51,1.51,0,0,1-.31.48,1.46,1.46,0,0,1-.46.32,1.43,1.43,0,0,1-1.13,0,1.41,1.41,0,0,1-.46-0.32,1.55,1.55,0,0,1-.31-0.48,1.57,1.57,0,0,1-.11-0.6V85.73a1.31,1.31,0,0,1,.14-0.63,1.35,1.35,0,0,1,.39-0.45,1.71,1.71,0,0,1,.57-0.27,2.56,2.56,0,0,1,.68-0.09h3.13a11.87,11.87,0,0,1,1.66.11,4.39,4.39,0,0,1,1.4.43,2.52,2.52,0,0,1,1,.87,2.6,2.6,0,0,1,.36,1.45,3.11,3.11,0,0,1-.13.92,2.17,2.17,0,0,1-.43.78,2.51,2.51,0,0,1-.78.59,4.06,4.06,0,0,1-1.18.36v0a4.4,4.4,0,0,1,.86.18,2,2,0,0,1,.61.32,1.6,1.6,0,0,1,.41.48,2.87,2.87,0,0,1,.26.66,6.9,6.9,0,0,1,.16.87q0.06,0.49.12,1.11,0,0.17,0,.33c0,0.11,0,.21,0,0.32a2.83,2.83,0,0,1-.06.62,1.21,1.21,0,0,1-.22.48,1,1,0,0,1-.43.32,1.85,1.85,0,0,1-.7.11,1.12,1.12,0,0,1-.65-0.18,1.39,1.39,0,0,1-.43-0.49,2.68,2.68,0,0,1-.26-0.72c-0.06-.27-0.11-0.57-0.14-0.88s-0.11-.83-0.16-1.14a2,2,0,0,0-.26-0.74,1,1,0,0,0-.51-0.4,2.83,2.83,0,0,0-.91-0.12h-1.59v3.15Zm1.2-5a7,7,0,0,0,.84-0.05,2.46,2.46,0,0,0,.76-0.21,1.35,1.35,0,0,0,.55-0.47,1.44,1.44,0,0,0,.21-0.82,1.58,1.58,0,0,0-.2-0.89,1.26,1.26,0,0,0-.54-0.45,2.39,2.39,0,0,0-.78-0.18c-0.29,0-.6,0-0.92,0h-1.18v3.11h1.25Z" transform="translate(-435.85 0)"/><path class="cls-7" d="M574.86,95.64a1.26,1.26,0,0,1-.67-0.16,1.3,1.3,0,0,1-.43-0.43,1.82,1.82,0,0,1-.23-0.59,3.12,3.12,0,0,1-.07-0.66V86.36a5.84,5.84,0,0,1,.05-0.82,1.52,1.52,0,0,1,.24-0.65,1.25,1.25,0,0,1,.55-0.43,2.48,2.48,0,0,1,1-.16h5a1.11,1.11,0,0,1,.43.08,1.16,1.16,0,0,1,.35.22,1,1,0,0,1,.23.32,0.94,0.94,0,0,1,.09.4,0.91,0.91,0,0,1-.09.39,1,1,0,0,1-.23.32,1.09,1.09,0,0,1-.35.21,1.15,1.15,0,0,1-.43.08h-4v2.53h3.67a1.16,1.16,0,0,1,.43.08,1.06,1.06,0,0,1,.35.22,1.08,1.08,0,0,1,.23.32,0.95,0.95,0,0,1,0,.79,1,1,0,0,1-.23.32,1.09,1.09,0,0,1-.35.21,1.15,1.15,0,0,1-.43.08h-3.67v2.73h4.22a1,1,0,0,1,.39.08,1,1,0,0,1,.54.54,1,1,0,0,1,0,.79,1,1,0,0,1-.22.32,1,1,0,0,1-.32.21,1,1,0,0,1-.39.08h-5.62Zm1.46-12.41a0.62,0.62,0,0,1-.42.16,0.6,0.6,0,0,1-.38-0.14,0.46,0.46,0,0,1-.18-0.39,0.41,0.41,0,0,1,.06-0.21l0.13-.21,1.55-2.25a2.09,2.09,0,0,1,.37-0.42,0.68,0.68,0,0,1,.45-0.17,1,1,0,0,1,.38.08,1.31,1.31,0,0,1,.34.21,1.08,1.08,0,0,1,.25.32,0.82,0.82,0,0,1,.1.39,0.88,0.88,0,0,1-.36.66Z" transform="translate(-435.85 0)"/><path class="cls-7" d="M584.73,95.64a1.3,1.3,0,0,1-.7-0.17,1.29,1.29,0,0,1-.44-0.45,1.91,1.91,0,0,1-.23-0.64,4.18,4.18,0,0,1-.06-0.73V86.31a3.58,3.58,0,0,1,.1-0.91,1.39,1.39,0,0,1,.34-0.62,1.42,1.42,0,0,1,.61-0.36,3.2,3.2,0,0,1,.93-0.12h1.94A7.17,7.17,0,0,1,592,85.71a5.44,5.44,0,0,1,1.63,4.34,6.36,6.36,0,0,1-.45,2.48A4.58,4.58,0,0,1,592,94.28a5.29,5.29,0,0,1-2,1,9,9,0,0,1-2.55.34h-2.72Zm1.43-1.75h1.07a5.08,5.08,0,0,0,1.53-.2,2.25,2.25,0,0,0,1.06-.7,3.13,3.13,0,0,0,.62-1.22,6.91,6.91,0,0,0,.2-1.79,4.48,4.48,0,0,0-.82-2.95,3.12,3.12,0,0,0-2.52-1h-1.14v7.83Z" transform="translate(-435.85 0)"/><path class="cls-7" d="M598.5,94.12a1.57,1.57,0,0,1-.11.6,1.51,1.51,0,0,1-.31.48,1.46,1.46,0,0,1-.46.32,1.43,1.43,0,0,1-1.13,0A1.41,1.41,0,0,1,596,95.2a1.55,1.55,0,0,1-.31-0.48,1.57,1.57,0,0,1-.11-0.6v-8.3a1.57,1.57,0,0,1,.42-1.08,1.42,1.42,0,0,1,.46-0.32,1.43,1.43,0,0,1,1.13,0,1.47,1.47,0,0,1,.46.32,1.52,1.52,0,0,1,.31.48,1.57,1.57,0,0,1,.11.6v8.3Z" transform="translate(-435.85 0)"/><path class="cls-7" d="M600.77,86.36a1.14,1.14,0,0,1-.43-0.08,1.15,1.15,0,0,1-.36-0.22,1.07,1.07,0,0,1-.24-0.33,0.92,0.92,0,0,1-.09-0.4,0.94,0.94,0,0,1,.09-0.4A1.06,1.06,0,0,1,600,84.6a1.15,1.15,0,0,1,.36-0.22,1.14,1.14,0,0,1,.43-0.08h7.13a1.14,1.14,0,0,1,.43.08,1.15,1.15,0,0,1,.36.22,1.06,1.06,0,0,1,.24.33,0.94,0.94,0,0,1,.09.4,0.92,0.92,0,0,1-.09.4,1.07,1.07,0,0,1-.24.33,1.15,1.15,0,0,1-.36.22,1.14,1.14,0,0,1-.43.08h-2.09v7.76a1.57,1.57,0,0,1-.11.6,1.51,1.51,0,0,1-.31.48,1.46,1.46,0,0,1-.46.32,1.43,1.43,0,0,1-1.13,0,1.41,1.41,0,0,1-.46-0.32,1.55,1.55,0,0,1-.31-0.48,1.57,1.57,0,0,1-.11-0.6V86.36h-2.14Z" transform="translate(-435.85 0)"/><path class="cls-7" d="M609.19,90a7.84,7.84,0,0,1,.35-2.38,5.18,5.18,0,0,1,1-1.88,4.77,4.77,0,0,1,1.74-1.23,6.23,6.23,0,0,1,2.45-.45,6.33,6.33,0,0,1,2.41.43,4.71,4.71,0,0,1,1.75,1.21A5.21,5.21,0,0,1,620,87.56a8.35,8.35,0,0,1,0,4.82A5.12,5.12,0,0,1,619,94.26a4.78,4.78,0,0,1-1.75,1.22,6.27,6.27,0,0,1-2.43.44,6.35,6.35,0,0,1-2.39-.42,4.75,4.75,0,0,1-1.75-1.2,5.13,5.13,0,0,1-1.07-1.87A7.73,7.73,0,0,1,609.19,90Zm3,0a5.59,5.59,0,0,0,.62,2.93,2.37,2.37,0,0,0,3.85,0,5.48,5.48,0,0,0,.63-2.93,8.22,8.22,0,0,0-.15-1.67,3.77,3.77,0,0,0-.46-1.23,2.14,2.14,0,0,0-.79-0.76,2.62,2.62,0,0,0-2.28,0,2.14,2.14,0,0,0-.79.76,3.77,3.77,0,0,0-.46,1.23A8.22,8.22,0,0,0,612.23,90Z" transform="translate(-435.85 0)"/><path class="cls-7" d="M624.68,87.26a0.87,0.87,0,0,0,.25.63,2.18,2.18,0,0,0,.65.45,5.86,5.86,0,0,0,.91.33l1,0.29a15.93,15.93,0,0,1,1.5.53,4.67,4.67,0,0,1,1.16.67,2.74,2.74,0,0,1,.74.93,2.9,2.9,0,0,1,.26,1.29,3.29,3.29,0,0,1-.32,1.48,3.12,3.12,0,0,1-.93,1.12,4.42,4.42,0,0,1-1.47.71,7.08,7.08,0,0,1-1.94.25,9.66,9.66,0,0,1-2.2-.26,7.45,7.45,0,0,1-1-.3,4.27,4.27,0,0,1-.8-0.41,2,2,0,0,1-.54-0.5,1,1,0,0,1-.2-0.57,1,1,0,0,1,.08-0.38,1.38,1.38,0,0,1,.21-0.34,1.12,1.12,0,0,1,.29-0.25,0.62,0.62,0,0,1,.32-0.09,0.82,0.82,0,0,1,.27,0L623.22,93l0.28,0.14,0.31,0.14a9.2,9.2,0,0,0,1.21.44,5,5,0,0,0,1.41.2,3.66,3.66,0,0,0,.75-0.07,2.15,2.15,0,0,0,.63-0.23,1.2,1.2,0,0,0,.43-0.39,1.05,1.05,0,0,0,.16-0.59,1.09,1.09,0,0,0-.09-0.46A1.12,1.12,0,0,0,628,91.8a1.74,1.74,0,0,0-.38-0.27,3.77,3.77,0,0,0-.46-0.2l-0.35-.12-0.2-.07-0.2-.07L626,91l-0.23-.06-0.17-.05-0.14-.05-0.16-.06-0.73-.26a8.58,8.58,0,0,1-1.22-.54,3.21,3.21,0,0,1-.83-0.63,2.24,2.24,0,0,1-.47-0.8,3.25,3.25,0,0,1-.15-1A3,3,0,0,1,623.18,85a4.51,4.51,0,0,1,1.47-.69,7.2,7.2,0,0,1,1.94-.24,7.86,7.86,0,0,1,.85.05,8.89,8.89,0,0,1,.92.15,6.54,6.54,0,0,1,.89.26,3.85,3.85,0,0,1,.75.38,2,2,0,0,1,.53.49,1,1,0,0,1,.2.61,0.86,0.86,0,0,1-.07.36,0.89,0.89,0,0,1-.2.28,0.9,0.9,0,0,1-.29.18,0.93,0.93,0,0,1-.35.07,0.91,0.91,0,0,1-.43-0.1q-0.37-.19-0.68-0.32a5.27,5.27,0,0,0-.63-0.22,4.39,4.39,0,0,0-.64-0.12,6.32,6.32,0,0,0-.73,0,4.13,4.13,0,0,0-.74.07,2.39,2.39,0,0,0-.65.21,1.34,1.34,0,0,0-.46.37A0.88,0.88,0,0,0,624.68,87.26Z" transform="translate(-435.85 0)"/><path class="cls-7" d="M576.27,43.34a12.43,12.43,0,0,1,5.9,1.29,10.8,10.8,0,0,1,3.93,3.51,15.23,15.23,0,0,1,2.19,5.22,28.84,28.84,0,0,1,.68,6.41,31.64,31.64,0,0,1-.29,4.33,20.69,20.69,0,0,1-.91,3.91,14.83,14.83,0,0,1-1.62,3.34,10.49,10.49,0,0,1-2.4,2.59,10.67,10.67,0,0,1-3.27,1.67,13.85,13.85,0,0,1-4.22.59,12.53,12.53,0,0,1-5.95-1.29,10.74,10.74,0,0,1-3.93-3.52,15,15,0,0,1-2.17-5.22,29.54,29.54,0,0,1-.66-6.4,32.2,32.2,0,0,1,.28-4.27,20.64,20.64,0,0,1,.89-3.9,15,15,0,0,1,1.6-3.35,10.4,10.4,0,0,1,2.39-2.61,10.7,10.7,0,0,1,3.28-1.7A13.88,13.88,0,0,1,576.27,43.34Zm0,5.4a3.68,3.68,0,0,0-2.47.8,5.14,5.14,0,0,0-1.46,2.27,14.59,14.59,0,0,0-.71,3.49q-0.19,2-.19,4.47t0.19,4.47a14.41,14.41,0,0,0,.71,3.48A5.06,5.06,0,0,0,573.8,70a4.2,4.2,0,0,0,4.91,0,5.14,5.14,0,0,0,1.48-2.22,14,14,0,0,0,.73-3.46q0.2-2,.2-4.51t-0.19-4.45a14.19,14.19,0,0,0-.71-3.49,5.31,5.31,0,0,0-1.48-2.28A3.65,3.65,0,0,0,576.27,48.74Z" transform="translate(-435.85 0)"/><path class="cls-7" d="M603.82,49.09a9.8,9.8,0,0,0-1.65.14q-0.84.14-1.64,0.36t-1.57.51l-1.45.55a3,3,0,0,1-1.08.22,2.43,2.43,0,0,1-1.86-.83,3,3,0,0,1-.74-2,2.89,2.89,0,0,1,.46-1.54,3.22,3.22,0,0,1,1.54-1.21q1.1-.46,2.28-0.85t2.37-.66q1.19-.28,2.34-0.43a16.79,16.79,0,0,1,2.21-.15,16.19,16.19,0,0,1,4.38.56,10.61,10.61,0,0,1,3.46,1.63,7.46,7.46,0,0,1,3.1,6.26,10.9,10.9,0,0,1-1.14,4.71,23.33,23.33,0,0,1-3,4.72,39.35,39.35,0,0,1-4.37,4.5q-2.47,2.18-5.11,4.1h9.58a9.11,9.11,0,0,1,1.64.14,4.49,4.49,0,0,1,1.38.47,2.74,2.74,0,0,1,1,.87,2.33,2.33,0,0,1,.36,1.33,2.74,2.74,0,0,1-.81,2.16,3.39,3.39,0,0,1-2.33.73H596.68a7,7,0,0,1-1.5-.15,3.34,3.34,0,0,1-1.22-.52,2.49,2.49,0,0,1-.81-1,3.35,3.35,0,0,1-.3-1.49,5,5,0,0,1,2-3.92l3.21-2.73,1.3-1.11q0.64-.54,1.1-1l0.88-.84q1.58-1.45,2.88-2.87a27.34,27.34,0,0,0,2.22-2.74,14.43,14.43,0,0,0,1.43-2.49,5.41,5.41,0,0,0,.51-2.14A2.84,2.84,0,0,0,608,51a3.35,3.35,0,0,0-1-1.06,4.52,4.52,0,0,0-1.46-.64A7.13,7.13,0,0,0,603.82,49.09Z" transform="translate(-435.85 0)"/><path class="cls-7" d="M468.64,242.41a7.25,7.25,0,0,1,.42-2.54,5.38,5.38,0,0,1,1.17-1.89,5,5,0,0,1,1.79-1.18,6.11,6.11,0,0,1,2.27-.41,10.43,10.43,0,0,1,1.7.12,5.08,5.08,0,0,1,1.2.33,1.88,1.88,0,0,1,.71.5,1,1,0,0,1,.23.63,0.8,0.8,0,0,1-.09.39,0.84,0.84,0,0,1-.25.28,1,1,0,0,1-.34.16,1.42,1.42,0,0,1-.37.05h-0.22l-0.21,0-0.57-.15-0.53-.13-0.52-.09a4.08,4.08,0,0,0-.54,0,3.43,3.43,0,0,0-1.11.18,2,2,0,0,0-.9.62,3.22,3.22,0,0,0-.61,1.21,7.07,7.07,0,0,0-.22,1.94,6.74,6.74,0,0,0,.18,1.63,3.62,3.62,0,0,0,.54,1.23,2.4,2.4,0,0,0,.89.77,2.74,2.74,0,0,0,1.25.27,3,3,0,0,0,.6-0.06q0.31-.06.64-0.16l0.67-.22,0.68-.25a0.87,0.87,0,0,1,.25,0,0.84,0.84,0,0,1,.36.07,0.9,0.9,0,0,1,.28.2,0.87,0.87,0,0,1,.18.29,1,1,0,0,1,.06.36,0.88,0.88,0,0,1-.2.56,2,2,0,0,1-.53.46,3.94,3.94,0,0,1-.75.36,7.5,7.5,0,0,1-.88.25,8.62,8.62,0,0,1-.9.15,7.49,7.49,0,0,1-.83.05,5.93,5.93,0,0,1-2.16-.39,4.86,4.86,0,0,1-1.73-1.13,5.31,5.31,0,0,1-1.16-1.84A6.88,6.88,0,0,1,468.64,242.41Z" transform="translate(-435.85 0)"/><path class="cls-7" d="M483.52,246.46a1.57,1.57,0,0,1-.11.6,1.51,1.51,0,0,1-.31.48,1.46,1.46,0,0,1-.46.32,1.43,1.43,0,0,1-1.13,0,1.41,1.41,0,0,1-.46-0.32,1.55,1.55,0,0,1-.31-0.48,1.57,1.57,0,0,1-.11-0.6v-8.39a1.31,1.31,0,0,1,.14-0.63,1.35,1.35,0,0,1,.39-0.45,1.71,1.71,0,0,1,.57-0.27,2.56,2.56,0,0,1,.68-0.09h3.13a11.87,11.87,0,0,1,1.66.11,4.39,4.39,0,0,1,1.4.43,2.52,2.52,0,0,1,1,.87,2.6,2.6,0,0,1,.36,1.45,3.11,3.11,0,0,1-.13.92,2.17,2.17,0,0,1-.43.78,2.51,2.51,0,0,1-.78.59,4.06,4.06,0,0,1-1.18.36v0a4.4,4.4,0,0,1,.86.18,2,2,0,0,1,.61.32,1.6,1.6,0,0,1,.41.48,2.87,2.87,0,0,1,.26.66,6.9,6.9,0,0,1,.16.87q0.06,0.49.12,1.11,0,0.17,0,.33c0,0.11,0,.21,0,0.32a2.83,2.83,0,0,1-.06.62,1.21,1.21,0,0,1-.22.48,1,1,0,0,1-.43.32,1.85,1.85,0,0,1-.7.11,1.12,1.12,0,0,1-.65-0.18,1.39,1.39,0,0,1-.43-0.49,2.68,2.68,0,0,1-.26-0.72c-0.06-.27-0.11-0.57-0.14-0.88s-0.11-.83-0.16-1.14a2,2,0,0,0-.26-0.74,1,1,0,0,0-.51-0.4,2.83,2.83,0,0,0-.91-0.12h-1.59v3.15Zm1.2-5a7,7,0,0,0,.84-0.05,2.46,2.46,0,0,0,.76-0.21,1.35,1.35,0,0,0,.55-0.47,1.44,1.44,0,0,0,.21-0.82,1.58,1.58,0,0,0-.2-0.89,1.26,1.26,0,0,0-.54-0.45,2.39,2.39,0,0,0-.78-0.18c-0.29,0-.6,0-0.92,0h-1.18v3.11h1.25Z" transform="translate(-435.85 0)"/><path class="cls-7" d="M493.45,248a1.26,1.26,0,0,1-.67-0.16,1.3,1.3,0,0,1-.43-0.43,1.82,1.82,0,0,1-.23-0.59,3.12,3.12,0,0,1-.07-0.66V238.7a5.84,5.84,0,0,1,.05-0.82,1.52,1.52,0,0,1,.24-0.65,1.25,1.25,0,0,1,.55-0.43,2.48,2.48,0,0,1,1-.16h5a1.11,1.11,0,0,1,.43.08,1.16,1.16,0,0,1,.35.22,1,1,0,0,1,.23.32,0.94,0.94,0,0,1,.09.4,0.91,0.91,0,0,1-.09.39,1,1,0,0,1-.23.32,1.09,1.09,0,0,1-.35.21,1.15,1.15,0,0,1-.43.08h-4v2.53h3.67a1.16,1.16,0,0,1,.43.08,1.06,1.06,0,0,1,.35.22,1.08,1.08,0,0,1,.23.32,0.95,0.95,0,0,1,0,.79,1,1,0,0,1-.23.32,1.09,1.09,0,0,1-.35.21,1.15,1.15,0,0,1-.43.08h-3.67V246h4.22a1,1,0,0,1,.39.08,1,1,0,0,1,.54.54,1,1,0,0,1,0,.79,1,1,0,0,1-.22.32,1,1,0,0,1-.32.21,1,1,0,0,1-.39.08h-5.62Zm1.46-12.41a0.62,0.62,0,0,1-.42.16,0.6,0.6,0,0,1-.38-0.14,0.46,0.46,0,0,1-.18-0.39A0.41,0.41,0,0,1,494,235l0.13-.21,1.55-2.25a2.09,2.09,0,0,1,.37-0.42,0.68,0.68,0,0,1,.45-0.17,1,1,0,0,1,.38.08,1.31,1.31,0,0,1,.34.21,1.08,1.08,0,0,1,.25.32,0.82,0.82,0,0,1,.1.39,0.88,0.88,0,0,1-.36.66Z" transform="translate(-435.85 0)"/><path class="cls-7" d="M503.33,248a1.3,1.3,0,0,1-.7-0.17,1.29,1.29,0,0,1-.44-0.45,1.91,1.91,0,0,1-.23-0.64,4.18,4.18,0,0,1-.06-0.73v-7.34a3.58,3.58,0,0,1,.1-0.91,1.39,1.39,0,0,1,.34-0.62,1.42,1.42,0,0,1,.61-0.36,3.2,3.2,0,0,1,.93-0.12h1.94a7.17,7.17,0,0,1,4.82,1.41,5.44,5.44,0,0,1,1.62,4.34,6.36,6.36,0,0,1-.45,2.48,4.58,4.58,0,0,1-1.26,1.75,5.29,5.29,0,0,1-2,1A9,9,0,0,1,506,248h-2.72Zm1.43-1.75h1.07a5.08,5.08,0,0,0,1.53-.2,2.25,2.25,0,0,0,1.06-.7,3.13,3.13,0,0,0,.62-1.22,6.91,6.91,0,0,0,.2-1.79,4.48,4.48,0,0,0-.82-2.95,3.12,3.12,0,0,0-2.52-1h-1.14v7.83Z" transform="translate(-435.85 0)"/><path class="cls-7" d="M517.09,246.46a1.57,1.57,0,0,1-.11.6,1.51,1.51,0,0,1-.31.48,1.46,1.46,0,0,1-.46.32,1.43,1.43,0,0,1-1.13,0,1.41,1.41,0,0,1-.46-0.32,1.55,1.55,0,0,1-.31-0.48,1.57,1.57,0,0,1-.11-0.6v-8.3a1.57,1.57,0,0,1,.42-1.08,1.42,1.42,0,0,1,.46-0.32,1.43,1.43,0,0,1,1.13,0,1.47,1.47,0,0,1,.46.32,1.52,1.52,0,0,1,.31.48,1.57,1.57,0,0,1,.11.6v8.3Z" transform="translate(-435.85 0)"/><path class="cls-7" d="M519.37,238.7a1.14,1.14,0,0,1-.43-0.08,1.15,1.15,0,0,1-.36-0.22,1.07,1.07,0,0,1-.24-0.33,0.92,0.92,0,0,1-.09-0.4,0.94,0.94,0,0,1,.09-0.4,1.06,1.06,0,0,1,.24-0.33,1.15,1.15,0,0,1,.36-0.22,1.14,1.14,0,0,1,.43-0.08h7.13a1.14,1.14,0,0,1,.43.08,1.15,1.15,0,0,1,.36.22,1.06,1.06,0,0,1,.24.33,0.94,0.94,0,0,1,.09.4,0.92,0.92,0,0,1-.09.4,1.07,1.07,0,0,1-.24.33,1.15,1.15,0,0,1-.36.22,1.14,1.14,0,0,1-.43.08h-2.09v7.76a1.57,1.57,0,0,1-.11.6,1.51,1.51,0,0,1-.31.48,1.46,1.46,0,0,1-.46.32,1.43,1.43,0,0,1-1.13,0,1.41,1.41,0,0,1-.46-0.32,1.55,1.55,0,0,1-.31-0.48,1.57,1.57,0,0,1-.11-0.6V238.7h-2.14Z" transform="translate(-435.85 0)"/><path class="cls-7" d="M527.79,242.32a7.84,7.84,0,0,1,.35-2.38,5.18,5.18,0,0,1,1-1.88,4.77,4.77,0,0,1,1.74-1.23,6.23,6.23,0,0,1,2.45-.45,6.33,6.33,0,0,1,2.41.43,4.71,4.71,0,0,1,1.75,1.21,5.21,5.21,0,0,1,1.06,1.88,8.35,8.35,0,0,1,0,4.82,5.12,5.12,0,0,1-1.05,1.88,4.78,4.78,0,0,1-1.75,1.22,6.27,6.27,0,0,1-2.43.44,6.35,6.35,0,0,1-2.39-.42,4.75,4.75,0,0,1-1.75-1.2,5.13,5.13,0,0,1-1.07-1.87A7.73,7.73,0,0,1,527.79,242.32Zm3,0a5.59,5.59,0,0,0,.62,2.93,2.37,2.37,0,0,0,3.85,0,5.48,5.48,0,0,0,.63-2.93,8.22,8.22,0,0,0-.15-1.67,3.77,3.77,0,0,0-.46-1.23,2.14,2.14,0,0,0-.79-0.76,2.62,2.62,0,0,0-2.28,0,2.14,2.14,0,0,0-.79.76,3.77,3.77,0,0,0-.46,1.23A8.22,8.22,0,0,0,530.83,242.32Z" transform="translate(-435.85 0)"/><path class="cls-7" d="M543.27,239.6a0.87,0.87,0,0,0,.25.63,2.18,2.18,0,0,0,.65.45,5.86,5.86,0,0,0,.91.33l1,0.29a15.93,15.93,0,0,1,1.5.53,4.67,4.67,0,0,1,1.16.67,2.74,2.74,0,0,1,.74.93,2.9,2.9,0,0,1,.26,1.29,3.29,3.29,0,0,1-.32,1.48,3.12,3.12,0,0,1-.93,1.12A4.42,4.42,0,0,1,547,248a7.08,7.08,0,0,1-1.94.25,9.66,9.66,0,0,1-2.2-.26,7.45,7.45,0,0,1-1-.3,4.27,4.27,0,0,1-.8-0.41,2,2,0,0,1-.54-0.5,1,1,0,0,1-.2-0.57,1,1,0,0,1,.08-0.38,1.38,1.38,0,0,1,.21-0.34,1.12,1.12,0,0,1,.29-0.25,0.62,0.62,0,0,1,.32-0.09,0.82,0.82,0,0,1,.27,0l0.27,0.11,0.28,0.14,0.31,0.14a9.2,9.2,0,0,0,1.21.44,5,5,0,0,0,1.41.2,3.66,3.66,0,0,0,.75-0.07,2.15,2.15,0,0,0,.63-0.23,1.2,1.2,0,0,0,.43-0.39A1.05,1.05,0,0,0,547,245a1.09,1.09,0,0,0-.09-0.46,1.12,1.12,0,0,0-.26-0.36,1.74,1.74,0,0,0-.38-0.27,3.77,3.77,0,0,0-.46-0.2l-0.35-.12-0.2-.07-0.2-.07-0.41-.12-0.23-.06-0.17-.05-0.14-.05-0.16-.06-0.73-.26a8.58,8.58,0,0,1-1.22-.54,3.21,3.21,0,0,1-.83-0.63,2.24,2.24,0,0,1-.47-0.8,3.25,3.25,0,0,1-.15-1,3,3,0,0,1,1.25-2.49,4.51,4.51,0,0,1,1.47-.69,7.2,7.2,0,0,1,1.94-.24,7.86,7.86,0,0,1,.85.05,8.89,8.89,0,0,1,.92.15,6.54,6.54,0,0,1,.89.26,3.85,3.85,0,0,1,.75.38,2,2,0,0,1,.53.49,1,1,0,0,1,.2.61,0.86,0.86,0,0,1-.07.36,0.89,0.89,0,0,1-.2.28,0.9,0.9,0,0,1-.29.18,0.93,0.93,0,0,1-.35.07,0.91,0.91,0,0,1-.43-0.1q-0.37-.19-0.68-0.32a5.27,5.27,0,0,0-.63-0.22,4.39,4.39,0,0,0-.64-0.12,6.32,6.32,0,0,0-.73,0,4.13,4.13,0,0,0-.74.07,2.39,2.39,0,0,0-.65.21,1.34,1.34,0,0,0-.46.37A0.88,0.88,0,0,0,543.27,239.6Z" transform="translate(-435.85 0)"/><path class="cls-7" d="M494.87,195.68a12.43,12.43,0,0,1,5.9,1.29,10.8,10.8,0,0,1,3.93,3.51,15.23,15.23,0,0,1,2.19,5.22,28.84,28.84,0,0,1,.68,6.41,31.64,31.64,0,0,1-.29,4.33,20.69,20.69,0,0,1-.91,3.91,14.83,14.83,0,0,1-1.62,3.34,10.49,10.49,0,0,1-2.4,2.59,10.67,10.67,0,0,1-3.27,1.67,13.85,13.85,0,0,1-4.22.59,12.53,12.53,0,0,1-5.95-1.29,10.74,10.74,0,0,1-3.93-3.52,15,15,0,0,1-2.17-5.22,29.54,29.54,0,0,1-.66-6.4,32.2,32.2,0,0,1,.28-4.27,20.64,20.64,0,0,1,.89-3.9,15,15,0,0,1,1.6-3.35,10.4,10.4,0,0,1,2.39-2.61,10.7,10.7,0,0,1,3.28-1.7A13.88,13.88,0,0,1,494.87,195.68Zm0,5.4a3.68,3.68,0,0,0-2.47.8,5.14,5.14,0,0,0-1.46,2.27,14.59,14.59,0,0,0-.71,3.49q-0.19,2-.19,4.47t0.19,4.47a14.41,14.41,0,0,0,.71,3.48,5.06,5.06,0,0,0,1.46,2.25,4.2,4.2,0,0,0,4.91,0,5.14,5.14,0,0,0,1.48-2.22,14,14,0,0,0,.73-3.46q0.2-2,.2-4.51t-0.19-4.45a14.19,14.19,0,0,0-.71-3.49,5.31,5.31,0,0,0-1.48-2.28A3.65,3.65,0,0,0,494.87,201.07Z" transform="translate(-435.85 0)"/><path class="cls-7" d="M521.64,209.11a8.61,8.61,0,0,0,2.09-.24,4.85,4.85,0,0,0,1.68-.76,3.8,3.8,0,0,0,1.13-1.3A3.85,3.85,0,0,0,527,205a3.37,3.37,0,0,0-.4-1.66,3.59,3.59,0,0,0-1.08-1.2,4.76,4.76,0,0,0-1.6-.72,7.85,7.85,0,0,0-1.93-.23,14.28,14.28,0,0,0-1.81.12q-0.95.12-1.83,0.3l-1.28.24-0.78.17a3.1,3.1,0,0,1-2.58-.67,2.42,2.42,0,0,1-.78-1.85q0-1.87,2.4-3t7.38-1.13a18.76,18.76,0,0,1,5.09.63,11.35,11.35,0,0,1,3.75,1.77,7.65,7.65,0,0,1,2.32,2.75,7.91,7.91,0,0,1,.79,3.54,7.23,7.23,0,0,1-.45,2.57,7.76,7.76,0,0,1-1.21,2.15,7.07,7.07,0,0,1-1.78,1.59,6.33,6.33,0,0,1-2.17.86v0.09a7.92,7.92,0,0,1,2.7.91,6.74,6.74,0,0,1,3.19,4,9.6,9.6,0,0,1,.41,2.84,8.38,8.38,0,0,1-1,4.14,8.22,8.22,0,0,1-2.64,2.86,11.83,11.83,0,0,1-3.93,1.65,21.28,21.28,0,0,1-4.86.53,16.61,16.61,0,0,1-1.76-.1q-0.92-.1-1.9-0.28t-1.95-.45q-1-.28-1.85-0.61a5,5,0,0,1-1.92-1.17,2.46,2.46,0,0,1-.71-1.78,2.52,2.52,0,0,1,.21-1,2.49,2.49,0,0,1,.58-0.84,2.76,2.76,0,0,1,.92-0.56,3.39,3.39,0,0,1,1.21-.21H516l1.16,0.33q0.67,0.2,1.47.4t1.7,0.34a11.26,11.26,0,0,0,1.79.14,9.71,9.71,0,0,0,2.08-.21,5,5,0,0,0,1.67-.67,3.29,3.29,0,0,0,1.12-1.21,3.78,3.78,0,0,0,.41-1.83,3.92,3.92,0,0,0-1.52-3.3,6.92,6.92,0,0,0-4.29-1.17H520a2.2,2.2,0,0,1-1.76-.72,2.53,2.53,0,0,1-.62-1.71,2.82,2.82,0,0,1,.15-0.91,2.35,2.35,0,0,1,.45-0.79,2.38,2.38,0,0,1,.74-0.56,2.29,2.29,0,0,1,1-.22h1.63Z" transform="translate(-435.85 0)"/><path class="cls-7" d="M469.76,594.18a7.23,7.23,0,0,1,.42-2.54,5.38,5.38,0,0,1,1.17-1.89,5,5,0,0,1,1.79-1.18,6.1,6.1,0,0,1,2.27-.41,10.5,10.5,0,0,1,1.7.12,5.1,5.1,0,0,1,1.2.33,1.88,1.88,0,0,1,.71.5,1,1,0,0,1,.23.63,0.79,0.79,0,0,1-.09.39,0.83,0.83,0,0,1-.25.28,1,1,0,0,1-.34.16,1.42,1.42,0,0,1-.37.05H478a0.76,0.76,0,0,1-.21,0l-0.57-.15-0.53-.13-0.52-.09a4.08,4.08,0,0,0-.54,0,3.42,3.42,0,0,0-1.11.18,2,2,0,0,0-.9.62,3.21,3.21,0,0,0-.61,1.21,7.07,7.07,0,0,0-.22,1.94,6.74,6.74,0,0,0,.18,1.63,3.6,3.6,0,0,0,.54,1.23,2.39,2.39,0,0,0,.89.77,2.73,2.73,0,0,0,1.25.27,3,3,0,0,0,.6-0.06q0.31-.06.64-0.16l0.67-.22,0.68-.25a0.87,0.87,0,0,1,.25,0,0.85,0.85,0,0,1,.36.07,0.9,0.9,0,0,1,.28.2,0.88,0.88,0,0,1,.18.29,1,1,0,0,1,.06.36,0.88,0.88,0,0,1-.2.56,2,2,0,0,1-.53.46,4,4,0,0,1-.75.36,7.4,7.4,0,0,1-.88.25,8.7,8.7,0,0,1-.9.15,7.37,7.37,0,0,1-.83.05,5.92,5.92,0,0,1-2.16-.39,4.85,4.85,0,0,1-1.73-1.13,5.3,5.3,0,0,1-1.16-1.84A6.88,6.88,0,0,1,469.76,594.18Z" transform="translate(-435.85 0)"/><path class="cls-7" d="M484.64,598.23a1.57,1.57,0,0,1-.11.6,1.52,1.52,0,0,1-.31.48,1.46,1.46,0,0,1-.46.32,1.43,1.43,0,0,1-1.13,0,1.4,1.4,0,0,1-.46-0.32,1.53,1.53,0,0,1-.31-0.48,1.55,1.55,0,0,1-.11-0.6v-8.39a1.31,1.31,0,0,1,.14-0.63,1.33,1.33,0,0,1,.39-0.45,1.72,1.72,0,0,1,.57-0.27,2.56,2.56,0,0,1,.68-0.09h3.13a11.87,11.87,0,0,1,1.66.11,4.41,4.41,0,0,1,1.4.43,2.53,2.53,0,0,1,1,.87,2.6,2.6,0,0,1,.36,1.45,3.14,3.14,0,0,1-.13.92,2.18,2.18,0,0,1-.43.78,2.5,2.5,0,0,1-.78.59,4.07,4.07,0,0,1-1.18.36v0a4.44,4.44,0,0,1,.86.18,2,2,0,0,1,.61.32,1.62,1.62,0,0,1,.41.48,3,3,0,0,1,.26.66,6.92,6.92,0,0,1,.16.87q0.06,0.49.12,1.11c0,0.12,0,.23,0,0.33s0,0.21,0,.32a2.88,2.88,0,0,1-.06.62,1.22,1.22,0,0,1-.22.48,1,1,0,0,1-.43.32,1.85,1.85,0,0,1-.7.11,1.12,1.12,0,0,1-.65-0.18,1.39,1.39,0,0,1-.43-0.49,2.65,2.65,0,0,1-.26-0.72,8.69,8.69,0,0,1-.14-0.88q-0.08-.68-0.16-1.14a2.05,2.05,0,0,0-.26-0.74,1,1,0,0,0-.51-0.4,2.83,2.83,0,0,0-.91-0.12h-1.59v3.15Zm1.2-5a7,7,0,0,0,.84-0.05,2.43,2.43,0,0,0,.76-0.21,1.35,1.35,0,0,0,.55-0.47,1.44,1.44,0,0,0,.21-0.82,1.59,1.59,0,0,0-.2-0.89,1.27,1.27,0,0,0-.54-0.45,2.4,2.4,0,0,0-.78-0.18q-0.44,0-.92,0h-1.18v3.11h1.25Z" transform="translate(-435.85 0)"/><path class="cls-7" d="M494.58,599.76a1.26,1.26,0,0,1-.67-0.16,1.3,1.3,0,0,1-.43-0.43,1.81,1.81,0,0,1-.23-0.59,3.12,3.12,0,0,1-.07-0.66v-7.45a5.69,5.69,0,0,1,.05-0.82,1.52,1.52,0,0,1,.24-0.65,1.24,1.24,0,0,1,.55-0.43,2.48,2.48,0,0,1,1-.16h5a1.11,1.11,0,0,1,.43.08,1.17,1.17,0,0,1,.35.22,1,1,0,0,1,.23.32,1,1,0,0,1,.09.4,0.93,0.93,0,0,1-.09.39,1,1,0,0,1-.23.32,1.09,1.09,0,0,1-.35.21,1.14,1.14,0,0,1-.43.08h-4V593h3.67a1.16,1.16,0,0,1,.43.08,1.06,1.06,0,0,1,.58.54,0.95,0.95,0,0,1,0,.79,1,1,0,0,1-.23.32,1.09,1.09,0,0,1-.35.21,1.14,1.14,0,0,1-.43.08H496v2.73h4.22a1,1,0,0,1,.39.08,1,1,0,0,1,.54.54,1,1,0,0,1,0,.79,1,1,0,0,1-.22.32,1,1,0,0,1-.32.21,1,1,0,0,1-.39.08h-5.62ZM496,587.34a0.62,0.62,0,0,1-.42.16,0.6,0.6,0,0,1-.38-0.14,0.46,0.46,0,0,1-.18-0.39,0.41,0.41,0,0,1,.06-0.21l0.13-.21,1.55-2.25a2.11,2.11,0,0,1,.37-0.42,0.68,0.68,0,0,1,.45-0.17,1,1,0,0,1,.38.08,1.34,1.34,0,0,1,.34.21,1.1,1.1,0,0,1,.25.32,0.84,0.84,0,0,1,.1.39,0.88,0.88,0,0,1-.36.66Z" transform="translate(-435.85 0)"/><path class="cls-7" d="M504.45,599.76a1.3,1.3,0,0,1-.7-0.17,1.28,1.28,0,0,1-.44-0.45,1.89,1.89,0,0,1-.23-0.64,4.17,4.17,0,0,1-.06-0.73v-7.34a3.54,3.54,0,0,1,.1-0.91,1.39,1.39,0,0,1,.34-0.62,1.42,1.42,0,0,1,.61-0.36,3.19,3.19,0,0,1,.93-0.12h1.94a7.18,7.18,0,0,1,4.82,1.41,5.44,5.44,0,0,1,1.63,4.34,6.36,6.36,0,0,1-.45,2.48,4.58,4.58,0,0,1-1.26,1.75,5.3,5.3,0,0,1-2,1,9,9,0,0,1-2.55.34h-2.72Zm1.43-1.75H507a5.09,5.09,0,0,0,1.53-.2,2.25,2.25,0,0,0,1.06-.7,3.13,3.13,0,0,0,.62-1.22,6.91,6.91,0,0,0,.2-1.79,4.48,4.48,0,0,0-.82-2.95,3.12,3.12,0,0,0-2.52-1h-1.14V598Z" transform="translate(-435.85 0)"/><path class="cls-7" d="M518.22,598.23a1.57,1.57,0,0,1-.11.6,1.52,1.52,0,0,1-.31.48,1.46,1.46,0,0,1-.46.32,1.43,1.43,0,0,1-1.13,0,1.4,1.4,0,0,1-.46-0.32,1.53,1.53,0,0,1-.31-0.48,1.55,1.55,0,0,1-.11-0.6v-8.3a1.57,1.57,0,0,1,.42-1.08,1.42,1.42,0,0,1,.46-0.32,1.43,1.43,0,0,1,1.13,0,1.48,1.48,0,0,1,.46.32,1.54,1.54,0,0,1,.31.48,1.58,1.58,0,0,1,.11.6v8.3Z" transform="translate(-435.85 0)"/><path class="cls-7" d="M520.49,590.47a1.14,1.14,0,0,1-.43-0.08,1.15,1.15,0,0,1-.36-0.22,1.07,1.07,0,0,1-.24-0.33,0.92,0.92,0,0,1-.09-0.4,0.94,0.94,0,0,1,.09-0.4,1.06,1.06,0,0,1,.24-0.33,1.15,1.15,0,0,1,.36-0.22,1.14,1.14,0,0,1,.43-0.08h7.13a1.14,1.14,0,0,1,.43.08,1.15,1.15,0,0,1,.36.22,1.06,1.06,0,0,1,.24.33,0.94,0.94,0,0,1,.09.4,0.92,0.92,0,0,1-.09.4,1.07,1.07,0,0,1-.24.33,1.15,1.15,0,0,1-.36.22,1.14,1.14,0,0,1-.43.08h-2.09v7.76a1.57,1.57,0,0,1-.11.6,1.5,1.5,0,0,1-.31.48,1.45,1.45,0,0,1-.46.32,1.43,1.43,0,0,1-1.13,0,1.4,1.4,0,0,1-.46-0.32,1.54,1.54,0,0,1-.31-0.48,1.57,1.57,0,0,1-.11-0.6v-7.76h-2.14Z" transform="translate(-435.85 0)"/><path class="cls-7" d="M528.91,594.09a7.84,7.84,0,0,1,.35-2.38,5.18,5.18,0,0,1,1-1.88,4.78,4.78,0,0,1,1.74-1.23,6.23,6.23,0,0,1,2.45-.45,6.33,6.33,0,0,1,2.41.43,4.71,4.71,0,0,1,1.75,1.21,5.22,5.22,0,0,1,1.06,1.88,8.35,8.35,0,0,1,0,4.82,5.12,5.12,0,0,1-1.05,1.88,4.78,4.78,0,0,1-1.75,1.22,6.26,6.26,0,0,1-2.43.44,6.35,6.35,0,0,1-2.39-.42,4.75,4.75,0,0,1-1.75-1.2,5.12,5.12,0,0,1-1.07-1.87A7.73,7.73,0,0,1,528.91,594.09Zm3,0a5.59,5.59,0,0,0,.62,2.93,2.37,2.37,0,0,0,3.85,0,5.48,5.48,0,0,0,.63-2.93,8.22,8.22,0,0,0-.15-1.67,3.77,3.77,0,0,0-.46-1.23,2.14,2.14,0,0,0-.79-0.76,2.62,2.62,0,0,0-2.28,0,2.14,2.14,0,0,0-.79.76,3.77,3.77,0,0,0-.46,1.23A8.22,8.22,0,0,0,532,594.09Z" transform="translate(-435.85 0)"/><path class="cls-7" d="M544.4,591.37a0.87,0.87,0,0,0,.25.63,2.18,2.18,0,0,0,.65.45,5.86,5.86,0,0,0,.91.33l1,0.29a15.93,15.93,0,0,1,1.5.53,4.68,4.68,0,0,1,1.16.67,2.74,2.74,0,0,1,.74.93,2.9,2.9,0,0,1,.26,1.29,3.29,3.29,0,0,1-.32,1.48,3.11,3.11,0,0,1-.93,1.12,4.42,4.42,0,0,1-1.47.71,7.08,7.08,0,0,1-1.94.25,9.59,9.59,0,0,1-1.12-.07,9.42,9.42,0,0,1-1.09-.19,7.45,7.45,0,0,1-1-.3,4.24,4.24,0,0,1-.8-0.41,2,2,0,0,1-.54-0.5,1,1,0,0,1-.2-0.57,1,1,0,0,1,.08-0.38,1.38,1.38,0,0,1,.21-0.34,1.12,1.12,0,0,1,.29-0.25,0.62,0.62,0,0,1,.32-0.09,0.82,0.82,0,0,1,.27,0l0.27,0.11,0.28,0.14,0.31,0.14a9.13,9.13,0,0,0,1.21.44,5,5,0,0,0,1.41.2,3.66,3.66,0,0,0,.75-0.07,2.14,2.14,0,0,0,.63-0.23,1.19,1.19,0,0,0,.43-0.39,1.05,1.05,0,0,0,.16-0.59,1.09,1.09,0,0,0-.09-0.46,1.13,1.13,0,0,0-.26-0.36,1.75,1.75,0,0,0-.38-0.27,3.77,3.77,0,0,0-.46-0.2l-0.35-.12-0.2-.07-0.2-.07-0.41-.12-0.23-.06-0.17-.05-0.14-.05-0.16-.06-0.73-.26a8.58,8.58,0,0,1-1.22-.54,3.21,3.21,0,0,1-.83-0.63,2.24,2.24,0,0,1-.47-0.8,3.24,3.24,0,0,1-.15-1,3,3,0,0,1,1.25-2.49,4.52,4.52,0,0,1,1.47-.69,7.2,7.2,0,0,1,1.94-.24,8,8,0,0,1,.85.05,8.89,8.89,0,0,1,.92.15,6.61,6.61,0,0,1,.89.26,3.9,3.9,0,0,1,.75.38,2,2,0,0,1,.53.49,1,1,0,0,1,.2.61,0.85,0.85,0,0,1-.07.36,0.89,0.89,0,0,1-.2.28,0.9,0.9,0,0,1-.29.18,0.92,0.92,0,0,1-.35.07,0.91,0.91,0,0,1-.43-0.1q-0.37-.19-0.68-0.32a5.35,5.35,0,0,0-.63-0.22,4.45,4.45,0,0,0-.64-0.12,6.43,6.43,0,0,0-.73,0,4.13,4.13,0,0,0-.74.07,2.42,2.42,0,0,0-.65.21,1.35,1.35,0,0,0-.46.37A0.88,0.88,0,0,0,544.4,591.37Z" transform="translate(-435.85 0)"/><path class="cls-7" d="M496,547.45a12.43,12.43,0,0,1,5.9,1.29,10.8,10.8,0,0,1,3.93,3.51,15.24,15.24,0,0,1,2.19,5.22,28.78,28.78,0,0,1,.68,6.41,31.8,31.8,0,0,1-.29,4.33,20.71,20.71,0,0,1-.91,3.91,14.8,14.8,0,0,1-1.62,3.34,10.47,10.47,0,0,1-2.4,2.59,10.68,10.68,0,0,1-3.27,1.67,13.86,13.86,0,0,1-4.22.59A12.53,12.53,0,0,1,490,579a10.74,10.74,0,0,1-3.93-3.52,15,15,0,0,1-2.17-5.22,29.54,29.54,0,0,1-.66-6.4,32.37,32.37,0,0,1,.28-4.27,20.71,20.71,0,0,1,.89-3.9,15,15,0,0,1,1.6-3.35,10.41,10.41,0,0,1,2.39-2.61,10.7,10.7,0,0,1,3.28-1.7A13.9,13.9,0,0,1,496,547.45Zm0,5.4a3.68,3.68,0,0,0-2.47.8,5.13,5.13,0,0,0-1.46,2.27,14.54,14.54,0,0,0-.7,3.49q-0.19,2-.19,4.47t0.19,4.47a14.37,14.37,0,0,0,.7,3.48,5,5,0,0,0,1.46,2.25,4.2,4.2,0,0,0,4.91,0,5.15,5.15,0,0,0,1.48-2.22,14.07,14.07,0,0,0,.73-3.46q0.2-2,.2-4.51t-0.19-4.45a14.2,14.2,0,0,0-.72-3.49,5.31,5.31,0,0,0-1.48-2.28A3.65,3.65,0,0,0,496,552.85Z" transform="translate(-435.85 0)"/><path class="cls-7" d="M513.82,551.17a5,5,0,0,1,.29-1.85,2.34,2.34,0,0,1,.88-1.1,3.74,3.74,0,0,1,1.52-.54,14.57,14.57,0,0,1,2.2-.14h14.16a3.73,3.73,0,0,1,1.08.15,2.56,2.56,0,0,1,.89.47,2.22,2.22,0,0,1,.61.81,3,3,0,0,1,.22,1.2,2.36,2.36,0,0,1-.84,2,3.85,3.85,0,0,1-2.38.64H520.38l-0.22,8.57a10,10,0,0,1,7.13-2.71,9.85,9.85,0,0,1,3.86.75,8.73,8.73,0,0,1,3.06,2.15,10,10,0,0,1,2,3.39,13.07,13.07,0,0,1,.73,4.5,9.74,9.74,0,0,1-1,4.48,9.94,9.94,0,0,1-2.73,3.34,12.45,12.45,0,0,1-4.06,2.09,16.66,16.66,0,0,1-5,.73,19.17,19.17,0,0,1-3.25-.29,14.62,14.62,0,0,1-3.08-.87,9.09,9.09,0,0,1-2.46-1.46,4,4,0,0,1-1.34-2.09,2.49,2.49,0,0,1-.26-1.08,2.42,2.42,0,0,1,.15-0.84,2.23,2.23,0,0,1,.43-0.73,2.27,2.27,0,0,1,.66-0.51,1.76,1.76,0,0,1,1.74.07q0.47,0.27,1,.63L519,573.7a6.4,6.4,0,0,0,1.33.64,8.34,8.34,0,0,0,1.61.42,10.88,10.88,0,0,0,1.7.13,6.71,6.71,0,0,0,2.17-.34,4.5,4.5,0,0,0,1.73-1.06,5,5,0,0,0,1.15-1.79,7.07,7.07,0,0,0,.42-2.55,8.71,8.71,0,0,0-.32-2.47,5.34,5.34,0,0,0-.91-1.83,3.94,3.94,0,0,0-1.41-1.13,4.17,4.17,0,0,0-1.81-.38,5,5,0,0,0-1.88.31,4.86,4.86,0,0,0-1.31.77,7.2,7.2,0,0,0-1,1,9.46,9.46,0,0,1-.94,1,4.61,4.61,0,0,1-1.12.77,3.57,3.57,0,0,1-1.57.31,2.84,2.84,0,0,1-2.2-.89,4,4,0,0,1-.81-2.76V551.17Z" transform="translate(-435.85 0)"/><path class="cls-7" d="M550.05,743.14a7.23,7.23,0,0,1,.42-2.54,5.38,5.38,0,0,1,1.17-1.89,5,5,0,0,1,1.79-1.18,6.1,6.1,0,0,1,2.27-.41,10.39,10.39,0,0,1,1.7.12,5.1,5.1,0,0,1,1.2.33,1.88,1.88,0,0,1,.71.5,1,1,0,0,1,.23.63,0.8,0.8,0,0,1-.09.39,0.84,0.84,0,0,1-.25.28,1,1,0,0,1-.34.16,1.42,1.42,0,0,1-.37.05h-0.22l-0.21,0-0.57-.15-0.53-.13-0.52-.09a4.08,4.08,0,0,0-.54,0,3.42,3.42,0,0,0-1.11.18,2,2,0,0,0-.9.62,3.21,3.21,0,0,0-.61,1.21,7.07,7.07,0,0,0-.22,1.94,6.74,6.74,0,0,0,.18,1.63,3.61,3.61,0,0,0,.54,1.23,2.39,2.39,0,0,0,.89.77,2.73,2.73,0,0,0,1.25.27,3,3,0,0,0,.6-0.06c0.21,0,.42-0.09.64-0.16l0.67-.22,0.68-.25a0.87,0.87,0,0,1,.25,0,0.83,0.83,0,0,1,.36.07,0.9,0.9,0,0,1,.28.2,0.86,0.86,0,0,1,.18.29,1,1,0,0,1,.06.36,0.88,0.88,0,0,1-.2.56,2,2,0,0,1-.53.46,4,4,0,0,1-.75.36,7.59,7.59,0,0,1-.88.25,8.7,8.7,0,0,1-.9.15,7.61,7.61,0,0,1-.83.05,5.92,5.92,0,0,1-2.16-.39,4.86,4.86,0,0,1-1.73-1.13,5.3,5.3,0,0,1-1.16-1.84A6.88,6.88,0,0,1,550.05,743.14Z" transform="translate(-435.85 0)"/><path class="cls-7" d="M564.93,747.2a1.57,1.57,0,0,1-.11.6,1.53,1.53,0,0,1-.31.48,1.48,1.48,0,0,1-.46.32,1.43,1.43,0,0,1-1.13,0,1.42,1.42,0,0,1-.46-0.32,1.57,1.57,0,0,1-.42-1.08v-8.39a1.31,1.31,0,0,1,.14-0.63,1.33,1.33,0,0,1,.39-0.45,1.68,1.68,0,0,1,.57-0.27,2.56,2.56,0,0,1,.68-0.09h3.13a11.87,11.87,0,0,1,1.66.11,4.39,4.39,0,0,1,1.4.43,2.51,2.51,0,0,1,1,.87,2.6,2.6,0,0,1,.36,1.45,3.14,3.14,0,0,1-.13.92,2.18,2.18,0,0,1-.43.78,2.52,2.52,0,0,1-.78.59,4.07,4.07,0,0,1-1.18.36v0a4.37,4.37,0,0,1,.86.18,2,2,0,0,1,.61.32,1.62,1.62,0,0,1,.41.48,3,3,0,0,1,.26.66,6.89,6.89,0,0,1,.16.87q0.06,0.49.12,1.11c0,0.11,0,.23,0,0.33s0,0.21,0,.32a2.89,2.89,0,0,1-.06.62,1.23,1.23,0,0,1-.22.48,1,1,0,0,1-.43.32,1.86,1.86,0,0,1-.7.11,1.12,1.12,0,0,1-.65-0.18,1.4,1.4,0,0,1-.43-0.49,2.65,2.65,0,0,1-.26-0.72,8.69,8.69,0,0,1-.14-0.88q-0.08-.68-0.16-1.14a2.05,2.05,0,0,0-.26-0.74,1,1,0,0,0-.51-0.4,2.83,2.83,0,0,0-.91-0.12h-1.59v3.15Zm1.2-5a7,7,0,0,0,.84-0.05,2.49,2.49,0,0,0,.76-0.21,1.35,1.35,0,0,0,.55-0.47,1.44,1.44,0,0,0,.21-0.82,1.59,1.59,0,0,0-.2-0.89,1.25,1.25,0,0,0-.54-0.45,2.4,2.4,0,0,0-.78-0.18q-0.44,0-.92,0h-1.18v3.11h1.25Z" transform="translate(-435.85 0)"/><path class="cls-7" d="M574.87,748.72a1.26,1.26,0,0,1-.67-0.16,1.3,1.3,0,0,1-.43-0.43,1.82,1.82,0,0,1-.23-0.59,3.12,3.12,0,0,1-.07-0.66v-7.45a5.69,5.69,0,0,1,.05-0.82,1.52,1.52,0,0,1,.24-0.65,1.24,1.24,0,0,1,.55-0.43,2.47,2.47,0,0,1,1-.16h5a1.11,1.11,0,0,1,.43.08,1.17,1.17,0,0,1,.35.22,1,1,0,0,1,.23.32,1,1,0,0,1,.09.4,0.93,0.93,0,0,1-.09.39,1,1,0,0,1-.23.32,1.11,1.11,0,0,1-.35.21,1.16,1.16,0,0,1-.43.08h-4v2.53h3.67a1.16,1.16,0,0,1,.43.08,1.07,1.07,0,0,1,.35.22,1.08,1.08,0,0,1,.23.32,0.95,0.95,0,0,1,0,.79,1,1,0,0,1-.23.32,1.11,1.11,0,0,1-.35.21,1.16,1.16,0,0,1-.43.08h-3.67v2.73h4.22a1,1,0,0,1,.39.08,1,1,0,0,1,.32.22,1,1,0,0,1,.22.32,1,1,0,0,1,0,.79,1,1,0,0,1-.22.32,1.06,1.06,0,0,1-.32.21,1,1,0,0,1-.39.08h-5.62Zm1.46-12.41a0.62,0.62,0,0,1-.42.16,0.61,0.61,0,0,1-.38-0.14,0.46,0.46,0,0,1-.18-0.39,0.41,0.41,0,0,1,.06-0.21l0.13-.21,1.55-2.25a2.08,2.08,0,0,1,.37-0.42,0.68,0.68,0,0,1,.45-0.17,1,1,0,0,1,.38.08,1.29,1.29,0,0,1,.34.21,1.1,1.1,0,0,1,.25.32,0.83,0.83,0,0,1,.1.39,0.88,0.88,0,0,1-.36.66Z" transform="translate(-435.85 0)"/><path class="cls-7" d="M584.74,748.72a1.31,1.31,0,0,1-.7-0.17,1.28,1.28,0,0,1-.44-0.45,1.89,1.89,0,0,1-.23-0.64,4.18,4.18,0,0,1-.06-0.73v-7.34a3.53,3.53,0,0,1,.1-0.91,1.39,1.39,0,0,1,.34-0.62,1.42,1.42,0,0,1,.61-0.36,3.19,3.19,0,0,1,.93-0.12h1.94a7.17,7.17,0,0,1,4.82,1.41,5.44,5.44,0,0,1,1.63,4.34,6.36,6.36,0,0,1-.45,2.48,4.58,4.58,0,0,1-1.26,1.75,5.3,5.3,0,0,1-2,1,9.07,9.07,0,0,1-2.55.34h-2.72Zm1.43-1.75h1.07a5.09,5.09,0,0,0,1.53-.2,2.26,2.26,0,0,0,1.06-.7,3.13,3.13,0,0,0,.62-1.22,6.92,6.92,0,0,0,.2-1.79,4.48,4.48,0,0,0-.82-2.95,3.12,3.12,0,0,0-2.52-1h-1.14V747Z" transform="translate(-435.85 0)"/><path class="cls-7" d="M598.51,747.2a1.57,1.57,0,0,1-.11.6,1.53,1.53,0,0,1-.31.48,1.48,1.48,0,0,1-.46.32,1.43,1.43,0,0,1-1.13,0,1.42,1.42,0,0,1-.46-0.32,1.57,1.57,0,0,1-.42-1.08v-8.3a1.57,1.57,0,0,1,.42-1.08,1.42,1.42,0,0,1,.46-0.32,1.43,1.43,0,0,1,1.13,0,1.48,1.48,0,0,1,.46.32,1.53,1.53,0,0,1,.31.48,1.57,1.57,0,0,1,.11.6v8.3Z" transform="translate(-435.85 0)"/><path class="cls-7" d="M600.78,739.44a1.14,1.14,0,0,1-.43-0.08,1.15,1.15,0,0,1-.36-0.22,1.07,1.07,0,0,1-.24-0.33,0.92,0.92,0,0,1-.09-0.4,0.94,0.94,0,0,1,.09-0.4,1.05,1.05,0,0,1,.24-0.33,1.15,1.15,0,0,1,.36-0.22,1.14,1.14,0,0,1,.43-0.08h7.13a1.14,1.14,0,0,1,.43.08,1.15,1.15,0,0,1,.36.22,1.05,1.05,0,0,1,.24.33,0.94,0.94,0,0,1,.09.4,0.92,0.92,0,0,1-.09.4,1.07,1.07,0,0,1-.24.33,1.15,1.15,0,0,1-.36.22,1.14,1.14,0,0,1-.43.08h-2.09v7.76a1.57,1.57,0,0,1-.11.6,1.51,1.51,0,0,1-.31.48,1.47,1.47,0,0,1-.46.32,1.43,1.43,0,0,1-1.13,0,1.42,1.42,0,0,1-.46-0.32,1.57,1.57,0,0,1-.42-1.08v-7.76h-2.14Z" transform="translate(-435.85 0)"/><path class="cls-7" d="M609.2,743.06a7.84,7.84,0,0,1,.35-2.38,5.17,5.17,0,0,1,1-1.88,4.77,4.77,0,0,1,1.74-1.23,6.23,6.23,0,0,1,2.45-.45,6.33,6.33,0,0,1,2.41.43,4.7,4.7,0,0,1,1.75,1.21,5.21,5.21,0,0,1,1.06,1.88,8.35,8.35,0,0,1,0,4.82,5.12,5.12,0,0,1-1.05,1.88,4.79,4.79,0,0,1-1.75,1.22,6.28,6.28,0,0,1-2.43.44,6.35,6.35,0,0,1-2.39-.42,4.75,4.75,0,0,1-1.75-1.2,5.13,5.13,0,0,1-1.07-1.87A7.73,7.73,0,0,1,609.2,743.06Zm3,0a5.6,5.6,0,0,0,.62,2.93,2.37,2.37,0,0,0,3.85,0,5.48,5.48,0,0,0,.63-2.93,8.22,8.22,0,0,0-.15-1.67,3.76,3.76,0,0,0-.46-1.23,2.14,2.14,0,0,0-.79-0.76,2.62,2.62,0,0,0-2.28,0,2.14,2.14,0,0,0-.79.76,3.76,3.76,0,0,0-.46,1.23A8.22,8.22,0,0,0,612.24,743.06Z" transform="translate(-435.85 0)"/><path class="cls-7" d="M624.69,740.34a0.87,0.87,0,0,0,.25.63,2.18,2.18,0,0,0,.65.45,5.86,5.86,0,0,0,.91.33l1,0.29a15.93,15.93,0,0,1,1.5.53,4.65,4.65,0,0,1,1.16.67,2.74,2.74,0,0,1,.74.93,2.9,2.9,0,0,1,.26,1.29,3.29,3.29,0,0,1-.32,1.48,3.12,3.12,0,0,1-.93,1.12,4.42,4.42,0,0,1-1.47.71,7.08,7.08,0,0,1-1.94.25,9.66,9.66,0,0,1-2.2-.26,7.45,7.45,0,0,1-1-.3,4.29,4.29,0,0,1-.8-0.41,2,2,0,0,1-.54-0.5,1,1,0,0,1-.2-0.57,1,1,0,0,1,.08-0.38,1.38,1.38,0,0,1,.21-0.34,1.12,1.12,0,0,1,.29-0.25,0.62,0.62,0,0,1,.32-0.09,0.82,0.82,0,0,1,.27,0l0.27,0.11,0.28,0.14,0.31,0.14a9.27,9.27,0,0,0,1.21.44,5,5,0,0,0,1.41.2,3.66,3.66,0,0,0,.75-0.07,2.17,2.17,0,0,0,.63-0.23,1.2,1.2,0,0,0,.43-0.39,1.05,1.05,0,0,0,.16-0.59,1.09,1.09,0,0,0-.09-0.46,1.12,1.12,0,0,0-.26-0.36,1.72,1.72,0,0,0-.38-0.27,3.77,3.77,0,0,0-.46-0.2l-0.35-.12-0.2-.07-0.2-.07L626,744l-0.23-.06-0.17-.05-0.14-.05-0.16-.06-0.73-.26a8.58,8.58,0,0,1-1.22-.54,3.21,3.21,0,0,1-.83-0.63,2.24,2.24,0,0,1-.47-0.8,3.25,3.25,0,0,1-.15-1,3,3,0,0,1,1.25-2.49,4.5,4.5,0,0,1,1.47-.69,7.2,7.2,0,0,1,1.94-.24,7.73,7.73,0,0,1,.85.05,8.89,8.89,0,0,1,.92.15,6.47,6.47,0,0,1,.89.26,3.8,3.8,0,0,1,.75.38,2,2,0,0,1,.53.49,1,1,0,0,1,.2.61,0.86,0.86,0,0,1-.07.36,0.89,0.89,0,0,1-.2.28,0.9,0.9,0,0,1-.29.18,0.94,0.94,0,0,1-.35.07,0.92,0.92,0,0,1-.43-0.1q-0.37-.19-0.68-0.32a5.18,5.18,0,0,0-.63-0.22,4.32,4.32,0,0,0-.64-0.12,6.21,6.21,0,0,0-.73,0,4.13,4.13,0,0,0-.74.07,2.35,2.35,0,0,0-.65.21,1.33,1.33,0,0,0-.46.37A0.88,0.88,0,0,0,624.69,740.34Z" transform="translate(-435.85 0)"/><path class="cls-7" d="M569.76,706.5a2.9,2.9,0,0,1-1.37.37,2.42,2.42,0,0,1-1.06-.23,2.79,2.79,0,0,1-.84-0.61,2.79,2.79,0,0,1-.75-1.89,2.2,2.2,0,0,1,.43-1.37,4.9,4.9,0,0,1,1.35-1.15l7.31-4.16a12.62,12.62,0,0,1,1.34-.68,3.64,3.64,0,0,1,1.48-.31,3.19,3.19,0,0,1,2.87,1.4,7.36,7.36,0,0,1,.91,4v21.29a11.28,11.28,0,0,1-.18,2,4.82,4.82,0,0,1-.63,1.68,3.21,3.21,0,0,1-1.22,1.14,4.08,4.08,0,0,1-2,.42,3.28,3.28,0,0,1-3-1.45,8.18,8.18,0,0,1-.92-4.34v-18.5Z" transform="translate(-435.85 0)"/><path class="cls-7" d="M602.5,696.42a12.43,12.43,0,0,1,5.9,1.29,10.8,10.8,0,0,1,3.93,3.51,15.22,15.22,0,0,1,2.19,5.22,28.83,28.83,0,0,1,.68,6.41,31.65,31.65,0,0,1-.29,4.33,20.71,20.71,0,0,1-.91,3.91,14.84,14.84,0,0,1-1.62,3.34A10.49,10.49,0,0,1,610,727a10.66,10.66,0,0,1-3.27,1.67,13.87,13.87,0,0,1-4.22.59,12.52,12.52,0,0,1-5.95-1.29,10.74,10.74,0,0,1-3.93-3.52,15,15,0,0,1-2.17-5.22,29.55,29.55,0,0,1-.66-6.4,32.2,32.2,0,0,1,.28-4.27,20.64,20.64,0,0,1,.89-3.9,15,15,0,0,1,1.6-3.35,10.39,10.39,0,0,1,2.39-2.61,10.71,10.71,0,0,1,3.28-1.7A13.88,13.88,0,0,1,602.5,696.42Zm0,5.4a3.68,3.68,0,0,0-2.47.8,5.13,5.13,0,0,0-1.46,2.27,14.59,14.59,0,0,0-.71,3.49q-0.19,2-.19,4.47t0.19,4.47a14.42,14.42,0,0,0,.71,3.48A5.06,5.06,0,0,0,600,723a4.2,4.2,0,0,0,4.91,0,5.14,5.14,0,0,0,1.48-2.22,14,14,0,0,0,.73-3.46q0.2-2,.2-4.51t-0.19-4.45a14.19,14.19,0,0,0-.71-3.49,5.31,5.31,0,0,0-1.48-2.28A3.65,3.65,0,0,0,602.5,701.81Z" transform="translate(-435.85 0)"/><path class="cls-7" d="M443.13,421.41a7.25,7.25,0,0,1,.42-2.54,5.38,5.38,0,0,1,1.17-1.89,5,5,0,0,1,1.79-1.18,6.11,6.11,0,0,1,2.27-.41,10.37,10.37,0,0,1,1.7.12,5.08,5.08,0,0,1,1.2.33,1.88,1.88,0,0,1,.71.5,1,1,0,0,1,.23.63,0.8,0.8,0,0,1-.09.39,0.84,0.84,0,0,1-.25.28,1,1,0,0,1-.34.16,1.42,1.42,0,0,1-.37.05h-0.22l-0.21,0-0.57-.15-0.53-.13-0.52-.09a4.08,4.08,0,0,0-.54,0,3.43,3.43,0,0,0-1.11.18,2,2,0,0,0-.9.62,3.22,3.22,0,0,0-.61,1.21,7.07,7.07,0,0,0-.22,1.94,6.74,6.74,0,0,0,.18,1.63,3.63,3.63,0,0,0,.54,1.23,2.4,2.4,0,0,0,.89.77,2.74,2.74,0,0,0,1.25.27,3,3,0,0,0,.6-0.06c0.21,0,.42-0.09.64-0.16l0.67-.22,0.68-.25a0.87,0.87,0,0,1,.25,0,0.83,0.83,0,0,1,.36.07,0.9,0.9,0,0,1,.28.2,0.86,0.86,0,0,1,.18.29,1,1,0,0,1,.06.36,0.88,0.88,0,0,1-.2.56,2,2,0,0,1-.53.46,3.94,3.94,0,0,1-.75.36,7.59,7.59,0,0,1-.88.25,8.62,8.62,0,0,1-.9.15,7.61,7.61,0,0,1-.83.05,5.93,5.93,0,0,1-2.16-.39,4.86,4.86,0,0,1-1.73-1.13,5.31,5.31,0,0,1-1.16-1.84A6.88,6.88,0,0,1,443.13,421.41Z" transform="translate(-435.85 0)"/><path class="cls-7" d="M458,425.46a1.57,1.57,0,0,1-.11.6,1.51,1.51,0,0,1-.31.48,1.47,1.47,0,0,1-.46.32,1.43,1.43,0,0,1-1.13,0,1.42,1.42,0,0,1-.46-0.32,1.57,1.57,0,0,1-.42-1.08v-8.39a1.31,1.31,0,0,1,.14-0.63,1.35,1.35,0,0,1,.39-0.45,1.69,1.69,0,0,1,.57-0.27,2.56,2.56,0,0,1,.68-0.09H460a11.87,11.87,0,0,1,1.66.11,4.38,4.38,0,0,1,1.4.43,2.51,2.51,0,0,1,1,.87,2.6,2.6,0,0,1,.36,1.45,3.11,3.11,0,0,1-.13.92,2.17,2.17,0,0,1-.43.78,2.52,2.52,0,0,1-.78.59,4.06,4.06,0,0,1-1.18.36v0a4.37,4.37,0,0,1,.86.18,2,2,0,0,1,.61.32,1.6,1.6,0,0,1,.41.48,2.87,2.87,0,0,1,.26.66,6.89,6.89,0,0,1,.16.87q0.06,0.49.12,1.11c0,0.11,0,.23,0,0.33s0,0.21,0,.32a2.83,2.83,0,0,1-.06.62,1.22,1.22,0,0,1-.22.48,1,1,0,0,1-.43.32,1.86,1.86,0,0,1-.7.11,1.12,1.12,0,0,1-.65-0.18,1.4,1.4,0,0,1-.43-0.49,2.68,2.68,0,0,1-.26-0.72c-0.06-.27-0.11-0.57-0.14-0.88s-0.11-.83-0.16-1.14a2,2,0,0,0-.26-0.74,1,1,0,0,0-.51-0.4,2.83,2.83,0,0,0-.91-0.12H458v3.15Zm1.2-5a7,7,0,0,0,.84-0.05,2.49,2.49,0,0,0,.76-0.21,1.35,1.35,0,0,0,.55-0.47,1.44,1.44,0,0,0,.21-0.82,1.58,1.58,0,0,0-.2-0.89,1.25,1.25,0,0,0-.54-0.45,2.39,2.39,0,0,0-.78-0.18c-0.29,0-.6,0-0.92,0H458v3.11h1.25Z" transform="translate(-435.85 0)"/><path class="cls-7" d="M467.94,427a1.26,1.26,0,0,1-.67-0.16,1.3,1.3,0,0,1-.43-0.43,1.82,1.82,0,0,1-.23-0.59,3.12,3.12,0,0,1-.07-0.66V417.7a5.84,5.84,0,0,1,.05-0.82,1.52,1.52,0,0,1,.24-0.65,1.24,1.24,0,0,1,.55-0.43,2.47,2.47,0,0,1,1-.16h5a1.11,1.11,0,0,1,.43.08,1.16,1.16,0,0,1,.35.22,1,1,0,0,1,.23.32,0.94,0.94,0,0,1,.09.4,0.91,0.91,0,0,1-.09.39,1,1,0,0,1-.23.32,1.1,1.1,0,0,1-.35.21,1.16,1.16,0,0,1-.43.08h-4v2.53H473a1.16,1.16,0,0,1,.43.08,1.06,1.06,0,0,1,.35.22,1.08,1.08,0,0,1,.23.32,0.95,0.95,0,0,1,0,.79,1,1,0,0,1-.23.32,1.1,1.1,0,0,1-.35.21,1.16,1.16,0,0,1-.43.08h-3.67V425h4.22a1,1,0,0,1,.39.08,1,1,0,0,1,.54.54,1,1,0,0,1,0,.79,1,1,0,0,1-.22.32,1.06,1.06,0,0,1-.32.21,1,1,0,0,1-.39.08h-5.62Zm1.46-12.41a0.62,0.62,0,0,1-.42.16,0.61,0.61,0,0,1-.38-0.14,0.46,0.46,0,0,1-.18-0.39,0.41,0.41,0,0,1,.06-0.21l0.13-.21,1.55-2.25a2.08,2.08,0,0,1,.37-0.42,0.68,0.68,0,0,1,.45-0.17,1,1,0,0,1,.38.08,1.29,1.29,0,0,1,.34.21,1.08,1.08,0,0,1,.25.32,0.82,0.82,0,0,1,.1.39,0.88,0.88,0,0,1-.36.66Z" transform="translate(-435.85 0)"/><path class="cls-7" d="M477.81,427a1.31,1.31,0,0,1-.7-0.17,1.29,1.29,0,0,1-.44-0.45,1.91,1.91,0,0,1-.23-0.64,4.18,4.18,0,0,1-.06-0.73v-7.34a3.58,3.58,0,0,1,.1-0.91,1.39,1.39,0,0,1,.34-0.62,1.42,1.42,0,0,1,.61-0.36,3.2,3.2,0,0,1,.93-0.12h1.94a7.17,7.17,0,0,1,4.82,1.41,5.44,5.44,0,0,1,1.63,4.34,6.36,6.36,0,0,1-.45,2.48,4.58,4.58,0,0,1-1.26,1.75,5.29,5.29,0,0,1-2,1,9.06,9.06,0,0,1-2.55.34h-2.72Zm1.43-1.75h1.07a5.08,5.08,0,0,0,1.53-.2,2.25,2.25,0,0,0,1.06-.7,3.13,3.13,0,0,0,.62-1.22,6.92,6.92,0,0,0,.2-1.79,4.48,4.48,0,0,0-.82-2.95,3.12,3.12,0,0,0-2.52-1h-1.14v7.83Z" transform="translate(-435.85 0)"/><path class="cls-7" d="M491.58,425.46a1.57,1.57,0,0,1-.11.6,1.51,1.51,0,0,1-.31.48,1.47,1.47,0,0,1-.46.32,1.43,1.43,0,0,1-1.13,0,1.42,1.42,0,0,1-.46-0.32,1.57,1.57,0,0,1-.42-1.08v-8.3a1.57,1.57,0,0,1,.42-1.08,1.42,1.42,0,0,1,.46-0.32,1.43,1.43,0,0,1,1.13,0,1.47,1.47,0,0,1,.46.32,1.51,1.51,0,0,1,.31.48,1.57,1.57,0,0,1,.11.6v8.3Z" transform="translate(-435.85 0)"/><path class="cls-7" d="M493.85,417.7a1.14,1.14,0,0,1-.43-0.08,1.15,1.15,0,0,1-.36-0.22,1.07,1.07,0,0,1-.24-0.33,0.92,0.92,0,0,1-.09-0.4,0.94,0.94,0,0,1,.09-0.4,1.05,1.05,0,0,1,.24-0.33,1.15,1.15,0,0,1,.36-0.22,1.14,1.14,0,0,1,.43-0.08H501a1.14,1.14,0,0,1,.43.08,1.15,1.15,0,0,1,.36.22,1.05,1.05,0,0,1,.24.33,0.94,0.94,0,0,1,.09.4,0.92,0.92,0,0,1-.09.4,1.07,1.07,0,0,1-.24.33,1.15,1.15,0,0,1-.36.22,1.14,1.14,0,0,1-.43.08h-2.09v7.76a1.57,1.57,0,0,1-.11.6,1.51,1.51,0,0,1-.31.48,1.47,1.47,0,0,1-.46.32,1.43,1.43,0,0,1-1.13,0,1.42,1.42,0,0,1-.46-0.32,1.57,1.57,0,0,1-.42-1.08V417.7h-2.14Z" transform="translate(-435.85 0)"/><path class="cls-7" d="M502.27,421.32a7.84,7.84,0,0,1,.35-2.38,5.17,5.17,0,0,1,1-1.88,4.77,4.77,0,0,1,1.74-1.23,6.23,6.23,0,0,1,2.45-.45,6.33,6.33,0,0,1,2.41.43A4.7,4.7,0,0,1,512,417a5.21,5.21,0,0,1,1.06,1.88,8.35,8.35,0,0,1,0,4.82A5.12,5.12,0,0,1,512,425.6a4.79,4.79,0,0,1-1.75,1.22,6.28,6.28,0,0,1-2.43.44,6.35,6.35,0,0,1-2.39-.42,4.75,4.75,0,0,1-1.75-1.2,5.13,5.13,0,0,1-1.07-1.87A7.73,7.73,0,0,1,502.27,421.32Zm3,0a5.6,5.6,0,0,0,.62,2.93,2.37,2.37,0,0,0,3.85,0,5.48,5.48,0,0,0,.63-2.93,8.22,8.22,0,0,0-.15-1.67,3.76,3.76,0,0,0-.46-1.23,2.14,2.14,0,0,0-.79-0.76,2.62,2.62,0,0,0-2.28,0,2.14,2.14,0,0,0-.79.76,3.76,3.76,0,0,0-.46,1.23A8.22,8.22,0,0,0,505.31,421.32Z" transform="translate(-435.85 0)"/><path class="cls-7" d="M517.76,418.6a0.87,0.87,0,0,0,.25.63,2.18,2.18,0,0,0,.65.45,5.86,5.86,0,0,0,.91.33l1,0.29a15.93,15.93,0,0,1,1.5.53,4.65,4.65,0,0,1,1.16.67,2.74,2.74,0,0,1,.74.93,2.9,2.9,0,0,1,.26,1.29,3.29,3.29,0,0,1-.32,1.48,3.12,3.12,0,0,1-.93,1.12,4.42,4.42,0,0,1-1.47.71,7.08,7.08,0,0,1-1.94.25,9.66,9.66,0,0,1-2.2-.26,7.45,7.45,0,0,1-1-.3,4.29,4.29,0,0,1-.8-0.41,2,2,0,0,1-.54-0.5,1,1,0,0,1-.2-0.57,1,1,0,0,1,.08-0.38,1.38,1.38,0,0,1,.21-0.34,1.12,1.12,0,0,1,.29-0.25,0.62,0.62,0,0,1,.32-0.09,0.82,0.82,0,0,1,.27,0l0.27,0.11,0.28,0.14,0.31,0.14a9.27,9.27,0,0,0,1.21.44,5,5,0,0,0,1.41.2,3.66,3.66,0,0,0,.75-0.07,2.17,2.17,0,0,0,.63-0.23,1.2,1.2,0,0,0,.43-0.39,1.05,1.05,0,0,0,.16-0.59,1.09,1.09,0,0,0-.09-0.46,1.12,1.12,0,0,0-.26-0.36,1.72,1.72,0,0,0-.38-0.27,3.77,3.77,0,0,0-.46-0.2l-0.35-.12-0.2-.07-0.2-.07-0.41-.12-0.23-.06-0.17-.05-0.14-.05-0.16-.06-0.73-.26a8.58,8.58,0,0,1-1.22-.54,3.21,3.21,0,0,1-.83-0.63,2.24,2.24,0,0,1-.47-0.8,3.25,3.25,0,0,1-.15-1,3,3,0,0,1,1.25-2.49,4.5,4.5,0,0,1,1.47-.69,7.2,7.2,0,0,1,1.94-.24,7.73,7.73,0,0,1,.85.05,8.89,8.89,0,0,1,.92.15,6.47,6.47,0,0,1,.89.26,3.8,3.8,0,0,1,.75.38,2,2,0,0,1,.53.49,1,1,0,0,1,.2.61,0.86,0.86,0,0,1-.07.36,0.89,0.89,0,0,1-.2.28,0.9,0.9,0,0,1-.29.18,0.94,0.94,0,0,1-.35.07,0.92,0.92,0,0,1-.43-0.1q-0.37-.19-0.68-0.32a5.18,5.18,0,0,0-.63-0.22,4.32,4.32,0,0,0-.64-0.12,6.21,6.21,0,0,0-.73,0,4.13,4.13,0,0,0-.74.07,2.35,2.35,0,0,0-.65.21,1.33,1.33,0,0,0-.46.37A0.88,0.88,0,0,0,517.76,418.6Z" transform="translate(-435.85 0)"/><path class="cls-7" d="M469.35,374.68a12.43,12.43,0,0,1,5.9,1.29,10.8,10.8,0,0,1,3.93,3.51,15.23,15.23,0,0,1,2.19,5.22,28.84,28.84,0,0,1,.68,6.41,31.64,31.64,0,0,1-.29,4.33,20.69,20.69,0,0,1-.91,3.91,14.84,14.84,0,0,1-1.62,3.34,10.49,10.49,0,0,1-2.4,2.59,10.66,10.66,0,0,1-3.27,1.67,13.87,13.87,0,0,1-4.22.59,12.52,12.52,0,0,1-5.95-1.29,10.74,10.74,0,0,1-3.93-3.52,15,15,0,0,1-2.17-5.22,29.54,29.54,0,0,1-.66-6.4,32.2,32.2,0,0,1,.28-4.27,20.64,20.64,0,0,1,.89-3.9,15,15,0,0,1,1.6-3.35A10.4,10.4,0,0,1,461.8,377a10.7,10.7,0,0,1,3.28-1.7A13.88,13.88,0,0,1,469.35,374.68Zm0,5.4a3.68,3.68,0,0,0-2.47.8,5.14,5.14,0,0,0-1.46,2.27,14.59,14.59,0,0,0-.71,3.49q-0.19,2-.19,4.47t0.19,4.47a14.41,14.41,0,0,0,.71,3.48,5.06,5.06,0,0,0,1.46,2.25,4.2,4.2,0,0,0,4.91,0,5.14,5.14,0,0,0,1.48-2.22,14,14,0,0,0,.73-3.46q0.2-2,.2-4.51T474,386.66a14.19,14.19,0,0,0-.71-3.49,5.31,5.31,0,0,0-1.48-2.28A3.65,3.65,0,0,0,469.35,380.07Z" transform="translate(-435.85 0)"/><path class="cls-7" d="M494.78,378.6a9.43,9.43,0,0,1,1.33-2,6.24,6.24,0,0,1,1.55-1.27,6,6,0,0,1,1.78-.66,10.47,10.47,0,0,1,2-.19,6.65,6.65,0,0,1,2.42.4,3.87,3.87,0,0,1,1.67,1.24,5.55,5.55,0,0,1,1,2.19,14.7,14.7,0,0,1,.31,3.24v13.06h1a6.2,6.2,0,0,1,1.3.13,3.19,3.19,0,0,1,1.1.45,2.34,2.34,0,0,1,.77.84,2.63,2.63,0,0,1,.29,1.29,2.41,2.41,0,0,1-.88,2,4.15,4.15,0,0,1-2.58.68h-1v2.64a7.54,7.54,0,0,1-.21,1.56,4,4,0,0,1-.61,1.37,3.06,3.06,0,0,1-1.12,1,3.83,3.83,0,0,1-1.76.36,3.2,3.2,0,0,1-2.83-1.29,6.81,6.81,0,0,1-.94-3.75V400h-11.1a7.28,7.28,0,0,1-1.61-.17,3.75,3.75,0,0,1-1.24-.51,2.35,2.35,0,0,1-.8-0.89,2.84,2.84,0,0,1-.29-1.32,3.93,3.93,0,0,1,.12-0.94,3.56,3.56,0,0,1,.43-1Zm-3.68,16h8.26v-14.2Z" transform="translate(-435.85 0)"/><path class="cls-1" d="M800,561.7H640.34a12.46,12.46,0,0,1-12.44-12.45v-6.5H800V561.7Z" transform="translate(-435.85 0)"/><path class="cls-1" d="M699.56,423A100.55,100.55,0,0,0,800,523.43v4.91a105.35,105.35,0,1,1,0-210.7v4.91A100.55,100.55,0,0,0,699.56,423Z" transform="translate(-435.85 0)"/><path class="cls-1" d="M722.75,423A77.33,77.33,0,0,0,800,500.24v16a93.21,93.21,0,0,1,0-186.41v16A77.33,77.33,0,0,0,722.75,423Z" transform="translate(-435.85 0)"/><path class="cls-1" d="M752.13,426.1a5.34,5.34,0,0,1-10.68,0A62.42,62.42,0,0,1,800,363.88v10.7A51.73,51.73,0,0,0,752.13,426.1Z" transform="translate(-435.85 0)"/><path class="cls-1" d="M800,534.72v8H627.9V519h115A111.18,111.18,0,0,0,800,534.72Z" transform="translate(-435.85 0)"/><path class="cls-1" d="M640.34,299.53H752.75l-1.1,3.55H800v8.19a111.31,111.31,0,0,0-75.46,29.35H627.9V312A12.46,12.46,0,0,1,640.34,299.53Z" transform="translate(-435.85 0)"/><polygon class="cls-1" points="364.15 281.88 364.15 294.62 318.42 294.62 323.75 277.46 346.71 277.46 346.71 281.88 364.15 281.88"/><polygon class="cls-1" points="315.8 303.08 316.9 299.53 364.15 299.53 364.15 303.08 315.8 303.08"/><rect class="cls-1" x="346.71" y="263.8" width="17.44" height="13.67"/><rect class="cls-1" x="346.71" y="277.46" width="17.44" height="4.42"/><path class="cls-1" d="M780.91,222.69A19.09,19.09,0,0,0,800,241.79v7.62H778.62a5.33,5.33,0,0,1-5.33-5.33V201.31a5.33,5.33,0,0,1,5.33-5.33H800v7.62A19.09,19.09,0,0,0,780.91,222.69Z" transform="translate(-435.85 0)"/><path class="cls-1" d="M752,186.5a2.8,2.8,0,0,0-2.79,2.79v66.79a2.8,2.8,0,0,0,2.79,2.79h48v2.46H782.56v2.46H752a7.71,7.71,0,0,1-7.7-7.7V189.3a7.71,7.71,0,0,1,7.7-7.7h48v4.91H752Z" transform="translate(-435.85 0)"/><rect class="cls-1" x="346.71" y="261.34" width="17.44" height="2.46"/><path class="cls-1" d="M626.62,366.13H623V312a17.38,17.38,0,0,1,17.36-17.36H754.27l-0.76,2.46H639.86a14.44,14.44,0,0,0-14.42,14.42v29.12h2.46V519h-2v23.75h2v6.5a12.46,12.46,0,0,0,12.44,12.45H800v4.91H640.34A17.38,17.38,0,0,1,623,549.25V397.67h3.63V366.13Z" transform="translate(-435.85 0)"/><polygon class="cls-1" points="188.93 395.83 188.93 367.98 187.14 367.98 187.14 366.13 190.77 366.13 190.77 397.67 187.14 397.67 187.14 395.83 188.93 395.83"/><rect class="cls-1" x="187.14" y="367.98" width="1.79" height="27.85"/><rect class="cls-1" x="190.08" y="519" width="1.97" height="23.75"/><path class="cls-1" d="M640.34,299.53A12.46,12.46,0,0,0,627.9,312v28.64h-2.46V311.49a14.44,14.44,0,0,1,14.42-14.42H753.51l-0.76,2.46H640.34Z" transform="translate(-435.85 0)"/><polygon class="cls-1" points="364.15 297.07 317.66 297.07 318.42 294.62 364.15 294.62 364.15 297.07"/><polygon class="cls-1" points="364.15 299.53 316.9 299.53 317.66 297.07 364.15 297.07 364.15 299.53"/></svg>