<svg xmlns="http://www.w3.org/2000/svg" viewBox="0 0 449.97 546.57"><defs><style>.cls-1{fill:#42130d;}.cls-2{fill:#b96c4e;}.cls-3{fill:#9b5742;}.cls-4{fill:#511b12;}.cls-5{fill:#e9c083;}.cls-6{fill:#dbb27b;}.cls-7{fill:#3f130d;}.cls-8{fill:#4e4e4f;}.cls-9{fill:#404244;}.cls-10{fill:#37393a;}.cls-11{fill:#2a2c2d;}.cls-12{fill:#353738;}.cls-13{fill:#262727;}.cls-14{fill:#858d92;}.cls-15{fill:#767e82;}.cls-16{fill:#252728;}.cls-17{fill:#61686e;}.cls-18{fill:#535a5f;}.cls-19{fill:#454d52;}.cls-20{fill:#889ca0;}.cls-21{fill:#648189;}.cls-22{fill:#4f4f4d;}.cls-23{fill:#7e99a3;}.cls-24{fill:none;stroke:#404244;stroke-miterlimit:10;stroke-width:0.32px;}.cls-25{fill:#6d1311;}.cls-26{fill:#a52514;}.cls-27{fill:#aa5d46;}.cls-28{fill:#891d15;}.cls-29{fill:#171819;}.cls-30{fill:#350f0a;}.cls-31{fill:#e8d4cf;opacity:0.78;}.cls-31,.cls-37,.cls-64{isolation:isolate;}.cls-32{fill:#9b4737;}.cls-33{fill:#110401;}.cls-34{fill:#af5b52;}.cls-35{fill:#eae1df;}.cls-36{fill:#a35841;}.cls-37{fill:#cc6858;opacity:0.41;}.cls-38{fill:#9b1e15;}.cls-39{fill:#69776f;}.cls-40{fill:#e5c6c6;}.cls-41{fill:#efd9d8;}.cls-42{fill:#f7ebeb;}.cls-43{fill:#3183a3;}.cls-44{fill:#0e91af;}.cls-45{fill:#317c84;}.cls-46{fill:#3abddb;}.cls-47{fill:#e84b3a;}.cls-48{fill:#fff;}.cls-49{fill:#db716a;}.cls-50{fill:#173748;}.cls-51{fill:#ce372c;}.cls-52{fill:#0c9cc6;}.cls-53{fill:#f7bd84;}.cls-54{fill:#54300c;}.cls-55{fill:#3a2009;}.cls-56{fill:#dda36f;}.cls-57{fill:#2a232d;}.cls-58{fill:#a0afa6;}.cls-59{fill:#130f16;}.cls-60{fill:#ddf2e6;}.cls-61{fill:#a5dbdb;}.cls-62{fill:#87c1bf;}.cls-63{fill:#3b323f;}.cls-64,.cls-65{fill:#c68e60;}.cls-64{opacity:0.58;}</style></defs><title>fotografo_cor_1</title><g id="Camada_2" data-name="Camada 2"><g id="Objects"><ellipse class="cls-1" cx="99.5" cy="44.27" rx="9.01" ry="18.17" transform="translate(-1.81 4.31) rotate(-2.46)"/><path class="cls-2" d="M19,509.48c5.55,1.06,5-70.28,5-70.28-3-21-2.25-69-2.25-69-.22-17.68,8.15-35.32,8.15-35.32.76-7.35-3.73-36.84-3.73-36.84L75,301.41,56.43,368.69C55.23,374.42,40.12,473,40.12,473l-3.19,26c.75,10.84,5.79,12.81,5.79,12.81-4.82,24.27-21.57,2.32-21.57,2.32l.72-3.11Z"/><path class="cls-3" d="M30.42,332.79s33.17-23.54,43-25l2-7.23L26.1,297.87l4.18,31.68"/><path class="cls-3" d="M51,340.33a16.23,16.23,0,0,0-5.42,11.08,17.33,17.33,0,0,0,3.7,12,22,22,0,0,1-2-11.95A20.56,20.56,0,0,1,52,340.6"/><path class="cls-4" d="M71.79,527c-7.23-4.43-9.18-5.41-9.18-5.41L42,511.3a9.3,9.3,0,0,1-9.44,7.33,18.06,18.06,0,0,1-11.78-11.48l.2-.4a3.61,3.61,0,0,0-2.47,2.64v.14c-1.43,3.93-1,10.55-1,10.55h0S40.78,535,53.35,537.57c0,0,14,2.34,19.46-2.54C72.81,535.1,76.94,530.21,71.79,527Z"/><path class="cls-2" d="M92.42,364.49C89.7,351.24,77.77,302,76.49,301.08l42.15-1.35c6.12,17.22,3.46,68,3.46,68l3,98.75c.08,1.08-.54,12.95-.71,23.41-1.85,23,2.76,26.33,8.33,32.11-1,5.14-4.65,3.41-6.29,5.11l-1.63,1.2c-2.79,1.38-5.91-.37-8.43-2.59l-7.57-2.36-.69-5.38s4.08-7.15,3.69-10C92.29,447.63,92.42,364.49,92.42,364.49Z"/><path class="cls-3" d="M120.18,299.81s-31.8,32.94-29.76,51.58l.14,3.25L76.49,301.08Z"/><path class="cls-3" d="M112.93,351.09a16.23,16.23,0,0,0-5.37,11.14,17.33,17.33,0,0,0,3.61,12,22,22,0,0,1-2-12,20.56,20.56,0,0,1,4.62-10.91"/><path class="cls-4" d="M160.54,535.47c-7.23-4.43-9.18-5.41-9.18-5.41l-20.63-10.32a9.3,9.3,0,0,1-9.44,7.33,18.06,18.06,0,0,1-11.78-11.48l.2-.4a3.61,3.61,0,0,0-2.47,2.64V518c-1.43,3.93-1,10.55-1,10.55h0s23.33,14.92,35.9,17.47c0,0,14,2.34,19.46-2.54C161.57,543.54,165.7,538.65,160.54,535.47Z"/><path class="cls-5" d="M25.79,241.94c1-1.1,8.55,1.2,11.12,1,27.06,5.74,70.57,2.22,70.57,2.22,2,4,17.4,56.67,17.4,56.67l-48.42.37.6-8.43-1.64,7.79-49.51-3.22v.53l-1.2-.61-2-.13.08-.82-.58-.28C12.07,262.91,18.21,250,25.79,241.94Z"/><path class="cls-6" d="M115.93,272.49s-20.79-22.63-14.79-24.68c.53-.18,6.86-2.1,6.86-2.1Z"/><polygon class="cls-6" points="76.05 302.1 80.53 249.58 92.78 249.96 111.24 301.7 76.05 302.1"/><path class="cls-6" d="M40.31,245.72c-.52,0-17.1,22.25-23.75,23.4,0,0-.2-17.35,9-26.92Z"/><path class="cls-7" d="M111.81,257.79S53.36,264.45,19.64,252c-2.71,2.7-4.32,14.74-2,20.2,0,0,89.42,6.59,97.94-1.49Z"/><polygon class="cls-6" points="102.86 257.6 107.65 275.67 105.08 276.38 100.26 258.01 102.86 257.6"/><polygon class="cls-6" points="88.89 257.8 90.78 276.41 88.12 276.71 86.27 257.8 88.89 257.8"/><polygon class="cls-5" points="41.47 255.6 40.71 275.46 38.01 275.46 38.86 255.29 41.47 255.6"/><polygon class="cls-5" points="26.52 252.62 25.11 275.08 22.4 275.17 23.91 252.35 26.52 252.62"/><polygon class="cls-5" points="60.84 257.57 60.07 277.43 57.39 277.43 58.23 257.26 60.84 257.57"/><path class="cls-8" d="M103.94,103.58c.37-.11,8.43,2.1,8.43,2.1l-3.43-26.49-8.27-.7,3.28,24.82"/><path class="cls-8" d="M102.74,75.05c.82-1.07-4.82-.13-4.82-.13a17.79,17.79,0,0,0-.42,3.78l1.2,23.64,2.83.72,2.49.52,2.67-2.64,3.46-25Z"/><polygon class="cls-9" points="115.3 104.13 116.11 109.88 149.74 99.11 143.61 70.71 126.05 74.66 129.16 99.04 114.87 103.03 115.3 104.13"/><path class="cls-10" d="M100.88,75.91l11.57.28.78,29.32-9.79-2.11-.29-2.84,1.72.42-2.94-19.27-1.53-.18S99.66,77,100.88,75.91Z"/><ellipse class="cls-10" cx="98.94" cy="83.61" rx="0.89" ry="1.78" transform="translate(-9.59 12.89) rotate(-7.11)"/><ellipse class="cls-9" cx="98.85" cy="83.63" rx="0.78" ry="1.49" transform="translate(-9.59 12.88) rotate(-7.11)"/><ellipse class="cls-10" cx="101.49" cy="98.21" rx="0.89" ry="1.78" transform="translate(-11.38 13.32) rotate(-7.11)"/><ellipse class="cls-9" cx="101.5" cy="98.23" rx="0.67" ry="1.49" transform="translate(-11.38 13.32) rotate(-7.11)"/><path class="cls-9" d="M97.45,74.9,127,71.67l9.28.51-18.56,5.5s-8.16-.72-8.18-.34Z"/><path class="cls-10" d="M108.58,79.71c0,.23,3.46,25.61,3.46,25.61a1.13,1.13,0,0,0,.78.64l1.73-.45-.23-1.58,15.25-4.2s.93-.3.42-2.29l-3.94-22.81-18.9,2.17A10.84,10.84,0,0,1,108.58,79.71Z"/><path class="cls-11" d="M124.9,74.9l1.2-.24L130,97.47c.51,2-.42,2.29-.42,2.29l-5.07,1.47-9.2,2.91-1-.17,12.91-4.64s2.06-.43,1-4.4Z"/><polygon class="cls-12" points="101.26 81.63 103.98 100.79 105.14 101.13 102.26 81.75 101.26 81.63"/><path class="cls-8" d="M112.37,105.71l.54,3.32,3.18.88-.82-5.76-1-.17.14,1.38A2.59,2.59,0,0,1,112.37,105.71Z"/><ellipse class="cls-13" cx="118.2" cy="97.51" rx="3.54" ry="4.08" transform="translate(-11.16 15.38) rotate(-7.11)"/><ellipse class="cls-14" cx="117.9" cy="97.52" rx="3.18" ry="3.71" transform="translate(-11.16 15.34) rotate(-7.11)"/><ellipse class="cls-14" cx="123.71" cy="93.89" rx="1.4" ry="1.65" transform="translate(-10.67 16.03) rotate(-7.11)"/><ellipse class="cls-15" cx="123.55" cy="93.91" rx="1.23" ry="1.65" transform="translate(-10.68 16.02) rotate(-7.11)"/><ellipse class="cls-14" cx="124.26" cy="98.37" rx="1.4" ry="1.65" transform="translate(-11.22 16.14) rotate(-7.11)"/><path class="cls-16" d="M139.37,71.08l24.52.59s-9.77,4.36-8.76,17.8c0,0,.9,6.52,5.67,10L134.89,94.2a12.38,12.38,0,0,1-5.59-8.61s-1.2-10.6,7.11-13.85Z"/><path class="cls-17" d="M154.17,86.07c-.31-7.8,3.26-14.72,6.91-15.43,4.25-.83,8,5.5,8.43,13.36.36,7.38-2.7,14.8-7,15.66S154.52,93.91,154.17,86.07Z"/><path class="cls-18" d="M154.52,85.89c-.29-7.32,3.14-13.83,6.64-14.45,4.06-.78,7.65,5.15,8,12.52.33,6.92-2.6,13.9-6.74,14.72S154.76,93.26,154.52,85.89Z"/><path class="cls-19" d="M162.36,98.63c4.24-1.06,7.07-7.79,6.74-14.72-.35-7.37-3.94-13.25-8-12.52,0,0,7.23,1.2,7.57,12.5,0,0,.4,10.84-6.2,14.25a4.25,4.25,0,0,1-1.84.26A3.48,3.48,0,0,0,162.36,98.63Z"/><path class="cls-19" d="M155.59,85.47c-.2-6,1.83-11.31,4.93-11.89,3.61-.69,6.74,4.22,7,10.31.24,5.73-2.41,12-6.09,12.24S155.8,91.56,155.59,85.47Z"/><path class="cls-9" d="M155.85,85c-.22-5.56,1.54-9.9,4.23-10.42,3.13-.6,5.88,3.44,6.13,9,.24,5.26-2,11-5.23,11.19S156.06,90.57,155.85,85Z"/><path class="cls-20" d="M155.87,85.54c-.19-5.23,1.45-9.3,4-9.78,2.94-.57,5.52,3.24,5.76,8.43.23,4.94-1.85,10.3-4.9,10.5S156.06,90.79,155.87,85.54Z"/><path class="cls-21" d="M155.81,85.31c-.22-5.13,1.89-9.07,3.61-9.63,2.66-.82,4.71,3.07,5,8.23.24,4.82-1.73,10.75-4.56,10C157.64,93.41,156,90.47,155.81,85.31Z"/><path class="cls-22" d="M140.78,71.15s-7.78,1.73-8.92,9c0,0-3.11,9.48,5.48,14.16l.63.37-3.07-.54a12.61,12.61,0,0,1-5.76-12.31s.85-8,7.6-10.42l3-.57Z"/><path class="cls-10" d="M148.63,71.31s-8.6,3.07-8.5,12c0,0-.9,9.2,4.72,12.66l.42.27h.9s-5.79-2.41-5.68-11.71a13.25,13.25,0,0,1,7.23-12.49l1.7-.78Z"/><path class="cls-10" d="M158.28,99c-4.08-2.41-5.52-8.27-5.52-8.27-2.28-15.66,6.14-19.11,6.14-19.11l-3.61-.12s-12.68,10.07-4,25.88Z"/><path class="cls-10" d="M142.34,95.72c-11.91-17,4.49-24.42,4.49-24.42h.36s-16.43,7.47-4.25,24.57Z"/><path class="cls-10" d="M140.38,95.08a15.9,15.9,0,0,1-3.4-8.79c-1-11.79,7-15.15,7-15.15l.67.14s-12.89,7.14-3.69,24Z"/><path class="cls-23" d="M165.36,85.24c.16,3.41-1.2,6.38-3.52,6.68s-4.62-2.22-5-5.61,1.2-8.43,3.53-8.67S165.18,81.1,165.36,85.24Z"/><ellipse class="cls-16" cx="143.46" cy="69.65" rx="1.26" ry="0.29" transform="translate(-16.01 68.14) rotate(-25.35)"/><ellipse class="cls-16" cx="136.79" cy="71.56" rx="1.26" ry="0.48" transform="translate(-17.47 65.46) rotate(-25.35)"/><path class="cls-10" d="M138,71l1.32,1.93s-.77,1.94-2.31,1.45l-.23-.1-1.07-2.19A2.41,2.41,0,0,0,138,71Z"/><path class="cls-10" d="M133.42,73.2s-5.58,6-4.23,10.71l-2-9.74,6.85-2Z"/><path class="cls-24" d="M118.61,95.79a1.73,1.73,0,0,1,1.13,1.43,1.69,1.69,0,1,1-3.34.42,1.73,1.73,0,0,1,.7-1.63"/><line class="cls-24" x1="117.83" y1="95.29" x2="118.07" y2="96.84"/><path class="cls-10" d="M144.61,69.06l1.28,2.29a6.93,6.93,0,0,1-2.61,1.1l-1-2.3A3.61,3.61,0,0,0,144.61,69.06Z"/><ellipse class="cls-16" cx="152.56" cy="69.68" rx="1.31" ry="0.29" transform="translate(-13.79 48.31) rotate(-17.23)"/><path class="cls-10" d="M153.81,69.26l1,2.23a6.92,6.92,0,0,1-2.67.94L151.36,70S153.23,70.12,153.81,69.26Z"/><ellipse class="cls-15" cx="124.16" cy="98.38" rx="1.23" ry="1.65" transform="translate(-11.22 16.12) rotate(-7.11)"/><path class="cls-25" d="M87.43,114a20,20,0,0,1,7.33-.17,9.63,9.63,0,0,1,5.92,3.28,10.63,10.63,0,0,1,1.61,4,128.28,128.28,0,0,1,3.23,19.41c-5.58-7.11,1.2,17.58-6.71,12.2"/><path class="cls-4" d="M94.5,59.42c2.23,2.41,3,5.88,3.29,9.16A44.32,44.32,0,0,1,76.32,110a1,1,0,0,1-1.77-.61,47.52,47.52,0,0,1-3.61-15.8c5,1.08,9.55-3,13.08-6.72,3.28-3.48,6.6-7,8.74-11.32s3-9.44,1.2-13.87"/><path class="cls-26" d="M76.59,111.81s-21.91,6.49-28.34.83L31.07,128.85l4,55.29A47.65,47.65,0,0,1,30,212.64s-9.18,18.32-2,23.9c0,0,57.35,14,78.28,2.83,0,0-4.14-4.38-13.17-30.47,0,0,15.38-54.31,7.23-69.09,0,0-8.62-18.71-10.43-24.57C89.9,115.24,81.45,110.7,76.59,111.81Z"/><path class="cls-27" d="M46.38,83.83s4.48,26.12,1,29.75c0,0,20.32,15.66,31-1.89,0,0-2.53-12.87-1.59-15.1C76.85,96.59,48.08,81.18,46.38,83.83Z"/><path class="cls-2" d="M58.07,20.74c.86-.13,33-3.83,38.54,4.54,0,0,4.23,11.25,1.48,22.46a28.51,28.51,0,0,0-.54,11.37s2.2,15.38-.78,21.68c0,0-6.68,12.67-12.21,16a16.25,16.25,0,0,1-8.23.53s-24.16-6-30.26-11.95c0,0-7.61-13-8.94-18.49q-.09-.4-.14-.72C36.25,61.23,43.55,22.91,58.07,20.74Z"/><path class="cls-4" d="M55.65,20.5c0,.69,3.49,25.13-16.86,25.13,0,0-4.89-29.71,17.28-26"/><path class="cls-28" d="M96.21,157.5l-7.48-22.88c-2.5-7.66-5.06-15.41-9.36-22.23,9.12,8.09,14.27,19.63,19.16,30.79a5.6,5.6,0,0,1,.34,5.19L96,157.5"/><path class="cls-29" d="M78.22,111.53S97.07,137.89,98.69,148l3.35-6s-1.1-27.55-18.22-29.91Z"/><path class="cls-16" d="M98.28,76.29a169.38,169.38,0,0,1,.33,54.84c-.71,4.46-1.64,9-4.12,12.78s-6.84,6.62-11.32,6c-3.61-.45-6.64-3-9.41-5.35A16.64,16.64,0,0,0,83.4,154a14.45,14.45,0,0,0,13.25-1.79,21.94,21.94,0,0,0,6.15-8.13c10.15-20.32,8.33-44.29,6.29-66.91l-11.87.42"/><path class="cls-16" d="M43.26,117.46a1.82,1.82,0,0,0,.25.4c2,1.46,21.18,14.94,25.19,22.63l8,9.28,1.83-1.37-.1-.34s-13-29.7-30.2-35.81c-.06,0,0,.06,0,.06"/><path class="cls-25" d="M88.29,186.27s18.3,15.51,32.35,16.22c0,0,9.37,1.79,8.68-11.57l-4.82-73.3h-4.6l-24.3,65.3Z"/><path class="cls-4" d="M11,101.07a15.33,15.33,0,0,1,4.14-7.23c-2.83-5.09-4.24-12.43.14-22.17C5.52,63.52-1.41,51.13.24,38.58c1-7.37,4.71-14,8.6-20.38C13.56,10.5,19.45,2.4,28.27.45c6.2-1.37,12.61.64,18.57,2.84a18.59,18.59,0,0,1,6,3.24c.6.24,1.2.49,1.83.79l3.79.35-.42,10.16s.85,24.09-18.12,30.36l-1,20.92L49.09,89.83a26.38,26.38,0,0,1-6.41,9.77c2.69,6.36,4.82,13.31,2.54,19.7a15.16,15.16,0,0,1-3.61,5.59,9.87,9.87,0,0,1-1.69,4.82,23.58,23.58,0,0,1-14.68,10.41,12.4,12.4,0,0,1-4.82.25,10.36,10.36,0,0,1-6.92-5.26,17.81,17.81,0,0,1-2-8.67,7.76,7.76,0,0,1,.64-3.61,4.74,4.74,0,0,1,.79-1.08A19.27,19.27,0,0,1,11.62,117C10.62,111.74,9.67,106.27,11,101.07Z"/><path class="cls-30" d="M98.44,35.69s7.82,9.81,4.18,21.32l2.53,2.47,8-14.45s.46-19.52-8-22l-10.65.46S98.79,32,98.44,35.69Z"/><path class="cls-31" d="M73,47.91s.81,5.53,1.2,6.68c0,0,.52,1-1,1.46,0,0-10.84,1.2-15-5.95a3.32,3.32,0,0,1,1.57-2.89s5-2.73,9.45-1.59L73.44,47Z"/><path class="cls-32" d="M67.14,45.86s-2,5.54,1.2,8.15a26.4,26.4,0,0,0,4.4,2.1,1.45,1.45,0,0,0,1.57-1.2l-1.25-7,.1-.34S67.82,45.63,67.14,45.86Z"/><path class="cls-33" d="M69.62,46.34c0,.07-1.94,6,4.44,7.8h.19l-1-6.5.13-.28Z"/><ellipse class="cls-31" cx="69.64" cy="50.67" rx="1.26" ry="1.38" transform="translate(-4.64 7.09) rotate(-5.64)"/><path class="cls-31" d="M87.08,52.1s2.87-3.54,6-2.41a4.72,4.72,0,0,1,2,1.29c.28.65.18.64.18.64s-.84,4.72-2.35,5.73a5.71,5.71,0,0,1-4.44-.16,5,5,0,0,1-2.07-2.34l-.28-1.58Z"/><path class="cls-32" d="M90,50.07s-1.54,4.82,2.52,7.09l.51.16a5,5,0,0,0,1.08-1.13,29.61,29.61,0,0,0,1.42-4.66S92.72,48,90,50.07Z"/><path class="cls-33" d="M92.7,49.49c-.1,0-1.38,4.59,1,7.23h0s2.11-2.78,1.84-5.35c-.12-1.1.11-.57.11-.57A4,4,0,0,0,92.7,49.49Z"/><path class="cls-4" d="M54.48,45.72A12.39,12.39,0,0,1,64,40.82a23.3,23.3,0,0,1,8,2s8.57,2.29,9.75,2.14c0,0,2.91-2.53,2.81-3.9,0,0-.59.07-1.66.28,0,0-17.38-2.07-18.31-2,0,0-4.91.12-7.45,2.67l-3.32,3.61S53.12,46.57,54.48,45.72Z"/><path class="cls-4" d="M98.05,41.18c-.13,0-2,2.11-3.41-.22a.45.45,0,0,0-.62-.09l-.09.09a3.11,3.11,0,0,0-.42,2.66,2.22,2.22,0,0,0,2.1,1.06L98,44.19s1.2-2,.23-3"/><path class="cls-34" d="M67.31,71.33l.28.1c1.7.63,5.06,3.61,11.13,4.21a64,64,0,0,0,6.53,1.07,22.88,22.88,0,0,1,4.82.33l-.87,1.1-1.26,2.53S89,85.09,85.66,86c0,0-4.61,2.06-9.83-2.41a59.28,59.28,0,0,1-5.52-7.49s-2.59-4.82-3.06-4.82"/><path class="cls-35" d="M73,76.63S77.1,84.84,83.09,84s3-5.26,3-5.26S78.08,78.91,73,76.63Z"/><path class="cls-4" d="M76.4,46.71s-.59,1.48-1.67,1.29c0,0-6.9-2-7.84-2.06,0,0-6-.4-8.43,3.52l-.22.35a3.93,3.93,0,0,1,1-3.06,11.22,11.22,0,0,1,6.91-2.41,24.82,24.82,0,0,1,8.21,2.14A3.76,3.76,0,0,0,76.4,46.71Z"/><ellipse class="cls-31" cx="91.94" cy="53.06" rx="1.24" ry="1.41" transform="translate(-10.97 27.02) rotate(-15.79)"/><path class="cls-4" d="M86.2,53.26s4.36-5.68,8.55-2.54a4.47,4.47,0,0,0,1.2,1,3.48,3.48,0,0,0,1.42-.4l-.26-.42s-3.43-3.54-6.67-2.24C90.5,48.69,86.17,50.86,86.2,53.26Z"/><path class="cls-36" d="M83.22,50.66a33.58,33.58,0,0,0,1.2,7,6.73,6.73,0,0,0,1.75,3.28,6.65,6.65,0,0,1,2.12,1.9,2.34,2.34,0,0,1-.46,2.32,6,6,0,0,1-2,1.45,35.06,35.06,0,0,1-3.4,1.52,2.79,2.79,0,0,1-.82-1.32,5.66,5.66,0,0,0,3.5-2.08,1,1,0,0,0,.29-.83,1.28,1.28,0,0,0-.88-.69,6.61,6.61,0,0,1-3.81-5.55,9.43,9.43,0,0,1,2.22-6.55"/><path class="cls-2" d="M42.39,51s-8-8.3-13.43-.46c0,0-5.62,7.23.37,14.68,0,0,3.95,5,8.21,5.06,0,0,1.2.47,3-1s.51-.28.51-.28Z"/><path class="cls-36" d="M31.27,54.76a3.18,3.18,0,0,1,3.94-2.14A3.46,3.46,0,0,1,37,54.16a2.28,2.28,0,0,1,.22,2.13c-.59,1.2-2.29,1.2-3.25,2a2.76,2.76,0,0,0-.76,2.41,5.06,5.06,0,0,0,1.2,2.41,3.32,3.32,0,0,0,.93.82c1.14.63,2.57,0,3.61-.66A2.58,2.58,0,0,0,38.82,62H36.15a1.83,1.83,0,0,1-.67-.07A1.36,1.36,0,0,1,35.25,60L35.3,60a8.77,8.77,0,0,1,2-1.42,4.82,4.82,0,0,0,1.7-5.29,4.37,4.37,0,0,0-4.59-3,3.72,3.72,0,0,0-3,4.31h0"/><path class="cls-4" d="M58.07,20.74l.41.3C61.2,23,76.74,33.48,85.94,29.18c0,0,17.81-5.58,20.58,2.72,0,0,7.45,17.56-5.58,26.37L97.72,60.1l.22,5.15s14.52,1,17.81-18.77c0,0,2.54-24.87-21.3-35.54-8.13-7.53-21.7-13.41-32.2-9.86,0,0-7.59,6.31-10.43,9C51.86,10.1,50.14,16.09,58.07,20.74Z"/><path class="cls-4" d="M57.7,20c.19.36,6.62,25.12-11.65,32.09,0,0-3.55,1.45-8.43-4.82s0-.77,0-.77l2-1.89s5.21,4.29,7.38,3.69c0,0,12.79-5.58,8.56-25.9C55.48,22.45,56.29,17.38,57.7,20Z"/><ellipse class="cls-37" cx="61.03" cy="66.98" rx="10.33" ry="11.92" transform="translate(-18.17 111.01) rotate(-76.73)"/><path class="cls-37" d="M97.43,58.42A10.36,10.36,0,0,0,88.52,66c-1.3,5.49,2.75,11.15,9,12.74C99.13,73.45,97.92,62.61,97.43,58.42Z"/><path class="cls-4" d="M36.81,70.31c3.36-.94,7,1,9,3.94s2.41,6.53,2.54,10a16.28,16.28,0,0,1-1.43,8.07,13.9,13.9,0,0,1-5.14,5.09c-3.08,1.9-6.95,3.08-10.33,1.81a13,13,0,0,1-5.11-4,18.43,18.43,0,0,1-4.17-7.57"/><path class="cls-28" d="M28.07,236.55s-3.49,2.73-2.84,5.79c0,0,61.89,14.75,82.89,5.33,0,0,1.2-6.66-3.36-10.59C104.74,237.09,77.93,247.94,28.07,236.55Z"/><path class="cls-4" d="M16.75,128.6c2.64,11.08,5.3,22.4,4.17,33.72S14.13,185.2,4,190.33c4.66,2.41,10.62.67,14.55-2.83s6.27-8.43,8.51-13.14a36.48,36.48,0,0,1-11.85,22.23c3.16,2,7.12-1.12,9.21-4.25,6.62-9.88,9.42-21.94,9.73-33.83s-1.71-23.71-4-35.37"/><path class="cls-2" d="M112.08,114s2-17.78,5.2-22c0,0,3.77-11,3.43-13.7,0,0,1.07-4.5,3.61-5.17,0,0,2.71-1,2.54,2.41,0,0-3.88,17.16,1.12,20.06,0,0,3.42,5.15,12,3.14,0,0,9.2-.57,11.9-1.6l1.63-.29s-.24,4.08-2,4.56c0,0-7.86,2.81-10,4.6,0,0-3.41,4.82-4.95,4.88,0,0-8.61.89-10.73,5.6a9.43,9.43,0,0,0-2.41,2.25l-11.74-3.06Z"/><path class="cls-28" d="M38,143.43s44,50.8,64.71,50.06c0,0,4,.12,7.42-17.56l17.16-59.53-17.71-2.83s-9.26,51.27-24,44.86l-4.93-6.67L56.35,123.65S45,109.56,33.47,123.27C33.49,123.27,25.81,130.23,38,143.43Z"/><path class="cls-38" d="M34.84,178.59l9.54-16.7c1.29-2.25,2.61-4.82,1.89-7.32a9.71,9.71,0,0,0-1.53-2.77L31.86,133.5q0,8.76-.06,17.52c0,10.95,0,22.17,3.81,32.43"/><path class="cls-39" d="M281.16,488.15a12.17,12.17,0,0,0-3.66,4.64s-5.76,16.47-9.83,19.56l-1.48,1s13,2.39,20.18,9.55c0,0,3.31,13,16.14,3l10.13-9.3s1.19-14.09-5.48-22.21C307.24,494.36,291.43,484.33,281.16,488.15Z"/><path class="cls-40" d="M297.73,528.12s-13.34-17.86-29.56-16.47c0,0-3.37,1.48-8.87,4a22,22,0,0,0-12.46,18s10,7.4,27.69,4.29C274.57,537.93,290.77,536.22,297.73,528.12Z"/><path class="cls-41" d="M313,521.57l-.37-5.07s-22.1,17.73-37.49,20.7c0,0-23.73.7-28.25-3.8l.08,5.4s22.67,6.92,37.6.11C284.6,538.92,312.45,522.05,313,521.57Z"/><path class="cls-42" d="M271.09,507.74s15.35-1.9,22.69,8.23l2-3.29s-14.09-8.93-23.47-7.45Z"/><path class="cls-42" d="M274.09,501.12,273,503.57s14.29-3,23.51,4.9l1.36-3.42S283,498.67,274.09,501.12Z"/><path class="cls-40" d="M380.61,487l-14.43,6.92L363,504.27s20.66,12.67,30.55,3.58C393.58,507.85,385.22,488,380.61,487Z"/><path class="cls-39" d="M372.07,455.27s-7,4.43-7.85,7.17a51.94,51.94,0,0,0,1.53,16.21s1.53,13.31-.16,16c0,0,11.1-6.83,15.71-6.83C381.29,487.87,374.46,454.75,372.07,455.27Z"/><path class="cls-41" d="M363.19,503.92l-.77,3.67s19,16,34.31,2.53L393.65,507S384.51,513.47,363.19,503.92Z"/><path class="cls-41" d="M365.14,460.91s6.54,30.53-.87,43.07l-.87,4.28-.61-1.9s4.28-33.24-.49-42.79Z"/><path class="cls-42" d="M379.29,483.39s-1.52-1.48-4.71,1.48l-.87-5.07s3.1-1.62,4-.63h0Z"/><path class="cls-42" d="M376.66,476.23s-2.53-.57-3.88.7l-.58-3.17s2.89-1.11,3.5-.7Z"/><path class="cls-43" d="M313.69,386.3s-18.27-24.16-32.26-28.68c0,0-16.9-4.61-27.65,5.64,0,0-11.87,10.58-6.4,44,0,0,14.09,70.42,16.9,75.55l6.4,14.34,39.9-1.63a75,75,0,0,0-2.8-15.81s-.68-7.6-4.78-9.88l-11.59-59.74s19.08,30.3,57.48,33.88l25.74,6.83-1.81,4.37s3.8,17.73,6.68,29.44c0,0,15.11,33.29,31.76,34.31,0,0,28.42,8.45,36.37-13.31,0,0,11-36.87-14.59-67.13l-27.87-35.85S338.53,408.58,313.69,386.3Z"/><path class="cls-44" d="M372.07,455.27l3.8-6.88s30.08,53.58,27,66.75C402.91,515.15,378.18,501.24,372.07,455.27Z"/><path class="cls-45" d="M291.41,410.11C289.86,410,315,444.66,348.89,444,348.89,444,313.09,411.19,291.41,410.11Z"/><path class="cls-46" d="M303,469.85s-37.71,8.4-41.8,6.42c0,0,8.23,22.4,8.87,22.23s43-2.8,43-2.8S309.58,472,303,469.85Z"/><path class="cls-47" d="M406.26,388.39s-5.32-7.6-6.09-10.21l-1-25L387.43,263.8l-13.29.58s-53.63,9.22-60,22.8c-6.33-9.28-37.14-16-37.14-16L259.4,293.78l-8.2,24.94,1.19-.51c29.73-18.68,45-10.22,45-10.22,7.84,4.22,17,7.6,18.29,42.69-1.82,11-6.69,16.68-13.44,22.69l2.39,3.8s37.05,47.92,101.74,25C406.38,402.18,407.79,391.66,406.26,388.39Z"/><ellipse class="cls-48" cx="325.21" cy="257.95" rx="5.64" ry="5.95"/><ellipse class="cls-48" cx="336.29" cy="268.81" rx="2.37" ry="2.34"/><path class="cls-47" d="M387.43,263.73s34.82,8.2,44,52.24c0,0,9.91,31.41,6.14,39.61,0,0-25.08-26-30.54-28.4l-13.71-8S375.15,267.48,387.43,263.73Z"/><path class="cls-49" d="M399.51,320.65S440,341.23,442.07,346c0,0-.68,7.51-3.08,10.93,0,0-3.08,5.46-8.54,6.49,0,0-19.46-36.53-27.31-38.24Z"/><path class="cls-50" d="M318,390s34.42,31.2,95.47,23.29l-7.07-11.13s-79-3.72-88.67-12.95"/><path class="cls-49" d="M270.82,279.3s6.14,26.46,1.86,31.4l-20.86,8.12,7.6-25.06S268.52,277.65,270.82,279.3Z"/><path class="cls-51" d="M342.11,304.36s24.57,59.71,51.14,61.69c0,0,6.33.66,7.25.22l-1.27-14.49s-51.82-47.87-56.43-48.13"/><polygon class="cls-52" points="342.28 408.76 343.6 396.57 348.7 397.39 345.74 410.57 342.28 408.76"/><polygon class="cls-51" points="317.93 318.39 319.91 340.36 330 349.35 338.13 342.33 338.82 317.59 317.93 318.39"/><path class="cls-53" d="M330.52,184.45s-34.14,6.59-31.4,37.32L313.05,277s7.17,14,29.7,18.1c0,0,22.19,2.39,32.1-27.65a313.52,313.52,0,0,0,7.85-42.33S379,178.28,330.52,184.45Z"/><path class="cls-54" d="M384.36,213.21c0-.23-4-10-3.52-10,2.36.06,4.59,1.2,6.94,1.33a25.13,25.13,0,0,0-8.18-9.77,13.1,13.1,0,0,0-9.23-2l-.52-.42A55.64,55.64,0,0,1,382,185.59a32.57,32.57,0,0,0-24.88-6.43,27.5,27.5,0,0,1,8.59-4.45,40.53,40.53,0,0,0-38,2.44,13.5,13.5,0,0,1,2.8-7,46.59,46.59,0,0,0-24.94,18.66l1-7.5c-8.87,6.52-14.14,17-16.09,27.87-1.74,9.58,2,32.4,2.74,31.58a6.9,6.9,0,0,1,1.91-1.47l8.16.71h.8s-3.1-12.35-2.53-16.14c10.42-.87,20.13-7.6,20.27-11.53.27,0,.76,1.75,1,1.8l1.66,3.8c3.69,5.23,12.48,1,17.73-2.23,1.61-1.14,2.27-1.27,3.64-2.41l-.63,2.89c-1.13,18,19.94,8.66,19.94,8.66,2.18,7.13,7.11,7.36,9.23,7.11-.15.95-.29,1.52-.29,1.52-1.17,6.69,3.31,21.38,3.31,21.38l1.93-.14.87-7.14,2.1-3.52,2.05-4.61c.11-.33.22-.67.3-1C388.6,230.57,385.56,217.61,384.36,213.21Z"/><path class="cls-55" d="M350.87,242.14c.68.2,5.9,3.65,12.78-1a1.27,1.27,0,0,1,1.67.14,6.21,6.21,0,0,1-4.65,3.94s-6.51,2.27-11.4-1.74C349.23,243.49,346.9,240.93,350.87,242.14Z"/><path class="cls-53" d="M381.63,238.81c.66-.39,7-2.53,8,5.46,0,0,.38,8.77-5.46,12.46,0,0-7.21,4.17-8.4,3C375.79,259.71,378.18,240.86,381.63,238.81Z"/><path class="cls-56" d="M383.24,242.61a5.28,5.28,0,0,1,2.32,1.27,1.87,1.87,0,0,1,.15,2.44c-.63.66-1.74.52-2.53.94a3.31,3.31,0,0,0-1.44,1.84,4.15,4.15,0,0,0-.27,2.65,2.13,2.13,0,0,0,2,1.6s2.22-.73,1-2.47a1.61,1.61,0,0,1,.58-2.72s3.71-1.57,3.22-4.12c0,0-1.48-2.89-4.28-2.89Z"/><path class="cls-54" d="M365.31,237.2a13.93,13.93,0,0,0-16.8-1.6,6.34,6.34,0,0,0-1.48,1.15,1.34,1.34,0,0,1-1.82-1.1s-.49-1.27,2.89-4c0,0,8.22-4.41,13.6-1.33,0,0,3.67,2.14,4.56,4.83a3.58,3.58,0,0,1,.44,2S366.78,238.24,365.31,237.2Z"/><path class="cls-51" d="M388.47,290.13v-.22l-.11-.41v.65l-4.64,6.11c-1.11,1.47-2.29,3.34-1.55,5.07.28.63.8,1.13,1.13,1.75a10,10,0,0,1,.57,3.64c.34,3.14,2.44,5.79,4.66,8,.66.67,2,7,2.84,6.76l9.18.56C399.79,320.34,390.5,297.06,388.47,290.13Z"/><path class="cls-51" d="M402.14,323.12,400.46,322v.1Z"/><polygon class="cls-52" points="394.9 401.51 398.02 418.64 403.62 417.32 400.17 401.84 394.9 401.51"/><polygon class="cls-52" points="377.61 399.87 377.42 416.24 383.17 416.05 383.2 400.46 377.61 399.87"/><path class="cls-52" d="M333.4,396,330,402.56a.86.86,0,0,1-1.15.41l-.12-.07-3.31-2.05a.86.86,0,0,1-.32-1.11l2.8-5.59a.86.86,0,0,1,1-.44l3.89,1a.86.86,0,0,1,.57,1.25Z"/><path class="cls-57" d="M342.71,234.07c-.16-.91-27.78.13-27.78.13s-3.58,4.61-13.57,3.58l-10-.77s-12.55-2.22-11.78,11l.37,30.17s-.94,9,10.67,9l63.25-1.15s7.94.65,6.66-11.91L360,250s.13-8.2-6.66-7.94l-.25-3.08-7.42-.13A6.47,6.47,0,0,1,342.71,234.07Z"/><path class="cls-58" d="M317.92,228.43s-1.81,5-4.29,6.79H343l-.73-6.89a2.41,2.41,0,0,0-2.74-2.65l-19.15-.41S318.56,225.06,317.92,228.43Z"/><circle class="cls-59" cx="329.37" cy="262.68" r="21.32"/><ellipse class="cls-60" cx="329.05" cy="261.86" rx="17.15" ry="16.52"/><ellipse class="cls-57" cx="329.31" cy="261.61" rx="14.98" ry="14.47"/><ellipse class="cls-61" cx="329.22" cy="262.06" rx="12.64" ry="12.48"/><path class="cls-62" d="M329.23,249.59s-4,21.83,6.33,22.8l1-.16s10-7.08,2-18.28C338.58,253.94,334,248.84,329.23,249.59Z"/><path class="cls-57" d="M336.87,227.65,323,227.52l-.33,5.27,14.33.08Z"/><polygon class="cls-63" points="324.45 229.29 323 227.51 336.87 227.65 337.01 232.87 335.22 232.91 335.01 229.36 324.45 229.29"/><path class="cls-56" d="M309.33,257.25s-9,2.31-7.94,10c0,0-3,15.34,12.91,18.66l1.27.33s2.42,11.48,9.59,14c0,0,13.31,5.38,16.9,4.09,0,0,34.06,46.87,54.8,54.29,0,0,15.87,8.45,21,8.2,0,0,10-3.08,14.34-9.47,0,0-22.53-30.21-27.15-32.26,0,0-41.48-27.15-46.87-35.59,0,0-7.42-15.11-9.47-16.9,0,0-12.92,14.6-27.08,8.87C321.69,281.44,306,275.17,309.33,257.25Z"/><path class="cls-64" d="M268,249.88s-24.7,28.31-39.85,34.48C228.12,284.36,240.85,266,268,249.88Z"/><path class="cls-65" d="M283.41,232.67a12.92,12.92,0,0,0-9.35,15.64,2.84,2.84,0,0,0,.39,1,2.08,2.08,0,0,0,2.05.71,4.6,4.6,0,0,0,2-1.05c1.63-1.27.11.33.56-1.71.54-2.53,2.63-9,5.6-9.11,1.47,0,4.9-.82,4.4-2.19a7.6,7.6,0,0,0-2.8-3.14,8.87,8.87,0,0,0-2.67-.28"/><path class="cls-56" d="M292.69,229.93s-9.56-5.07-15.71.51c0,0-9.87,9.7-9.45,18.1v.68a3.12,3.12,0,0,0,.08.84c-9.28,6.07-36.33,24.62-43,38.94l-.3.68C217,307.09,230,317,233.9,317.33c0,0,14,3.24,18.43.85,5.71-5.27,17.34-35.14,19.2-40l.43-.6a44,44,0,0,0,11.26.14h8.54s3.93-1,1.87-6.66a5.16,5.16,0,0,0-5.29-3.58h-5.07l9.56-1.19a5.07,5.07,0,0,0,1.71-6.33s-1-4.27-4.61-4.09l5.29-1s3.42-2.22,1.37-7.85c0,0,0-2.15-4.09-2.08h-.68c-4.78.34-14.34.68-14.34.68s.51-9.39,5.46-11.94c0,0,6.62,6.33,10.37,8.18a4.86,4.86,0,0,0,5.93-1.27S303.11,235.83,292.69,229.93Z"/></g></g></svg>