<svg xmlns="http://www.w3.org/2000/svg" viewBox="0 0 450.24 548.64"><defs><style>.cls-1{fill:#6e6e6e;}.cls-2{fill:#2a2a2a;}.cls-3{fill:#d2d2d2;}.cls-4{fill:#c7c7c7;}.cls-5{fill:#c9c9c9;}.cls-6{fill:#757575;}.cls-7{fill:#787878;}.cls-8{fill:gray;}.cls-9{fill:#373737;}.cls-10{fill:#4a4a4a;}.cls-11{fill:#afafaf;}.cls-12{fill:#3d3d3d;}.cls-13{fill:#c8c8c8;}.cls-14{fill:#999;}.cls-15{fill:#2e2e2e;}.cls-16{fill:#cfcfcf;}.cls-17{fill:#727272;}.cls-18{fill:#636363;}.cls-19{fill:#666;}.cls-20{fill:#909090;}.cls-21{fill:#c6c6c6;}.cls-22{fill:#e0e0e0;}.cls-23{fill:#424242;}.cls-24{fill:#272727;}.cls-25{fill:#575757;}.cls-26{fill:#212121;}.cls-27{fill:#393939;}.cls-28{fill:#2f2f2f;}.cls-29{fill:#b8b8b8;}.cls-30{fill:#323232;}.cls-31{fill:#ededed;}.cls-32{fill:#eee;}.cls-33{fill:#4e4e4e;}.cls-34{fill:#696969;}.cls-35{fill:#434343;}.cls-36{fill:#ececec;}.cls-37{fill:#e8e8e8;}.cls-38{fill:#1b1b1b;}.cls-39{fill:#181818;}.cls-40{fill:#7e7e7e;}.cls-41{fill:#4f4f4f;}.cls-42{fill:#262626;}.cls-43{fill:#6a6a6a;}.cls-44{fill:#111;}.cls-45{fill:#9a9a9a;}.cls-46{fill:#2b2b2b;}.cls-47{fill:#747474;}.cls-48{fill:#c5c5c5;}.cls-49{fill:#6c6c6c;}.cls-50{fill:#6d6d6d;}.cls-51{fill:#616161;}.cls-52{fill:#2d2d2d;}.cls-53{fill:#c3c3c3;}.cls-54{fill:#0b0b0b;}.cls-55{fill:#606060;}.cls-56{fill:#aaa;}.cls-57{fill:#383838;}.cls-58{fill:#b0b0b0;}.cls-59{fill:#333;}.cls-60{fill:#202020;}.cls-61{fill:#b7b7b7;}.cls-62{fill:#282828;}.cls-63{fill:#797979;}.cls-64{fill:#e9e9e9;}.cls-65{fill:#e2e2e2;}.cls-66{fill:#acacac;}.cls-67{fill:#929292;}.cls-68{fill:#cbcbcb;}</style></defs><title>fotografo_pb</title><g id="Camada_2" data-name="Camada 2"><g id="Objects"><path class="cls-1" d="M449.85,495.41a46.55,46.55,0,0,1-1.06,8.56c-1.91,9.37-7.66,15-16.85,17.28-6,1.47-12.07,1.06-18.08-.17-1.72-.35-3.46-.64-5.16-1.09-4-1.05-7.14-3.5-10.14-6.19l-2-1.75c-1.89-.08-2.59-1.68-3.62-2.86a58.75,58.75,0,0,1-9.22-12.77c-1.16-2.09-2.36-4.17-3.44-6.31-.66-1.94-2-3.63-2-5.8a14.15,14.15,0,0,1-1.63-3.31c-.16-1.33-1-2.47-1-3.84a9.27,9.27,0,0,1-.85-2.38c-1.62-4.66-2.34-9.52-3.22-14.35a5.11,5.11,0,0,1,.84-3.59c.55-1.06,1.07-2.13,1.67-3.16s.36-1.42-.72-1.7c-3.39-.87-6.76-1.8-10.14-2.71L349,445.46c-4.81-1.79-8-5.76-11.94-8.77a197,197,0,0,0-26.66-17.79,58,58,0,0,0-12.65-5.07,11.49,11.49,0,0,0-5-.36c-.7.71-.29,1.5-.15,2.26l10,51.54c.14.7.23,1.42.35,2.13.37,2.93.25,3.2-2.46,3.8a314.41,314.41,0,0,1-33.16,5.92c-1.68.19-3.77.86-4.76-1.51-3-11.84-5.52-23.8-8.05-35.76-2.25-10.62-4.5-21.25-6.54-31.92-2-10.43-2.56-20.92-.28-31.41a42.54,42.54,0,0,1,2.62-8,18.07,18.07,0,0,1,10.6-10.17c9.9-3.64,19.56-3.57,28.56,2.7a76.63,76.63,0,0,1,12.94,11.36,4.89,4.89,0,0,1,2.53,2.05,60,60,0,0,0,11.57,12c.94.78,2.16,1,3.06,1.84a10.15,10.15,0,0,0,5.55,5,7.26,7.26,0,0,1,2.81,2.46c.39.93-.33,1.65-.48,2.47a1.72,1.72,0,0,0,.83,2,1.44,1.44,0,0,0,2-.6c.49-.72.87-1.53,1.92-1.52a56.05,56.05,0,0,1,11.34,5.43,2.34,2.34,0,0,1,.32.34c.79.94-.45,2.66.87,3.12,1.11.39,1.2-1.72,2.47-1.74,1-.45,1.86,0,2.76.31a137.44,137.44,0,0,0,24.56,5.94,13.08,13.08,0,0,1,3.14,1c1.88,2.22,3.92,1.85,6,.36,2.12-.63,4.21.19,6.33.05,2.27-.14,4.56.15,6.81-.32a1.72,1.72,0,0,1,2.09,1.44c.25.93.44,2,1.67,2s1.59-1,1.83-2.08a1.44,1.44,0,0,1,.94-1,37,37,0,0,1,10-.86c7.16,9.2,14.28,18.42,21.49,27.58a71.68,71.68,0,0,1,14.8,35.11c.16,1.18.15,2.39.21,3.59.46,1.1-.2,2.33.4,3.41V492C449.65,493.08,450.3,494.31,449.85,495.41Z"/><path class="cls-2" d="M32.71,174.42A50.41,50.41,0,0,1,24,194.91a9.85,9.85,0,0,1-4,3.32,4.08,4.08,0,0,1-4.31-.15c5.16-5.15,9.11-10.91,10.72-18,.22-.5.47-1-.45-1a45.31,45.31,0,0,1-5.17,8.05c-3.28,3.71-7.24,6-12.35,5.84a7.61,7.61,0,0,1-3.57-.9.56.56,0,0,1,.29-.68c7.61-4.46,12-11.32,14.48-19.55A47.64,47.64,0,0,0,21.45,155a106.13,106.13,0,0,0-1.36-11.18,3.51,3.51,0,0,0-2-2.94c-3.52-1.74-5.09-5-5.8-8.64-.55-2.82-1-5.71.53-8.43a1.94,1.94,0,0,0,0-1.61,56.69,56.69,0,0,1-2-11.3c-.53-5.33.19-10.39,3.84-14.64a1.55,1.55,0,0,0,.28-1.92c-3-6.24-2.55-12.55-.24-18.87.89-2.43,1.17-1.87-.88-3.81C7.25,65.45,2.51,58.21.83,49.2A2.56,2.56,0,0,0,0,47.52V41.28a5.27,5.27,0,0,0,.48-2.7,21.84,21.84,0,0,1,1.79-8.63C6.26,21.83,10.65,14,17,7.41,22.32,1.94,28.6.15,36,.79A41.86,41.86,0,0,1,50.43,5c2.07,1,3.68,1,5.39-.67,3-3,6.91-3.8,11-4.06.46,0,1,.13,1.37-.24h6.72c.16.47.59.45,1,.55a15.26,15.26,0,0,1,7.29,4.38,6.65,6.65,0,0,0,2.54,1.71,20.84,20.84,0,0,1,5.47,2.93,83.26,83.26,0,0,0,8.22,5.3c9.32,5.67,14.46,14.13,16.33,24.76a26.47,26.47,0,0,1-2.55,17.66c-3,5.65-7.62,9.13-14.24,9.48-1,.11-1.37-.56-1.55-1.37-.35-1.66-.83-3.33-.27-5a1.44,1.44,0,0,1,.83-.81c6.5-1.81,8.86-6.84,9.71-12.83a23.71,23.71,0,0,0-1.66-12c-1.37-3.51-5-5.29-9.16-4.69A71.38,71.38,0,0,0,85.1,32.42C80.62,33.66,76.22,32.64,72,31a57.33,57.33,0,0,1-9.45-4.65c-.58-.35-1.23-1-1.95-.48-.55.42-.43,1.21-.3,1.81.77,3.69.11,7.31-.39,10.94-.15,1.06,0,1.84,1.34,1.5,5.14-1.34,10.15.33,15.22.64,2.22.14,4.45.44,6.66.77,1,.15,2,.24,2.31,1.36s-.3,1.8-.92,2.56a4.46,4.46,0,0,1-5,1.83c-3.09-.8-6.24-1.37-9.25-2.47-5.66-2.06-11.08-1.42-14.79,3.7A17.85,17.85,0,0,1,49,53.88a7.21,7.21,0,0,1-7.71-.28,36.71,36.71,0,0,1-3-2.32,4.72,4.72,0,0,0-6.54.13,10.33,10.33,0,0,0-2.2,12.87c2.15,3.6,5.05,5.93,9.59,6.19s7.7,3.19,9.45,7.42a32.87,32.87,0,0,1,1.37,4.84c.35,2.95-.38,5.92.42,8.89.34,1.27-.89,2.47-1.3,3.74-1.44,1.49-2.15,3.49-3.45,5.09a2.85,2.85,0,0,0-.36,2.74c.89,3,2.1,5.87,2.33,9,0,.64.48.74,1,.77,3.55.28,6.13,2.5,8.79,4.49,1.15.86,2.21,1.83,3.44,2.58,2.68,3.54,5.92,6.62,8.4,10.34A131.05,131.05,0,0,1,77.91,145c2.94,5.94,8,7,13.2,2.76a6.22,6.22,0,0,0,.65-.7c2-1.37,2.72-3.65,3.75-5.69,1.54-1.4.9-3.44,1.5-5.13,2.8-7.89-.66-13.72-6.38-18.76-.78-.68-2.12-1.1-1.47-2.61,2.12-1.42,4.44-.89,6.66-.53,3.6.58,3.77.53,3.78-3.2a56.83,56.83,0,0,1,.26-7.38c.19-5.61-.59-11.18-.77-16.77-.2-1.95-.48-3.88-.65-5.83-.21-2.43-.1-2.68,2.51-3.13,2.08,0,4.15,0,6.23,0,2.65,0,3.38.64,3.77,3.26.23,1.58.3,3.18.43,4.77a138.09,138.09,0,0,1,.51,20.79c-.12,1.55.09,3.12-.05,4.67a97.09,97.09,0,0,1-2.22,11c-2.33,10.14-5.07,20.16-10,29.42-.92,1.71-1.9,3.35-3.92,4s-3.57,1.53-5.58,1.74c-2.45.26-4.67-.48-6.92-1.16A3.24,3.24,0,0,1,80.84,155c-7.92-9.59-16.29-18.8-24.33-28.3-2.82-3.34-6.14-6.11-10.78-6.5A12,12,0,0,0,33,133.66a6.91,6.91,0,0,1,0,3.54c.6,6.54.26,13.08.26,19.62q0,7.19.7,14.33C34.15,172.52,34,173.68,32.71,174.42Z"/><path class="cls-3" d="M146.4,548.64v-.49a5.4,5.4,0,0,1,6.71,0v.5Z"/><path class="cls-4" d="M450.24,483.84a5.82,5.82,0,0,1-.4-3.41,1.15,1.15,0,0,1,.4,0Z"/><path class="cls-5" d="M449.85,495.41a5.76,5.76,0,0,1,.39-3.41v3.36A1.14,1.14,0,0,1,449.85,495.41Z"/><path class="cls-6" d="M0,39.84l.85-1.06A2.66,2.66,0,0,1,0,41.28Z"/><path class="cls-7" d="M318.72,391.17a21.94,21.94,0,0,1-6.49-4.8c-2.39-2.45-5-4.67-7.06-7.46a31.52,31.52,0,0,1-2.78-4.46,2.36,2.36,0,0,0,1.46-.75c5.88-5.23,10.16-11.43,11.73-19.28a13,13,0,0,0,.34-2.84,99.36,99.36,0,0,0-3-23.21c-.43-1.62-1-3.19-1.57-4.77-3.41-9.89-14-16-23.19-16a69.52,69.52,0,0,0-12.56,1.58c-2.35.37-2.18-1.44-2.19-2.77A94,94,0,0,0,272,291.21c-.6-3.59-1.15-7.18-1.46-10.81a3,3,0,0,1,3.06-2.14c2.36,0,4.73-.37,7,.36.89.53.81,1.49,1,2.32a7.29,7.29,0,0,0,6.07,6.24,19.35,19.35,0,0,0,6.15.53,86.74,86.74,0,0,1,18.66,0,10,10,0,0,0,3.16-.27c1.21,0,1.61.84,1.87,1.83,1.94,7.32,6.6,11.75,14,13.5a84.82,84.82,0,0,0,9.31,2.18,5.07,5.07,0,0,1,4.24,2.64c-.4,4,2.47,6.65,4,9.8A178.42,178.42,0,0,0,365.53,345c4.93,6.62,10.23,12.89,17.28,17.44a24.85,24.85,0,0,0,12.84,4.14c1.69.06,3.52-.1,5,1.11a4.49,4.49,0,0,0-.4,2.56c.06,2.08.17,4.15.13,6.23a11.15,11.15,0,0,0,1.84,6.58c1,1.53,1.84,3.2,3,4.64a10.74,10.74,0,0,1,2.2,7.17c0,2.31-.25,4.62-.36,6.94,0,.79,0,1.59,0,2.39-.71.87-1.72.63-2.63.71-1.4.12-1.93.85-1.71,2.23.32,2,.92,4,1.25,6a2.29,2.29,0,0,1-.72,2.54c.75,2.82-.76,4.53-3.68,4.18-1-.12-1.22-.87-1.44-1.65-.27-1-.06-2.06-.59-3-1.33-.21-1.46-1.32-1.7-2.32-.46-1.94-.7-3.93-1.13-5.88a3.46,3.46,0,0,0-3.68-3.07q-1.44,0-2.88-.07c-2.77-.12-3.33.41-3.41,3.27,0,1.92,0,3.84,0,5.75a3.16,3.16,0,0,1-1.14,2.76,1.75,1.75,0,0,1-2.07,2c-.39,0-.79,0-1.18,0-2.14-.05-2.25-.15-2.56-2.42l-.09-.36c-.17-3-.09-6-.84-8.94a4.41,4.41,0,0,0-.8-2.18,5.08,5.08,0,0,0-3.54-1.22c-5.74-.41-11.45-1.1-17.15-1.79-.48-.06-1-.11-1.43-.14-3.28-.22-3.68.06-4.63,3.15-.46,1.53-.84,3.1-2.14,4.2-.23.84-.41,1.7-.7,2.52-.41,1.13-.91,1.29-2,.79a2.36,2.36,0,0,1-1.59-2.63c.1-.87.24-1.73.36-2.59-1.1-1.05-1.09-2.32-.88-3.72.4-2.69,0-3.15-2.61-3.71-2.39-.53-4.67-1-6.25,1.6-.22.37-.86.35-1.25.64-.47.91-.92,1.84-1.43,2.74a1.41,1.41,0,0,1-2.2.57c-3.39-2.1-3.62-2.26-1.68-5.45.17-.27.31-.55.47-.83-.55-1.69-1.89-2.44-3.39-3.18C322.06,393.74,319.95,393.09,318.72,391.17Z"/><path class="cls-8" d="M109.46,517a15.71,15.71,0,0,0,2.26-5,6.08,6.08,0,0,0,0-3.77,349.89,349.89,0,0,1-11.62-51.36C98.36,446,97,435,95.94,424.06c-1.24-12.24-2-24.51-2.66-36.79-.28-5.18-.48-10.38-.48-15.57a48.32,48.32,0,0,0-1.49-12.32,25.81,25.81,0,0,1-1.05-5.15c-1.71-10.68,3.58-19.15,8.82-27.59a159.47,159.47,0,0,1,14.08-18.77c.55-.65,1.57-1.28,1.2-2.18-.45-1.1-1.69-.63-2.59-.64-5.67-.05-11.35.05-17-.08-1.11,0-2.81.4-2.64-1.75.91-1.23,2.28-1,3.5-1,5.22,0,10.45-.21,15.67.17a34.5,34.5,0,0,1,6.35-.11c1.08.08,2,.34,2.27,1.61,2.42,10.84,2.91,21.85,3.06,32.9.12,8.32.15,16.64-.15,25-.55,15,.55,30.05.88,45.08.15,6.72.4,13.43.58,20.15.23,8.47.33,17,.71,25.42.39,8.8.5,17.59.19,26.39-.23,6.55-.57,13.1-.8,19.65a52.48,52.48,0,0,0,.75,11.71,20.36,20.36,0,0,0,6,11.24c1,1.61.09,2.94-.74,4.17a9.34,9.34,0,0,1-11.83,3,20.08,20.08,0,0,1-8.43-8.18A4,4,0,0,1,109.46,517Z"/><path class="cls-9" d="M291,229.37c-.43-4.94-1-9.9-.58-14.85C291.34,203,295.7,193,304.18,185a19.15,19.15,0,0,1,1.88-1.47c.1-.07.3,0,.48,0a5.74,5.74,0,0,1-.11,2.81,7.2,7.2,0,0,0,0,3.06A58.08,58.08,0,0,1,313,182a46.47,46.47,0,0,1,8.08-6,43,43,0,0,1,9.31-4.12c-.73,2.18-2.23,3.9-2.06,6.44,12.07-6.65,24.34-7.49,37.37-2.33-2.47,1.69-5.25,2.15-7.46,4.51a33.63,33.63,0,0,1,18.29,3,20.39,20.39,0,0,1,5.61,3.64,49.63,49.63,0,0,0-11.46,6.75c3.87,0,7.46.71,10.47,3.24a24.48,24.48,0,0,1,6.81,8.64c-2.4.37-4.27-1.16-6.54-.78a7.87,7.87,0,0,0,.91,3.4,58.44,58.44,0,0,1,3.86,12.83c.92,6.14,1.38,12.25-.84,18.24a1.75,1.75,0,0,1-1.23,1.6c-2.24.62-3,2.42-3.6,4.4q-.7,2.54-1.35,5.09c-.35,1.38-.26,3.53-2.22,3.45s-1.8-2.18-2.14-3.58a70.29,70.29,0,0,1-1.91-13.25c-.06-1.24-.41-2.24-1.65-2.63-2.43-.76-4-2.52-5.5-4.43a2.94,2.94,0,0,0-3.54-1.19A31.16,31.16,0,0,1,354,230a9.12,9.12,0,0,1-9.54-8.46c-.05-.64,0-1.28,0-1.92,0-1.49-.75-1.62-1.83-.93a55,55,0,0,1-4.87,2.58,17.31,17.31,0,0,1-6.89,1.89c-3.1.14-5.89-.63-7.4-3.74-.75-1.53-1.57-1.77-2.91-.56-4.19,3.79-9.22,5.92-14.65,7.27-2.39.6-2.86,1.38-2.55,3.78s.83,4.72,1.27,7.07a2.53,2.53,0,0,1-4,3,2.19,2.19,0,0,1-1.63-1.23,12.31,12.31,0,0,0-5.94-5.86A3.24,3.24,0,0,1,291,229.37Z"/><path class="cls-10" d="M27.95,238.59a1.35,1.35,0,0,0-.39-1.3c-1.8-2.19-2.1-4.79-1.88-7.48a42.16,42.16,0,0,1,4.66-15.53,50,50,0,0,0,5.41-19.5,55.35,55.35,0,0,0-1.12-14.29c.43-3.41,2.58-6,4.14-8.91,1.9-3.51,4-6.88,5.82-10.45a7.18,7.18,0,0,0,.87-5.07c-.24-1-.21-1.93,1-2.39,1.24-.18,1.87.78,2.59,1.48,5,4.83,9.84,9.81,15,14.52,8.14,7.48,16.63,14.46,26.15,20.14a31,31,0,0,0,5.44,2.49c1,.37,2.22.7,2,2.23-1.18,4.71-2.31,9.43-3.56,14.12a5.9,5.9,0,0,0,.18,3.7,216.55,216.55,0,0,0,10.87,26.22c-.13,1.58-1.45,1.76-2.56,2.1A86.53,86.53,0,0,1,83.21,244a138.6,138.6,0,0,1-13.87.57,219.72,219.72,0,0,1-39.63-4.94C29,239.47,28.28,239.37,27.95,238.59Z"/><path class="cls-11" d="M344.09,308.24a3.62,3.62,0,0,0-3.22-2.07c-5.61-.59-10.87-2.51-16-4.63a10.88,10.88,0,0,1-4.82-4.18,29.55,29.55,0,0,1-3.63-7.78c-.16-.53-.37-1-.56-1.56-9.84.13-14.85-7.07-15.5-15.16a30.7,30.7,0,0,1,0-4.79c.4-5.26,4-9.32,8.73-9.93,2,.51,1.66,2.09,1.51,3.49a19.65,19.65,0,0,0,13.08,20.55c5.51,1.86,10.69.64,15.64-2a43.81,43.81,0,0,0,7.9-5.77c.48-.42.86-1,1.58-1,1.69-.12,2.31,1.21,3,2.33,2.2,3.5,3.93,7.25,6,10.85,1.09,1.45,1.34,3.34,2.5,4.75,5.59,6,12.31,10.58,18.75,15.54,1.74,1.34,3.71,2.38,5.14,4.11.62.75,1.6.58,2.36,1,4.51,3.77,9.64,6.68,14.18,10.4.29.19.56.41.84.61,2.05,1.39,4.07,2.82,6.16,4.17,3.6,2.33,6,5.88,8.68,9.07,5.57,6.59,10.85,13.42,16,20.35,2,2.69.65,5.42-2.82,5.91a56.89,56.89,0,0,1-8.25,4.8,9,9,0,0,1-6.72.49A80.21,80.21,0,0,1,403,363.09c-.86-.42-1.75-.77-2.62-1.16-.85.7-1.63.21-2.46-.1-6.53-2.45-12.08-6.42-17.28-11-12.06-10.55-22.45-22.63-32.27-35.23A23.56,23.56,0,0,1,344.09,308.24Z"/><path class="cls-12" d="M97.6,194.53a11.11,11.11,0,0,0-1.5-.75c-6.42-2.1-11.75-6.07-17.11-10a202.55,202.55,0,0,1-16.62-14c-4.8-4.35-9.25-9-13.9-13.54-.69-.66-1.28-1.42-1.92-2.14-2.31-.28-3.56-2-4.79-3.67a111.41,111.41,0,0,1-9.6-14.09,37.18,37.18,0,0,1-.5-6.2,7.73,7.73,0,0,1,2.41-5.57c1.53-1.4,2.82-3,4.7-4.06,4.74-2.62,9.22-1.94,13.58.85a21.76,21.76,0,0,1,4.84,4.28q7.74,9.14,15.67,18.12c3.06,3.47,6,7.07,9,10.6A15.83,15.83,0,0,0,83,155.51a32.45,32.45,0,0,0,3.67,2.91,3.79,3.79,0,0,0,4.49,0A15.85,15.85,0,0,0,95.52,155a11,11,0,0,0,3.36-4.26c4.65-9,7.24-18.7,9.57-28.48.83-3.48,1.59-7,2.39-10.46,1.34.22.69,2,1.86,2.36,3.54.86,7.18,1.1,10.75,1.8,1.21.24,2.57.27,3.24,1.63a1.05,1.05,0,0,1,.69,1.5c-.52,1.59-1,3.21-1.39,4.83-.28,1.08-.49,2.17-.73,3.26-2,14.68-7.64,28.4-11.29,42.64-1.25,4.88-2.58,9.73-3.82,14.61a29.68,29.68,0,0,1-3.42,8.67c-1.78,2.82-2.78,3.25-6,2.46a6.64,6.64,0,0,0-1.39-.18Z"/><path class="cls-11" d="M291,229.37a3.34,3.34,0,0,0,1.86,2,20.78,20.78,0,0,1,4.66,3.2,11.49,11.49,0,0,1,3,4.49c1.38,2.34-.06,5.1-3.08,5.75a6.48,6.48,0,0,1-4.62-.66,51,51,0,0,1-5.17-3.41c-1.12-.73-1.62-2.07-2.9-2.72s-2.26-.52-3.07.66a13.76,13.76,0,0,0-2.14,6.25c-.15,1.18.56,1.29,1.5,1.12a39.2,39.2,0,0,1,5-.49,44.4,44.4,0,0,0,5.5-.37c3.14-.41,5.66.72,6.58,2.77,1.45,3.21.95,7.14-1.46,9.06-1.3,1-1.3,2-.79,3.31.83,2.14,1.26,4.29-.07,6.44-.86,1.39-1.85,2.43-3.85,2a7.88,7.88,0,0,1,3.86,7.95c-.52,2.4-2.49,3.77-5.62,3.84-2.16,0-4.32.06-6.48,0-1,0-2.13.06-2.75-1.05l-6.83-.09c-1.1,0-2.05.17-2.39,1.42-1.06,8.24-5.24,15.35-8.41,22.81-1.3,3.06-2.8,6.07-4.38,9a21.86,21.86,0,0,1-5.34,7.17,21.65,21.65,0,0,1-8.76.76,67.49,67.49,0,0,1-10.41-1.64,10.62,10.62,0,0,1-3.9-1.76,18.48,18.48,0,0,1-7.82-14.2c-.42-6.63,1.67-12.43,5.51-17.7,4.36-6,9.81-10.92,15.38-15.74a182.13,182.13,0,0,1,22.28-16.6,3.94,3.94,0,0,0,2.08-3.7,17.26,17.26,0,0,1,2.78-8.57,50.91,50.91,0,0,1,5.38-7.33c3.17-3.76,7.21-4.4,11.72-3.68.71.11,1.41.3,2.11.45S290.74,229.81,291,229.37Z"/><path class="cls-8" d="M48.51,82.57a24.35,24.35,0,0,0-1.3-4.86c-1.61-4-5.9-6.66-9.41-6.09a4.16,4.16,0,0,1-1.89-.2,12.75,12.75,0,0,1-7.12-18.57,11,11,0,0,1,2-2.39,5.88,5.88,0,0,1,8.56.06c4.21,4,6.68,4.2,11.41.9A19.37,19.37,0,0,0,55,47.26a11.36,11.36,0,0,1,11.59-4.58,21.45,21.45,0,0,1,4.17,1.08,59.37,59.37,0,0,0,9.51,2.47,3.87,3.87,0,0,0,4.1-2.5c.27-.83-.28-.93-.89-1l-9.05-1c-1.75-.18-3.52-.24-5.24-.56A16.13,16.13,0,0,0,57.8,42.92C58.05,40.4,59,38.33,59,36.14s.57-4.27.25-6.45-.43-4.36-.64-6.62a4.35,4.35,0,0,1,2.57,1.16c5,3.14,10.25,5.93,16.15,7.12a15.93,15.93,0,0,0,8.74-.46A39.54,39.54,0,0,1,95,29a2.85,2.85,0,0,1,1.85.3A2.22,2.22,0,0,1,98.68,31c2.33,7.05,2.75,14.11.07,21.17-.92.93-1.77.58-2.73-.05-3.89-2.58-5.74-2-7.56,2.34-.28,2.67,1.18,4,3.64,3.3A8,8,0,0,0,93.49,57a2.89,2.89,0,0,0,1.07-2.25,2.07,2.07,0,0,1,1-1.91,1.68,1.68,0,0,1,.77-.24,4.86,4.86,0,0,1,2,.53c.5,2.32,1.24,4.65-.36,6.86.09,2.28,0,4.6.95,6.76-.5,1-.11,2-.15,3-.08,2.13.25,4.29-.36,6.39.37.5,1,1,.72,1.65-1.22,2.85.07,5.67,0,8.49a3.25,3.25,0,0,1-.27,1.8c-1.07.77-1.51.13-1.72-.82-.14-.62.41-1.39-.43-1.83-1.07.16-1.22,1.17-1.51,1.84a30.47,30.47,0,0,1-8.39,11c-2.44,2.13-5.51,2.3-8.59,1.84a4.34,4.34,0,0,0-1.38-.18,123.12,123.12,0,0,1-25.19-8.35,4.63,4.63,0,0,1-3-4.81A11.9,11.9,0,0,0,48.51,82.57Z"/><path class="cls-7" d="M400.8,323.49l-.48-.44a24.2,24.2,0,0,1-3.64-6.78q-3.68-9.47-7.22-19c-1-2.58-1.54-2.61-3.21-.36a24.75,24.75,0,0,0-1.93,2.73,3.38,3.38,0,0,0-.14,3.42c1.44,2.73,1,6,2.23,8.74a1,1,0,0,1-.51,1.22c-2.17-.91-3.91-2.49-5.77-3.84a227.58,227.58,0,0,1-18.26-14.39,8.47,8.47,0,0,1-2.37-3,2.48,2.48,0,0,1,1.1-2.26c6.6-5.28,10.55-12.3,13.21-20.16a9.63,9.63,0,0,0,.38-1.14c.41-2,1.39-3.06,3.67-2.63a6.73,6.73,0,0,0,3.32-.12,25.66,25.66,0,0,0,2.88-.07c3.38-.45,6.46.47,9.51,1.83,15.39,6.89,26.13,18.34,33,33.57a68.36,68.36,0,0,1,4,11.53c2.3,9.14,5.23,18.13,6.88,27.43.14.78.2,1.58.3,2.37-.3,1.75-.74,2-2.43,1-3.09-1.83-6.16-3.69-9.27-5.48-7.84-4.52-16-8.57-23.51-13.57A2.93,2.93,0,0,0,400.8,323.49Z"/><path class="cls-13" d="M381.17,265.51a5.59,5.59,0,0,1-2.35.39c-3,0-2.7.17-3.53,2.83a53.14,53.14,0,0,1-5.15,11.57,36.65,36.65,0,0,1-10.65,11.52,7.72,7.72,0,0,1-2.37-4.74,2.47,2.47,0,0,1,.46-1.81c1.92-2.39,2.19-5.19,2.21-8.14.07-8.38-.83-16.75-.53-25.13a11.23,11.23,0,0,0-.22-2.14c-.5-3.15-.39-3.32,2-4.36-3.09.91-6.18.08-8.71-2.75-1.11-1.24-2.59-1.06-4-1.11-3.66-.13-5.1-1.3-6-4.91-.29-1.89-.51-3.79-.82-5.68a2.94,2.94,0,0,0-2.81-2.77,100.63,100.63,0,0,0-16.46,0,3,3,0,0,0-2.78,2,25.77,25.77,0,0,1-4.44,7.29,16.2,16.2,0,0,1-8,3c-1.14.13-2.44.43-3.1-1a62.84,62.84,0,0,1-2.07-11.54c-.15-2.29,0-2.37,2.26-2.74a32.88,32.88,0,0,0,10.59-3.68,18.34,18.34,0,0,0,7.44-6.74A7.82,7.82,0,0,1,324,217.9c1.46,3.23,3.5,4.4,7,4a24.7,24.7,0,0,0,9.4-3.41c1.66-.92,3.27-1.93,5.07-3,0,1.57,0,2.89,0,4.2a10.77,10.77,0,0,0,.73,4.22,7.35,7.35,0,0,0,5.21,4.54c3.38.9,6.66.23,9.93-.61,1.23-.32,2.53-1.17,3.64-1s1.26,2,2,3.06a7.81,7.81,0,0,0,5.23,3.49c2,.29,2.23,0,2,2.79-.32,4.23,1,12.71,2.72,17.07a2.42,2.42,0,0,0,.72-1.65,64.49,64.49,0,0,1,2-7.64c.82-2.43,2-4.38,5-4.33a2,2,0,0,0,.67-.25c4.12,2.32,5.05,4.45,4.48,9.16-.67,5.49-3.42,9.29-8.52,11.4a26.29,26.29,0,0,1-2.67,1,2.72,2.72,0,0,0-2.06,2.35c-.28,1.5,0,1.9,1.47,2C379.1,265.48,380.14,265.48,381.17,265.51Z"/><path class="cls-14" d="M262.55,477.6A8,8,0,0,0,267,478c11.34-1.39,22.53-3.65,33.7-6,1.55-.33,2.23-1.06,2.2-2.56a6.34,6.34,0,0,0,2.1,3.06,11.14,11.14,0,0,1,3,4.52,77.49,77.49,0,0,1,5.07,18.59c.24,1.48.11,1.56-1.44,1.77-.92.12-2-.11-2.55.92-3,1.25-6.25.88-9.38,1.11-6.89.5-13.79.84-20.68,1.37a5,5,0,0,1-3.45-.54c-1-.75-2.15-.36-3.24-.27-2,.17-2.19.15-2.94-1.62-2.59-6.1-4.88-12.32-7.19-18.52C261.94,479,261.75,478.22,262.55,477.6Z"/><path class="cls-15" d="M99.33,195.41a3.8,3.8,0,0,1,2.54-.52,3.79,3.79,0,0,0,3.71-2.11,25.88,25.88,0,0,0,3.22-8c2.41-10.28,5.54-20.36,8.39-30.52,2.38-8.46,4.85-16.9,7.3-25.35a13.9,13.9,0,0,1,.77-1.74c.66,3.31.57,6.69.81,10,.8,11,1.43,22,2.14,33,.46,7.18,1,14.35,1.4,21.53a19.11,19.11,0,0,1-.46,6.66c-1.17,3.94-3.68,5.75-7.8,5.63a22.28,22.28,0,0,1-5-.7A54.28,54.28,0,0,1,99.33,195.41Z"/><path class="cls-16" d="M247.66,532.78c1-6.22,4.35-10.86,9.51-14.27a44.88,44.88,0,0,1,7.09-3.47,45.5,45.5,0,0,0,4.94-2.43c3.53-1.32,6.88-.23,10.12,1,7.64,2.82,13.43,8.18,18.76,14.1a1.62,1.62,0,0,1,.43,1.09c-.1,1-.92,1.43-1.66,1.88a85.72,85.72,0,0,1-13.6,7,28.21,28.21,0,0,1-11.16,2.17c-5.89-.16-11.79,0-17.63-1a27.69,27.69,0,0,1-3.94-1C247.67,536.83,247.2,536,247.66,532.78Z"/><path class="cls-2" d="M109.46,517a7.15,7.15,0,0,1,1.43,2.46,18.26,18.26,0,0,0,8,8,8.18,8.18,0,0,0,10.83-3,12.51,12.51,0,0,0,1.38-3c5.72,2.82,11.41,5.67,17.15,8.44,4.17,2,8.13,4.4,12.08,6.79,1.87,1.13,3.4,2.49,3.16,4.91a6,6,0,0,1-3.89,5c-2.07.92-4.32,1.09-6.48,1.6H146.4c-7.23-.67-13.67-3.68-20-6.82s-12.23-6.57-18.18-10.16a3.09,3.09,0,0,1-1.7-3.07,32.2,32.2,0,0,1,1-8.52A3.88,3.88,0,0,1,109.46,517Z"/><path class="cls-17" d="M298.06,528.56c-1.15-.15-1.72-1.1-2.41-1.84a48.65,48.65,0,0,0-13.46-10.56A26.43,26.43,0,0,0,271,513.1a2.61,2.61,0,0,1-1.8-.48,14.27,14.27,0,0,0,2-3.24c2.53-2.1,5.5-1.42,8.25-1A28.93,28.93,0,0,1,292.94,514,34,34,0,0,0,278,508.09c-1.19-.16-2.36-.43-3.54-.6-.88-.13-1.51-.52-1.49-1.54l.62-.94c2.47-2.28,5.51-1.86,8.4-1.56a34,34,0,0,1,12.59,3.3,37,37,0,0,0-10.11-3,29.25,29.25,0,0,0-8.08-.37c-.78.09-1.43-.06-1.71-.91s.59-1.54.9-2.3a17.12,17.12,0,0,1,5.4-.9c2.39-.16,4.78-.4,7.16-.45,3.92-.07,7.79-.67,11.71-.64,2.14,0,4.27-.54,6.44-.43a6.9,6.9,0,0,1,2.81.49,27.08,27.08,0,0,1,3.45,10.37c.13.87.28,1.73.42,2.6a24.15,24.15,0,0,1,0,6.7,1.29,1.29,0,0,0-.14.38,7.22,7.22,0,0,1-2.79,3.42c-2.83,2-5.6,4.16-8.56,6C300.52,528.35,299.48,529.35,298.06,528.56Z"/><path class="cls-12" d="M27.95,238.59a8.61,8.61,0,0,1,3.32.1,216,216,0,0,0,22,3.59c3.08.35,6.19.52,9.3.69a115.67,115.67,0,0,0,11.71.37c9.65-.43,19.27-1.18,28.6-4,.76-.23,1.51-.53,2.26-.79a10.33,10.33,0,0,1,3.45,6.69,8.23,8.23,0,0,1,.17,2.85,3,3,0,0,1-2.34,3.19c-2.59.82-5.27,1.28-7.91,1.85-.87,0-1.73.19-2.6.28-6,.41-12,.19-17.94,0-12.44-1.25-24.86-2.69-37.14-5.15-3.55-.78-7.15-1.31-10.69-2.17-.93-.23-1.86-.41-2.78-.67a2.41,2.41,0,0,1-1.8-1.72A6,6,0,0,1,27.95,238.59Z"/><path class="cls-8" d="M126.69,117.62l-15.37-2.32c.92-2.6.27-5.35.76-8a55,55,0,0,0,2-9.54,3.81,3.81,0,0,1,.53-1.57,44.42,44.42,0,0,0,5.16-16,21.2,21.2,0,0,1,1.49-4,15.89,15.89,0,0,1,1.88-1.52,3.61,3.61,0,0,1,3.92-.28c1.36.61,1.16,2,1.15,3.12,0,.87-.19,1.73-.21,2.61-1.77,5.61-1.77,11.1,1.11,16.39a2.43,2.43,0,0,0,1.57,1,10.51,10.51,0,0,0,7.95,1.86,45.25,45.25,0,0,1,7.87-.49A8.08,8.08,0,0,0,150,98a8,8,0,0,0,1.19-.32c2.94-.4,3.32-.17,3.43,2.12-.75.16-1,.76-1.18,1.37a3.43,3.43,0,0,1-2.37,2.18c-1.43.5-2.82,1.13-4.23,1.68a13.3,13.3,0,0,0-6.64,4.89,6.47,6.47,0,0,1-4.77,2.87,15.61,15.61,0,0,0-5.85,2A6.45,6.45,0,0,0,126.69,117.62Z"/><path class="cls-18" d="M344.09,308.24c10.11,13.22,20.64,26.07,32.72,37.57a96,96,0,0,0,12,9.91,44.83,44.83,0,0,0,8.2,4.45c1.18.48,2.27,1.18,3.39,1.78v.9c.4,1-.11,2,.33,3a4.86,4.86,0,0,1-.1,1.88c-2.79.82-5.57.08-8.3-.25-5.94-.73-10.73-3.94-15.15-7.75-8.28-7.13-14.39-16-20.1-25.19-3.3-5.3-6.13-10.86-9.08-16.35-1.28-2.39-2.35-4.9-3.48-7.37A3.07,3.07,0,0,1,344.09,308.24Z"/><path class="cls-19" d="M292.75,413.47c-.23-1,0-1.62,1.14-1.57a13.11,13.11,0,0,1,2.36.34,67.55,67.55,0,0,1,19.3,8.2,199.39,199.39,0,0,1,27.39,19.63,52.35,52.35,0,0,1,6,5.39,49.6,49.6,0,0,1-21.47-4.19c-13.74-5.76-24.85-14.94-34-26.57A10.13,10.13,0,0,1,292.75,413.47Z"/><path class="cls-20" d="M400.8,323.49c.51-.85,1.12-.35,1.65-.07,3,1.58,6.1,3.13,9.1,4.79,8.23,4.53,16.56,8.91,24.48,14,.57.36,1.2,1,1.78,0a5.31,5.31,0,0,0,2.49,3.05,4.05,4.05,0,0,1,1.88,4.65c-.83,4.45-2,8.68-5.46,11.88a13.33,13.33,0,0,1-3.73,2.52c-1.83.78-2.16.66-3.19-1.15-.12-.21-.2-.43-.3-.65.52-.6,1-1.21,1.58-1.79,1.48-1.62,1.51-1.82.15-3.64-5.68-7.58-11.6-15-17.57-22.33A46.91,46.91,0,0,0,400.8,323.49Z"/><path class="cls-21" d="M119.88,303.89a5.44,5.44,0,0,0-3-.54l-5.5,0a5.46,5.46,0,0,1-1.87-2.41c-2.63-7.29-5.19-14.6-7.78-21.89-.55-1.56-.62-3,.75-4.13a2.16,2.16,0,0,1,1.82-.11c1,.09,2,.82,2.83-.35a6,6,0,0,1,3.08-1.18c2-.28,3.68-1.39,5.53-2.06q2.07,7,4.14,13.94,2.24,7.56,4.46,15.12l.14.46c.75,2.48.68,2.59-1.82,2.68A4.94,4.94,0,0,0,119.88,303.89Z"/><path class="cls-20" d="M253.52,319.78a1.12,1.12,0,0,1,.21-1.11c4.81-6.81,8-14.48,11.3-22,2.31-5.24,4.42-10.56,6.62-15.85-.07,3.54,1.11,6.89,1.59,10.34a88.9,88.9,0,0,1,1.33,15.15c0,1.09-.19,2.28,1.06,2.93-.55.43-1.39.49-1.62,1.3-.42,1.49-1.61,2-2.92,2.53C265.23,315.26,259.38,317.53,253.52,319.78Z"/><path class="cls-22" d="M393.66,508.75a18.05,18.05,0,0,1,2.93,3.31,18.81,18.81,0,0,1-10,4.77,26.23,26.23,0,0,1-10-.56,40.18,40.18,0,0,1-11.86-5.63,3.34,3.34,0,0,1-1.54-3.66c.62-4.5.88-9.05,1.28-13.58.44-5,.3-9.9.37-14.85A35.74,35.74,0,0,0,363.25,467a2.81,2.81,0,0,1,.79-3.25c.64-.59,1.22-1.26,1.83-1.89,1.18.84,1.26,2.19,1.45,3.41,1.17,7.39,2.28,14.79,2,22.32-.13,2,0,4.08-.32,6.11a3.84,3.84,0,0,0,0,1.14,30.12,30.12,0,0,1-1.51,7.24c-.86,2.74-.58,3.49,2,4.4,6.94,2.41,14,4.21,21.35,2.09A5.58,5.58,0,0,1,393.66,508.75Z"/><path class="cls-22" d="M298.06,528.56c5.1-3.2,9.9-6.82,14.82-10.28.08.31.18.61.25.92.7,3.19.52,3.81-2.27,5.53-6.73,4.14-13.51,8.21-20.27,12.31-2.86,1.74-5.55,3.76-8.87,4.66a44.36,44.36,0,0,1-10.37,1.67A74.64,74.64,0,0,1,250,541.06c-2.69-.71-2.82-.8-2.79-3.56,0-1.58-.36-3.2.43-4.72-.2,2.12.85,3.21,2.82,3.79a46.48,46.48,0,0,0,6.08,1.32c6.51,1,13.06.77,19.6.58,2.47-.07,4.77-1.26,7.08-2.14A94.53,94.53,0,0,0,298.06,528.56Z"/><path class="cls-17" d="M368.12,487.7c.25-7.69-.86-15.25-2.1-22.8a7.47,7.47,0,0,1-.15-3.07,37.89,37.89,0,0,1,6.57-5c.7,6.13,1.59,12.21,3.81,18-1.5,1.57-1.5,1.58.63,2.25.35,1.09.24,2.31.89,3.32-.21.25,0-.09-.13.19-.42,1-2.22,1.34-1.59,2.54s2.07.58,3.19.66c.56,2,1,4.11,2.35,5.8a4,4,0,0,1-1.73,1.22,71.12,71.12,0,0,0-9.14,4c-1,.46-2,1.13-3-.1q0-.4,0-.79C368.29,491.93,367.55,489.77,368.12,487.7Z"/><path class="cls-23" d="M150.22,98.73a10.12,10.12,0,0,1-4.35,1c-2.61.18-5.19.57-7.78.86a10.6,10.6,0,0,1-8-2.1c-2.09-4-2.35-8.44-2.9-12.81-.23-1.85,0-3.73-.42-5.56.15-1.08.33-2.16.43-3.25a2,2,0,0,0-1.06-2.19,2,2,0,0,0-2.37.49c-.59.51-1.14,1.07-1.7,1.62-3.89,2.14-8.1,2.12-12.36,1.89-2.95-.16-5.9-1.12-8.85,0-1.25.47-1.92,1.13-1.59,2.69a48.6,48.6,0,0,1,.59,5.46c-.68.49-1.05.17-1.3-.48-.14-3.4-.77-6.79-.1-10.2l1.34,0c.8-.37,1.71.07,2.51-.32,7.85-.85,15.71-1.68,23.55-2.55a28.2,28.2,0,0,1,5.73.14c3.91.47,3.79.39,1.5,3.76a13.7,13.7,0,0,0-.71,14.6c.86,1.56,2,2.75,4.09,2.15,1.44.06,2.05,1.86,3.59,1.72a7.88,7.88,0,0,1,3.71.93c1,.49,1.93.07,2.88.09C147.76,97.49,149.79,96.65,150.22,98.73Z"/><path class="cls-24" d="M150.22,98.73c-1.22-.51-2.62-.16-3.82-.81-4.36-1.21-5.48-4.74-5.95-8.58a37.42,37.42,0,0,1,0-6.21c.21-4.56,3.69-8.52,8.86-10.2l2.79-.11c1.12-.33,2.3-.51,3,.59s-.23,1.92-.87,2.69c-4.72,5.72-5.31,12.1-3.09,18.95.4,1.24,1.33,2.5,0,3.76Z"/><path class="cls-25" d="M157.92,73a9,9,0,0,0,2.56-.49c1.92-1,3.57-.26,5,1.06A10.13,10.13,0,0,1,168,77.36a23.65,23.65,0,0,1,.11,18.4,11.34,11.34,0,0,1-2,3.27c-1.53,1.75-3.33,2.71-5.72,1.94-.83-.27-1.76-.11-2.53-.62l-.15-.36c-4.93-7-5.37-14.56-2.24-22.4a25.85,25.85,0,0,0,.71-2.75C156.52,74,157.6,73.87,157.92,73Z"/><path class="cls-26" d="M115.73,271.18c.2,1.27-.58,1.82-1.61,2.22a31.29,31.29,0,0,1-6.59,1.58c-1.47-.12-1.67-1.35-2-2.39-.82-3-1.67-6-2.4-9-.81-3.33-.74-3.41,2.39-4.9,2.08,0,4.27-.93,6.2.61a5.13,5.13,0,0,1,1.11,2.32C113.81,264.81,114.78,268,115.73,271.18Z"/><path class="cls-27" d="M157.92,73c1,.85.28,1.34-.4,1.84-4.85,4.71-5.5,17.83-.34,23.79a2.09,2.09,0,0,1,.71,1.46l0,.22-3.33-.59c-.77-1.65-2.12-1.19-3.41-.95-.39-1.13-.8-2.25-1.17-3.38-2.12-6.57-1.86-12.86,2.22-18.68.67-1,1.51-1.81,2.39-2.85-.89-.48-2.12.05-2.53-1.08-.27-.77-.59-1.51.59-1.87.86-.26,1.61-.34,1.91.67C155.13,73.5,156.71,72.8,157.92,73Z"/><path class="cls-28" d="M403.21,415.65c-.71-3.32-1.44-6.63-2.14-10-.42-2-.27-2.22,1.78-2.1,1.4.08,2.86-.16,4.18.57l6.31,10a1.64,1.64,0,0,1-1.48,1C409,415.37,406.12,415.93,403.21,415.65Z"/><path class="cls-29" d="M111.77,259.29a30.16,30.16,0,0,1-6,.43,1.55,1.55,0,0,1-1,.16,5.58,5.58,0,0,1-2.77-2.18c-1.33-1.84-2.35-3.9-3.66-5.76,2.32-.51,4.67-.93,7-1.54,3.21-.84,3.19-.9,3.22-4.19,0-.32,0-.63.07-.95a2.12,2.12,0,0,1,.25.66c0,4,1.61,7.71,2.68,11.5A16.57,16.57,0,0,1,111.77,259.29Z"/><path class="cls-30" d="M149.28,72.93c-1.4,1.16-3.13,1.83-4.43,3.2a12.12,12.12,0,0,0-3.74,9,27.29,27.29,0,0,0,.22,5,11.19,11.19,0,0,0,4.23,7,7.51,7.51,0,0,1,.83.85,19.3,19.3,0,0,1-6.73-1.42c-4.14-4.21-3.9-9.37-3.18-14.64,1.86-1.8,2.65-4.29,4.13-6.34,1.69-2.36,3.65-3.22,6-2.63A7.64,7.64,0,0,1,149.28,72.93Z"/><path class="cls-31" d="M273,505.95c.61.71,1.46.51,2.23.57,7.2.52,13.54,3.44,19.68,6.94.48.27,1.11.56.83,1.25a3.88,3.88,0,0,1-1.61,2.28c-.3.15-.57-.19-.78-.42-6-6.57-13.78-7.77-22.12-7.19A17.84,17.84,0,0,1,273,505.95Z"/><path class="cls-32" d="M274.71,502.47c5.84-1.08,11.45.16,17,1.78,1.84.54,3.63,1.23,5.43,1.89.56.2,1,.61.77,1.29s-.39,1.6-1.12,2c-.18.11-.63-.07-.87-.23-6.66-4.61-14.08-5.25-21.83-4.26-.16,0-.32,0-.48,0A4.84,4.84,0,0,1,274.71,502.47Z"/><path class="cls-33" d="M136.32,95a1.91,1.91,0,0,1-2.4-.37,9.16,9.16,0,0,1-2.65-3c-2.53-4.93-2.5-9.73.72-14.38.66-.95,1.64-1.72,1.85-3.05l-2.31-.73h4.33c1.12.4,1.14,1.19.75,2.13-1.38,2.54-3.22,4.8-3.52,7.91a12.38,12.38,0,0,0,2.22,9C135.86,93.27,136.66,93.93,136.32,95Z"/><path class="cls-27" d="M135.85,75.37a2,2,0,0,0,0-1.86,2.59,2.59,0,0,1,2.5-1,23,23,0,0,0,3.08,0,1.5,1.5,0,0,0,1.26-.45c1.77-2,1.79-1.93,3.26.13a6.16,6.16,0,0,0,.66.68c-3.5.69-5.66,2.93-7.05,6.07-.48,1.08-1,2.16-1.44,3.24,0,0-.14.06-.2,0s-.11-.1-.17-.15c-1.14-.67-1.11-1.61-.66-2.69a10.26,10.26,0,0,1,2.35-3.58C137.89,77.36,137.31,77.33,135.85,75.37Z"/><path class="cls-22" d="M313,517.91l0-6.7A11.46,11.46,0,0,1,313,517.91Z"/><path class="cls-11" d="M400.74,365.79a4.94,4.94,0,0,1-.33-3A5.07,5.07,0,0,1,400.74,365.79Z"/><path class="cls-8" d="M102.26,75.91a3.5,3.5,0,0,1-2.5.32A4.34,4.34,0,0,1,102.26,75.91Z"/><path class="cls-8" d="M20.54,508.67a5.15,5.15,0,0,0,1.08-2.62A99.73,99.73,0,0,0,23,494.39c.82-11.48,1.1-23,1.19-34.5,0-4.31,0-8.63.22-12.94.21-5-.68-9.88-1-14.81-.22-3.35-.56-6.69-.72-10-.81-17.81-.84-35.64-.53-53.46.16-9.44,2.56-18.52,6-27.25a24.41,24.41,0,0,0,2.09-11.14c2.55,1.83,4.31,0,6.21-1.31,9.92-6.56,19.74-13.28,30.51-18.42a23.71,23.71,0,0,1,4.23-1.64c.91-.24,1.75-.33,2.23.73-1.29,5.77-3,11.42-4.61,17.12C65,340.68,61.13,354.61,57.3,368.56c-1.29,4.71-1.8,9.58-2.56,14.39q-4.28,27.11-8.47,54.23c-2.72,17.77-5.71,35.5-7.75,53.37-.31,2.7-.66,5.39-1,8.09a19.46,19.46,0,0,0,1.85,10.49,8.91,8.91,0,0,0,3.37,4,2.94,2.94,0,0,1,0,2.08c-1.8,4.82-8.08,7.44-12.64,5.17a18.65,18.65,0,0,1-8.43-7.82A7.81,7.81,0,0,1,20.54,508.67Z"/><path class="cls-21" d="M40.8,247.22c4.09.66,8.19,1.3,12.28,2,8.19,1.35,16.44,2.25,24.72,2.91,3.82.36,4.24.89,3.74,4.75-.58,4.5-.59,4.63-5.08,4.46-3.61-.13-7.08,1.17-10.68.85-2.93-.05-3.54.49-3.62,3.37-.06,2,0,4,0,6,0,2.53.62,3.27,3.07,3.23,3.69-.06,7.32.66,11,.58,1.08,0,2.29-.18,3,1a6.6,6.6,0,0,1,.4,3.51c-.54,7-1.41,13.95-1.69,21,0,1.12-.08,2.26-1.14,3-.1-.12-.24-.23-.28-.37-.34-1.21-.73-.59-1.12,0a9.47,9.47,0,0,1-4.68.66c-8.51-.62-17-1.06-25.53-1.71-5.17-.4-10.35-.47-15.51-1.08a12.89,12.89,0,0,1-3.24-.8,6.47,6.47,0,0,0-1.14-.38c-1.94-.27-2.83-1.52-3.33-3.3a133,133,0,0,1-3.75-16.59,57.71,57.71,0,0,1-.92-8.08.85.85,0,0,1,.45-.15c3.71.49,3.74.5,4.27-3.2s.27-7.5.77-11.23a13.59,13.59,0,0,1,.52-3.3c.62-1.36,1.77-1.5,3-1.12a2.12,2.12,0,0,1,1.42,2.43c-.06.87.22,1.72.17,2.58-.35,4-.62,7.95-.75,11.93-.09,2.6.64,3.22,3.27,3.3,1.36,0,2.71.14,4.06.28a2.28,2.28,0,0,0,2.71-2.07,41.94,41.94,0,0,0,.44-10A2.58,2.58,0,0,0,35.47,259a12,12,0,0,1-2.48-.88c-1.16-1.07-1.12-2.16-.12-3.34q2.4-2.82,4.74-5.7A5.13,5.13,0,0,1,40.8,247.22Z"/><path class="cls-29" d="M65.15,260.71l11.49-.07c.64,0,1.28,0,1.91,0,1.08-.06,1.5-.71,1.59-1.72.11-1.19.3-2.37.42-3.56.21-2.06,0-2.37-2.1-2.94a6.58,6.58,0,0,1-.67-.26c2.16-.21,4.29.28,6.45.32,3.91.07,7.82-.11,11.72-.33-.19,2.53-.31,5.06,2,6.85.56.44,1.28.71,1.15,1.62-.36,1-1.26,1.11-2.14,1.19-1.12.1-2.24,0-3.36.11-1.75.1-2.74,1-2.55,2.78.28,2.54.36,5.1.83,7.62a2.77,2.77,0,0,0,3,2.52,33.23,33.23,0,0,0,5.27-.18c1-.13,2.14-.38,2.6,1a3.11,3.11,0,0,0,.06,2.77q3.33,9.38,6.66,18.76a34.77,34.77,0,0,1,1.92,6.17l-16.22.1a6.66,6.66,0,0,0-3,.39c-.42,1-1.3,1.09-2.18,1.13-3.4.16-6.79.14-10.19,0a3.42,3.42,0,0,1-2.53-1.11,1.12,1.12,0,0,1-.4,0,108.25,108.25,0,0,1,.84-14.74c.45-4.18.72-8.38,1.07-12.57.82-1.56,2.34-1.1,3.61-1.16,3.86-.18,4.68-1,4.13-4.81-.23-1.58-.19-3.18-.47-4.75-.48-2.63-1.3-3.39-4-3.44-4.61-.08-9.23.05-13.84-.08C67,262.22,65.44,262.59,65.15,260.71Z"/><path class="cls-34" d="M26.44,300.45c1.27-.78,2.64-.39,4-.31,6.52.41,13,.86,19.55,1.3l18.83,1.28c1.35.09,2.71.12,4.06.18a5.27,5.27,0,0,1,2.56.47c-.63,2.08-.91,4.28-1.94,6.23a18.9,18.9,0,0,0-5.88,2c-8.12,3.82-15.63,8.67-23.13,13.54-3.88,2.52-7.67,5.19-11.5,7.79-.2.13-.39.28-.6.39-1.09.6-1.42.47-1.59-.72a5.55,5.55,0,0,0-.49-2.32c-1-9.3-2.22-18.57-3.47-27.83-.37-.61.07-1.36-.37-2Z"/><path class="cls-2" d="M20.54,508.67c1,.55,1.26,1.6,1.71,2.51a18.48,18.48,0,0,0,8,7.92c3.15,1.74,6,1.05,8.64-1a9,9,0,0,0,2.71-3.28,4.24,4.24,0,0,1,1.15-1.78c9.42,4.74,19.08,9,28.05,14.62.54.34,1.1.65,1.62,1,3.21,2.3,3.12,6.41-.22,8.6a14.85,14.85,0,0,1-7,2.16,39.45,39.45,0,0,1-19-2.7A207.26,207.26,0,0,1,19,522.46a2.4,2.4,0,0,1-1.29-2.32,31.61,31.61,0,0,1,1-8.79A3.94,3.94,0,0,1,20.54,508.67Z"/><path class="cls-34" d="M77.21,303.84l14.89,0c8.42.18,16.85-.07,25.86.12-2.22,2.69-4,4.89-5.84,7.07a132.74,132.74,0,0,0-17,24.9c-2.62,5.17-4.51,10.59-4.42,16.51a3.42,3.42,0,0,1-.45,1.84C88.43,347.14,86.63,340,84.79,333c-2.39-9.17-4.82-18.32-7.22-27.49C77.43,304.93,77.33,304.38,77.21,303.84Z"/><path class="cls-35" d="M32.17,136.33a3.57,3.57,0,0,1,2.14,1.75c2.72,3.8,5.5,7.55,8.17,11.38,1.19,1.7,2.93,2.9,4.08,4.62a1.79,1.79,0,0,0,0,1.61c.79,1.87.23,3.57-.56,5.27-1.71,3.68-3.91,7.08-5.86,10.63-1.53,2.78-3.27,5.44-4.6,8.33a.79.79,0,0,1-.91.57c-.85-1.2-.62-2.68-1-4-.21-.74-.19-1.55-.91-2.06.41-2.46-.06-4.91-.25-7.35-.11-1.42-.29-2.84-.29-4.27Q32.17,149.56,32.17,136.33Z"/><path class="cls-29" d="M26.47,258.85c0-1,0-1.9,0-2.85,0-.69.42-1.49-.48-1.87a1.46,1.46,0,0,0-2,.73c-1.9,1.55-3.13.24-4.37-1,1.27-3.76,3.58-6.91,5.88-10.06,4.34,1.28,8.8,2,13.22,2.92.69.15,1.38.35,2.06.52q-3.46,4.06-6.93,8.11c-.47.54-1.06,1-.74,1.85-.1.54-.54.92-1,.82A8.26,8.26,0,0,0,26.47,258.85Z"/><path class="cls-26" d="M19.64,253.83c1.6-.26,2.9.77,4.37,1,.09,4.48-.54,8.93-.71,13.39-.06,1.52-.22,3-.3,4.54,0,.88-.43,1.33-1.34,1.26-.56,0-1.12-.08-1.68-.07a2.38,2.38,0,0,1-2.67-1.86,33.59,33.59,0,0,1,.4-13.2A16.7,16.7,0,0,1,19.64,253.83Z"/><path class="cls-16" d="M26,179.08a1.22,1.22,0,0,1,.8-1.12,2.12,2.12,0,0,1-.34,2.1Z"/><path class="cls-21" d="M26.44,300.46a2.65,2.65,0,0,1,.37,2A3.06,3.06,0,0,1,26.44,300.46Z"/><path class="cls-16" d="M367.72,494.8a5.7,5.7,0,0,0,2.62-1,58,58,0,0,1,7.76-3.56,7.56,7.56,0,0,1,3.48-.57,77.39,77.39,0,0,0,8.92,14.92c1.06,1.39,2.1,2.8,3.16,4.19-4.92,2.21-10,2.32-15.25,1.39a63.88,63.88,0,0,1-11.72-3.37c-1.68-.65-1.83-1-1.23-2.7A31.07,31.07,0,0,0,367.72,494.8Z"/><path class="cls-28" d="M347.1,407.9c.06-2.76,1.31-5.24,1.86-7.89.26-1.28,1.38-1.15,2.34-1,3,.35,6,.77,9,1.08,5.8.6,11.61,1.14,17.41,1.71a72.21,72.21,0,0,1,0,13.44v0a122,122,0,0,1-22-4.5C352.85,409.8,350,408.82,347.1,407.9Z"/><path class="cls-28" d="M383.54,415.63c0-3.67,0-7.34,0-11,0-2.12.36-2.51,2.35-2.28,2.3.26,4.61.32,6.92.47,2.13.14,2.39.42,2.79,2.51.64,3.29,1.26,6.58,1.89,9.87-.54,1.08-1.56,1-2.5,1A67.75,67.75,0,0,1,383.54,415.63Z"/><path class="cls-28" d="M332.17,400.8c1.95-4.52,1.95-4.52,6.66-3.63,1.17.22,2.35.46,3.53.61s1.48.71,1.37,1.78c-.22,2.14-.39,4.28-.58,6.42A52.57,52.57,0,0,1,332.17,400.8Z"/><path class="cls-36" d="M379.23,483.84c-1,1.38-2.84,1.07-4,2.07a2,2,0,0,1-.7-1.35c-.79-3.42-.38-3.95,3.19-4.11Z"/><path class="cls-30" d="M318.72,391.17c2.1,1.64,4.63,2.29,7.09,3.1.52.17,1.06.29,1.59.45.72.22,1.08.6.68,1.39-.28.56-.51,1.15-.76,1.72a47.18,47.18,0,0,1-8.08-5.44A1.08,1.08,0,0,1,318.72,391.17Z"/><path class="cls-37" d="M376.88,477.12c-.88.84-2.1.52-3.12.9-.61.23-.8-.35-.88-.83-.12-.74-.6-1.58.38-2.1a3.48,3.48,0,0,1,3-.22A5.5,5.5,0,0,0,376.88,477.12Z"/><path class="cls-17" d="M48.51,82.57a5.81,5.81,0,0,1,.44,3.5c-.2,2.26.85,3.51,2.83,4.4a128.12,128.12,0,0,0,16.11,5.93,75.94,75.94,0,0,0,9.45,2.52c1.15,1.29,1,2.9,1.19,4.46.24,2.13.56,4.25.76,6.38,0,1.37,1.66,2.17,1.23,3.68-.25.65-.9.86-1.35,1.3-3.53,4.79-7.8,8.17-14.19,7.9A9.05,9.05,0,0,1,60,121c-2.08-1.34-3.76-3.21-5.89-4.5a23.44,23.44,0,0,0-5.56-2.74,1.44,1.44,0,0,1-.89-1.54c.68-5.68-.67-11.37,0-17.05.4-.77.82-1.54,1.21-2.32a2.26,2.26,0,0,0,.37-1.82C48.1,88.29,48.67,85.4,48.51,82.57Z"/><path class="cls-10" d="M60,121a22.08,22.08,0,0,0,8.08.25,13.71,13.71,0,0,0,8.29-4.86c.79-.9,1.61-1.77,2.41-2.65a2.76,2.76,0,0,1,2.72,1.54,58.2,58.2,0,0,1,3.84,6A14.92,14.92,0,0,0,87,127.4c2.53,5.56,4.1,11.47,6,17.25a3.33,3.33,0,0,1-.38,3.19c-3.12,3.09-6.68,4.49-11.08,3.11A5.26,5.26,0,0,1,78,148a116.92,116.92,0,0,0-7.21-13A101.4,101.4,0,0,0,60,121Z"/><path class="cls-38" d="M98,60a16.32,16.32,0,0,1-.09-6.66.77.77,0,0,1,0-1c.45-2.51,1-5,1.32-7.53a30.35,30.35,0,0,0-1.69-13.4c-.23-.68-.44-1.37-.66-2a8.1,8.1,0,0,1,9.94,4.26,25.91,25.91,0,0,1,1.57,15.92,16,16,0,0,1-8.51,11C99,61,98.43,60.89,98,60Z"/><path class="cls-39" d="M80.22,113.22c3.13.15,6.27.31,9.06,2,5.17,2.78,7.92,7.43,9.85,12.72a5.66,5.66,0,0,1,.19,2.61A61.23,61.23,0,0,1,97,141a5.91,5.91,0,0,1-.56,1c-1.36.41-1.6-.77-2-1.53C90.77,134.29,87.11,128,84,121.44a46,46,0,0,0-5.24-7.67C79.15,113.33,79.74,113.41,80.22,113.22Z"/><path class="cls-27" d="M100.81,78.73c.61-1.17,1.76-1.12,2.73-.93,5.37,1,10.59-.44,15.86-.91.87-.08,1.75,0,2.62-.06a30.44,30.44,0,0,0-1.21,5.08c-1,5.15-2.25,10.27-5.09,14.81a3.55,3.55,0,0,0-.55,1.8c-.08,2.57-1,5-1.38,7.5a1.68,1.68,0,0,1-1,1.5,1.51,1.51,0,0,1-1.85-.37c0-2.62-.07-5.25-.05-7.87A126.39,126.39,0,0,0,110,85a30.23,30.23,0,0,0-.31-4.28c-.42-1.65-.73-2-2.44-2C105.11,78.69,103,78.73,100.81,78.73Z"/><path class="cls-12" d="M84,121.44a76.06,76.06,0,0,1,5.91,9c2.35,3.8,4.52,7.71,6.55,11.69a13.1,13.1,0,0,1-3.82,5.75,15.66,15.66,0,0,0-.4-1.87c-2.53-7.41-4.74-14.93-7.6-22.23A7.21,7.21,0,0,1,84,121.44Z"/><path class="cls-40" d="M56.69,33.68c-.58,6.2-2.62,11.65-8.07,15.38a3.24,3.24,0,0,1-3.58.33c-1.07-.55-1.17-1-.16-1.65a41.21,41.21,0,0,0,3.48-2.51,19.69,19.69,0,0,0,6.2-8c.51-1.24,1.06-2.46,1.6-3.69Z"/><path class="cls-10" d="M95.52,155a7.4,7.4,0,0,1-8.08,5.22,3.15,3.15,0,0,1-1.85-1A11.13,11.13,0,0,1,83,155.51C87.27,157.08,91.41,156.54,95.52,155Z"/><path class="cls-41" d="M100.76,104.24c-1.29,0-1.81-.63-1.85-1.93-.15-4.64-.38-9.27-.58-13.9l.18-2,1.3.48A97.45,97.45,0,0,1,100.76,104.24Z"/><path class="cls-42" d="M343.17,236.7c.36.62.68,1.27,1.08,1.86a3.71,3.71,0,0,0,3.4,1.86c1.36,0,2.72.06,4.07,0,1.09,0,1.94.2,1.93,1.51a1.53,1.53,0,0,0,1.57,1.71,2,2,0,0,1,.92.24c2.3,1.62,4.4.63,6.49-.46.14-.07.28-.16.42-.23.69-.31,1.45-1.25,2.12-.51s-.27,1.58-.78,2.2a6.3,6.3,0,0,1-3.5,1.94c-.67.16-1.16.48-1,1.34,1,4.42.46,8.92.65,13.38.22,5.19.3,10.38.43,15.57a18.4,18.4,0,0,1-.37,5,7.9,7.9,0,0,1-3.51,5c-.93-.35-1.14-1.28-1.56-2-1.51-2.71-3-5.44-4.5-8.15A10.67,10.67,0,0,0,349,274c-1.34-1-.47-2.17-.17-3.26,1.77-6.49,1.25-12.6-2.69-18.29-8.26-11.95-27-10.93-33.94,1.87-.84,1.56-1.06,3.6-3,4.41-.92.47-1.86.9-2.76,1.43a8.75,8.75,0,0,0-4.78,8,39.85,39.85,0,0,0,.14,6.45c1.06,6.43,4.82,10.41,10.93,12.33a9.77,9.77,0,0,1,3.15,1,5,5,0,0,1-2.8.43c-4,0-8,0-12,.11-3.12.06-6.23.25-9.34.34a16.45,16.45,0,0,1-5.9-.92,7.67,7.67,0,0,1-5.24-5.77,3,3,0,0,1,.32-2.75l9.6-.16c3.17-.06,4.63-1.87,4-5-.56-3-2.07-5-5.26-5.38-.29,0-.67,0-.82-.43,1-.14,2.06-.26,3.08-.43,2.87-.47,4.26-2.37,3.79-5.25a7.73,7.73,0,0,0-3.06-5.21c.52-1,1.44-.77,2.16-.92a3.56,3.56,0,0,0,2.78-2.37,8.08,8.08,0,0,0-.39-6.29,2.39,2.39,0,0,0-1.65-1.29,8.6,8.6,0,0,0-3.08-.35l-6.46.44a20.65,20.65,0,0,1-4.28.14c-1.48,0-2-.84-1.69-2.18a9.29,9.29,0,0,1,4-5.71c1.57-1.05,2.89.17,4.33.3a30.53,30.53,0,0,0,5.45,3.87,4.8,4.8,0,0,0,5.59-.51c1.17-.94,1.34-2.29,1.45-3.66a9.8,9.8,0,0,0,3.53.4,17.63,17.63,0,0,0,10.43-2.82,9.27,9.27,0,0,1,4.8-1.18c6.85-.17,13.69.27,20.53.05C341,235.46,342.32,235.45,343.17,236.7Z"/><path class="cls-18" d="M334.54,319.24c1,0,2.08-.07,3.12,0,1.31.11,1.77.58,1.59,1.87-.73,5.26-.16,10.54-.39,15.8-.09,2-.34,4-.49,6a3.48,3.48,0,0,1-1.4,2.42c-1.83,1.55-3.71,3-5.51,4.62a1.58,1.58,0,0,1-2.48-.07c-2.57-2.4-5.17-4.75-7.79-7.1a2.74,2.74,0,0,1-1-1.84c-.32-3.26-.68-6.51-1-9.77-.28-3-.46-6-.75-9.06-.18-1.93,0-2.3,1.95-2.39a29.7,29.7,0,0,1,3.6,0C327.54,320,331,319.09,334.54,319.24Z"/><path class="cls-1" d="M377.73,415.2q0-6.72,0-13.44a3.63,3.63,0,0,1,.4,1.11q0,5.61,0,11.22A3.52,3.52,0,0,1,377.73,415.2Z"/><path class="cls-43" d="M113.62,353.16c-4.07,6.36-5.46,13.07-2.95,20.44C105.69,370.05,107.68,356,113.62,353.16Z"/><path class="cls-44" d="M309.13,258.76c2.21-7.9,7.3-13.09,15.17-15.16,8.19-2.16,15.41.09,21.19,6.22a19.55,19.55,0,0,1,5.45,13.7A28.87,28.87,0,0,1,349,274a31.34,31.34,0,0,1-13.51,9.1,20.33,20.33,0,0,1-26-22.37C309.56,260.09,309.79,259.34,309.13,258.76Z"/><path class="cls-18" d="M385.9,313a15.26,15.26,0,0,1-1.93-6.85,4.49,4.49,0,0,0-1-2.65,3.35,3.35,0,0,1,.11-4.23c1.51-2.16,3.09-4.27,4.7-6.35.65-.85,1.11-.76,1.51.25.65,1.63,1.24,3.29,1.82,4.94,2.58,7.39,5.49,14.66,8.4,21.92a9.53,9.53,0,0,1,.8,3A141.57,141.57,0,0,1,385.9,313Z"/><path class="cls-45" d="M288,239.36l-.71.08c-3.8.44-5.65,2-6.64,5.69-.35,1.28-.16,1.58,1.17,1.65s2.54,0,3.8,0c-2,.71-4.1.4-6.16.33a1.28,1.28,0,0,1-1.36-1.58c.49-3.26,1.23-6.44,3.56-9,1.27-1.39,1.72-1.4,3.12-.07A23.16,23.16,0,0,0,288,239.36Z"/><path class="cls-46" d="M97,84A42.87,42.87,0,0,1,78.25,110.5c-.33-3.24-1.09-6.42-1.08-9.7a4.43,4.43,0,0,1,.17-1.88c2.23.67,4.4.15,6.58-.29a6.31,6.31,0,0,0,3-1.86A48.67,48.67,0,0,0,94.69,86.6c.55-.87,1.06-1.77,1.61-2.64C96.55,83.58,96.8,83.72,97,84Z"/><path class="cls-47" d="M83.14,87.83a9.2,9.2,0,0,1-7.81-3.67,39.74,39.74,0,0,1-4.6-6.38c-.41-.74-.71-1.45,0-2.18s1.29-.4,2-.14a49.17,49.17,0,0,0,15.43,2.8c1.83.05,2,.31,1.12,2a8.26,8.26,0,0,0-1,3.41c-.14,2.92-1.38,4.07-4.34,4.2C83.64,87.84,83.33,87.83,83.14,87.83Z"/><path class="cls-48" d="M71.93,57.15a3.54,3.54,0,0,1-1.1.4,14.58,14.58,0,0,1-10.84-4c-.76-.74-1.39-1.55-1-2.73.75-3,3.39-3.36,5.78-3.9a3.76,3.76,0,0,1,2.49.12A2.82,2.82,0,0,1,68,50a4.19,4.19,0,0,0,2.38,5.2C71.16,55.66,72,56.09,71.93,57.15Z"/><path class="cls-49" d="M83,53.41c.62,0,.73.54.83,1q.4,1.87.73,3.75a8.6,8.6,0,0,0,2.67,4.93c2,1.86,1.83,3-.28,4.63a9,9,0,0,1-3,1.46c-.52.15-1.17.42-1.45-.29s.34-.79.72-1.07a13.09,13.09,0,0,0,1.5-1.17c.93-.93.88-1.25-.21-2-3.5-2.5-4.5-6.31-2.62-10C82.2,54.11,82.42,53.57,83,53.41Z"/><path class="cls-50" d="M31.85,55c.64-2.28,1.72-3.16,3.65-3.09a3.7,3.7,0,0,1,3.74,3.07c.4,2.1.09,4-1.87,5.26a8.22,8.22,0,0,0-.95.72,1.49,1.49,0,0,0-.62,1.67c.22.62.82.69,1.38.74l.24,0c.68.11,1.65,0,1.59,1s-1,1.31-1.95,1.36a3.36,3.36,0,0,1-3.18-2.44,3,3,0,0,1,.95-3.65c.5-.38,1.12-.6,1.64-1,1.58-1.1,1.62-2.17.2-3.48a3.08,3.08,0,0,0-3.09-.73C33,54.57,32.68,55.13,31.85,55Z"/><path class="cls-51" d="M71.93,57.15c-4.05-1.19-5.82-3.93-4.83-8.42a7,7,0,0,0,.06-1.19c1.44-1.26,2.36-.55,3.12.81a6.66,6.66,0,0,1,.58,2.26c-.3.82-1,1.76.62,2a10.89,10.89,0,0,1,2.92,3.09C73.89,57.54,73.89,57.54,71.93,57.15Z"/><path class="cls-52" d="M69.67,49a2.44,2.44,0,0,0-2.51-1.43c-3.19-.07-6.08.6-8.18,3.25-.66-1.2.1-2,.88-2.67a7.94,7.94,0,0,1,3.59-1.82c4.51-1,8.57.39,12.66,2.22-.51,1.25-2.43.77-2.25,2.34C72.13,51,71.18,49.36,69.67,49Z"/><path class="cls-53" d="M92.66,58.55c-1.4,1.35-2.86.71-4.11-.11s-2.31-2.2-1.67-4a4.36,4.36,0,0,1,2.58-2.56c.62-.06,1.32.17,1.32.75C90.8,54.79,91.91,56.6,92.66,58.55Z"/><path class="cls-54" d="M69.67,49c2.14-1,3-.61,4.19,1.9.2,1.61.74,3.17.55,4.83-1.43-.43-2.8-1-3.47-2.47-1-.53-1-1.42-.83-2.39A2.75,2.75,0,0,1,69.67,49Z"/><path class="cls-28" d="M89.28,52.34l-2.4,2.06a5.72,5.72,0,0,1,8.41-3.63c.9.49,1.59,1.33,2.64,1.56l0,1L96,53.3c-1.23.15-2.19-.84-3.4-.76S90.43,52,89.28,52.34Z"/><path class="cls-15" d="M96.14,46.1c-1.51,0-2.41-.74-2.41-2s.67-1.69,1.76-1.09a2.83,2.83,0,0,0,2.25.15c.88-.22,1.3.3,1.12,1.19C98.64,45.49,97.69,46.1,96.14,46.1Z"/><path class="cls-54" d="M92.73,51.87c1.62-.73,2.45.38,3.3,1.43h0c-.58.55,0,1.38-.47,2a6.38,6.38,0,0,1-1.49,2.87c-1.34,0-1.76-.78-1.79-2A31.79,31.79,0,0,0,92,53,1.14,1.14,0,0,1,92.73,51.87Z"/><path class="cls-55" d="M93.13,55.69a2.86,2.86,0,0,0,.95,2.44,2.51,2.51,0,0,1-1.42.43,4.93,4.93,0,0,1-2.51-4.24c0-.75.14-1.63-.87-2,1.09-.6,2.18-1.16,3.45-.47l0,1.36A2.89,2.89,0,0,0,93.13,55.69Z"/><path class="cls-28" d="M95.56,55.25a2.79,2.79,0,0,1,.47-2A3.28,3.28,0,0,1,95.56,55.25Z"/><path class="cls-56" d="M343.17,236.7l-28.77-.07a24.27,24.27,0,0,0,3.92-7.07c.8-2.41,1.45-2.63,4.08-2.59,5.1.09,10.2.05,15.31.07a19.18,19.18,0,0,1,2.39.07,2.6,2.6,0,0,1,2.53,2.44C342.86,231.93,343.43,234.29,343.17,236.7Z"/><path class="cls-57" d="M357.45,230.8c3.81-.09,6.45,1.8,8.55,4.63a5.89,5.89,0,0,1,1,2.41.89.89,0,0,1-.34,1.05.83.83,0,0,1-.9-.11c-.4-.26-.77-.57-1.16-.85a13.77,13.77,0,0,0-16.16-.46c-.27.17-.52.38-.78.56a1.22,1.22,0,0,1-1.55,0,1.35,1.35,0,0,1-.38-1.73,6.74,6.74,0,0,1,3.26-3.38A18.51,18.51,0,0,1,357.45,230.8Z"/><path class="cls-58" d="M381.68,252.2a4.09,4.09,0,0,1,1.93-3.26,16.5,16.5,0,0,1,1.48-.77c1.46-.82,1.57-1.85.35-3-.17-.16-.39-.27-.58-.42-.42-.32-1.13-.54-.8-1.24s1.07-.68,1.68-.47a4.16,4.16,0,0,1,2.79,2.72c.35,1.21-.58,2.06-1.42,2.82a4.17,4.17,0,0,1-1,.67,2.39,2.39,0,0,0-1.42,3.13,3.76,3.76,0,0,1,.12.7,1.34,1.34,0,0,1-.83,1.55,1.46,1.46,0,0,1-1.82-.73A3.09,3.09,0,0,1,381.68,252.2Z"/><path class="cls-48" d="M99,260.23a3.08,3.08,0,0,1-3.69-2.77,13.86,13.86,0,0,0-.81-2.22c-.88-2.26-.88-2.26,1.46-3.14l2.32-.15a2.91,2.91,0,0,1,3,2.18,20.75,20.75,0,0,0,3.29,5.48c-1.22.74-2.66.82-4,1.29A1.35,1.35,0,0,1,99,260.23Z"/><path class="cls-59" d="M126.73,80.17a4.25,4.25,0,0,1,1,2.38q1.06,6.34,2.19,12.66a16.07,16.07,0,0,1,.17,3.32,8.55,8.55,0,0,1-3.92-6C125.43,88.35,126,84.26,126.73,80.17Z"/><path class="cls-60" d="M99,260.23l1.74,0c1.07.08,1.45.84,1.7,1.74,1,3.62,2,7.23,2.84,10.89.21.92.45,1.93-.7,2.5l-1.85.21c-3.19.16-6.38.35-9.58.46-2.09.07-2.19-.06-2.39-2.05-.37-3.66-.74-7.32-1.06-11-.19-2.21-.15-2.18,2.15-2.34S96.65,260.86,99,260.23Z"/><path class="cls-61" d="M104.58,275.4c-1-5.11-2.56-10.08-3.83-15.13,1-1.64,2.53-.59,3.84-.67l1.15.12c-2.17.75-2.24.22-1.59,2.69,1.1,4.2,2.26,8.38,3.4,12.57a11,11,0,0,1,.22,1.41c0,.8-.58,1.07-1.22,1.23a1,1,0,0,1-1.34-.67C105,276.44,104.78,275.92,104.58,275.4Z"/><path class="cls-16" d="M368.12,487.7c0,2.11.32,4.24-.4,6.31C367.79,491.9,367.31,489.76,368.12,487.7Z"/><path class="cls-24" d="M135.85,75.37c2.47.52,2.48.52,3.77-1.46.71-1.08,1.67-1,3.14-.67-2.43,2.72-4.78,5.23-5,8.84a17.5,17.5,0,0,0,1.34,12.25c.33.68,1.06,1.27.57,2.17-1.31,0-2.22-1-3.35-1.46-3.74-2.94-5-6.77-4.44-11.44A12.93,12.93,0,0,1,135.85,75.37Z"/><path class="cls-10" d="M157.43,79.67c-.26-2.19,1.12-3.35,2.8-4.23,1.47-.76,3-.42,4.3,1,2.86,3.16,3.69,7,3.39,11.13a15.41,15.41,0,0,1-2.52,7.66c-2.06,3-5.87,2.87-7.47-.28a2.89,2.89,0,0,1,1.3-.52c4.05.21,4,.2,5-3.86s.81-7.7-1.28-11.27c-1.16-1.39-2.36-1.62-3.79-.31A1.81,1.81,0,0,1,157.43,79.67Z"/><path class="cls-62" d="M157.89,100.13c-6.4-5.69-6.21-15.29-3.31-21.9a7,7,0,0,1,2.94-3.36,35.25,35.25,0,0,0-2,4.62c-1.81,6.66-1.53,13.12,2.2,19.18C158,99.07,159,99.55,157.89,100.13Z"/><path class="cls-63" d="M157.43,79.67a11.67,11.67,0,0,1,.73-.95c1.86-2,3.4-1.95,5.48,0,.49,1.6.43,2.7-1.77,2.12a2.08,2.08,0,0,0-2.28.93c-1.71,2.24-1.68,6.82.07,9a4,4,0,0,0,1.92,1.35c.94.31,2.38.33,1.88,1.81a2.8,2.8,0,0,1-3,1.87c-.54,0-1-.61-1.56-.35l-1-.52a45.41,45.41,0,0,1-1.52-5.51A17.07,17.07,0,0,1,157.43,79.67Z"/><path class="cls-24" d="M143.81,75.88c-3.61,4.49-4.59,9.13-2.45,17.25C137.3,88.6,138.49,79.14,143.81,75.88Z"/><path class="cls-43" d="M48.86,363.3c-4.56-4.93-3.58-17.94,3.27-21.32-1.83,3.5-3.64,6.57-4.26,10.23S47.93,359.46,48.86,363.3Z"/><path class="cls-60" d="M65.15,260.71a17.6,17.6,0,0,0,5,.35c4.55,0,9.1,0,13.65,0,3.19,0,3,.14,3.2,2.73.3,3.5.69,7,1,10.48.18,1.9.14,2-1.89,2.07-2.47.1-4.95.11-7.42.16l-14.82-.43c-.48,0-1,0-1.43,0-1.86-.1-1.9-.12-1.84-1.92.09-2.63.23-5.26.33-7.88,0-1.19,0-2.39.1-3.59.11-1.83.18-1.88,1.94-1.89Z"/><path class="cls-60" d="M50.2,275.62c-2.47-.12-4.95-.25-7.42-.36-1.07,0-1.58-.5-1.53-1.64q.3-6.7.51-13.41c0-1.07.51-1.32,1.53-1.2,4.44.5,8.9.9,13.35,1.39,1.79.2,1.87.31,1.81,2.09q-.2,5.75-.49,11.49c-.09,1.77-.27,1.92-2,1.87-1.92-.05-3.83-.2-5.74-.31Z"/><path class="cls-60" d="M26.47,258.85c.66-3,.66-3,3.88-2.25.92.22,1.85.38,2.78.56,1.48.32,2.95.71,4.44.93,1.07.16,1.52.56,1.46,1.69-.23,4.62-.42,9.24-.59,13.86,0,1-.54,1.39-1.52,1.33-3.26-.2-6.53-.39-9.79-.55-1.18-.06-1.43-.69-1.36-1.74.25-3.74.45-7.48.65-11.22C26.48,260.61,26.46,259.73,26.47,258.85Z"/><path class="cls-64" d="M329.73,279.89c-9.42,0-16.75-6.48-17.42-15.34a15.56,15.56,0,0,1,4.55-12.45,17.63,17.63,0,0,1,25-.12c8.84,9,4.65,23.92-7.64,27.31A14.32,14.32,0,0,1,329.73,279.89Z"/><path class="cls-65" d="M73.9,78.58c1.93.4,3.77.78,5.61,1.15a26,26,0,0,0,5.22.45c1.13,0,2,.25,2.37,1.51a2.5,2.5,0,0,1-1.27,3,6.69,6.69,0,0,1-6,.25A12.17,12.17,0,0,1,73.9,78.58Z"/><path class="cls-66" d="M70.11,50.84c1.18.49,1.2,1.37.83,2.39-1,.49-1.76.36-2.08-.73S69.26,51.07,70.11,50.84Z"/><path class="cls-66" d="M93.13,55.69c-.85.31-1.63.33-1.87-.75s.38-1.62,1.43-1.71C93.5,53.93,93.87,54.71,93.13,55.69Z"/><path class="cls-24" d="M334,234.29c-3,0-6.06.06-9.08,0-1.62,0-1.79-.24-1.79-1.81a9.52,9.52,0,0,1,.4-3.07c3.4.75,6.85.45,10.28.5,1.42,0,2.47.4,2.66,2C336.64,233.73,336,234.33,334,234.29Z"/><path class="cls-27" d="M334,234.29a1.61,1.61,0,0,0,1.46-2c-.18-1.29-1.17-1.35-2.15-1.36-2,0-4-.08-6,0a4.56,4.56,0,0,1-3.84-1.47,2.24,2.24,0,0,1,1.79-.44c3.18,0,6.37,0,9.55,0,2.32,0,2.45.22,2.53,2.44C337.5,234.65,337.24,234.87,334,234.29Z"/><path class="cls-67" d="M158.89,95.51c.61-.36,1.25-.06,1.87-.11a2.42,2.42,0,0,0,2.11-1.63c-1.1-.37-2.32-.34-3.23-1.15a7.8,7.8,0,0,1-2.54-6.88,14.29,14.29,0,0,1,.95-3.68c1-2.78,2.44-3.3,5.14-2,.45-.31.09-.93.46-1.27,3.5,4.41,2.73,11.53.45,15.29C162.76,96.25,161.29,96.62,158.89,95.51Z"/><path class="cls-24" d="M329.69,277.6c-10.68,0-17.91-10.29-13.95-19.87a15.11,15.11,0,0,1,17.58-8.64,14.52,14.52,0,0,1,11.31,15.16C344.13,271.72,337.56,277.59,329.69,277.6Z"/><path class="cls-68" d="M335.52,274.56a12.14,12.14,0,0,1-13.53-1,11.63,11.63,0,0,1-4.91-11.74c.78-5.12,3.84-8.47,8.72-10.15a8.11,8.11,0,0,1,1.41-.23c2.81-.25,3.49.42,3.11,3.43a32.61,32.61,0,0,0,.34,11.43c.57,2.5,1.57,4.7,3.88,6.08A1.7,1.7,0,0,1,335.52,274.56Z"/><path class="cls-11" d="M335.52,274.56a2.8,2.8,0,0,0-1.31-1c-2.54-1-3.71-3.15-4.42-5.61a32.05,32.05,0,0,1-.76-12.56c.05-.47.17-.94.2-1.42.1-1.78-.08-2-2-2.53,5.92-2,14.34,3.06,15,10.91A12.2,12.2,0,0,1,335.52,274.56Z"/></g></g></svg>