<svg xmlns="http://www.w3.org/2000/svg" xmlns:xlink="http://www.w3.org/1999/xlink" viewBox="0 0 530.58 542.18"><defs><style>.cls-1{fill:#fead6c;}.cls-2{fill:#ff8656;}.cls-3{fill:#736357;}.cls-4{fill:#998675;}.cls-5{fill:#4a5931;}.cls-6{fill:#314531;}.cls-7{fill:#0070bb;}.cls-8{fill:#572200;}.cls-9{fill:#ff9856;}.cls-10{fill:#fff;}.cls-11{fill:#f0ba7b;}.cls-12{fill:#6d3100;}.cls-13{fill:#e37026;}.cls-14{fill:#e35626;}.cls-15{fill:#ff7a56;}.cls-16{fill:#60c5e5;}.cls-17{fill:#0056a0;}.cls-18{fill:#e34874;}.cls-19{fill:#bf4174;}.cls-20{fill:#f0b77e;}.cls-21{fill:#f39a5c;}.cls-22{fill:#b63640;}.cls-23{fill:#9f2740;}.cls-24{fill:#7c2200;}.cls-25{fill:#fe7089;}.cls-26{fill:#f39e6a;}.cls-27{fill:#dd8161;}.cls-28{fill:#e33126;}.cls-29{fill:#ff6154;}.cls-30{fill:url(#radial-gradient);}.cls-31{fill:url(#radial-gradient-2);}.cls-32{fill:#932200;}.cls-33{fill:#fe5e7e;}</style><radialGradient id="radial-gradient" cx="213.39" cy="92.89" r="13.25" gradientUnits="userSpaceOnUse"><stop offset="0" stop-color="#eb7b57"/><stop offset="1" stop-color="#f0b77e"/></radialGradient><radialGradient id="radial-gradient-2" cx="160.56" cy="4.8" r="8.83" gradientTransform="translate(0 86.26) scale(1 1.15)" gradientUnits="userSpaceOnUse"><stop offset="0" stop-color="#ee7b5d"/><stop offset="1" stop-color="#f39e6a"/></radialGradient></defs><title>pessoa cor</title><g id="Camada_2" data-name="Camada 2"><g id="Objects"><path class="cls-1" d="M509.07,261c.63-4.81-4.32-27.28-6.73-37.82-.77-3.34,17.26-10.52,17.38-9.15.85,9.55,4.18,47.94,3,50.64Z"/><path class="cls-2" d="M507.75,232.32c0-6,8.4-13.44,12.13-16.42-.06-.72-.12-1.37-.17-1.91-.12-1.37-18.14,5.81-17.38,9.15,2.42,10.54,7.36,33,6.73,37.82l2.39.64a3.35,3.35,0,0,0,.18-1C511.36,258.69,507.75,240.09,507.75,232.32Z"/><path class="cls-1" d="M367,196s-7.77,14.06-13,15.92c-4.18,1.49-24.77-43.73-26.18-46.61a6.46,6.46,0,0,1,2.31-4.28c3.69-3,3.7-8.14,3.52-11.29s-3.68-14.17-2.22-18a51,51,0,0,0,2.22-8.14s-1.35-4-5.34-2.29-4.93,7.24-5,9.33,2.78,9.12,0,10.15a6.92,6.92,0,0,1-2,.46c-3.38-5.75-8.42-23.91-9.47-26.76-1.12-3-1.13-6.66-4.19-7.34s-4.21-.35-4.81,1,.2,2.91,3,11.09c1.65,4.79,4.46,13.68,6.52,20.21-.4,0-.79.08-1.21.14-2.49-7.48-8.15-24.44-9.2-27-1.34-3.25-1.37-7.6-4.7-8.2s-5.09,0-5.23,2.14c-.22,3.28.56,4.07,4,12.79,2.13,5.47,5.81,15.44,8.25,22.11-.3.11-.6.22-.9.35-3.23-7.82-8.52-20.51-9.57-22.6-1.54-3.05-1.91-6.8-5.34-7.19s-4.61.4-5.17,2.1.2,2.45,4.1,10.65c2.35,4.94,6.59,14.23,9.6,20.85l-.54.4c-3.64-7-8.29-15.84-9.29-17.47-1.7-2.77-2.43-6.3-5.55-6.37a3.84,3.84,0,0,0-3.87,2.74s-.28,2.31,4.08,9.78c2.75,4.71,7.93,13.68,11.38,19.66,3,6.67,9.14,19.56,12.95,19.59a12.84,12.84,0,0,1,4.93.85c4.49,7.79,34.67,61.52,42.9,60.78s33.4-30.35,33.4-30.35Z"/><path class="cls-2" d="M328.12,121.53c-3.78,1.86-4.69,7.16-4.78,9.2s2.78,9.12,0,10.15-3.89.08-3.89.08h0a9.25,9.25,0,0,0-5.49-1.52h0c-2-7.05-4.78-16.56-6.91-21.67-2.24-5.37-3-8.93-2.69-10.81a2,2,0,0,0-1.5,1.26c-.6,1.34.2,2.91,3,11.09,1.65,4.79,4.46,13.68,6.52,20.21h0a32,32,0,0,0-6.88,1.58c-5.65-14.84-5.78-19-9.14-25.1s-3.28-9.88-3-11.41a2.19,2.19,0,0,0-1.32,2c-.22,3.28.56,4.07,4,12.79,2.13,5.47,5.81,15.44,8.25,22.1a27.25,27.25,0,0,0-6.11,3.27c-3.26-7.42-7.53-16.9-10.1-21.58-3.07-5.59-4.09-8.6-3.07-10.92a2.77,2.77,0,0,0-1.71,1.89c-.56,1.69.2,2.45,4.1,10.65,2.35,4.93,6.58,14.2,9.59,20.82a31.13,31.13,0,0,0-4.24,3.83c6.17-5.17,13.74-7.65,19-7.87,6.37-.27,9.81,2.41,9.81,2.41s-6.59,3-6.85,7.77a11,11,0,0,0,2.59,7.77c-1.39-2.22-3.14-9.25,3-11.47s6.85-4.07,5.69-11.47A23.83,23.83,0,0,1,328.12,121.53Z"/><path class="cls-2" d="M290.25,148a80.94,80.94,0,0,0-7.91-14.6,17.46,17.46,0,0,1-3.54-10.17,4.11,4.11,0,0,0-1.09,1.74s-.28,2.31,4.08,9.78c2.21,3.79,6,10.34,9.19,15.87A21.58,21.58,0,0,0,290.25,148Z"/><path class="cls-2" d="M367,196s-.69,1.25-1.79,3c.67,3.11,2,7.67,4,10.09,3.33,3.89,3.52,6.66,3.52,6.66s-14.62,18-19.43,17.21-36.45-49-38.68-53.3-2.22-5.18-1.3-5.18,4.26-1.85,4.26-2.41-2.78,3.51-11.29-.37a26.93,26.93,0,0,1-6.45-4.17c2.22,3.62,4.49,6.38,6.25,6.4a12.84,12.84,0,0,1,4.93.85c4.49,7.79,34.67,61.52,42.9,60.78s33.4-30.35,33.4-30.35Z"/><path class="cls-3" d="M472.89,519.38s-1.08,4.32.41,6.63,8.8,4.63,13.62,6.17,13.8,6.2,21.83,7.52,20.23-1,21.31-4.2.65-6.27-3.52-7.14S472.89,519.38,472.89,519.38Z"/><path class="cls-3" d="M372.67,527.92s-.29,5.66,1.55,7.89,14.8,5.56,28.92,3.07c12.83-2.26,18-8.73,24.23-11.12s5.8-3.91,5.87-5a55.27,55.27,0,0,0-.92-6.17Z"/><path class="cls-4" d="M470.26,511.27s.23,9,3,11.18,19.71,6.61,30,11.66,26,1.44,27.18-4.27-15.08-5.28-22.74-14.13-10.07-11.49-10.07-11.49Z"/><path class="cls-4" d="M403.45,506.64s-8.62,10.6-13.79,13.34-17.44,6.26-17.73,7.91,2.86,4.81,9.07,6.3,20.19.31,27.15-1.3,18.27-10.75,22.59-11.59,1.18-10.12,1.18-10.12Z"/><path class="cls-5" d="M398.84,298.2s-1.82,96.09-.74,109.55,5,15,6.29,26.28-1.44,56.59-3.33,59.22a12,12,0,0,0-2,6.48c.09,1.28,3.38,2.82,2.41,5s-3.89,7.13-1.8,6.66c6.66-1.48,17.53-1.56,22.48.13,6.49,2.22,11,3.89,11,3.89s3-.21,2.59-5c-.21-2.34-2.12-8.11-2.41-11.29s.82-7.93.47-11.8c-2.85-32-.51-64.93-2-74.44-2.14-14.11,7-85.8,7-85.8s10.56.34,12.85,6.11,9.69,69.36,11.51,80.65,3.22,27.58,4.07,43.81c.3,5.77.43,14.41.55,23.33.11,8-.71,17.84-.48,24.42.23,6.77,2.13,12.6,3.88,13.14s11.5-9.51,21.47-10.73c9.07-1.11,10.08,2.43,10.27,1.39s3.17-4.64,2.5-7.68c-.5-2.25-3.91-5.14-4.58-8.3-1.16-5.49-2.45-11.86-3.39-17.39-2.23-13-5.64-38.37-3.91-52.15s.13-47.35.44-64c.1-5.34,6.7-21.23,6.75-30.21a86.4,86.4,0,0,0-6.36-33.28Z"/><path class="cls-6" d="M407,505.65c3.33-2,2-1.67-2.59-4.81s-2.78-3.52-1.29-5.92,9.81-22.39,8.33-35,1.11-30-5.55-39.23c-3.46-4.81-3.2-21.81-5.34-37,.31,11.51-2.71,20.59-2.43,24.09,1.08,13.46,5,15,6.29,26.28s-1.44,56.59-3.33,59.22a12,12,0,0,0-2,6.48c.09,1.28,3.38,2.82,2.41,5s-3.89,7.13-1.8,6.66a45,45,0,0,1,5.19-.79C397.61,508.88,404,507.49,407,505.65Z"/><path class="cls-6" d="M458.05,348.54c-2.59-14.43-1.11-18.87-7.77-22.76s-27.85-4.53-23.69-2a27.83,27.83,0,0,1,6.75,5.74s-.37,28.22-1.76,42.38-5.18,37-3,40.89,1.48,72.13,1.48,75.32-.37,9.44-3.33,11.29c-3.9,2.44,6.43,8.33,6,11.8-.23,1.93-2.36,2.53-4.2,2.68,2.79,1,4.48,1.62,4.48,1.62s3-.21,2.59-5c-.21-2.34-2.12-8.11-2.41-11.29s.82-7.93.47-11.8c-2.85-32-.51-64.93-2-74.44-2.14-14.11,7-85.8,7-85.8s10.56.34,12.85,6.11,9.69,69.36,11.51,80.65c1.24,7.67,2.28,17.63,3.09,28.31C466.18,421,460.49,362.09,458.05,348.54Z"/><path class="cls-6" d="M505.43,501.58c-.5-2.25-3.91-5.14-4.58-8.3-1.16-5.49-2.45-11.86-3.39-17.39-2.23-13-5.64-38.37-3.91-52.15s.13-47.35.44-64c.07-3.92,3.63-13.51,5.55-21.89-5.66,9.18-12,8-17.05,7-5.92-1.11-5.18,11.47,2.22,12.21s6.66,20.36,5.92,25.91,1.11,42.19,0,51.08,6.29,45.89,6.29,52.19-3.33,8.51,3.33,11.47,3.7,9.62-.74,7.4-17.45,4.6-24.8,5.55c-5,.65-5.64-1.39-3.05-12.12,2.27-9.41-3-42.72-5-50.86.22,3.32.42,6.68.6,10,.3,5.77.43,14.41.55,23.33.11,8-.71,17.84-.48,24.42.23,6.77,2.13,12.6,3.88,13.14s11.5-9.51,21.47-10.73c9.07-1.11,10.08,2.43,10.27,1.39S506.1,504.61,505.43,501.58Z"/><path class="cls-6" d="M477.9,308.1a11.48,11.48,0,0,1-3.1,6c-1.18,1-3.43,2.78-3.43,2.78a14.48,14.48,0,0,1,3.7,4.16c1.29,2.41,2.27,4.58,1.16,6.62s-2.71,6.87,3.33,5.41c1.51-.36,3.9-2.7,4.44-4.16,1.64-4.37.35-6,.49-7.57a7.28,7.28,0,0,1,.83-2.78s-.25,8.86,7.52,12.38c3.3,1.49,6.14.8,7.69,1.22a25.26,25.26,0,0,0,.19-2.69,86.4,86.4,0,0,0-6.36-33.28l-95.53,2s0,2.13.09,5.77c3.12,1.92,10.38,4.56,27.3,5.89A234,234,0,0,0,477.9,308.1Z"/><path class="cls-7" d="M491.6,223.28c3.62.18,9.11.3,12.54-.34,5.47-1,22.55-14.05,22.55-14.05-2.55-9.32-21.35-59.53-21.35-59.53-.15-1.54-28.33-9.24-36.77-9.82s-34.55-3.22-39.67-2-23,3.56-24.17,5.7l0-.06c-.2-.33-23.72,25.25-38.87,52.75,0,0,5.13,9.54,12.08,15.15s18.25,6,18.25,6l8.2-14c0,28,.06,55.58-.29,57.26a34.57,34.57,0,0,1-4.37,10.35c-1.6,2.37-6.3,5.31-5.64,7.32s4.51,6,4.92,7.66-5.29,11.39-5.47,11.93,5.87,6.35,16,7.35,48.42,3.85,58.89,2,28.65-6.06,30-7.61-1.3-6-2.47-8.57,3.08-6.7,3.41-8.9-5.3-6.44-5.79-12.19-4.62-24.21-3.55-31.92C490.35,235.34,490.92,229.94,491.6,223.28Z"/><path class="cls-1" d="M472.32,141.58s-14.86.7-14-8,5.06-22.34,5.06-22.34L443,110.2s2.79,14,2.7,22.75-14.79,6.45-14.79,6.45a26.25,26.25,0,0,0,41.39,2.17Z"/><path class="cls-2" d="M460,123.64c1.49-6.49,3.31-12.37,3.31-12.37L443,110.2s2.79,14,2.7,22.75c0,.08,0,.16,0,.24a20.8,20.8,0,0,0,3.65-4.22C451.1,126.14,455.7,124.54,460,123.64Z"/><path class="cls-8" d="M415.63,68.93s-14.68-6.33-9.14-37.73S447.79-.17,469.59,1a232.24,232.24,0,0,0,38-1s-4,2.94-3.51,6.86c0,0,3.06-1.88,3.7-3.33,0,0-3.33,13.91,2.52,26.08s-3,46.91-6.9,50.41-13.11,2.65-13.11,2.65Z"/><path class="cls-1" d="M491,80.48s9.7-8.39,14.86-4.22,2.28,13.09-.73,17.38-16.47,6.73-16.47,6.73Z"/><path class="cls-2" d="M504.38,75.43c-5.33-1.9-13.38,5-13.38,5l-2.34,19.89s1.31-.24,3.21-.7c1.33-6.77,3.69-14.46,5.15-17.4A14.89,14.89,0,0,1,504.38,75.43Z"/><path class="cls-1" d="M419.54,72.26s-6.5-9.9-12.14-7.51-5.33,11.06-3.74,15.63,12.93,10.15,12.93,10.15Z"/><path class="cls-2" d="M408.93,64.39c5.21-.34,10.61,7.87,10.61,7.87l-2.95,18.27s-1.1-.54-2.67-1.43c.53-6.35.37-13.78-.19-16.76A13.75,13.75,0,0,0,408.93,64.39Z"/><path class="cls-1" d="M415.22,41.29s.62,34-.43,43.43-5.29,16.12-1.38,21.05,8.57,11.57,29.53,14.61,41.26-7.56,45.17-13.2,9.41-62.88,9.41-62.88.65-23-37.21-27.25S415.38,34.82,415.22,41.29Z"/><path class="cls-9" d="M443.57,112.09c-1.22-3.22.35-3.13-.32-4.37s-2.32-1.7-2.36-2.81,1.85-1.66,1.52-6-3.49-2.32-6.69-5,2.71-4,5.39-7.5,4-17,2.11-34.91c-1.31-12.79,6.84-27.49,11.6-34.83-33-1.59-39.46,18.5-39.6,24.65,0,0,.62,34-.43,43.43s-5.29,16.12-1.38,21.05,8.57,11.57,29.53,14.61l1.38.17C442.81,117.56,444.34,114.12,443.57,112.09Z"/><path class="cls-8" d="M474.7,76.71c-.15,2.88-3.66,5-6.46,4.89a5.16,5.16,0,0,1-4.81-5.49c.15-2.88,1.11-5.18,5.36-5S474.85,73.82,474.7,76.71Z"/><circle class="cls-10" cx="471" cy="74.8" r="1.66" transform="translate(371.74 541.26) rotate(-87.01)"/><path class="cls-11" d="M456.54,103.78s-5.44,7-17.92,3.86C438.61,107.64,450.13,114.63,456.54,103.78Z"/><path class="cls-8" d="M478.71,35.55S459.2,47.12,444.77,50.26s-37.17,2.13-37.17,2.13-8.09-36.56,26.29-41.8S487,18.93,487,18.93,484.93,30.13,478.71,35.55Z"/><path class="cls-8" d="M480.08,23.76S475.44,45,468.64,51c0,0,16-1,24.13-11.33,0,0,2.9,22.39,1.83,32.16s11-22.77,5-46.62C499.64,25.15,486.17,13.51,480.08,23.76Z"/><path class="cls-12" d="M457.1,2.54S430.65,5,420.69,14.71c0,0,16.87-3.75,23.72-3.57,0,0-8.36,7.53-11.25,16.64,0,0,7.6-10.54,27.52-12.27a19.83,19.83,0,0,0-6.82,10S469.51,16.72,486,17c0,0-1.88,4-4.22,9.79,0,0,11.68-3.65,14.15-8.34a50,50,0,0,1,4.88,20.08s3.89-10.54,3.14-17.44c0,0,5.24,5.48,8.31,18.33a25.48,25.48,0,0,0-1.9-9.84c-5.85-12.17-2.52-26.08-2.52-26.08-.63,1.45-3.7,3.33-3.7,3.33C503.59,2.94,507.63,0,507.63,0a232.24,232.24,0,0,1-38,1c-9.94-.52-22.78-.8-34.34,2C449,1.18,457.1,2.54,457.1,2.54Z"/><path class="cls-13" d="M443.68,72.07s-.92,11.63-7.58,15.72-1.58,6.77,1.74,7.69,3.61,1.07,3.55.69-1.2-.84-2.34-1.58c-1.69-1.11-3.5-2.24-1.11-4.11C442,87.36,443.79,87.45,443.68,72.07Z"/><path class="cls-8" d="M458.93,65.11a51.18,51.18,0,0,1,15.12.55c8.69,1.54,8.56,2.74,8.56,2.74s-9.91-.45-14.18-.45a74.12,74.12,0,0,0-10.23,1S456.13,66.17,458.93,65.11Z"/><path class="cls-8" d="M425.78,74.14c-.15,2.88,3.11,5.4,5.92,5.55a5.16,5.16,0,0,0,5.36-5c.15-2.88-.56-5.26-4.81-5.49S425.93,71.25,425.78,74.14Z"/><circle class="cls-10" cx="433.17" cy="72.81" r="1.67" transform="translate(337.72 501.56) rotate(-86.99)"/><path class="cls-8" d="M440.32,64.13a51.19,51.19,0,0,0-15.09-1c-8.8.62-8.8,1.83-8.8,1.83s9.9.59,14.15,1a74.08,74.08,0,0,1,10.06,2.1S443,65.48,440.32,64.13Z"/><path class="cls-14" d="M432.06,101.1s5.8,4.7,10.48,5.42,13.36-1.76,17.49-6.24c0,0-5.52,8.49-14.88,8.25S432.79,102.55,432.06,101.1Z"/><path class="cls-2" d="M483.79,84.83s-4.44-3.15-11.29-.74-6.66,5.37-6.66,5.37,4.81-3.89,9.62-4.26S483.79,84.83,483.79,84.83Z"/><path class="cls-15" d="M432.61,87.25s-2.35-4.56-9-5-7.77,2.31-7.77,2.31,5.62-1.68,9.76-.17S432.61,87.25,432.61,87.25Z"/><path class="cls-16" d="M431.72,137.18s7.87,11.58,19.78,12.27S472.57,140,472.57,140l2.13.36s-7.05,14.12-24.72,12.2-20.88-15.17-20.88-15.17S431,137.27,431.72,137.18Z"/><path class="cls-17" d="M496.36,220.11c-3.61-1.66,3.61-55.79,3.61-55.79s-9.71,41.08-11.94,60.24,1.95,38.31,1.8,44.83,7.36,11.52,6.66,12.63-15.44,3.88-7.22,8.33c3.33,1.8-2.36,8.88-10.41,10.69s-47.74,5.55-66.9,2.64-15.82-6.66-7.22-13.88-3.19-5.41-6.24-8.46-1.94-5.41-1.94-5.41c14.16-7.08,10.69-38.58,10.69-60.24s-4.44-52.19-4.44-52.19.83,31.64-.83,35.53-4.16,13.88-16.38,10.55c-7.93-2.16-14.56-10.63-18.25-16.32q-.76,1.34-1.51,2.68s5.13,9.54,12.08,15.15,18.25,6,18.25,6l8.2-14c0,28,.06,55.58-.29,57.26a34.57,34.57,0,0,1-4.37,10.35c-1.6,2.37-6.3,5.31-5.64,7.32s4.51,6,4.92,7.66-5.29,11.39-5.47,11.93,5.87,6.35,16,7.35,48.42,3.85,58.89,2,28.65-6.06,30-7.61-1.3-6-2.47-8.57,3.08-6.7,3.41-8.9-5.3-6.44-5.79-12.19-4.62-24.21-3.55-31.92c.34-2.42.9-7.81,1.58-14.47,3.62.18,9.11.3,12.54-.34,5.47-1,22.55-14.05,22.55-14.05-.19-.7-.47-1.62-.83-2.74C517.86,215.46,499.3,221.46,496.36,220.11Z"/><path class="cls-1" d="M509.07,261c-.82,6.34-16.46,39.92-16.46,39.92s-8.12.06-9.62,1.32-2.9,9.51-4.56,11-3.67,3.87-3.67,3.87,3.66,6.16,2.79,9.71-1.42,5.17,1,5.1,5-3.06,5.38-5.95-.74-4.38.14-6.54a23.34,23.34,0,0,1,1.37-2.95s2.57,7.46,6.77,10.47a13.54,13.54,0,0,0,8.56,2.54s6.06-18.85,7-21.83,13.57-39.94,14.95-43c0,0-2.46-3.81-5.6-4.74S509.07,261,509.07,261Z"/><path class="cls-2" d="M498,322.54c-5.27.28-9.25-4.16-10.36-5.92a10.25,10.25,0,0,1-1.29-4.07s-4.26,5.18-4.26,7.59-1.66,3-3,2.41c-1-.43-3-3.66-3.28-6.69-.66.72-1.12,1.26-1.12,1.26s3.66,6.16,2.79,9.71-1.42,5.17,1,5.1,5-3.06,5.38-5.95-.74-4.38.14-6.54a23.34,23.34,0,0,1,1.37-2.95s2.57,7.46,6.77,10.47a13.54,13.54,0,0,0,8.56,2.54l4.5-14C503,319.12,500.36,322.41,498,322.54Z"/><path class="cls-2" d="M492.61,300.88a55.32,55.32,0,0,0-7.2.53,35.18,35.18,0,0,1,9,1.13,40.93,40.93,0,0,0,3.05-6.66c1.46-3.89,11.45-26.56,13.7-33.39.11-.34.73-1.88.28-2.59-.3-.48-2.4,1.06-2.4,1.06C508.25,267.3,492.61,300.88,492.61,300.88Z"/><path class="cls-18" d="M198.77,500.6c.54-2.17,12.65,3.82,12.65,3.82s.43,4.21,4.91,15.71c1.28,3.29,4.53,11.39,8.12,16.71,3.33,4.92-8.3,5.74-11.76,5.21-4.44-.67-9.74-7.14-11-10.2l-.72,5.42-2-.29-1.59-17.86C196.8,514.46,198.32,502.43,198.77,500.6Z"/><path class="cls-19" d="M224,536.06c-3.62,3.72-10.9,2.54-13.5,1-3.25-1.87-5.37-6.87-8.87-9.5-2.28-1.71-3.66-8.25-4.34-12.6a30.42,30.42,0,0,0,.07,4.11L198.9,537l2,.29.72-5.42c1.3,3.06,6.61,9.52,11,10.2,3.47.53,15.09-.29,11.76-5.21Z"/><path class="cls-18" d="M179.3,501.21c-1.2-1.89-11.26,2.16-11.26,2.16s-4.92,18.42-19.24,29.12c-5.29,4-4.26,8.67,7.45,8.43s15.41-2.19,17.12-4.48a14.74,14.74,0,0,0,2.81-6.7l.7,8.39h2.25l.57-18.85C180.23,514.63,180.65,503.34,179.3,501.21Z"/><path class="cls-19" d="M173.21,532.6c-2.12,4.63-12,5.5-20.75,5.5-3.63,0-5.53-1-6.52-2.19-1,2.81,1.94,5.18,10.32,5,11.71-.24,15.41-2.19,17.12-4.48a14.74,14.74,0,0,0,2.81-6.7l.7,8.39h2.25l.53-17.53a16.27,16.27,0,0,1-3,5.13C173.83,528.85,175.33,528,173.21,532.6Z"/><path class="cls-20" d="M217.18,400.8c.77-9,19.95-85.16,12.23-102.91-4.14-.95-38.8-15.5-38.8-15.5s1.93,108.42,3.47,120.17-.21,17.89,1.33,40,5,49.53,3.94,57.24.35,18.68,2.54,22.28c3.18,5.21,6.57,10.52,12.92,7.74,5.28-2.31-4.79-26.7-4.79-36s8-45.08,9.3-57.69C221,420.13,216.41,409.78,217.18,400.8Z"/><path class="cls-20" d="M182.74,413.66c-2.29-9.84-5.55-16.39-1.77-48.27,1.94-16.33,4.24-82.22,4.24-82.22l-41.8,1.23s-.71,26.75,1.67,50.5,8.3,46.31,9.67,53c6.67,32.67,7,55,7.67,63.33s6.5,42.21,5.05,50.31c-1.25,7-9.26,20-9.84,25s4.48,6.7,10.7.77,12.7-12.72,9.81-27.23C176.19,490.23,187.58,434.48,182.74,413.66Z"/><path class="cls-21" d="M199.33,475.48c-1-10-2.75-50.5-2.25-56s.75-22.25,2.75-34.75c1.56-9.73,16.59-12.79,23.18-13.67,5.23-26.32,11.35-61.77,6.4-73.16-4.14-.95-38.8-15.5-38.8-15.5s1.93,108.42,3.47,120.17-.21,17.89,1.33,40,5,49.53,3.94,57.24c-.12.87-.21,1.79-.27,2.73C201.94,492.13,200,482.25,199.33,475.48Z"/><path class="cls-21" d="M185.21,283.17l-41.8,1.23s-.71,26.75,1.67,50.5a332.33,332.33,0,0,0,5.64,34.94c3.87,2.49,8.89,5.14,13.61,5.89,9.5,1.5,8.75,9.75,10.75,20.25s7.33,20.92,6.75,28.25c-.79,10-4.5,56.25-4.75,67.5a48.76,48.76,0,0,0,1.7,13.13,36.37,36.37,0,0,0-.64-4.8c-2-9.82,9.44-65.58,4.59-86.39-2.29-9.84-5.55-16.39-1.77-48.27C182.9,349.06,185.21,283.17,185.21,283.17Z"/><path class="cls-22" d="M143.56,257s-9.14,16.39-8.48,46.33a259.61,259.61,0,0,0,8,56.43s8.42,9.36,42.14,10.12c36.67.82,46.85-14,46.85-14s7.36-30.71,6.67-52.92c-.67-21.4-5.72-40.34-10.86-49.23Z"/><path class="cls-23" d="M189.08,278.06c23.17-1.17,37.88-7.08,43.14-14.28a56.67,56.67,0,0,0-4.33-10.05L143.56,257a51.27,51.27,0,0,0-3.26,7.93C147.74,271.44,160.43,279.5,189.08,278.06Z"/><path class="cls-24" d="M143.23,60.89s5.33,40,2.67,56.33c-3.22,19.72-14,34.67,4,44s45.33,9.33,65.33,5.33,32-8.33,25.33-28.33-3.21-49.49,2-68.75C217.89,61.48,143.23,60.89,143.23,60.89Z"/><path class="cls-20" d="M275,322.7a47.66,47.66,0,0,1-3.89-7.35c-.8-2.91-3.72-6.87-4.35-8-.88-4.94-3.59-39.05-5.77-50.55a.77.77,0,0,0,0-.14c-.66-2.63-14.81-71.87-16.24-81.35-.2-1.35-17.76,6.91-16.79,10.2,3.05,10.37,18.83,68.53,19.29,70.88.74,3.13,6.21,51.51,6.21,51.51s-7.25,7.42-7.55,9.24,1.13,8.37.47,10.53a59.38,59.38,0,0,0-1.28,6.51s4,3.47,5.08,7,1.39,5.18,3.4,3.91,1.52-5.19.4-7.88-1.54-2.7-1.87-5,2.8-5.29,2.8-5.29a32.85,32.85,0,0,0,2.84,2.11,18.9,18.9,0,0,1,3.22,7c-3.06,9.67-2.66,8.23-3.24,11.66-.68,4.06.21,7.24,2.5,7.88,1.53.43,3-6,4.13-7.63a6.82,6.82,0,0,0,3.62-.87c1.54-1.06,1.57-4.32,2.5-6.12,3.94-.92,3.62-2.62,3.62-2.62S276.69,325.17,275,322.7Z"/><path class="cls-21" d="M275,322.7a22,22,0,0,1-1.79-3c.16,2.07,2.8,5.52.55,7.47-1.3,1.12-1.81.25-2.73.86a11,11,0,0,0-1.67,2.19c-.64,1.17-2.51,1.31-3.46,1.78s-.08,1.72-3.75,2.31c-2.37-2.17-1.61-4.38-4.18-7-1.43-1.44-2.72-2.84-4.43-2.65-3.68.41-7.13-1.1-6.41-5.54,1.21-7.49,8.08-9.79,8.3-12.21.36-3.87-2.94-40.49-5.09-48.43s-9.16-36.15-9.16-36.15-7.23-26.78-4-29.34c2.24-1.8,5.86-3.78,8.94-10.1-.13-.92-1.24-6.85-1.34-7.52-.2-1.35-17.76,6.91-16.79,10.2,3.05,10.37,18.83,68.53,19.29,70.88.74,3.13,6.21,51.51,6.21,51.51s-7.25,7.42-7.55,9.24,1.13,8.37.47,10.53a59.38,59.38,0,0,0-1.28,6.51s4,3.47,5.08,7,1.39,5.18,3.4,3.91,1.77-5.56.65-8.25-1.54-1.95-1.87-4.25,2.55-5.67,2.55-5.67a32.85,32.85,0,0,0,2.84,2.11,18.9,18.9,0,0,1,3.22,7c-3.06,9.67-2.66,8.23-3.24,11.66-.68,4.06.21,7.24,2.5,7.88,1.53.43,3-6,4.13-7.63a6.82,6.82,0,0,0,3.62-.87c1.54-1.06,1.57-4.32,2.5-6.12,3.94-.92,3.62-2.62,3.62-2.62S276.69,325.17,275,322.7Z"/><path class="cls-20" d="M121.08,172.72s-22.77,37.4-28,39.25c-4.18,1.49-30-43.54-30-43.54a92.08,92.08,0,0,1,1-9.87s1.42-9.66-1.86-12.84c-3.92-3.79-7.06-4.38-9.35-5.86a18.92,18.92,0,0,1-4.67-5.46c-1-1.81-1.59-4.93-3.17-4.92a3.65,3.65,0,0,0-2.82.93c-1.51,1.35-1.58,3.89-1.14,6.79.65,4.29,5.19,8.51,5.19,8.51s-.66,1.44-5,.89c-5-7.07-14.34-13.22-17.23-14.13a3.36,3.36,0,0,0-3.21.65,15.85,15.85,0,0,0-4-1.77c-2.79-.88-4.12,1.69-4.37,2.15a6.48,6.48,0,0,0-5-1,2.25,2.25,0,0,0-1.8,2.64A6.19,6.19,0,0,0,4,134.64a4.52,4.52,0,0,0-3.55.79c-1.48,1.13.75,3.06,2.09,4.67,3.59,4.29,7.79,7.09,14.33,11.71a52.31,52.31,0,0,1,9.45,8c4.3,4.88,8.44,10.94,14.88,13.43a45.46,45.46,0,0,0,9.56,2.8C57,187,82.13,236.36,90,235.65c16.82-1.51,47.82-52.91,48.4-53.68Z"/><path class="cls-21" d="M121.08,172.72l-3.57,5.6c1.31,9.29,11.31,13.16,11.31,13.16-2.22,3.05-30.23,42.51-37.45,40.84s-34.7-47.88-39.14-59.13c-2.36.56-5.27-.14-9.16-1.11-3.2-.8-10-6.43-15.15-10.52,3.94,4.35,7.64,9.5,13.33,11.69a45.46,45.46,0,0,0,9.56,2.8C57,187,82.13,236.36,90,235.65c16.82-1.51,47.82-52.91,48.4-53.68Z"/><path class="cls-21" d="M34.09,158.48a54.73,54.73,0,0,1,3.52-6.38c2.41-3.52,4-4.07,5.09-4s3.07,0,3.52,1.67c1.2,4.53,6.57,9.44,6.57,9.44A41.89,41.89,0,0,1,48,150.62c-1.48-4.07,2.59-5.27,2.59-5.27s-5.37-2.78-7.4-6.48c-1.26-2.3-1.39-5.74-1.3-8a3.72,3.72,0,0,0-.35.55l0,.05a4.47,4.47,0,0,0-.25.59l0,0a8,8,0,0,0-.33,2.44c0,.21.08,1.92.23,2.67.08.41.16.83.29,1.24,1.2,3.83,4.89,7.27,4.89,7.27s-.66,1.44-5,.89v0a15.13,15.13,0,0,0-2.24,1.52c-2-2.42-9.4-10.9-18-15.14l-.21.15c-.27-.17-.54-.32-.81-.47,1.88,1.35,7.72,5.56,11.63,8.9a34.42,34.42,0,0,1,6.5,7.32,15.41,15.41,0,0,0-1.67,1.86c-2.6-2.62-14.42-14.21-23.57-17.9a6.22,6.22,0,0,0-.41.67,11,11,0,0,0-1.39-.67c3.9,1.83,11.7,6.58,24.72,18.83a10.83,10.83,0,0,0-1,2,6,6,0,0,0-.23.84C18.72,141,10.13,136.29,5.7,134.75a2.33,2.33,0,0,0,0,.39c4.2,2,12.47,7.3,28.66,20.6C34.2,157.09,34.09,158.48,34.09,158.48Z"/><path class="cls-25" d="M222.42,209.23c2.5-6.25,3-23.67,3-23.67l3.5,7.17a35.35,35.35,0,0,0,11.81-4.33c6.75-3.75,6.86-9,6.86-9-2.33-10.83-10.08-23.42-13.25-26.92-1.85-2-11.55-9.23-22.62-11.37-6.06-1.17-11.46-2.71-22.12-3.37s-12.5,0-21.5,0c-5.2,0-26.09,3.38-27.27,5.52l0-.06c-.2-.33-9.73,11.8-22.48,29a29.48,29.48,0,0,0,7.5,13.25c5.54,5.8,10.77,5,10.77,5l9.5-10.5a42.64,42.64,0,0,0-4,19.25c.17,7.81,5.29,12.2,8,19.33,1.79,4.64,3.75,9.8,2.63,14-4.67,17.42-12,23.75-11.19,26.58s8.52,8.83,19.36,11.58S194,274,204.45,272.12s25.88-10.2,26.36-12.22c.75-3.17-10.16-12.76-12-29.42C217.75,220.56,219.92,215.48,222.42,209.23Z"/><path class="cls-20" d="M208.33,142.73c-.75-.62-14.81-.45-14-9.11s5.06-22.34,5.06-22.34l-20.33-1.07s2.79,14,2.7,22.75-13.63,5.51-14.79,6.45,3.79,26.73,17.46,27.45S209.08,143.35,208.33,142.73Z"/><path class="cls-21" d="M196.11,123.64c1.49-6.49,3.31-12.37,3.31-12.37l-20.33-1.07s2.79,14,2.7,22.75c0,.08,0,.16,0,.24a20.75,20.75,0,0,0,3.65-4.22C187.17,126.14,191.77,124.54,196.11,123.64Z"/><path class="cls-24" d="M148.89,83.23S137,62.6,142.56,31.2,181.86-.17,203.66,1s36,5.88,40.4,28.76C246.58,43,243.4,76.52,239.51,80s-13.11,2.65-13.11,2.65Z"/><path class="cls-20" d="M227.07,80.48s9.7-8.39,14.86-4.22,2.28,13.09-.73,17.38-16.47,6.73-16.47,6.73Z"/><path class="cls-21" d="M240.45,75.43c-5.33-1.9-13.38,5-13.38,5l-2.34,19.89s1.31-.24,3.21-.7c1.33-6.77,3.69-14.46,5.15-17.4A14.89,14.89,0,0,1,240.45,75.43Z"/><path class="cls-20" d="M155.61,72.26s-6.5-9.9-12.14-7.51-5.33,11.06-3.75,15.63,12.94,10.15,12.94,10.15Z"/><path class="cls-21" d="M145,64.39c5.22-.34,10.61,7.87,10.61,7.87l-2.95,18.27S151.56,90,150,89.1c.53-6.35.37-13.78-.18-16.76A13.75,13.75,0,0,0,145,64.39Z"/><path class="cls-20" d="M151.29,41.29s.62,34-.42,43.43,3.57,18.56,7.86,23.17c4.67,5,10.83,8.83,20.29,12.5,21,3,42.89-14.28,46.79-19.92s7.79-56.16,7.79-56.16.65-23-37.21-27.25S151.45,34.82,151.29,41.29Z"/><path class="cls-26" d="M179.64,112.09c-1.22-3.22.35-3.13-.33-4.37-.41-.75.65-3.93-.62-4.89-.28-.21-1.44-.88-1.46-1.32,0-1.11,1.46-1.53,1.25-2.64-.82-4.31-2.64-3.64-5.83-6.31s1.73-3.72,4.33-7.25c3.25-4.42,4.16-16,2.32-33.84-1.07-10.36,6.49-25.52,11.93-34.82-33.33-1.73-39.78,18.47-39.93,24.64,0,0,.62,34-.42,43.43s3.57,18.56,7.86,23.17c4.67,5,10.83,8.83,20.29,12.5.46.07.92.11,1.37.16C178.89,117.55,180.41,114.12,179.64,112.09Z"/><path class="cls-24" d="M214.78,35.55s-19.51,11.58-33.94,14.71-37.17,2.13-37.17,2.13S135.58,15.82,170,10.59s53.12,8.34,53.12,8.34S221,30.13,214.78,35.55Z"/><path class="cls-24" d="M216.14,23.76S205.21,42.2,215.56,53s11.33,13.42,12.58,23.08S246,60.47,235.71,25.15C235.71,25.15,222.24,13.51,216.14,23.76Z"/><path class="cls-27" d="M179.81,74.79a18.28,18.28,0,0,1-6.12,12.56c-4.87,4.25-2.56,5.45.29,7.38s3.54,1.82,3.49,1.45a4.71,4.71,0,0,0-1.9-2.2c-1.69-1.11-2.46-2.5-.58-4.75C178.23,85.33,181.25,81.35,179.81,74.79Z"/><path class="cls-28" d="M194.75,99.79c-2.77.94-10.45-.48-12.25-.62s-1.93.64-3.31.88-1.43-1-2.72-.92c-1.13,0-1.9.85-3.9.92-1.65.05-1.69-1.37-2.62-.62s-.1,1.54.25,2a15.8,15.8,0,0,1,2.37,3.56c.67,1.52,1.38,6.63,11.69,6.25s10.64-8.32,12.31-9.37S197.69,98.79,194.75,99.79Z"/><path class="cls-29" d="M191.37,107c-.48-.69-1.64,1.05-6.79,1.63-1.54.17-2.45.29-2.43.87s1.7.93,3,.82C187.59,110.11,191.85,107.68,191.37,107Z"/><path class="cls-29" d="M191.74,106.25a1.25,1.25,0,0,1,1.16-.77c.56,0,.56.85-.14,1.21S191.49,106.68,191.74,106.25Z"/><path class="cls-10" d="M171.81,101a82.66,82.66,0,0,0,12.4.92c5.09-.26,11.1-.79,11.1-.79S192,108,181.89,107.77C173.74,107.57,172.37,102.46,171.81,101Z"/><path class="cls-8" d="M199.93,68a22.64,22.64,0,0,1,9.51-2.34c5.12,0,5.36,2.11,7.07,1.64S213,63,208.34,63.21s-10.85,1.88-10.61,3.51S198.59,68.6,199.93,68Z"/><path class="cls-8" d="M212.14,71.31c-.25-.75-2.5-.25-6.12-.25a4,4,0,0,0-.82.06l-.34,0c-4.3.69-5.21,2.07-5.36,5a5.16,5.16,0,0,0,4.81,5.49c2.81.15,6.31-2,6.46-4.89a5.93,5.93,0,0,0-1.15-3.88C210.64,72.49,212.32,71.84,212.14,71.31Z"/><circle class="cls-10" cx="207.07" cy="74.8" r="1.66" transform="translate(121.58 277.69) rotate(-87.01)"/><path class="cls-8" d="M173.06,68a22.63,22.63,0,0,0-9.51-2.34c-5.12,0-5.36,2.11-7.07,1.64s3.54-4.33,8.17-4.1,10.85,1.88,10.61,3.51S174.4,68.6,173.06,68Z"/><path class="cls-8" d="M160.84,71.31c.25-.75,2.5-.25,6.12-.25a4,4,0,0,1,.82.06l.34,0c4.3.69,5.21,2.07,5.36,5a5.16,5.16,0,0,1-4.81,5.49c-2.81.15-6.31-2-6.46-4.89a5.93,5.93,0,0,1,1.15-3.88C162.35,72.49,160.66,71.84,160.84,71.31Z"/><circle class="cls-10" cx="165.91" cy="74.8" r="1.67" transform="translate(-3.68 8.76) rotate(-2.99)"/><ellipse class="cls-30" cx="213.39" cy="92.89" rx="13.49" ry="13"/><ellipse class="cls-31" cx="160.56" cy="91.77" rx="8.99" ry="9.96"/><path class="cls-32" d="M176.89,10.23q-.92.08-1.83.2c-3.12.66-9.62,3.5-14.5,15.47,0,0,18-11.33,35.67-12,0,0-3.33,14.33-18.33,25.33,0,0,30.67-7.33,41-18.33,0,0-2,18.33,7,29.33,0,0-1-20,1-25.67,0,0-.33,8,6.33,16.67,0,0-2.67-13.33-1-20.67,0,0,9.33,5.33,10.33,27.67A20.17,20.17,0,0,0,244.77,44a71.38,71.38,0,0,0-.71-14.24C239.71,6.85,225.47,2.11,203.66,1,184-.06,155-.17,145,22.83c7.13-4.67,18.47-10.91,30-12.41A7.44,7.44,0,0,1,176.89,10.23Z"/><path class="cls-33" d="M230.33,188.73c-1.5,0-9-12-9-12s1.5,15.5-5.25,22-23.25,3-33.5,3-22.25,3-31.25-.25-3.25-25.5-3.25-25.5-7.5,9.75-14.75,8.75c-5.34-.74-11.08-9.61-13.74-14.23l-1.28,1.73a29.48,29.48,0,0,0,7.5,13.25c5.54,5.8,10.77,5,10.77,5l9.5-10.5a42.64,42.64,0,0,0-4,19.25c.17,7.81,5.29,12.2,8,19.33,1.79,4.64,3.75,9.8,2.63,14-4.67,17.42-12,23.75-11.19,26.58s8.52,8.83,19.36,11.58a112,112,0,0,0,43.54,1.39c10.47-1.89,25.88-10.2,26.36-12.22.75-3.17-10.16-12.76-12-29.42-1.08-9.92,1.08-15,3.58-21.25s3-23.67,3-23.67l3.5,7.17a35.35,35.35,0,0,0,11.81-4.33c6.75-3.75,6.86-9,6.86-9-.12-.54-.26-1.09-.4-1.64C244.18,186.17,231.66,188.73,230.33,188.73Z"/></g></g></svg>