<svg xmlns="http://www.w3.org/2000/svg" viewBox="0 0 530.88 542.4"><defs><style>.cls-1{fill:#c2c2c2;}.cls-2{fill:#3e3e3e;}.cls-3{fill:#676767;}.cls-4{fill:#6d6d6d;}.cls-5{fill:#ccc;}.cls-6{fill:silver;}.cls-7{fill:#575757;}.cls-8{fill:#505050;}.cls-9{fill:#5e5e5e;}.cls-10{fill:#929292;}.cls-11{fill:#9d9d9d;}.cls-12{fill:#2e2e2e;}.cls-13{fill:#bebebe;}.cls-14{fill:#393939;}.cls-15{fill:#404040;}.cls-16{fill:#b0b0b0;}.cls-17{fill:#3d3d3d;}.cls-18{fill:#8a8a8a;}.cls-19{fill:#aeaeae;}.cls-20{fill:#444;}.cls-21{fill:#4e4e4e;}.cls-22{fill:#a5a5a5;}.cls-23{fill:#a6a6a6;}.cls-24{fill:#7b7b7b;}.cls-25{fill:#aaa;}.cls-26{fill:#afafaf;}.cls-27{fill:#a8a8a8;}.cls-28{fill:#5f5f5f;}.cls-29{fill:#606060;}.cls-30{fill:#2f2f2f;}.cls-31{fill:#303030;}.cls-32{fill:#8b8b8b;}.cls-33{fill:#7d7d7d;}.cls-34{fill:#b2b2b2;}.cls-35{fill:#9f9f9f;}.cls-36{fill:#fafafa;}.cls-37{fill:#b5b5b5;}.cls-38{fill:#9a9a9a;}.cls-39{fill:#efefef;}.cls-40{fill:#ababab;}.cls-41{fill:#fefefe;}.cls-42{fill:#8c8c8c;}.cls-43{fill:#f3f3f3;}.cls-44{fill:#f1f1f1;}.cls-45{fill:#a0a0a0;}</style></defs><title>Pessoa pb</title><g id="Camada_2" data-name="Camada 2"><g id="Objects"><path class="cls-1" d="M29.67,163.26c-1.38-1-2.19-2.51-3.33-3.73A67.73,67.73,0,0,0,15,150.4c-4.93-3.4-9.73-6.92-13.45-11.7A11.68,11.68,0,0,0,0,137.28v-1.44a8.66,8.66,0,0,1,4.58-1,1.48,1.48,0,0,0,1.48-.59c1.43-2.17,3.43-1.94,5.52-1.32.46.14.9.32,1.34.49a4.18,4.18,0,0,1,2.86,1,122,122,0,0,1,19.93,16.17c.7.71,1.33,1.36.79,2.49-.86,1.81-1.85,1.9-3.66.44-7.19-5.8-14.37-11.62-20.31-15.07,5.91,3.5,13.17,9.22,20.29,15.12,2.08,1.72,2.51,1.74,3.72-.67a18.64,18.64,0,0,1,2.55-3.42c1.8-2.2,4.19-2.07,6.62-1.76a1.77,1.77,0,0,1,1.54,1.57c.28,1.84,1.38,3.31,1.84,4.5a34.7,34.7,0,0,1-1.49-3.21c-.29-.8-.79-1.76-.48-2.41,1.28-2.65-.3-4.17-1.95-5.73-3.15-3-3.67-6.81-3.35-10.88A3.33,3.33,0,0,1,44,129.8a2.29,2.29,0,0,1,2.9,1,25.46,25.46,0,0,1,1.42,2.77,15.15,15.15,0,0,0,7.59,7.66,36.33,36.33,0,0,1,4,2.22,9.65,9.65,0,0,1,4.9,8.29,32.29,32.29,0,0,1-.28,7.17,80.93,80.93,0,0,0-.83,8.34,5.45,5.45,0,0,0,1.08,3.35c3.82,6.37,7.64,12.75,11.53,19.08A199.93,199.93,0,0,0,87.79,206.8a21.36,21.36,0,0,0,3.78,4.31c1.43,1.09,2,1.07,3.37-.11a31.48,31.48,0,0,0,4.26-4.86c5.46-7,10.2-14.52,15.06-21.94,1.31-2,2.55-4.06,3.82-6.09.87.18,1,.94,1.24,1.61a17.23,17.23,0,0,0,8.11,9.71c2.77,1.65,3,2.43,1,5.07a321.08,321.08,0,0,1-22.8,28.71,67.1,67.1,0,0,1-7.34,7.21c-.5.4-1,.81-1.52,1.17-4,2.72-6.43,2.52-9.64-1.06a110.77,110.77,0,0,1-8.82-11A393.88,393.88,0,0,1,52.77,176.7a3.38,3.38,0,0,0-2.87-2.2c-6.58-.42-11.85-3.53-16.54-7.91A23.63,23.63,0,0,0,29.67,163.26Z"/><path class="cls-2" d="M507.84,0c-.37.92-1.28,1.4-1.79,2.21-.78,1.25-1.71,2.46-1.36,4.16,1.3-.13,1.88-1.33,2.91-1.68a2.75,2.75,0,0,1,.13,2.17c-1,8.07-.27,15.89,3.26,23.33a17,17,0,0,1,1.38,5.54,43,43,0,0,1-.16,12.36c-1.74-.72-1.28-2.33-1.17-3.54.49-5.63-1.12-10.75-3.45-15.74a12.31,12.31,0,0,0-.89-1.7c-.26-.39-.39-.88-1-1.19a22,22,0,0,0-.9,4.41c-.43,2-1,4-1.6,6-.27.89-.65,1.72-1.7,1.74s-1.31-.92-1.56-1.8c-.48-1.7-.53-3.47-.9-5.2s-.76-3.44-1.23-5.13c-1.23-4.43-1.76-4.64-5.54-2.16a35.9,35.9,0,0,1-7.84,3.57A2,2,0,0,1,482,27a2,2,0,0,1-.28-2.24c.4-1,.78-2.1,1.23-3.12,1.13-2.54.49-3.42-2.31-3a78.9,78.9,0,0,0-8.49,1.54,96.78,96.78,0,0,0-14.69,5.17c-1.07.47-2.22,1.29-3.29.1s-.21-2.26.27-3.33a27,27,0,0,1,1.33-2.55c.3-.52,1-1.06.49-1.67s-1.21-.12-1.82,0c-6.7,1.57-13,4-18.09,8.87-.71.67-1.48,1.42-2.52.75s-.81-1.77-.38-2.78A40.27,40.27,0,0,1,439.6,15c.4-.48,1.07-1,.76-1.64-.39-.84-1.25-.47-1.94-.38q-5.83.76-11.59,1.92a21.58,21.58,0,0,1-3.08.5,1.85,1.85,0,0,1-2-.95c-.44-1,.06-1.68.78-2.29a26.81,26.81,0,0,1,7.92-4.44c7-2.74,14.12-4.9,21.76-4.78-3.35.07-6.65.71-10,.59-1,0-2.17.19-2.59-1.18A58.12,58.12,0,0,1,451.41.88C459.63.35,467.82,1,476,1.3A211.23,211.23,0,0,0,503.5.45c.74-.53,1.69.13,2.42-.45Z"/><path class="cls-3" d="M530.88,534.24c-.46,2.63-2.52,3.56-4.7,4.22a37.57,37.57,0,0,1-21.51.38c-1.54-.44-3.07-.91-4.56-1.49-6.7-2.63-13.38-5.28-20.21-7.55a19.82,19.82,0,0,1-4.54-2.16,4,4,0,0,1-2.09-2.5c-.46-3.16.07-3.66,2.84-2.59,8.34,3.23,17,5.58,25.15,9.32,4.41,2,8.83,3.73,13.77,3.56s9.57-.81,13.53-4a1.74,1.74,0,0,1,1.55-.44c.4.14.58.5.78.83Z"/><path class="cls-4" d="M212.64,542.4c-4.39-1.91-7.56-5.18-10.19-9.33-.95,1-.73,2.07-.9,3-.13.68-.27,1.27-1.16,1.17a1.18,1.18,0,0,1-1.24-1.17c-.21-2.38-.52-4.75-.68-7.14-.22-3.34-.81-6.65-.73-10-.23-.6-.56-1.31.33-1.55.6-.17,1,.38,1.23.92a2.46,2.46,0,0,1,.26.67c.71,6.91,6.14,10.83,10.16,15.53,3.09,3.62,7.49,3.49,11.76,2.05,1.11-.37,2.1-.79,3.12.09,1.28,2.28,1,3.46-1.42,4.42-1.38.56-2.86.89-4.29,1.33Z"/><path class="cls-5" d="M530.88,531.84l-.55-.41c-1-1.06-1.06-2.06.17-3a.9.9,0,0,1,.39.06Z"/><path class="cls-6" d="M505.92,0c-.7.72-1.58.48-2.42.45q0-.22,0-.45Z"/><path class="cls-7" d="M474.73,140.68a18.77,18.77,0,0,1,5.17.89c7.56,1.71,15,3.71,22.4,6.14a6.52,6.52,0,0,1,4.5,4.4c6.51,17.94,13.3,35.78,19.38,53.87.15.45.24.92.35,1.38a32.65,32.65,0,0,1-8.65,6.93A54,54,0,0,1,502,221a18,18,0,0,1-1.88.39c-3.89.49-5.41-.73-5.47-4.63a207.75,207.75,0,0,1,3.07-37.52c.34-2,.74-4,1-6.07-1.6,11.29-4.12,22.4-6.27,33.59s-4.06,22.35-3.6,33.78c.32,7.91,1.26,15.76,2.15,23.62a8,8,0,0,1,.18,1.43,17.47,17.47,0,0,0,4.86,13.34c2.47,2.77,2,4-1.41,5.48a32.45,32.45,0,0,0-3.54,1.47c-1.76,1-2,2.09-.9,3.73,1.8,2.68,1.78,4.16-.31,6.6a18.94,18.94,0,0,1-10.21,5.93c-5.76,1.43-11.68,1.86-17.56,2.37-12.9,1.12-25.84,1.06-38.78,1-.81,0-1.62,0-2.43,0-5.95-.8-12-.78-17.77-2.81a11.86,11.86,0,0,1-3.76-1.86c-2.37-1.93-2.76-3.91-.77-6.2a48.32,48.32,0,0,1,5.47-5.37c.92-.77,2-1.58,1.63-3s-1.52-1.55-2.6-1.84c-2.67-.71-5.1-1.69-6.51-4.31-1.18-2.19-1-4.1,1-5.6,5.1-3.88,7-9.47,7.94-15.36,1.77-11.1,1.54-22.34,1.13-33.51-.23-6.15-.13-12.3-.37-18.44-.28-7-.89-14-1.6-21-.55-5.43-.59-10.88-1-15,.38,5.83.76,13,.68,20.16a27.38,27.38,0,0,1-3.2,13.11c-3,5.52-7.77,7.88-14,6.7a21.85,21.85,0,0,1-10.32-5.33,48.8,48.8,0,0,1-8.18-9,4.79,4.79,0,0,1-1-3.35,75.33,75.33,0,0,1,4.74-8,318.81,318.81,0,0,1,29.61-39.17,14.84,14.84,0,0,1,8.89-5.14c6.05-1.08,12.09-2.26,18.13-3.4,1.35-.07,2,.86,2.48,1.88,4,7.85,10.87,11.07,19.23,11.91,7,.7,13.27-1,18.63-5.74,1.15-1,2-2.26,3.07-3.35C473.17,141.72,473.67,140.85,474.73,140.68Z"/><path class="cls-8" d="M501.12,329.76a39,39,0,0,1-1.89,10.63c-1.24.68-1.36,2.21-2.41,3.09a13.94,13.94,0,0,1-8.33,3.26,13.19,13.19,0,0,1-2.16-.05c-4.18-.42-5.46.08-5.91,2.27a6.18,6.18,0,0,0,4.34,6.87,8.83,8.83,0,0,1,5.74,5,28.94,28.94,0,0,1,1.71,7.45c.88,6.16.26,12.27-.37,18.39-.31,3,.16,6.06.3,9.09.21,4.47,0,9,.07,13.43,0,4.15,0,8.3.36,12.45s-.39,8.44-.44,12.68c-.08,7.65,1,15.18,1.95,22.72,1.15,9.15,2.71,18.24,4.18,27.34a16.57,16.57,0,0,1-.28,6.19,4.9,4.9,0,0,0,2.61,5.85,11.06,11.06,0,0,1,4.1,4.16c1.35,2.31,0,6.56-3.79,5.85-5.39-1-10.3.69-15.18,2.49-2.71,1-5.47,1.78-8.25,2.53a12.27,12.27,0,0,1-3.81.35c-2.81-.13-4.34-1.74-4.37-4.59a12.76,12.76,0,0,1,.48-3.56c2.38-8.43,1.64-16.95.78-25.46-.78-7.67-2-15.3-2.58-23,0-.39.27-1-.51-1.1a9.66,9.66,0,0,1-.32-1.63c-.18-6.79-.9-13.54-1.51-20.3,0-.55,0-1.11,0-1.67.28-4.59-.47-9.12-1-13.65-.74-6.87-1.53-13.73-2.13-20.61-.91-10.43-2-20.84-3.1-31.26-1-9.71-2.88-19.3-4.09-29-.75-6.05-4-9.53-9.85-10.79a50.55,50.55,0,0,0-12.83-1.51c-.69,0-1.58-.15-1.86.72-.23.7.37,1.23.86,1.59,2.71,2,3,4.77,3,7.88a409.05,409.05,0,0,1-2,42.58c-1,9.38-2.33,18.72-3.13,28.12a18.84,18.84,0,0,0,.22,6.21,68.33,68.33,0,0,1,1.57,15.7c.29,19.94.51,39.88.46,59.82,0,4.66-.22,9.28-2.93,13.38a3,3,0,0,0,.46,3.78c1,1.24,2,2.47,3.05,3.7,2.9,3.49,2.3,5.82-1.91,7.45a6.94,6.94,0,0,0-.65.31,4.89,4.89,0,0,1-3-.53,39.74,39.74,0,0,0-17.36-2.58,24.16,24.16,0,0,1-5.25-.14c-4-2.53-3.95-3.46.11-5.75,2.5-1.41,2.53-2.17.16-3.88-.52-.37-1.06-.72-1.56-1.11-2.45-1.91-2.6-3-1-5.68,2.94-4.83,4.45-10.25,6.09-15.59,2.32-7.55,3.48-15.24,2.34-23.19-.38-2.6,0-5.27-.11-7.91-.13-5.19-.34-10.37-1-15.53a28.18,28.18,0,0,0-3.83-11.52c-2.33-3.81-2.75-8.15-3.2-12.44-.67-6.32-1.33-12.66-.94-18.08a40.08,40.08,0,0,1-1.15,11.69c-.24.86-.22,2-1.66,1.88a66.7,66.7,0,0,1-.36-8.62c-.08-22.15.29-44.29.56-66.44.1-8.23.26-16.47.36-24.7,0-1.16.33-2.42-.59-3.44.91-.49,1.33,0,1.63.8.17,1.2.86,1.71,2,2.15,6.17,2.32,12.63,3.14,19.1,3.94,10.71,1.32,21.47,1.09,32.22,1a14.5,14.5,0,0,0,2.38-.23,24.42,24.42,0,0,1,3.61-.22,33.05,33.05,0,0,0,3.93-.16c.73-.07,1.47-.08,2.2-.1,2.91-.1,5.76-.76,8.65-1,1.53-.14,3.43-.69,4.37,1s-.31,3.17-1.3,4.52a12.32,12.32,0,0,1-2.5,2.57c-1.14.86-1.17,1.78-.29,2.85a18.27,18.27,0,0,1,2.67,4.51c.8,1.87,1,3.68-.12,5.48a2,2,0,0,0-.44,1.1c0,1-.55,2.14.46,2.92s1.81,0,2.67-.34a6.89,6.89,0,0,0,4.31-5.09,7.37,7.37,0,0,0,.13-4.52q0-.36,0-.72c0-1,.1-2.1,1.23-2.32,1.29-.25,1.35,1.13,1.57,1.84,1.52,5,4.4,8.44,9.74,9.37,1.46.26,2.87.29,3.83-1.15A.58.58,0,0,1,501.12,329.76Z"/><path class="cls-9" d="M149.72,363.88c-1.47-.82-2.94-1.62-4.39-2.45a5,5,0,0,1-2.42-3.37q-3.14-12.69-5-25.63a213.58,213.58,0,0,1-2.51-35.59,112.4,112.4,0,0,1,5.25-32.05,5.8,5.8,0,0,1,.43-.84c1.77.68,2.77,2.33,4.26,3.39,7.93,5.61,16.92,8.24,26.4,9.28a114.43,114.43,0,0,0,39.94-2.76,50.48,50.48,0,0,0,12.54-4.67,25.22,25.22,0,0,0,5.59-4.08c.72-.71,1.34-1.64,2.53-1.66a90.92,90.92,0,0,1,4.21,15.93,139.16,139.16,0,0,1,2.37,34.55,241,241,0,0,1-4.47,32.7c-.5,2.5-1.12,5-1.55,7.5a6.76,6.76,0,0,1-2.2,3.86c-1.74,1.67-3.86,2.83-5.69,4.36a8.09,8.09,0,0,1-4.21,3.27c-8.07,3.57-16.65,4.8-25.34,5.53a3,3,0,0,1-2.57-1L182.44,370c-1.45-.62-2.49.78-3.86.76a83.69,83.69,0,0,1-25.94-4.5A8,8,0,0,1,149.72,363.88Z"/><path class="cls-10" d="M142.07,261.12c-.57-2.52.32-4.65,1.61-6.76a81.08,81.08,0,0,0,9-20.32,15.22,15.22,0,0,0,.17-8,48.93,48.93,0,0,0-4.59-11.8c-.66-1.19-1.29-2.4-2-3.52-3.84-5.64-4.31-11.89-3.41-18.39a43.41,43.41,0,0,1,2-8.37,2.45,2.45,0,0,0,.25-2.08c-1.7,1.84-3.3,3.58-4.9,5.32a22.73,22.73,0,0,0-1.57,1.81,3.74,3.74,0,0,1-4.2,1.53c-3.47.91-5.87-.84-8-3.21a40.24,40.24,0,0,1-4.48-4.94c-1.42-2.18-3-4.29-2.34-7.14-.68-1.54-1.43-3.08.36-4.42,1.34-.4,1.86.59,2.43,1.45,1.5,2.27,3.11,4.46,4.81,6.58,4.48,5.59,9,6.14,14.73,1.88a50.39,50.39,0,0,0,4.18-3.59c.67-.62,1.42-1.16,2.35-.6s.89,1.42.7,2.34a53.71,53.71,0,0,0-1,12.87,16.2,16.2,0,0,0,.74,4.48,6.61,6.61,0,0,0,5,4.67,37.37,37.37,0,0,0,13.1.83c5-.52,10-.87,15-1.16a83.57,83.57,0,0,1,11.46.63,69.94,69.94,0,0,0,13.41,0c8.16-.92,11.9-4.87,13.2-13.34a46.37,46.37,0,0,0,.62-7.4c0-1.15-.22-2.6,1.24-3.08s2.1.82,2.79,1.76c1.37,1.87,2.52,3.9,4,5.71,1.88,2.36,3,2.74,5.84,1.83,4.26-1.36,8.14-3.32,10.83-7.1.56-.79,1.19-1.59,2.36-1a7,7,0,0,1-.94,4.79c-.61,1.37-.38,3.08-1.66,4.19-4,1.81-7.63,4.54-12,5.71-1.57.42-2.69-.53-4-.81-1-1.67-1.6-3.6-2.82-5.18-.75.46-.54,1.08-.55,1.6A119.38,119.38,0,0,1,224.54,202a38.4,38.4,0,0,1-2.76,10.15,34.15,34.15,0,0,0-2.8,15.44,47.11,47.11,0,0,0,6.12,20.75c1.47,2.57,3,5.07,4.57,7.61a9.54,9.54,0,0,1,1.73,4.66,7.24,7.24,0,0,1-3.36,3.58C216.41,271.1,204,275,190.31,274.85c-9.45-.07-18.82-.39-28.07-2.46a45.79,45.79,0,0,1-17.53-8A7.84,7.84,0,0,1,142.07,261.12Z"/><path class="cls-11" d="M247.67,178.57a4.86,4.86,0,0,0-1.26,1.43c-3.39,5.1-8.6,7.18-14.24,8.51a2.94,2.94,0,0,1-3.15-1.2c-1.83-2.24-3.39-4.65-5-7a7.19,7.19,0,0,0-1.68-2.11c-.86.73-.57,1.66-.55,2.45a35.57,35.57,0,0,1-1.32,10.67c-2.41,8.22-6.8,10.72-14.5,11.19a91.05,91.05,0,0,1-14.13-.26,93.2,93.2,0,0,0-18.86.18c-5.7.61-11.46,1.3-17.19.15l-.47-.07c-5.76-1-8.27-3.92-8.41-9.81a52.06,52.06,0,0,1,1-13.83,2,2,0,0,0,.06-1.52c-.81-.08-1.18.63-1.62,1.09a26.55,26.55,0,0,1-5.37,4.39c-5.2,3.2-9.05,2.51-12.83-1.14a53.83,53.83,0,0,1-7.14-9.3c-.35-.53-.74-1-1.1-1.56,5.83-8.25,12-16.21,18.3-24.14a9.44,9.44,0,0,0,2-3.19,5.65,5.65,0,0,1,3.31-2.58,102.58,102.58,0,0,1,33.6-4.23,3.24,3.24,0,0,1,1.61.4c1.24,1.41.29,2.12-.9,2.7a10.63,10.63,0,0,1-4.71.63c-4.74,0-5,.29-3.93,5a38.21,38.21,0,0,0,6.15,14.22c5.46,7.5,12.59,8.25,19.54,2.15a49.63,49.63,0,0,0,11-14.7c1.27-2.43.8-3.28-1.88-3.79a20.23,20.23,0,0,1-6.9-2.65c-.93-.57-2-1.2-1.39-2.65a1.72,1.72,0,0,1,1.71-.62c10,1.47,20,2.82,28.93,7.92,4.09,2.33,8.18,4.7,11,8.71a8.24,8.24,0,0,1,1.66,3.91,11.36,11.36,0,0,0,1.83,3.87A75.56,75.56,0,0,1,247.06,176C247.33,176.84,247.47,177.71,247.67,178.57Z"/><path class="cls-12" d="M439.6,2.36h15.33c-1.79,1.06-3.76,1.14-5.67,1.47-7.91,1.39-15.63,3.36-22.81,7.1a13.18,13.18,0,0,0-3.94,2.91c.51.75,1.09.47,1.6.36,4.7-1,9.43-1.76,14.17-2.46a22.77,22.77,0,0,1,5.26-.09c-1.52,2.88-3.81,4.8-5.42,7.22a27.51,27.51,0,0,0-3.91,7.87C441,20.35,449.15,17.35,458.06,16a1.59,1.59,0,0,1,1.78.5A21,21,0,0,0,454.54,25,19,19,0,0,0,459.75,23a77.65,77.65,0,0,1,20.76-5.66,30.55,30.55,0,0,1,4.07-.07c.95,0,1.32.47,1,1.4s-.73,1.77-1.1,2.66c-.53,1.25-1.07,2.5-1.61,3.75-.16.37-.34.79-.07,1.14s.87.2,1.31,0c3.93-1.42,7.72-3.08,10.88-5.93,1.31-1.18,1.63-1.08,2.36.6a48.42,48.42,0,0,1,3.35,12.47,21.37,21.37,0,0,0,.79,3.64c2-4.6,2.68-9.44,3.25-14.26.9-.12,1.19.43,1.47.87A45.31,45.31,0,0,1,512,37.56a28.86,28.86,0,0,1,.19,5.74c0,1.6,0,3.2.06,4.8A91.21,91.21,0,0,1,509,66.84c-.76,3-1.78,5.93-2.69,8.89a2.15,2.15,0,0,1-1.27,1c-2.94-1.09-5.48.15-8,1.35s-3.25.75-4-2c1.55-7,1-14.11.42-21.2-.25-2.94-.51-5.89-.74-8.83-.2-2.5-.89-2.76-2.92-1.25a39,39,0,0,1-17.17,7,6.57,6.57,0,0,1-1.19.12c-2.2,0-2.87-1.17-1.78-3.09s2.33-3.64,3.22-5.61a7.2,7.2,0,0,0,.8-2.45c-.8-.52-1.26.1-1.78.37a143.83,143.83,0,0,1-22.52,9.49,26.67,26.67,0,0,1-6.11,1.2,63.26,63.26,0,0,1-13.75,1.65c-3.19.07-6.35.63-9.55.58-1.92,0-2.91,1.12-3,3a75.58,75.58,0,0,1-.41,8.11c-.13.87.08,1.78-.87,2.25s-1.7-.09-2.45-.53A21.09,21.09,0,0,0,411,65.32c-.55-.35-.44-1-.58-1.46a32,32,0,0,1-4.67-15.21,64.14,64.14,0,0,1,1.91-20.93A30.89,30.89,0,0,1,422.89,8,45.82,45.82,0,0,1,439.6,2.36Z"/><path class="cls-13" d="M443.52,50.89c11-2.58,21.12-7.32,31-12.62a6.29,6.29,0,0,1,.87-.39,2.58,2.58,0,0,1,.64,0c-.33,2.44-1.59,4.48-2.53,6.63a50.42,50.42,0,0,1-4,6.47,40.74,40.74,0,0,0,12.81-3.25,29.29,29.29,0,0,0,10.42-7.38c1,1.91.84,3.71,1,5.4.73,6.36,1.18,12.74,1.41,19.13a55,55,0,0,1-.85,11,1.62,1.62,0,0,0-.16,1.16c1.6,5.62-.35,10.92-1.4,16.3-.43,2.19-.81,4.39-1.2,6.59a3.85,3.85,0,0,0-1.49,2.88c-.57,4-3,6.59-6.15,8.65a59.68,59.68,0,0,1-19.77,8.11c-1.32.29-2.71.44-3.29,2-5.12,1.05-10.36.26-15.5,1a4.58,4.58,0,0,0-1.41-2c-1.32-1.35-1.13-3.07-1.13-4.72,0-2.18-.1-4.27-1.89-5.95-1.05-1-.42-1.86.69-2.42,5,.42,9.86,0,13.45-2.55-3.93,2.18-8.68,3.94-14,1.8-1-1.33-.72-2.64-.07-4,1-2,1-4-.78-5.71-.41-1.25-1.53-1.76-2.49-2.46-1.73-1.26-1.85-2.34-.52-4a2.6,2.6,0,0,1,.48-.53c4.46-3.13,5.23-7.9,5.71-12.8-.17-7.68.16-15.38-.72-23C442.51,52.91,442.38,51.74,443.52,50.89Z"/><path class="cls-14" d="M244.85,53A93.35,93.35,0,0,1,242,74.6a7.92,7.92,0,0,0-.14,1.18,2,2,0,0,1-.87.8c-3.26-.83-6,.53-8.76,2a7.48,7.48,0,0,1-2.77.47c-1.48-.21-1.89-1.33-2.08-2.56s-.48-2.51-.65-3.78c-.8-5.9-4.06-10.49-7.95-14.73-2.37-2.58-4.92-5-6.59-8.17a20.27,20.27,0,0,1-1.87-6.89c-.34-2.43-.73-2.59-2.94-1.51a153.91,153.91,0,0,1-20.72,8.78,33,33,0,0,1-7.48,1.61c-3.76,1.24-7.7,1.34-11.56,1.58-3.65.22-7.29.66-11,.64-2.89,0-3.68.85-3.77,3.71-.08,2.39.07,4.78-.08,7.17-.17,2.76-1.67,3.65-3.63,1.87-1.59-1.44-3.22-.55-4.78-1a2.14,2.14,0,0,1-1.44-.88,64.22,64.22,0,0,1-1.15-8.69,90.06,90.06,0,0,1,1.71-27.82A17.83,17.83,0,0,1,145.4,23c2.39-3.68,6.3-5.32,10-7.2a68.91,68.91,0,0,1,11.79-4.72,14.77,14.77,0,0,1,2.34-.53c1-.12,2-.18,2.49.91s-.27,1.81-1.09,2.36a22.61,22.61,0,0,0-5.49,6,3.62,3.62,0,0,0-1,2.61A51.06,51.06,0,0,0,170,20,72.65,72.65,0,0,1,193.84,13c3-.29,4,.78,3,3.58a43.7,43.7,0,0,1-8.28,14.49c-1.58,1.86-3,3.91-5,5.43,11.47-3.4,22.79-7.08,32.61-14.2.8-.58,1.55-1.21,2.6-.71S220,23.29,220,24.33a68,68,0,0,0,2,14.93,32.56,32.56,0,0,0,2.65,6.47,37,37,0,0,0,.21-5.53c.1-3.83-.28-7.68.5-11.48.2-1,.24-2,1.46-2.18,1.4-.16,1.66,1,1.92,2a43,43,0,0,0,2.66,7.33,100.68,100.68,0,0,1-.26-12.3c0-1.1-.07-2.33,1.21-2.9s2.08.37,2.92,1.11a19.29,19.29,0,0,1,4.78,7.11,59.64,59.64,0,0,1,3.59,13.64c.52,3,1.82,5.89,1.37,9.06A5,5,0,0,1,244.85,53Z"/><path class="cls-1" d="M198.79,502.19c1.37-3.79.73-7.74.93-11.62,1.7.7.58,2.12,1,3.48-.2-5.42-.9-10.51-1.31-15.62-.8-9.94-1.59-19.88-2.16-29.84-.48-8.33-1.22-16.67-1-25,.32-12.11,1-24.23,2.36-36.3.69-6.21,4-10.28,9.33-13a41.26,41.26,0,0,1,11.84-3.74c1.23-.21,2.59-.45,3.45.92-.62,4.92-1.85,9.72-2.79,14.58-.78,4-1.52,8-2.38,12a31.58,31.58,0,0,0,.09,11.9,133.5,133.5,0,0,1,2,19,63.18,63.18,0,0,1-1,12.15q-3.55,20.05-7.15,40.1a95.47,95.47,0,0,0-1.49,12.11,27.73,27.73,0,0,0,1.07,8c1.51,6,2.79,12.14,4.91,18-.06,2.07.88,3.94,1.07,6,.43,4.69-2.84,7.54-7.38,6.24a10.36,10.36,0,0,1-5.15-3.33,24.75,24.75,0,0,1-6.25-16C198.67,509,199.07,505.58,198.79,502.19Z"/><path class="cls-13" d="M301.37,169.49a24.45,24.45,0,0,1-3.21-5.25c-2.69-4.94-4.75-10.2-7.73-15,.15-.88-.43-1.49-.77-2.2-2.88-6-6.69-11.46-9.69-17.39a9.42,9.42,0,0,1-1.14-5.86c2.48-2.07,4.75-1.89,6.4.77s3.21,5.69,4.75,8.58c1.92,3.59,3.78,7.2,5.67,10.8a4.53,4.53,0,0,0,1.38,1.91,41.38,41.38,0,0,1,14.88-5.19,14.6,14.6,0,0,1,8.93,1.87c1.44.78,1.56,2,.35,3.07-.94.85-1.94,1.66-2.92,2.47a6.8,6.8,0,0,0-2.59,6.25c-.18-3.66,1.09-5.68,4.58-7.23,4.9-2.18,6.54-5.05,5.35-10.22-1.12-4.85-1.12-9.45,1.61-13.8a1.7,1.7,0,0,0,.11-.7,4.37,4.37,0,0,1,1.85-1.06,3.39,3.39,0,0,1,4.59,4.08,30.39,30.39,0,0,1-1.24,4.62,16.28,16.28,0,0,0-.55,9c.57,3.06,1.27,6.1,1.8,9.17a17.9,17.9,0,0,1-.38,8.76,8.83,8.83,0,0,1-2.35,3.83,11.92,11.92,0,0,0-1.47,1.57,4.34,4.34,0,0,0-.52,4.89c5,10.54,9.91,21.11,15.51,31.35a81.76,81.76,0,0,0,6.91,11.2,14.16,14.16,0,0,0,1.24,1.45,2,2,0,0,0,2.81.21,19.37,19.37,0,0,0,3.56-3.17c2.43-2.88,4.45-6,6.58-9.13,1.31.28,1.36,1.47,1.63,2.42a21.34,21.34,0,0,0,4.27,8.5,11.87,11.87,0,0,1,1.84,3.08,4.23,4.23,0,0,1-.71,5.06c-3.93,4.31-7.47,9-12.13,12.57-.25.19-.47.43-.72.64-5.06,4.1-7.13,3.8-11.31-1.24-11.08-13.37-20.33-28-29.41-42.75-2-3.2-4-6.37-5.72-9.69a6.2,6.2,0,0,1-.68-1.76,1.47,1.47,0,0,1,.75-1.64,3.47,3.47,0,0,1-2,0A19.76,19.76,0,0,1,301.37,169.49Z"/><path class="cls-15" d="M244.85,53c0-1.76,0-3.52-.07-5.28,0-.46,0-1.17-.7-1-1.21.4-1.13-.4-1.24-1.11C242.24,42.12,242,38.52,241,35a37.36,37.36,0,0,0-4.24-9.88,15.39,15.39,0,0,0-2.9-3.18c-.79-.7-1.3-.49-1.46.52a11.1,11.1,0,0,0-.06,1.68c0,4.63-.23,9.28.73,13.86.09.45.27,1-.31,1.25s-.83-.34-1.09-.72A28.88,28.88,0,0,1,228,30.27a14.1,14.1,0,0,0-1-2.72c-1.73,7-.49,14.14-1.16,21.3-1.23-.24-1.57-1.08-2-1.83a39.2,39.2,0,0,1-4.58-16,62.43,62.43,0,0,1-.49-7.16c0-.46,0-1-.52-1.24s-.87.25-1.24.53c-5.63,4.36-12,7.24-18.6,9.81-5,2-10.08,3.62-15.24,5.07a6.08,6.08,0,0,1-3.37.48,7.9,7.9,0,0,1,2.2-2.38,44.22,44.22,0,0,0,8.24-9.27,41.61,41.61,0,0,0,5.45-10.63c.64-2,.35-2.2-1.74-2a73.62,73.62,0,0,0-24,7c-2.1,1-4.12,2.12-6.2,3.13-.62.3-1.19.85-2.25.48A26,26,0,0,1,171.28,12c-.78-.75-1.48-.35-2.12-.19a67.24,67.24,0,0,0-15.12,6c-3,1.57-5.76,3.44-8.64,5.18a26.47,26.47,0,0,1,7.27-10.81c5.2-4.92,11.54-7.65,18.39-9.31A94,94,0,0,1,196,.72,156.78,156.78,0,0,1,214,1.91a51.54,51.54,0,0,1,12.95,3.34,26.74,26.74,0,0,1,14.16,13.65,44.73,44.73,0,0,1,4.07,16.17,144.17,144.17,0,0,1,0,16.29A11.81,11.81,0,0,1,244.85,53Z"/><path class="cls-1" d="M244.34,186.27c1.13-.7,1.55-2,2.38-2.91.67,5.64,2,11.17,3.11,16.72,3.78,18.8,7.65,37.58,11.43,56.38,1.1,5.48,1.66,11.05,2.26,16.61.79,7.3,1.53,14.61,2.28,21.91.36,3.49.74,7,1.06,10.48a5.83,5.83,0,0,0,.89,2.95c2.91,4.07,4.37,8.88,6.78,13.2-.05.85.54,1.47.76,2.23.6,2,.07,4-1.57,4.82-2.89,1.43-5.1,3.78-7.83,5.45s-4.07,1.39-5.26-1.36a20,20,0,0,0-2.08-3.86,5.57,5.57,0,0,0-4.67-2.72c-.24,0-.48,0-.72,0-5.73-.47-8.22-5.45-5.24-10.43a22.21,22.21,0,0,1,4.51-5.56,6.07,6.07,0,0,0,2.2-5.3c-.39-6.7-.88-13.39-1.57-20.06-.72-7-1.28-14-2.61-20.92-2-10.53-5.07-20.81-7.58-31.22-2.33-9.71-5.24-19.29-6.68-29.21a56.54,56.54,0,0,1-.74-6.91,6,6,0,0,1,3.11-5.53A19,19,0,0,0,244.34,186.27Z"/><path class="cls-14" d="M239,157.88a2.55,2.55,0,0,1-1.19-1.14c-2.93-5.17-7.75-8.13-12.76-10.82A50.88,50.88,0,0,0,211.14,141c-5.07-1-10.17-1.9-15.26-2.84-1.91-.06-2-1.49-2.11-2.86-.29-3.86.64-7.55,1.64-11.22,0-2,1.09-3.76,1.66-5.64.9-1.28,2.4-1.5,3.71-2A71.73,71.73,0,0,0,222,103.48c1.39-1.21,2.5-2.68,3.8-4a29.66,29.66,0,0,0,3.61-1c1.95-.82,4-1.29,6-2,1-.37,2-.6,2.69.56a119.3,119.3,0,0,0,.49,31.28,62.45,62.45,0,0,0,2.34,9.77,38,38,0,0,1,1.83,7.92C243.18,150.45,242.28,154.54,239,157.88Z"/><path class="cls-16" d="M443.52,50.89a171.57,171.57,0,0,1,1,23.84,6,6,0,0,1-.45,3c-.74.27-.62.94-.75,1.53A15,15,0,0,1,437.06,89c-3,2-2.86,3.25.21,5.17A10.16,10.16,0,0,0,441.59,96a6.47,6.47,0,0,1,.6,7c-.46,1-1.16,1.95-.59,3.14-.66,1.17-1.61.69-2.4.32a16.23,16.23,0,0,1-3.44-1.89A18.12,18.12,0,0,0,441,107c.76.21,1.38.44,1.12,1.42-.22.11-.84.29-.51.41a3.44,3.44,0,0,1,2.22,3.34,55.16,55.16,0,0,1,.14,8.31c-7.44-.77-14.61-2.47-21.2-6.15a28.65,28.65,0,0,1-9.41-9,6.74,6.74,0,0,1-1.09-3.61,24.67,24.67,0,0,1,.79-7.1c.43-1.78.8-3.57,1.19-5.36a7.7,7.7,0,0,1-1.17-4.78c.1-2.14,0-4.29.07-6.43a19.37,19.37,0,0,0-3-11.11c-1.07-1.66-.87-1.93.82-2.2,1.66.11,2.8,1.4,4.2,2,.68-.63.47-1.31.47-1.91,0-3.27,0-6.55,0-9.82,0-2.17.09-2.26,2.32-2.29,5.67-.08,11.33-.3,17-.86C437.82,51.59,440.67,51.22,443.52,50.89Z"/><path class="cls-14" d="M179,137.77a115,115,0,0,0-33.9,3.81c-1.71.44-3.23,1.34-4.9,1.88q0-.19,0-.38c.35-.62-.06-1.38.35-2a76.58,76.58,0,0,1,2.75-11.17c3.75-11.64,4.06-23.57,3.33-35.61-.1-1.68-.22-3.35-.34-5-.15-.91-.65-2.07.34-2.57,1.36-.69,2.28.7,3.38,1.21a3.07,3.07,0,0,1,2.27,2.77c1.92,13.23,10.35,21.11,21.84,26.4,2.17,1,4.33,2,6.57,2.88a2.47,2.47,0,0,1,.58.55c1.76,2.32,1.61,5.09,1.73,7.75.1,2.19-.23,4.39.17,6.58a6.53,6.53,0,0,1-1.85,2.73C180.65,138.18,179.88,138.54,179,137.77Z"/><path class="cls-17" d="M429.59,514.1c4-1.9,4.32-3.23,1.41-6.56-1.26-1.44-2.55-2.87-3.71-4.4-1.32-1.74-1.29-2.38.18-4a8.66,8.66,0,0,0,2.25-4.42,38.67,38.67,0,0,0,.83-6.89c0-16.88.23-33.76-.12-50.63-.14-7.09,0-14.22-.9-21.29a19.32,19.32,0,0,0-.65-3,24.33,24.33,0,0,1-.47-9.51c.39-3.81.66-7.63,1.15-11.44.61-4.75,1.2-9.51,1.71-14.27s.83-9.38,1.29-14.07c.53-5.42.27-10.85.71-16.27s.12-11,.14-16.55a3.67,3.67,0,0,0-1.21-2.53,35.75,35.75,0,0,0-4.9-4.22c-.26-.19-.54-.41-.47-.77a.82.82,0,0,1,.89-.64c7.71-.3,15.36-.17,22.59,3.07a9.6,9.6,0,0,1,5.48,6.58,81.26,81.26,0,0,1,1.56,9c.8,5,1.57,9.95,2.23,14.94s1.16,9.83,1.69,14.75c.61,5.63,1.22,11.27,1.77,16.91.43,4.45.74,8.91,1.12,13.36.25,2.86.46,5.73.81,8.58.26,2.14.28,4.31.42,6.45.26,4.06.82,8.11.69,12.19a4.25,4.25,0,0,1-.45,2.08c-1.28-9.5-2.57-19-3.83-28.5q-2.38-18.05-4.7-36.12c-1.18-9.11-2.41-18.21-4-27.27-.2-1.18-.46-2.35-.68-3.53a7.79,7.79,0,0,0-4.61-5.75,24.24,24.24,0,0,0-6.9-1.93c-1.13-.18-1.77.11-1.91,1.42-.34,3.26-.82,6.5-1.21,9.75-1.57,13.25-3.08,26.5-4.23,39.79-.93,10.74-2.27,21.51-1.52,32.29.6,8.55.7,17.09.55,25.63-.19,11.43.14,22.86.44,34.28.15,5.59.64,11.17,1.1,16.74a32.83,32.83,0,0,1-.29,6.69,28.31,28.31,0,0,0,1,11.14,43.84,43.84,0,0,1,1.21,5.61c.34,2.44-.46,3.76-2.57,4.8S430.35,516.16,429.59,514.1Z"/><path class="cls-17" d="M467.48,454.15l.21-2.47a48.93,48.93,0,0,1,1.65,8.11c.86,5.85,1.71,11.7,2.34,17.57a52.92,52.92,0,0,1,.65,8.83,7.86,7.86,0,0,0,.11,2.15c.84,3.78,0,7.47-.59,11.17-.35,2.29-.92,4.54-1.29,6.83-.47,3,.79,4.44,3.79,4.34,3.57-.13,6.89-1.41,10.18-2.6,2.64-1,5.32-1.74,8-2.54a16.62,16.62,0,0,1,7.6-.35c.32.05.63.13.95.16a2.93,2.93,0,0,0,3.07-4.26,6.25,6.25,0,0,0-3.23-3.07,15.81,15.81,0,0,1-2.87-1.73c-1.18-1-2-2.28-1.61-3.78,1.74-6.2.13-12.23-.76-18.28-1.34-9.09-3-18.14-4-27.26a99.89,99.89,0,0,1-.19-21.76,12.6,12.6,0,0,0,0-2.87c-.85-6.45-.42-12.94-.39-19.4,0-4.56-.62-9.09-.49-13.64.1-3.5.51-7,.75-10.5a32.63,32.63,0,0,0,.14-4.07A58.08,58.08,0,0,0,490,363.1c-.84-3.18-2.52-5.4-6-6.11-2.18-.45-3.52-2.1-4.39-4.09a7.79,7.79,0,0,1-.55-2.08c-.59-4.51.93-6.11,5.43-5.63a18,18,0,0,0,5,.29,12.49,12.49,0,0,0,8.3-4.78c.34-.45.68-1.31,1.39-.31a36.34,36.34,0,0,1-1.53,6c-4.16,14.49-3.25,9.87-3.28,25.23,0,12.23.57,24.45.36,36.69-.09,5-.21,10.07-.79,15.07a107.42,107.42,0,0,0-.11,19.87,340.53,340.53,0,0,0,6,43.41c.17.86.4,1.71.52,2.58a19.13,19.13,0,0,0,4.21,10,5.52,5.52,0,0,1,.63,6.3c-.57,1.23-1.23,2.42-1.85,3.63a2.1,2.1,0,0,1-2.37.62c-6.37-1.92-12.1,0-17.59,3.08-2.85,1.61-5.52,3.49-8.2,5.37-1.05.74-2.1,1.55-3.47.66-1.74-.91-2.25-2.64-2.77-4.31a37.6,37.6,0,0,1-1.46-12.8c.47-11.18.63-22.36.36-33.55C467.8,463.57,467.63,458.86,467.48,454.15Z"/><path class="cls-18" d="M471.79,518.94c2.4-1.12,4.41-2.85,6.61-4.29,3.27-2.14,6.52-4.29,10.29-5.51,4.51-1.45,9-2,13.55-.12a4.79,4.79,0,0,0,1.17.18c-.33.93.31,1.47.78,2.11a31.87,31.87,0,0,0,16.8,12.1c2.28.71,4.5,1.64,6.71,2.55a4.24,4.24,0,0,1,2.79,2.45l-.16,3c-5.57,5.25-12.41,5.62-19.48,5-3.89-.35-7.3-2.19-10.8-3.73-5.11-2.25-10.41-4-15.68-5.85-2.94-1-5.91-2-8.77-3.19-2.07-.89-2.08-.87-2.34,1.51C472.62,523.11,472.61,520.93,471.79,518.94Z"/><path class="cls-18" d="M429.59,514.1a17.34,17.34,0,0,0,3.93,1.5l-.14,5.2a7.92,7.92,0,0,1-3,2.2,74.72,74.72,0,0,0-11,6.3c-6.85,4.46-14.47,6.29-22.49,6.54-3.81.12-7.58.69-11.47.2s-7.56-1.15-10.87-3.29a2.08,2.08,0,0,0-1.14-.31,6.69,6.69,0,0,1-.48-2.32c-.52-2.63-.46-2.86,2-3.91,2.94-1.23,5.89-2.49,8.92-3.47,6.39-2.06,11.34-6,15.57-11.09,1.24-2.23,3.15-.86,4.79-.88,3.35,0,6.71,0,10.06-.1a27.49,27.49,0,0,1,10.32,1.81C426.23,513.07,427.92,513.56,429.59,514.1Z"/><path class="cls-19" d="M244.34,186.27a14.13,14.13,0,0,1-5,5.4,6.24,6.24,0,0,0-2.66,6.44,112.24,112.24,0,0,0,2.24,13.47c3.86,15.68,7.87,31.31,11.77,47a109.42,109.42,0,0,1,2.23,13.95q1,8.32,1.8,16.66c.28,2.86.53,5.73.57,8.59,0,2,.43,4,.56,6a6.91,6.91,0,0,1-2.57,6.32,18.23,18.23,0,0,0-4.55,5.51,9.79,9.79,0,0,0-1.07,5.32,3.69,3.69,0,0,0,2.74,3.53,8,8,0,0,0,2.81.51c3.09-.14,4.89,1.62,6.25,4,.51.9.86,1.89,1.28,2.84,1.12,2.53,2.54,2.9,4.59,1.14a8.4,8.4,0,0,1,2.19-1.43,4,4,0,0,0,1.61-1,8,8,0,0,1,4.35-3.11c1.22-.33,1.58-1.59,1.36-3-.14-.92-.81-1.79-.33-2.78a6.36,6.36,0,0,1,1.45,4.45,73.3,73.3,0,0,1-1.44,12.13,2.92,2.92,0,0,1-2.09,2.4,3.26,3.26,0,0,0-2.3,2.78,15.19,15.19,0,0,1-.54,1.84,3.56,3.56,0,0,1-3.06,2.7,3.16,3.16,0,0,0-2.86,2.46,28.79,28.79,0,0,1-1.68,4c-.86,1.62-2,1.65-3.12.15a6.23,6.23,0,0,1-1.12-3.85,27.37,27.37,0,0,1,1.19-7.32c.47-1.61,1-3.2,1.53-4.8,1.13-3.55-1-8.76-4.22-10.56a1.27,1.27,0,0,0-1.86.3,5.8,5.8,0,0,0-.71,6.9,11.93,11.93,0,0,1,1.65,7.12,3.77,3.77,0,0,1-1.26,2.76,1.5,1.5,0,0,1-2.45-.37,7,7,0,0,1-.8-2,13.13,13.13,0,0,0-4-6.73,3.77,3.77,0,0,1-1.16-4.06c.67-2.88,1.34-5.77.92-8.77-.2-1.42-.3-2.86-.44-4.29a4.82,4.82,0,0,1,1.13-3.56,54,54,0,0,1,4.85-5.63,3.9,3.9,0,0,0,1.27-3.44c-.39-3.49-.73-7-1.14-10.49-.88-7.54-1.91-15.06-2.66-22.61a168.05,168.05,0,0,0-5.41-29.19c-4.47-15.77-8.67-31.62-13-47.43-.42-1.52-.64-3.16-2.24-4a11.6,11.6,0,0,0,4.88-.72A32,32,0,0,0,244.34,186.27Z"/><path class="cls-20" d="M399.47,302.44a1.67,1.67,0,0,0-1.07-1,2.54,2.54,0,0,1-.45-.16c-4.5-2.59-4.52-2.74-2.13-7.27,1-1.83,1.8-3.74,2.77-5.58a4,4,0,0,0-.57-4.84c-.87-1-1.65-2.16-2.42-3.27-1.67-2.41-1.58-3.25.46-5.42a7.08,7.08,0,0,1,.68-.68c4-3.22,5.84-7.7,7.3-12.4a12,12,0,0,0,.53-3.54q0-26.13.07-52.25c0-.45.16-.95-.26-1.38-.74.14-.87.85-1.17,1.36-1.84,3.09-3.7,6.17-5.45,9.3a2.93,2.93,0,0,1-3.38,1.8,49.12,49.12,0,0,1-13.74-3.94c-1.67.44-2.75-.66-3.79-1.59a54.11,54.11,0,0,1-9.32-10.91,6.46,6.46,0,0,1-.83-3.39c-.91-1.62.2-2.69,1-3.83,2.68,3.68,5.32,7.4,8.74,10.46,3.07,2.75,6.35,5.09,10.5,6,5.77,1.23,10.51-.62,13.33-6.21a27.09,27.09,0,0,0,2.89-12.45q0-11,0-22.07a5.33,5.33,0,0,1,.41-2.45c.18,1.23.38,2.45.54,3.68s.33,2.53.47,3.8c.43,3.81.84,7.61,1.28,11.42.24,2.06.4,4.14.55,6.2.54,7.48,1,15,1.15,22.47.23,10.62.55,21.25.33,31.87-.14,6.79-.84,13.56-3.16,20a18.34,18.34,0,0,1-5.87,8.59c-2.56,2-2.42,5,.34,6.87a11.36,11.36,0,0,0,3.53,1.45c1,.27,2,.45,3,.8,2.35.85,2.79,2.59,1.13,4.42s-4.08,3.34-5.81,5.35c-.52.61-1.15,1.12-1.65,1.74-1.55,1.94-1.31,3.75.78,5.07a12,12,0,0,0,3.07,1.32,63,63,0,0,0,15.33,2.52,4.57,4.57,0,0,1,2.32.48c-.7.83-1.78,1.13-2.54,1.87-6,.72-11.66-.5-17.22-2.51A3.56,3.56,0,0,1,399.47,302.44Z"/><path class="cls-17" d="M404.21,510.76a31.36,31.36,0,0,1-4.79.88c-.37-1.36.26-2.5.8-3.66.34-.72.65-1.47,1-2.16a2.83,2.83,0,0,0-.5-3.9c-1.66-1.45-1.66-3.15-1-5A4.56,4.56,0,0,1,400,496c2.58-4.2,2.63-9,3-13.66,1.21-13.61,1.93-27.26,2-40.93a50.36,50.36,0,0,0-3.45-19.22,44.15,44.15,0,0,1-3.26-16.36c0-.4,0-.8.08-1.19a69.39,69.39,0,0,0,1.87-10.58,47.06,47.06,0,0,0,.53-8.12c1.2,3,.88,5.56,1.27,8.06.42,2.67.37,5.41.63,8.1.47,4.84.7,9.71,1.88,14.46a14.58,14.58,0,0,0,1.79,4.42,27.09,27.09,0,0,1,4,11.7,120.91,120.91,0,0,1,.95,16.46c-.1,4.24.33,8.45.54,12.67.32,6.5-1.09,12.71-2.91,18.85a106.82,106.82,0,0,1-4.09,11.51,18.93,18.93,0,0,1-2.13,4c-1.25,1.68-1.08,2.5.66,3.79,1.16.85,2.4,1.57,3.6,2.37a12.37,12.37,0,0,1,1.54,1.12,1,1,0,0,1-.07,1.63,16.88,16.88,0,0,1-2,1.26c-.63.34-1.33.55-2,.9-.82.45-2,.63-2.18,1.69C402.13,510.13,403.6,510.1,404.21,510.76Z"/><path class="cls-19" d="M223.18,371.51A35.59,35.59,0,0,0,205.77,377c-4.11,2.59-5.69,6.64-6.09,11.38-.57,6.76-1.26,13.5-1.51,20.29-.23,6.22-1.24,12.44-.78,18.64s-.08,12.63.8,18.9a6.22,6.22,0,0,1,0,1.2c-.27,5.12.34,10.22.6,15.32.33,6.44.73,12.9,1.63,19.31.72,5.18,1.13,10.43-.11,15.77-.54-2.46.33-4.92-.62-7.21-.47-7.33-1.12-14.64-1.82-21.95-.61-6.35-1-12.73-1.63-19.08a377.74,377.74,0,0,1-1.33-38.76c0-2.64-.29-5.26-.52-7.88-.64-7.08-.86-14.18-1.09-21.28-.12-3.83-.3-7.66-.41-11.49,7.9-.62,15.75-1.45,23.31-4,3-1,5.87-2.51,8.81-3.77A57.53,57.53,0,0,1,223.18,371.51Z"/><path class="cls-19" d="M119.53,175.2c1.66,5,4.9,8.84,8.69,12.33,1.77,1.63,4,2.28,6.16,3-1.26.24-1.75,1.31-2.36,2.23-5,7.53-10.23,14.88-15.91,21.9-4.63,5.72-9.44,11.26-15.2,15.91a30.77,30.77,0,0,1-7.09,4.43,6.18,6.18,0,0,1-7.6-1.45,81.57,81.57,0,0,1-10.5-13.94c-7.9-12.41-14.92-25.32-21.78-38.32-1.69-3.2-3.57-5.43-7.41-6.18-7.24-1.43-12.62-5.87-16.86-11.78.78-.27,1.15.37,1.64.74,2.93,2.22,5.71,4.63,8.86,6.56a17.87,17.87,0,0,0,9.57,2.67c2.17,0,3.25.77,4.12,2.77a127.65,127.65,0,0,0,6.34,12.1c5.65,9.94,11.63,19.68,18,29.15A137.82,137.82,0,0,0,88,229.71a12.22,12.22,0,0,0,2.61,2.09c1.39.91,2.77.45,4.08-.27a27.87,27.87,0,0,0,6.54-5.21c4-4.13,7.82-8.43,11.4-12.93,5.08-6.37,10.09-12.8,14.81-19.45.14-.2.3-.37.44-.57,1.1-1.58,1.09-1.74-.61-2.66a20.3,20.3,0,0,1-7.44-7,9.36,9.36,0,0,1-1.71-5.65C118.5,177.1,119.3,176.29,119.53,175.2Z"/><path class="cls-21" d="M142.07,261.12a2.77,2.77,0,0,1,1.65.89,41.19,41.19,0,0,0,18.49,9.14c10.75,2.52,21.67,2.83,32.64,2.4,12.05-.47,22.92-4.63,33.16-10.72,1.16-.69,2-1.85,3.39-2.21a8.44,8.44,0,0,1,1,2.83c-1.55,3.18-4.31,5.09-7.28,6.69a64.64,64.64,0,0,1-19.53,6.34,123.77,123.77,0,0,1-27.69,1.88c-10-.47-19.69-2.25-28.6-7.15a52,52,0,0,1-5.82-3.8c-1.15-.85-2.28-1.82-2.35-3.45A9.77,9.77,0,0,1,142.07,261.12Z"/><path class="cls-13" d="M460.31,123.84c-.39,2.19-.8,4.37-1.15,6.56a24.78,24.78,0,0,0-.31,3.31c-.08,3.65.47,4.38,3.92,5.4,1.58,1.3,3.63.92,5.43,1.49.59.19,1.3,0,1.86.42,1.31,1.28.92,2.49-.32,3.46-11.27,8.75-24.33,8.58-34.25-1.95-1.8-1.91-1.1-3.28,1.86-4,2.1.21,4.06-.7,6.12-.76a5.18,5.18,0,0,0,2.48-5.09c-.06-1,0-2.07,0-3.11a3.39,3.39,0,0,0,3.27-1.63c2.26-3,5.72-4.05,9.24-4.81A1.54,1.54,0,0,1,460.31,123.84Z"/><path class="cls-22" d="M366.7,197.29c1.41,2,2.8,4.06,4.22,6.09a46,46,0,0,0,9.72,9.8,18.66,18.66,0,0,1-1.43,1.91c-5.59,5.83-11.1,11.74-17.48,16.73a32.5,32.5,0,0,1-4.58,3.06,5.16,5.16,0,0,1-6.23-.58,44.21,44.21,0,0,1-6.82-7.37,297.07,297.07,0,0,1-17.9-26.66c-4.74-7.69-9.28-15.5-13.74-23.35-.88-1.56-2-2.59-3.74-2.53-3.7.13-5.65-2.12-7.33-4.89.81-.33,1.35.23,2,.56,1.48.79,2.94,1.63,4.47,2.29a11.49,11.49,0,0,0,8.89.59,1.9,1.9,0,0,1-1.45,1.32c-1.94.61-2,1.83-1.22,3.6a49.52,49.52,0,0,0,3.18,5.63c9,14,18.19,27.79,28.28,41,1.65,2.15,3.4,4.23,5.12,6.32a8.1,8.1,0,0,0,1.21,1.15c1.77,1.41,2.62,1.51,4.56.34a42,42,0,0,0,9-7.53c2.22-2.4,4.26-5,6.49-7.35a2.94,2.94,0,0,0,.55-3.7,16.49,16.49,0,0,0-2-3.27,21.22,21.22,0,0,1-4.72-11.32Z"/><path class="cls-23" d="M327.33,122.37a1.6,1.6,0,0,1,.16,1.59c-2,5.09-1.84,10.29-.81,15.54a8.66,8.66,0,0,1,.12,2.38,5.87,5.87,0,0,1-3.56,5.26c-.8.36-1.62.68-2.42,1-3.42,1.48-4.68,3.57-4.49,7.32,0,.69.41,1.36.15,2.12a7.77,7.77,0,0,1,1.31-10.72c1.07-.92,2.2-1.78,3.37-2.73a4.85,4.85,0,0,0-2.75-1.56,19.52,19.52,0,0,0-10.61-.19,37.61,37.61,0,0,0-8.09,2.91c-.81.42-1.62,1.15-2.66.53-1.51-4.3-3.61-8.33-5.49-12.47-2.44-5.37-5-10.69-7.52-16-.76-1.63-1-3.22.61-4.55,1.28-.23,1.47.7,1.56,1.57a17.41,17.41,0,0,0,2.14,6c3.16,6.25,6.27,12.52,9,19,1.22,2.83,1.33,2.89,4.42,2.22.88-.19,1.69.62,2.51,0-1.25-4.54-3.1-8.86-4.74-13.26-1.94-5.22-4-10.39-6-15.59a13.38,13.38,0,0,1-1.23-4.83,3.23,3.23,0,0,1,.93-2.83c1.36-.1,1.52.89,1.62,1.86a24.31,24.31,0,0,0,3.14,8.95c1.94,3.59,3,7.53,4.31,11.37,1,3,2,6,3,9.06.65,2,1.68,3.24,4,2.75a2.35,2.35,0,0,1,2.21.61c1-.31.76-1,.55-1.74-.73-2.36-1.44-4.73-2.21-7.08-2.1-6.36-4.25-12.71-6.35-19.07-.48-1.44-1.07-2.91.3-4.23,1.41-.48,1.77.41,2.08,1.5,2.52,9.17,6.4,17.9,8.78,27.12a1.27,1.27,0,0,0,.27.66c2.39,2,4.89,3.79,8.06,4.35,1.82-.65,2-2.13,1.77-3.71s-.64-3.12-.88-4.69A11,11,0,0,1,327.33,122.37Z"/><path class="cls-3" d="M373.35,532.44c.14-.45,0-1,.4-1.34.46-.15.77.15,1.07.39a13.78,13.78,0,0,0,6.09,2.67c3.75.68,7.53,1.29,11.38.71,2.52-.38,5.09-.35,7.63-.48,8-.39,15-3.51,21.53-7.83a58.51,58.51,0,0,1,10.34-5.5,2.1,2.1,0,0,1,1.6-.26c.4,3.75,0,4.68-3.43,6.12a66.32,66.32,0,0,0-10.68,5.87c-9.23,6-19.48,7.66-30.25,7a45.22,45.22,0,0,1-11.5-2.14C375,536.77,373.46,535.21,373.35,532.44Z"/><path class="cls-1" d="M238,97a4.31,4.31,0,0,0-2.47.6,30.09,30.09,0,0,1-6.08,1.8c-1.43.41-1.81-.44-1.51-1.53,1.42-5.1,1.85-10.49,4.15-15.33,1.51-3.18,3.66-5.85,7.32-6.81a2.43,2.43,0,0,1,1.64,0h.77A21.94,21.94,0,0,1,243.71,78a8.86,8.86,0,0,1,1.48,5.89,23,23,0,0,1-2.69,8.57C241.43,94.37,239.48,95.42,238,97Z"/><path class="cls-13" d="M311.56,139.65c-1.39.35-2.78.68-4.17,1a1.51,1.51,0,0,1-2-1.08c-.48-1.35-1-2.67-1.5-4-2-5.56-3.53-11.25-5.75-16.71-.75-1.83-1.77-3.56-2.58-5.37a16.78,16.78,0,0,1-1.83-7.11,4.47,4.47,0,0,0-.44-1.34c3.75-1.56,6.72,0,7.79,3.27C304.42,118.82,308,129.22,311.56,139.65Z"/><path class="cls-13" d="M304.32,141.58c-1.41.73-2.82,1.48-4.24,2.2s-1.74.61-2.39-.79c-1.27-2.75-2.57-5.49-3.75-8.28-2-4.79-4.5-9.34-6.8-14-1.07-2.16-2.12-4.29-2.1-6.79a3.54,3.54,0,0,0-.39-1.11,6.9,6.9,0,0,1,4.89-.31c1.67.34,2.4,1.74,3,3.15,1.82,4.16,3.64,8.32,5.42,12.5,1.62,3.81,3.2,7.65,4.79,11.47C303.1,140.41,303.3,141.32,304.32,141.58Z"/><path class="cls-24" d="M198.79,502.19a4.33,4.33,0,0,1,.44,2.56,74.71,74.71,0,0,0,.94,11,23.32,23.32,0,0,0,5.92,12.09c2.32,2.68,5.42,3.51,8.16,2.48a3.09,3.09,0,0,0,2.26-3,29.35,29.35,0,0,0-.23-5.74,2.51,2.51,0,0,1,.15-2.08,104.84,104.84,0,0,0,8.15,17.22,3.8,3.8,0,0,0-1.79.59,10.55,10.55,0,0,1-5.48,1.35,11.25,11.25,0,0,1-10.08-4.84,47.75,47.75,0,0,0-5.45-6.3c-1.86-1.81-2.4-4.25-3-6.64a8.26,8.26,0,0,0-.61-2.28c-.29-.46-.28.25-.42.41a5.62,5.62,0,0,1-.3-2.8C197.82,511.48,198.1,506.81,198.79,502.19Z"/><path class="cls-1" d="M149.76,88.8l-2.93-1.51c-.68.6-.24,1.39-.5,2a6.78,6.78,0,0,0-3-4.83c-3-2.16-4.17-5.32-4.14-8.95a24.9,24.9,0,0,1,.23-4.76c.48-2.38,2-4.12,3.54-5.83l1.47-.16c2.25-.49,3.55,1,4.7,2.47,1.81,2.36,2.15,5.2,2.48,8.08a55.69,55.69,0,0,1,.18,10C151.69,86.66,151.92,88.51,149.76,88.8Z"/><path class="cls-13" d="M411,64.76c-.9.36-.45.84-.11,1.3a17.45,17.45,0,0,1,2.66,5,18.13,18.13,0,0,1,.72,4.2c.37,4.67-.09,9.33,0,14-3-1.86-6-3.58-8.46-6.2a8.44,8.44,0,0,1-2.12-3.68,20.23,20.23,0,0,1-.2-8.78,7.47,7.47,0,0,1,5.62-6.2,10.93,10.93,0,0,0,1.3-.56Z"/><path class="cls-13" d="M323,141.16a2.86,2.86,0,0,1-3-.1,12.92,12.92,0,0,0-4.3-1.41c-1.26-.13-1.68-1.06-2-2.1-1.16-3.82-2.42-7.6-3.45-11.46s-2.65-7.35-4-11a24.71,24.71,0,0,1-1.55-5.76,1.91,1.91,0,0,0-1-1.79c3.81-1.31,6.28,0,7.45,3.93,2.19,7.36,4.51,14.68,7,21.94a57,57,0,0,0,2.42,6A2.48,2.48,0,0,0,323,141.16Z"/><path class="cls-25" d="M437.77,139.72l-2.46.78a19.55,19.55,0,0,0,6.4,5.69,23,23,0,0,0,10.58,3.42,20.56,20.56,0,0,0,6.58-.89,30.37,30.37,0,0,0,10-5c.68-.5,1.61-1,.57-2.06.65-1.52,2.45-.42,3.32-1.45a2.54,2.54,0,0,1,2,.47c-.8,2.45-2.6,4.18-4.4,5.84a23.13,23.13,0,0,1-14.42,6.24c-7.09.52-13.62-1-19.39-5.25a19.4,19.4,0,0,1-5.9-7.12,9,9,0,0,0-1.51-2.7,6.8,6.8,0,0,1,3.43-.36,5.72,5.72,0,0,0,3.15,1.17C436.53,138.63,437.5,138.6,437.77,139.72Z"/><path class="cls-26" d="M41.82,131.58a4,4,0,0,1,.43,2.09c0,4.65,2.75,7.66,6.17,10.25.32.24.69.4,1,.63.67.47.75,1,.12,1.57-2,1.77-1.63,3.79-.66,5.89a43.36,43.36,0,0,0,2.75,5c-.78.51-1-.12-1.24-.41a23.94,23.94,0,0,1-3.49-5.7c-1.33-2.94-4.09-3.52-6.58-1.4a21.1,21.1,0,0,0-4.12,5.56c-.4.67-.76,1.37-1.35,2.44-.48-2.43-2.25-3.37-3.69-4.5-7.41-5.81-14.69-11.82-22.92-16.5a1.16,1.16,0,0,1-.78-1.1A25,25,0,0,1,12,137.61c6.76,3.85,12.83,8.66,18.87,13.51l2.61,2.11c.52.43,1.08.81,1.68.21a1.41,1.41,0,0,0,.28-1.95,11,11,0,0,0-1.12-1.25c-3.5-3.64-7.54-6.64-11.4-9.86-3.14-2.62-6.76-4.53-10-7l.49-.47a3.85,3.85,0,0,1,3.43.4c4.69,2.34,8.65,5.7,12.64,9,2,1.68,4,3.39,6,5.11a25.49,25.49,0,0,0-5.26-5.66c-2.53-2.08-5.16-4-7.74-6-.7-.55-1.59-1.14-1-2.13s1.57-.54,2.35-.25a24.44,24.44,0,0,1,6.42,4,53.84,53.84,0,0,1,7,6.5,8,8,0,0,0,5,2.94,9.32,9.32,0,0,0,2.84-.28c1.09-.41,1.27-.85.51-1.73a23.16,23.16,0,0,1-2.69-3.64A11.3,11.3,0,0,1,41.82,131.58Z"/><path class="cls-1" d="M42.27,146.86c-2.28,1.12-3.72.42-5.38-1.56a52.43,52.43,0,0,0-12-10.27,6.21,6.21,0,0,0-3.05-1.3c1.81,1.41,3.24,2.57,4.72,3.67a61,61,0,0,1,8.84,7.72c.75.82,1.42,1.73,2.14,2.58a1.38,1.38,0,0,1,0,2.11c-.81.81-1.42.34-2-.26-1.94-1.9-3.89-3.78-6-5.55-5-4.28-10.11-8.35-16.17-11.06,1.12-1.73,2.81-1.7,4.46-1.22,1.9.55,3.68,1.28,5.77.85,1.26-.26,2.42.66,3.52,1.29A52.54,52.54,0,0,1,40.44,145,10.89,10.89,0,0,0,42.27,146.86Z"/><path class="cls-22" d="M460.31,123.84c-1.82.54-3.66,1-5.46,1.62a10,10,0,0,0-5.65,4.46,5.43,5.43,0,0,1-2.32,2.46c-.87-.74-.25-2-.94-2.78l-.57-7.13c.21-1.17,1-1.52,2.07-1.51,1.51,0,3,0,4.54,0a29.79,29.79,0,0,0,6.18-.36c1-.23,2.09-.24,2.71.92A6.11,6.11,0,0,1,460.31,123.84Z"/><path class="cls-27" d="M278.84,123.8a3.11,3.11,0,0,1,.38.87c.39,3.77,2.18,6.93,4.28,10,2.72,3.94,4.68,8.31,6.81,12.58a1.9,1.9,0,0,1,.12,2c-3.29-5.7-6.61-11.39-9.85-17.12a22.2,22.2,0,0,1-2.33-5.46A2.78,2.78,0,0,1,278.84,123.8Z"/><path class="cls-28" d="M437.77,139.72c-.63,0-1.26-.07-1.89,0a2.93,2.93,0,0,1-3.35-2.34h6.61c1.41.51,3-.27,4.35.46h0C441.79,139.12,439.74,139.31,437.77,139.72Z"/><path class="cls-13" d="M443.49,137.82a16.32,16.32,0,0,1-4.35-.46C440.62,137.26,442.11,137,443.49,137.82Z"/><path class="cls-11" d="M140.59,141.09a2.8,2.8,0,0,1-.35,2A2.66,2.66,0,0,1,140.59,141.09Z"/><path class="cls-1" d="M158.42,523.23a141.26,141.26,0,0,0,8.38-18c1.54-3.9,1.39-8,1.06-12.08-.64-7.88-1.62-15.72-2.73-23.55Q164,461.53,163,453.45c-.31-2.45-.55-4.92-.64-7.39a360.44,360.44,0,0,0-7.74-60.28c-.91-4.3-1.94-8.57-2.89-12.86-.21-.93-.32-1.89-.48-2.83,1.08-.73,2-.08,2.9.39a48.64,48.64,0,0,0,12.76,4.72c3.19.68,5.25,2.9,6.59,5.8a30.82,30.82,0,0,1,2.16,9.05c1.06,8,3.62,15.71,6,23.41a40.06,40.06,0,0,1,1.37,16.2c-.75,7.22-1.16,14.47-1.75,21.71-.69,8.33-1.24,16.67-2.08,25-.59,5.83-1,11.69-1.31,17.47.3-.52-.66-1.59.69-1.83,0,2.11,0,4.23,0,6.34a3.69,3.69,0,0,0,1,2.8c.19,2.81.22,5.62.28,8.43a19.24,19.24,0,0,1-4.46,12.49,42.57,42.57,0,0,1-8.27,8.25,10.64,10.64,0,0,1-4.34,1.9,4.72,4.72,0,0,1-4.92-1.7c-1.31-1.63-1.07-3.44-.32-5.2C157.77,524.61,158.43,524.08,158.42,523.23Z"/><path class="cls-19" d="M178.53,492c-.87,1.79-.19,3.78-.93,5.63,0-.76,0-1.52,0-2.28-.24-6.15.21-12.29.54-18.43.29-5.41,1-10.8,1.27-16.21.15-3.11.5-6.2.63-9.31s.48-6.2.78-9.29c.23-2.38.32-4.77.52-7.16.33-3.81.72-7.63.89-11.44a26.72,26.72,0,0,0-1.5-8.7c-1.13-3.83-2.31-7.65-3.48-11.47a97.42,97.42,0,0,1-3-14.29,32,32,0,0,0-1.63-7,8.83,8.83,0,0,0-7.14-6c-5.24-.86-9.8-3.3-14.27-6-.77-2-.84-4.17-1.48-6.2,9.82,4,20.09,5.56,30.61,5.8a4.85,4.85,0,0,1,2.11.32c-1.47.14-1.71,1.25-1.84,2.4-.19,1.83-.36,3.66-.5,5.49-.9,11.38-.74,22.68,2.55,33.76a47.16,47.16,0,0,1,1.68,12.56A240.49,240.49,0,0,1,183,450.54c-1,10.83-2.53,21.59-3.58,32.41C179.17,486,178.84,489,178.53,492Z"/><path class="cls-24" d="M158.42,523.23c.39.73,0,1.41-.17,2.08a6.75,6.75,0,0,0-.26,2.61,3.43,3.43,0,0,0,4,3.21,8.53,8.53,0,0,0,4.2-1.65,38.8,38.8,0,0,0,9.38-9.85,20.69,20.69,0,0,0,3.54-12.24c0-1.6-.08-3.2-.13-4.8,0-.56-.13-1.14.53-1.45a7.44,7.44,0,0,1,1,3.89,120.29,120.29,0,0,1-.26,13.6c-.27,3.32-.17,6.68-.25,10a19.21,19.21,0,0,1-.35,4.75c-1.25-.34-1.11-1.41-1.2-2.33a41.63,41.63,0,0,0-.22-4.27,4.74,4.74,0,0,0-2.26,3.1c-1.42,5.45-5.35,7.68-10.52,8.56a65.66,65.66,0,0,1-14.52.71c-2-.1-3.9-.7-4.51-3a5.84,5.84,0,0,1,2.52-3.34A49,49,0,0,0,158.42,523.23Z"/><path class="cls-4" d="M146.36,536.14a10.41,10.41,0,0,0,6.51,2,62.54,62.54,0,0,0,12.87-1c.94-.19,1.85-.48,2.77-.74a7.84,7.84,0,0,0,6-6.22c.6-3,3.14-4.43,4.58-6.79.72,3.4.21,6.73.52,10,0,1.12,0,2.24,0,3.36,0,.82-.28,1.41-1.23,1.4s-1.18-.61-1.25-1.42c-.14-1.51-.31-3-.49-4.72-.82.46-.89,1.21-1.14,1.78a9.7,9.7,0,0,1-6.79,5.9,51.67,51.67,0,0,1-17.14,1.1,7.62,7.62,0,0,1-3.83-1.28C146.54,538.72,145.58,537.75,146.36,536.14Z"/><path class="cls-13" d="M520.33,214.1c0,5.36.75,10.66,1.17,16,.2,2.54.41,5.1.58,7.63.51,8,1.31,16.07,1.17,24.15a14.36,14.36,0,0,1-.82,4.68c-6,16.61-11.75,33.29-17.09,50.12a4.34,4.34,0,0,1-.32.64,8.62,8.62,0,0,0-1.44,2.33c-1.78,4.4-5.72,4.62-8.95,3.61s-5.34-3.13-7.26-5.63c-1.33-1.74-2.09-1.71-3.12.26a6.31,6.31,0,0,0-.93,3,2.55,2.55,0,0,1-2.25,2.66,2.81,2.81,0,0,1-3.47-1.62c-1.05-2.1-2.06-4.17-1.85-6.6,2.58-2.81,3.37-6.49,4.82-9.85.3-.57.33-1.25.76-1.76,1-3.19,3.66-3.3,6.27-3.59,1.51.13,2.77,1,4.33,1.22a2.57,2.57,0,0,0,3-1.61c1.23-2.52,2.2-5.15,3.31-7.71,3.62-8.34,7-16.77,10.64-25.11,2.2-5.08,1.4-9.9.62-14.92-1-6.47-2.66-12.85-2.42-19.49a11.19,11.19,0,0,1,1.74-5.89c2.25-3.41,4.65-6.69,8.15-9a4.66,4.66,0,0,0,2.35-3.12C519.61,214.14,519.9,213.92,520.33,214.1Z"/><path class="cls-20" d="M487.62,301.4h-1a4.56,4.56,0,0,0-4.65,3c-2.29-.79-4.51.1-6.62.61A66.72,66.72,0,0,1,458.61,307c-4.45-.07-8.92.32-13.33-.1-6.56-.62-13.13.8-19.65-.4-1.06-.19-2.4.07-2.26-1.69,8.71,0,17.43.21,26.12-.52,9.38-.78,18.8-1.3,28.1-2.88a22.5,22.5,0,0,0,9.21-3.87A9.12,9.12,0,0,0,490,294c.78-1.66.64-2.4-.69-3.6-2.72-2.45-2.61-3.68.68-5.39,1.48-.77,3.11-1.25,4.66-1.89,2.33-1,2.36-1.1.8-3.19-.43-.58-.91-1.11-1.38-1.66a14.92,14.92,0,0,1-4-10.26c0-4-.81-7.94-1.13-11.92-.24-2.94-.77-5.86-.76-8.82,0-2-.45-4-.51-6a139.88,139.88,0,0,1,2.56-29.08c2.53-14,5.57-27.91,8.65-41.81a2.17,2.17,0,0,1,.55-1c.33,2.1-.23,4.1-.44,6.12-.53,5.32-1.17,10.63-1.7,16-.49,4.92-1,9.85-1.31,14.78-.22,3.75-.16,7.52-.06,11.27.06,2.19,1.06,2.91,3.32,2.74a21.89,21.89,0,0,0,5.14-1.17,61,61,0,0,0,17.1-8.54c.84-.61,1.52-1.42,2.33-2.06s1.52-1.5,2.73-1.15a1.64,1.64,0,0,1-.54,2.57c-1.93,1.34-3.78,2.78-5.66,4.17l-.52.42c-1.81,2.94-4.82,4.41-7.56,6.22a24.62,24.62,0,0,1-12.68,4.1c-5.05.12-6.22-.82-7.21,6.09-1.46,10.11-.17,19.9,1.52,29.75.3,1.73.65,3.46.8,5.21A20.73,20.73,0,0,0,499.27,278c1.82,2.14,1.63,4.33.27,6.54-.56.92-1,1.91-1.55,2.82a3.76,3.76,0,0,0-.16,4.42c-.32,3.35-2.36,6-3.66,8.94-.32.72-1.1.75-1.86.76A39.05,39.05,0,0,0,487.62,301.4Z"/><path class="cls-13" d="M505.08,75.77l1.22-.05a6.8,6.8,0,0,0,.64,1.27,9.88,9.88,0,0,1,1.86,8.81A26.78,26.78,0,0,1,507.12,91a10.91,10.91,0,0,1-5.56,5.7A50,50,0,0,1,492,99.82c-.68-1.75.21-3.4.51-5a49,49,0,0,1,3.19-11.43c1.59-3.52,3.77-6.51,7.75-7.63A2.32,2.32,0,0,1,505.08,75.77Z"/><path class="cls-22" d="M476.61,315.31A9.1,9.1,0,0,0,478,321a2.47,2.47,0,0,0,2.51,1.46c1.23-.18,1.65-1.07,1.87-2.17.46-2.33,1.85-4.21,3.18-6.09.63-.89,1.12-.86,1.46.18a12,12,0,0,0,3.83,5.38,10.84,10.84,0,0,0,6.44,2.82c2.47.18,4-1.23,5.41-2.94.69-.83,1.05-2,2.27-2.31l-3.89,12.45h-.48a2.58,2.58,0,0,1-2.77.88c-5.24-1-8.66-4.2-10.93-8.81a5.69,5.69,0,0,1-.49-1.44c-.09-.51-.36-.92-.93-.9s-.69.56-.82,1a4.68,4.68,0,0,0,.06,2.59c0,.24,0,.48,0,.73,0,.89,0,1.77,0,2.66-.79,2.81-2.29,5.09-5.14,6.07-2.64.91-3.94-.4-3.27-3.12a11.61,11.61,0,0,1,.8-2.23,2.75,2.75,0,0,0,0-2.89,26.27,26.27,0,0,0-2.54-5.63C473.32,316.66,474.06,315.45,476.61,315.31Z"/><path class="cls-22" d="M505.08,75.77c-4,1.23-6.58,4.17-8.16,7.84a66.42,66.42,0,0,0-3.94,13,14.44,14.44,0,0,1-1,3.19l-.43.09a3.49,3.49,0,0,1-.34-2.77c1-5.5,1.81-11,2.57-16.57.22-1.57-.26-3.22.53-4.72.13.61-.1,1.28.36,2C498,76.42,501.19,74.17,505.08,75.77Z"/><path class="cls-29" d="M472.74,140.21c-.74,1.33-2,1.42-3.32,1.45a21.79,21.79,0,0,1-6.5-1.59c-.45-.21-1-.5-.16-1A89.94,89.94,0,0,1,472.74,140.21Z"/><path class="cls-20" d="M423.36,304.8a2.66,2.66,0,0,0,2.11.94c4.85.33,9.69.72,14.54.06a8.18,8.18,0,0,1,2.15,0c6.68.89,13.4.45,20.09.34A54.68,54.68,0,0,0,475,304.37c1.31-.34,2.65-.59,4-.86a2.66,2.66,0,0,1,3,.94,2.57,2.57,0,0,1-.5,1.47c-2.85.32-5.6,1.12-8.4,1.68a72.72,72.72,0,0,1-13,1.27c-12.93.25-25.83-.49-38.71-1.49-1.16-.09-2.5,0-2.8-1.62a2.62,2.62,0,0,1,2.41-1Z"/><path class="cls-2" d="M418.56,305.76a5.88,5.88,0,0,0,1.61.41,90.52,90.52,0,0,1,9.55.63c4.38.29,8.78.15,13.13.77a17.24,17.24,0,0,0,2.39.11c3.6,0,7.2-.13,10.79,0A74.55,74.55,0,0,0,477,305.56c.85-.2,1.73-.33,2.58-.52a1.51,1.51,0,0,1,2,.87c-.51.57-.41,1.34-.59,2a14.16,14.16,0,0,1-4.31,7.39c-2,1.82-2,1.85-.75,4.14a24.93,24.93,0,0,1,1.79,4.92,3.77,3.77,0,0,1,0,2.61c-.23.91-.47,1.82-.67,2.74-.36,1.67.47,2.58,2.17,2.32,1.87-.29,3-1.62,4-3.06a16.58,16.58,0,0,0,1.2-2.57.41.41,0,0,1,.58,0,.83.83,0,0,1-.14.94,7.62,7.62,0,0,1-5.65,5.93c-2.32.71-3.5-.3-3.45-2.76a5,5,0,0,1,.65-2.53,4.57,4.57,0,0,0,.08-4.36,15.07,15.07,0,0,0-3.23-5.27c-1.27-1.25-1.23-1.68.26-2.85a11.44,11.44,0,0,0,3.29-3.43,10.16,10.16,0,0,0,.82-1.73c.37-1.2.08-1.7-1.22-1.65a43,43,0,0,0-5.71.57,29.09,29.09,0,0,1-5,.34c-.55.53-1.37-.05-1.92.47h-4.32c-1.05.63-2.31-.15-3.36.47-6.79,0-13.6.18-20.38,0-10-.32-19.93-1-29.64-3.69-1.63-.44-3.17-1.08-4.75-1.65a2.32,2.32,0,0,1-1.76-2.74c2.72.84,5.31,2.1,8.19,2.46A67,67,0,0,0,418.56,305.76Z"/><path class="cls-2" d="M484.36,323c-.22-1.92-.23-3.78,1.17-5.31.81.13.83.8,1.08,1.25.49.91.92,1.85,1.41,2.76,2.71,5,6.81,7.86,12.61,8-.29,2.22-.47,2.39-2.62,2.38a12.3,12.3,0,0,1-11.47-8.48c-.33-1-.6-2.12-.95-3.37-.89.7-.72,1.52-.79,2.25C485,323.06,484.77,323.12,484.36,323Z"/><path class="cls-20" d="M484.36,323l.44-.46a5.81,5.81,0,0,1,0,4.8q0-.48,0-1c-.58-.88.06-1.94-.41-2.84Z"/><path class="cls-20" d="M456,310.56c1.05-.65,2.22-.43,3.36-.47C458.31,310.73,457.14,310.52,456,310.56Z"/><path class="cls-20" d="M463.68,310.08a3.21,3.21,0,0,1,1.92-.47A3.21,3.21,0,0,1,463.68,310.08Z"/><path class="cls-1" d="M179,137.77c1.58-.36,2.28-1.59,2.91-2.9a14.17,14.17,0,0,1,12.28-11.67c.8-.1,1.62-.26,2.11.64-.43,2.48-.91,5-1.29,7.44s-.64,4.71.82,6.85c2.3,2.32,5.26,3.24,8.33,3.91,1.09.24,2.21.37,3.31.57.91.16,1.23.72.89,1.56a37.17,37.17,0,0,1-1.71,4,52.44,52.44,0,0,1-10.59,14.12,19.43,19.43,0,0,1-7,4.14c-4.54,1.52-8.48.26-12-2.86s-5.53-7.4-7.28-11.7a43.27,43.27,0,0,1-2.58-9.47c-.42-2.62-.06-3.09,2.67-3.14,1.52,0,3,0,4.56,0A6.87,6.87,0,0,0,179,137.77Z"/><path class="cls-30" d="M468.49,81.69a4.76,4.76,0,0,1-4.31-3.16,6.15,6.15,0,0,1,.89-6.08,3.61,3.61,0,0,1,1.64-.94,7.65,7.65,0,0,1,6,.74,4.68,4.68,0,0,1,.86,7.54A6.75,6.75,0,0,1,468.49,81.69Z"/><path class="cls-31" d="M482.63,68.51c-3.83-.13-7.17-.22-10.51-.35a62.71,62.71,0,0,0-11.69.68c-1.81.27-2.32,0-2.51-1.26s.41-2.1,2-2.4a30.64,30.64,0,0,1,7.64-.24,59,59,0,0,1,12.25,2A4.62,4.62,0,0,1,482.63,68.51Z"/><path class="cls-32" d="M441.59,96A9.55,9.55,0,0,1,434,93.35c-1.11-1-1.06-2-.14-3.2a6.46,6.46,0,0,1,1.72-1.64c4.19-2.43,6-6.47,7.33-10.8a7.35,7.35,0,0,1,1-2.31l.12,2.37a30.7,30.7,0,0,1-.49,5.24,9.53,9.53,0,0,1-3.81,6.64C436.56,92,436.68,93,440,95,440.52,95.3,441,95.66,441.59,96Z"/><path class="cls-33" d="M442.11,108.46l-2.7-1a10.2,10.2,0,0,1-6.13-5.15c1-.24,1.46.5,2.07.86,2,1.18,3.89,2.51,6.25,2.88a12.69,12.69,0,0,0,6.61.24,25.56,25.56,0,0,0,10.54-4.42,1.82,1.82,0,0,1-.83,1.48c-3.59,3.28-7.61,5.52-12.7,5.14C444.19,108.45,443.15,108.48,442.11,108.46Z"/><path class="cls-23" d="M483.46,84.91a58.35,58.35,0,0,0-8.92.66c-2.87.36-5.16,2.29-7.91,3.39C468.43,84.23,478.14,81.72,483.46,84.91Z"/><path class="cls-1" d="M226.14,100.52a8,8,0,0,1-1.94,2.41,66.93,66.93,0,0,1-26.28,15.68,6.82,6.82,0,0,1-4.45,2.49,61.34,61.34,0,0,1-8,1,6.43,6.43,0,0,1-5-1.63v0c-2.64-2.68-1.56-5.85-1.21-8.93.6-1.24,1.63-1.34,2.83-1.13a13.8,13.8,0,0,0,6.16-.46c2.12-.6,4.18-1.4,5-3.91.43-1.29,1.65-2.28,2.27-3.54.5-1,.4-2.15-1.07-1.82-3.07.67-6.08,0-9.1-.12a48.59,48.59,0,0,0-5.47.23c-1.79-.89-2.24-2.84-3.38-4.25a3.26,3.26,0,0,0-1.34-2.25c-2.36-2.15-2.51-3.37-.59-5.79a29.66,29.66,0,0,0,3.64-4.8c1-2,2.16-3.95,1-6.31a3.71,3.71,0,0,1-.07-2.12,161.9,161.9,0,0,0-.36-21.85c-.07-1-.11-1.91.78-2.58,10.81-2.52,20.79-7.12,30.51-12.33a1.58,1.58,0,0,1,1.18-.29c.58.46.3,1.13.27,1.72a17.2,17.2,0,0,0,5,13.73c2.08,2.09,4,4.36,5.9,6.59a24.53,24.53,0,0,1,5.73,12.94c.23,1.69.05,3.56,1.37,5,1.66.34,2.16,1.48,2,3-.61,5.91-2.35,11.59-3.6,17.37C227.65,99.55,226.6,99.79,226.14,100.52Z"/><path class="cls-34" d="M177.64,96a5.69,5.69,0,0,1,1,2.07,2.48,2.48,0,0,0,1.35,1.8c-.11,1.51-1.1,1.2-2,1a8.92,8.92,0,0,0-5,.13c-1.08.33-1.33.8-.8,1.68,1.73,2.85,3.16,6,6.73,7.1.68.21,1.36.59,1.08,1.55a49.61,49.61,0,0,0,.44,9.26,4.35,4.35,0,0,1-1.88-.28c-7-2.75-13.55-6.09-18.86-11.53a31.09,31.09,0,0,1-8.39-17.14,3.79,3.79,0,0,0-1.56-2.79,12.53,12.53,0,0,0,1-4.9,67.89,67.89,0,0,0-.55-10.76,14,14,0,0,0-3.1-6.91,3.53,3.53,0,0,0-2.65-1.46c1.66-.81,3.1,0,4.55.62.79.35,1.39,1.08,2.32,1.27.66-.44.43-1.14.43-1.72,0-3.43,0-6.87,0-10.3,0-1.65.2-1.87,1.76-1.88a203,203,0,0,0,26-1.86,101.18,101.18,0,0,1,1,15.2c-.06,3.26,0,6.52,0,9.78a19.66,19.66,0,0,1-6.22,13c-2,2-1.74,3.37.52,5.25A7.35,7.35,0,0,0,177.64,96Z"/><path class="cls-19" d="M226.14,100.52c1.62-3.08,2.1-6.46,2.68-9.82.53-3,1-6.11,1.45-9.16a3.39,3.39,0,0,0-.83-3.3,5.93,5.93,0,0,0,2.85-1.07,13.06,13.06,0,0,1,6.29-1.93,4.22,4.22,0,0,1,2.52.52c-3.76,1-6.13,3.74-7.72,7-2.29,4.67-3.38,9.78-4.57,14.83-.18.78-.14,1.43.69,1.8Z"/><path class="cls-19" d="M180.43,120.52c5.36,1.11,10.53-.06,15.68-1.34.61-.15,1.21-.38,1.81-.57-.69,1.69-.76,3.58-1.58,5.23-2.77.69-5.58,1.29-8,2.93a6.23,6.23,0,0,0-1.68,1.3c-1.59,2.25-3.68,4.15-4.71,6.79a71.07,71.07,0,0,0-.54-11.71A4.38,4.38,0,0,0,180.43,120.52Z"/><path class="cls-30" d="M437.39,74.09c0,3.42-2,5.65-5.05,5.68-3.25,0-6.14-2.52-6.14-5.42s2.26-5,5.74-5.06S437.35,70.82,437.39,74.09Z"/><path class="cls-31" d="M417.66,64.58c1.3-.86,2.86-.86,4.32-1.06a54.51,54.51,0,0,1,16.9.31,5,5,0,0,1,2.24.75,1.83,1.83,0,0,1,.63,2.33,1.39,1.39,0,0,1-1.86,1c-7-2-14.14-2.28-21.3-2.7C418.21,65.19,417.77,65.22,417.66,64.58Z"/><path class="cls-35" d="M417.33,84.09c1.61-1.89,3.83-1.94,5.88-1.83,4.52.25,6.89,1.54,8.75,4.34-1.84,0-3.17-1.18-4.73-1.59a18.92,18.92,0,0,0-4.89-1C420.69,84,419,84.11,417.33,84.09Z"/><path class="cls-22" d="M499.62,223.6a9.67,9.67,0,0,1,2.12-.33c2.68.17,5-.84,7.29-2,3.76-2,7.16-4.53,10.79-6.71.21,1.88-1,3-2.31,3.93a34,34,0,0,0-7.16,8,11.21,11.21,0,0,0-2.06,6.75c0,6.11,1.23,12.06,2.15,18.06.4,2.61.84,5.21,1.37,7.79a7,7,0,0,1-.26,3.76c-1.57,4.79-3.67,9.37-5.59,14-3.16,7.69-6.43,15.33-9.65,23-.19.44-.39.88-.56,1.32a1.8,1.8,0,0,1-2.46,1.23c-1.84-.57-3.83-.28-5.66-1,1.21-.58,2.51-.35,3.77-.44a2.12,2.12,0,0,0,2.08-1.3c1.1-2.65,2.65-5.1,3.39-7.9a17.75,17.75,0,0,1,1.56-5.17c3.16-8.08,6.84-16,9.33-24.31.87-2.92.18-5.89-.28-8.8-1.34-8.53-3.19-17-5-25.4C502.06,226.07,500.41,225.19,499.62,223.6Z"/><path class="cls-8" d="M484.39,323.55a5.68,5.68,0,0,1,.41,2.84h-.44Z"/><path class="cls-20" d="M477.63,327q0-1.31,0-2.61A2.48,2.48,0,0,1,477.63,327Z"/><path class="cls-36" d="M471.44,73.33a1.61,1.61,0,0,1,0,3.22,1.58,1.58,0,0,1-1.64-1.64A1.54,1.54,0,0,1,471.44,73.33Z"/><path class="cls-37" d="M225.1,93.11c-.32,6.44-4.86,11.32-11.36,11.24a10.76,10.76,0,0,1-11-11.23,10.76,10.76,0,0,1,11-11.24C220.2,81.79,224.77,86.64,225.1,93.11Z"/><path class="cls-3" d="M180,111.28c-.75-.26-1.5-.5-2.25-.77a6.51,6.51,0,0,1-3.92-3.27,26.51,26.51,0,0,0-3.35-5.74,1.2,1.2,0,0,1-.23-1.53c.4-.57,1-.41,1.5-.17a3.49,3.49,0,0,0,2.56,0,5.23,5.23,0,0,1,4.59.21c.35.21.77,0,1.13-.19a10.58,10.58,0,0,1,5.18-.36c3.39.42,6.76,1.18,10.2.34a3,3,0,0,1,1.19,0c1,.18,1.39.93.7,1.71a23.68,23.68,0,0,0-2.57,4.29c-2,3.59-5.28,5.19-9.25,5.47C183.67,111.44,181.83,111.3,180,111.28Z"/><path class="cls-30" d="M212.4,71.08c-.27.63-.3.85-.4.9-1.44.64-1.52,1.55-1.08,3,.92,3.07-1.21,5.91-4.64,6.56a5.19,5.19,0,0,1-6.44-4.48c-.34-2.49.66-4.38,2.86-5.2C205.77,70.75,208.94,71.06,212.4,71.08Z"/><path class="cls-31" d="M208.21,63.33a12.13,12.13,0,0,1,8,2.49c.43.32,1,.74.54,1.36-.33.46-.9.25-1.32,0-4.7-2.46-9.29-1.33-13.86.39-.52.2-1,.44-1.55.62s-1.29.23-1.64-.5a1.4,1.4,0,0,1,.42-1.92,8.73,8.73,0,0,1,1.9-1A26.6,26.6,0,0,1,208.21,63.33Z"/><path class="cls-38" d="M177.64,96c-2,.07-5.54-2.12-6.08-3.81a2.87,2.87,0,0,1,.53-2.7A15.44,15.44,0,0,1,174,87.36a19.26,19.26,0,0,0,5.62-9.26c.22-.76.54-1.49.82-2.23.59,4.86-1.2,8.92-4.26,12.54-.36.43-.75.83-1.07,1.29-1.09,1.55-1,2.44.23,3.82Z"/><path class="cls-22" d="M161.08,99.34c-3.07.36-6.22-3-6.47-6.49a9.11,9.11,0,0,1,.93-4.87,6,6,0,0,1,5.41-3.38,5.83,5.83,0,0,1,5.5,3.22c1.55,3,1.74,7.15-1.53,10.07A5.1,5.1,0,0,1,161.08,99.34Z"/><path class="cls-30" d="M165.29,71a17.19,17.19,0,0,1,5.19.66c2.62.84,3.66,2.6,3.3,5.56a4.92,4.92,0,0,1-4.58,4.42c-4.41.33-7.37-3-6.26-7.22.26-1,.39-1.67-.73-2.09-.36-.13-.74-.42-.57-.89s.64-.42,1-.43C163.54,71,164.41,71,165.29,71Z"/><path class="cls-31" d="M165.22,63.33a28.4,28.4,0,0,1,7.73,1.47,8.51,8.51,0,0,1,1.52.69c.83.48,1.41,1.13.9,2.15s-1.31.77-2.07.44a28.72,28.72,0,0,0-6.62-2,12.36,12.36,0,0,0-7.93,1,5.48,5.48,0,0,1-.89.36c-.4.12-.81.12-1-.31a.67.67,0,0,1,.27-.84,10.68,10.68,0,0,1,1.7-1.3A11.68,11.68,0,0,1,165.22,63.33Z"/><path class="cls-39" d="M433.59,71.25A1.78,1.78,0,0,1,435.22,73a1.67,1.67,0,0,1-1.72,1.6,1.58,1.58,0,0,1-1.59-1.69A1.66,1.66,0,0,1,433.59,71.25Z"/><path class="cls-40" d="M221.26,93.15c0,4.14-3.39,7.74-7.4,7.53-4.33-.23-7.36-3.11-7.43-7.52a7.33,7.33,0,0,1,7.42-7.5A7.25,7.25,0,0,1,221.26,93.15Z"/><path class="cls-41" d="M172.26,101.07c7.87,1.31,15.32.87,22.78.2a2.3,2.3,0,0,1-.91,2.12c-3.92,4.34-12,5.91-17.28,3.37A8.37,8.37,0,0,1,172.26,101.07Z"/><path class="cls-42" d="M191.32,107.43c-2.11,2.1-4.51,3.31-7.49,2.89-.4-.06-.81-.2-.8-.7s.34-.53.65-.6C186.22,108.48,188.78,108,191.32,107.43Z"/><path class="cls-43" d="M207.39,73.31a1.65,1.65,0,0,1,1.71,1.62,1.7,1.7,0,0,1-1.72,1.63,1.63,1.63,0,0,1,0-3.26Z"/><path class="cls-44" d="M166.16,76.58a1.66,1.66,0,0,1-1.53-1.76,1.6,1.6,0,0,1,1.75-1.52A1.63,1.63,0,0,1,167.93,75,1.7,1.7,0,0,1,166.16,76.58Z"/><path class="cls-45" d="M213.86,89.15a3.93,3.93,0,0,1,4,3.86,4.22,4.22,0,0,1-4,4.24,4.39,4.39,0,0,1-4.07-4A4,4,0,0,1,213.86,89.15Z"/></g></g></svg>