<?xml version="1.0" encoding="iso-8859-1"?>
<!-- Generator: Adobe Illustrator 16.0.0, SVG Export Plug-In . SVG Version: 6.00 Build 0)  -->
<!DOCTYPE svg PUBLIC "-//W3C//DTD SVG 1.1//EN" "http://www.w3.org/Graphics/SVG/1.1/DTD/svg11.dtd">
<svg xmlns="http://www.w3.org/2000/svg" xmlns:xlink="http://www.w3.org/1999/xlink" version="1.1" id="Capa_1" x="0px" y="0px" width="512px" height="512px" viewBox="0 0 44.276 44.276" style="enable-background:new 0 0 44.276 44.276;" xml:space="preserve">
<g>
	<g>
		<path d="M15.659,13.688c-4.118,0-7.468,3.35-7.468,7.467c0,4.117,3.35,7.467,7.468,7.467c4.117,0,7.467-3.35,7.467-7.467    C23.126,17.038,19.777,13.688,15.659,13.688z M15.659,26.797c-3.11,0-5.642-2.531-5.642-5.642c0-3.11,2.531-5.641,5.642-5.641    s5.641,2.531,5.641,5.641C21.3,24.266,18.77,26.797,15.659,26.797z" fill="#009b81"/>
		<path d="M33.363,14.114c0-0.504-0.409-0.913-0.914-0.913h-7.001c-0.505,0-0.913,0.409-0.913,0.913v3.517    c0,0.504,0.408,0.913,0.913,0.913h7.001c0.505,0,0.914-0.409,0.914-0.913V14.114z M26.346,15.013h5.158v1.673h-5.158V15.013z" fill="#009b81"/>
		<path d="M38.613,19.396v-9.6c0-1.009-0.814-1.845-1.823-1.845H18.493v-3.45c0-1.009-0.796-1.848-1.805-1.848H6.203    c-1.008,0-1.835,0.839-1.835,1.848V7.95H1.833C0.825,7.95,0,8.786,0,9.795v22.721c0,1.009,0.825,1.826,1.833,1.826h25.265    c2.533,3.947,6.5,6.846,6.744,7.021c0.238,0.174,0.521,0.26,0.803,0.26c0.266,0,0.531-0.078,0.763-0.232    c0.36-0.243,8.869-6.03,8.869-13.221C44.276,24.273,41.95,20.91,38.613,19.396z M8.039,6.324h6.83v1.58h-6.83V6.324z M3.671,30.67    V11.621h31.271v6.923c-0.101-0.003-0.199-0.005-0.3-0.005c-5.312,0-9.633,4.321-9.633,9.631c0,0.847,0.135,1.684,0.367,2.502    H3.671V30.67z M34.661,38.542c-2.472-1.99-6.911-6.395-6.911-10.371c0-3.801,3.094-6.894,6.895-6.894    c3.8,0,6.893,3.093,6.893,6.894C41.536,32.786,36.613,37.038,34.661,38.542z" fill="#009b81"/>
		<path d="M34.742,24.333c-2.141,0-3.883,1.742-3.883,3.883c0,2.142,1.742,3.884,3.883,3.884c2.143,0,3.884-1.742,3.884-3.884    C38.626,26.075,36.885,24.333,34.742,24.333z M34.742,31.079c-1.578,0-2.861-1.285-2.861-2.863s1.283-2.862,2.861-2.862    s2.861,1.284,2.861,2.862C37.605,29.793,36.321,31.079,34.742,31.079z" fill="#009b81"/>
	</g>
</g>
<g>
</g>
<g>
</g>
<g>
</g>
<g>
</g>
<g>
</g>
<g>
</g>
<g>
</g>
<g>
</g>
<g>
</g>
<g>
</g>
<g>
</g>
<g>
</g>
<g>
</g>
<g>
</g>
<g>
</g>
</svg>
